<svg width="16" height="18" viewBox="0 0 16 18" fill="none" xmlns="http://www.w3.org/2000/svg">
<path fill-rule="evenodd" clip-rule="evenodd" d="M7.5 16.0938C10.7792 16.0938 13.4375 13.4354 13.4375 10.1562C13.4375 6.87706 10.7792 4.21875 7.5 4.21875C4.22081 4.21875 1.5625 6.87706 1.5625 10.1562C1.5625 13.4354 4.22081 16.0938 7.5 16.0938ZM7.5 17.6562C11.6421 17.6562 15 14.2984 15 10.1562C15 6.01411 11.6421 2.65625 7.5 2.65625C3.35786 2.65625 0 6.01411 0 10.1562C0 14.2984 3.35786 17.6562 7.5 17.6562Z" fill="#728094"/>
<path fill-rule="evenodd" clip-rule="evenodd" d="M6.71875 10.3125V6.40625C6.71875 5.97478 7.06853 5.625 7.5 5.625C7.93147 5.625 8.28125 5.97478 8.28125 6.40625V10.3125C8.28125 10.744 7.93147 11.0938 7.5 11.0938C7.06853 11.0937 6.71875 10.744 6.71875 10.3125Z" fill="#728094"/>
<path fill-rule="evenodd" clip-rule="evenodd" d="M10.1562 0.78125C10.1562 1.21272 9.80647 1.5625 9.375 1.5625L5.625 1.5625C5.19353 1.5625 4.84375 1.21272 4.84375 0.78125C4.84375 0.349777 5.19353 -3.77205e-08 5.625 0L9.375 3.27835e-07C9.80647 3.65556e-07 10.1563 0.349778 10.1562 0.78125Z" fill="#728094"/>
<path fill-rule="evenodd" clip-rule="evenodd" d="M14.3024 2.72882L14.9274 3.35382C15.2325 3.65892 15.2325 4.15358 14.9274 4.45867C14.6223 4.76377 14.1277 4.76377 13.8226 4.45867L13.1976 3.83367C12.8925 3.52858 12.8925 3.03392 13.1976 2.72882C13.5027 2.42372 13.9973 2.42372 14.3024 2.72882Z" fill="#728094"/>
</svg>
