<svg width="43" height="64" viewBox="0 0 43 64" fill="none" xmlns="http://www.w3.org/2000/svg">
<path d="M2 38.5V16.5C2 7 8 3 15.5 2" stroke="black" stroke-width="3" stroke-linecap="round"/>
<path d="M23.0855 2C38.982 10.0637 43 39.5 18.0001 47.5" stroke="black" stroke-width="3" stroke-linecap="round"/>
<path d="M13 36.5V16.2953C13 13.9231 14.9231 12 17.2953 12V12C21.1682 12 23.0631 16.7223 20.2644 19.3993L19.9597 19.6907C18.0893 21.4798 18.1273 24.4794 20.0425 26.2204L22 28" stroke="black" stroke-width="3" stroke-linecap="round"/>
<path d="M7.5 16.9086C7.5 10.1061 14.1644 5.30261 20.6179 7.45377C22.2737 8.00572 23.7556 8.98285 24.9152 10.2874L25.4224 10.858C26.2866 11.8303 26.9979 12.9285 27.5318 14.1148L28.0274 15.2161C29.9045 19.3874 30.3479 24.0628 29.2884 28.5127L28.9714 29.844C28.7119 30.9338 28.3279 31.9901 27.8269 32.9921C27.125 34.3958 26.2014 35.6772 25.0917 36.787L24.5046 37.3741C23.2721 38.6066 21.8199 39.5978 20.2229 40.2965L17.9905 41.2731C16.3299 41.9997 14.4621 42.0992 12.7337 41.5534C9.61813 40.5696 7.5 37.6794 7.5 34.4122V16.9086Z" stroke="black" stroke-width="3"/>
<path d="M0.6 62.448V55.248C0.6 55.048 0.648 54.892 0.744 54.78C0.848 54.66 0.98 54.6 1.14 54.6H3.144C4.416 54.6 5.38 54.92 6.036 55.56C6.7 56.2 7.032 57.208 7.032 58.584C7.032 61.528 5.776 63 3.264 63H1.212C0.804 63 0.6 62.816 0.6 62.448ZM2.904 56.88V60.468C2.904 60.636 2.916 60.744 2.94 60.792C2.964 60.832 3.036 60.852 3.156 60.852C3.596 60.852 3.928 60.688 4.152 60.36C4.384 60.032 4.5 59.488 4.5 58.728C4.5 57.96 4.38 57.46 4.14 57.228C3.908 56.996 3.536 56.88 3.024 56.88H2.904ZM13.9585 63.12C12.8385 63.12 11.9225 62.752 11.2105 62.016C10.5065 61.28 10.1545 60.208 10.1545 58.8C10.1545 57.384 10.5105 56.312 11.2225 55.584C11.9425 54.856 12.8665 54.492 13.9945 54.492C15.1305 54.492 16.0465 54.852 16.7425 55.572C17.4385 56.284 17.7865 57.368 17.7865 58.824C17.7865 60.272 17.4305 61.352 16.7185 62.064C16.0065 62.768 15.0865 63.12 13.9585 63.12ZM13.9705 56.796C13.5865 56.796 13.2625 56.972 12.9985 57.324C12.7425 57.676 12.6145 58.172 12.6145 58.812C12.6145 59.444 12.7385 59.932 12.9865 60.276C13.2345 60.612 13.5585 60.78 13.9585 60.78C14.3665 60.78 14.6945 60.608 14.9425 60.264C15.1985 59.92 15.3265 59.428 15.3265 58.788C15.3265 58.148 15.1945 57.656 14.9305 57.312C14.6745 56.968 14.3545 56.796 13.9705 56.796ZM23.442 62.832C23.442 62.96 23.062 63.024 22.302 63.024C21.534 63.024 21.15 62.964 21.15 62.844V55.02C21.15 54.74 21.298 54.6 21.594 54.6H23.886C25.99 54.6 27.042 55.42 27.042 57.06C27.042 57.556 26.946 58.008 26.754 58.416C26.562 58.816 26.29 59.136 25.938 59.376L27.45 61.896C27.386 62.088 27.178 62.308 26.826 62.556C26.346 62.9 25.95 63.072 25.638 63.072C25.326 63.072 25.094 62.96 24.942 62.736L23.814 60.108H23.442V62.832ZM23.442 56.724V58.524H23.502C24.262 58.524 24.642 58.208 24.642 57.576C24.642 57.288 24.566 57.076 24.414 56.94C24.27 56.796 24.03 56.724 23.694 56.724H23.442ZM34.1921 63.12C33.0721 63.12 32.1561 62.752 31.4441 62.016C30.7401 61.28 30.3881 60.208 30.3881 58.8C30.3881 57.384 30.7441 56.312 31.4561 55.584C32.1761 54.856 33.1001 54.492 34.2281 54.492C35.3641 54.492 36.2801 54.852 36.9761 55.572C37.6721 56.284 38.0201 57.368 38.0201 58.824C38.0201 60.272 37.6641 61.352 36.9521 62.064C36.2401 62.768 35.3201 63.12 34.1921 63.12ZM34.2041 56.796C33.8201 56.796 33.4961 56.972 33.2321 57.324C32.9761 57.676 32.8481 58.172 32.8481 58.812C32.8481 59.444 32.9721 59.932 33.2201 60.276C33.4681 60.612 33.7921 60.78 34.1921 60.78C34.6001 60.78 34.9281 60.608 35.1761 60.264C35.4321 59.92 35.5601 59.428 35.5601 58.788C35.5601 58.148 35.4281 57.656 35.1641 57.312C34.9081 56.968 34.5881 56.796 34.2041 56.796Z" fill="black"/>
</svg>
