<svg width="1024" height="530" viewBox="0 0 1024 530" fill="none" xmlns="http://www.w3.org/2000/svg">
<path d="M52.3285 323.566C44.2667 307.99 -0.768025 273.353 -116.413 259.412C-260.97 241.987 -382.539 269.201 -423.844 279.187C-465.148 289.174 -636.719 322.599 -704.379 339.024C-737.721 347.118 -874.354 352.832 -951 348.654" stroke="#DFBED8" stroke-opacity="0.6"/>
<path d="M79.9178 315.706C71.8561 300.13 26.8213 265.493 -88.824 251.553C-233.381 234.127 -354.95 261.341 -396.254 271.328C-437.559 281.314 -609.13 314.739 -676.79 331.164C-710.132 339.258 -846.765 344.972 -923.41 340.794" stroke="#DFBED8" stroke-opacity="0.6"/>
<path d="M107.504 307.812C99.4428 292.236 54.408 257.6 -61.2374 243.659C-205.794 226.233 -327.363 253.447 -368.668 263.434C-409.972 273.421 -581.543 306.846 -649.203 323.271C-682.545 331.365 -819.178 337.079 -895.824 332.9" stroke="#DFBED8" stroke-opacity="0.6"/>
<path d="M135.087 299.884C127.025 284.308 81.9905 249.671 -33.6549 235.73C-178.212 218.305 -299.781 245.519 -341.085 255.505C-382.39 265.492 -553.961 298.917 -621.621 315.342C-654.962 323.436 -791.596 329.15 -868.241 324.972" stroke="#DFBED8" stroke-opacity="0.6"/>
<path d="M162.666 291.917C154.604 276.341 109.57 241.705 -6.07576 227.764C-150.632 210.338 -272.202 237.552 -313.506 247.539C-354.811 257.526 -526.382 290.951 -594.042 307.376C-627.383 315.47 -764.017 321.184 -840.662 317.005" stroke="#DFBED8" stroke-opacity="0.6"/>
<path d="M190.241 283.905C182.179 268.329 137.145 233.692 21.4992 219.752C-123.058 202.326 -244.627 229.54 -285.931 239.527C-327.236 249.514 -498.807 282.939 -566.467 299.364C-599.808 307.458 -736.442 313.172 -813.087 308.993" stroke="#DFBED8" stroke-opacity="0.6"/>
<path d="M217.81 275.835C209.748 260.259 164.713 225.622 49.0678 211.682C-95.4889 194.256 -217.058 221.47 -258.363 231.457C-299.667 241.443 -471.238 274.868 -538.898 291.293C-572.24 299.387 -708.873 305.101 -785.519 300.923" stroke="#DFBED8" stroke-opacity="0.6"/>
<path d="M245.37 267.686C237.309 252.11 192.274 217.473 76.6286 203.533C-67.9281 186.107 -189.497 213.321 -230.802 223.308C-272.106 233.294 -443.677 266.719 -511.337 283.144C-544.679 291.238 -681.312 296.952 -757.958 292.774" stroke="#DFBED8" stroke-opacity="0.6"/>
<path d="M272.918 259.411C264.857 243.836 219.822 209.199 104.176 195.258C-40.3803 177.833 -161.949 205.046 -203.254 215.033C-244.558 225.02 -416.129 258.445 -483.79 274.87C-517.131 282.964 -653.764 288.678 -730.41 284.5" stroke="#DFBED8" stroke-opacity="0.6"/>
<path d="M300.432 250.883C292.37 235.307 247.335 200.67 131.69 186.73C-12.8666 169.304 -134.436 196.518 -175.74 206.505C-217.045 216.492 -388.616 249.917 -456.276 266.342C-489.617 274.436 -626.251 280.15 -702.896 275.971" stroke="#DFBED8" stroke-opacity="0.6"/>
<path d="M327.893 241.888C319.832 226.313 274.797 191.676 159.152 177.735C14.5948 160.31 -106.974 187.523 -148.279 197.51C-189.583 207.497 -361.154 240.922 -428.815 257.347C-462.156 265.441 -598.789 271.155 -675.435 266.977" stroke="#DFBED8" stroke-opacity="0.6"/>
<path d="M355.421 233.43C347.359 217.854 302.324 183.217 186.679 169.277C42.1222 151.851 -79.447 179.065 -120.751 189.052C-162.056 199.039 -333.627 232.463 -401.287 248.889C-434.629 256.983 -571.262 262.696 -647.908 258.518" stroke="#DFBED8" stroke-opacity="0.6"/>
<path d="M383.066 226.177C375.005 210.601 329.97 175.964 214.325 162.023C69.7679 144.598 -51.8013 171.812 -93.1057 181.798C-134.41 191.785 -305.981 225.21 -373.641 241.635C-406.983 249.729 -543.616 255.443 -620.262 251.265" stroke="#DFBED8" stroke-opacity="0.6"/>
<path d="M410.81 220.265C402.748 204.689 357.714 170.052 242.068 156.112C97.5116 138.686 -24.0576 165.9 -65.3621 175.887C-106.667 185.873 -278.238 219.298 -345.898 235.724C-379.239 243.818 -515.873 249.531 -592.518 245.353" stroke="#DFBED8" stroke-opacity="0.6"/>
<path d="M438.613 215.508C430.551 199.932 385.516 165.295 269.871 151.354C125.314 133.929 3.74489 161.143 -37.5596 171.129C-78.8641 181.116 -250.435 214.541 -318.095 230.966C-351.437 239.06 -488.07 244.774 -564.716 240.596" stroke="#DFBED8" stroke-opacity="0.6"/>
<path d="M466.442 211.644C458.38 196.068 413.346 161.431 297.7 147.491C153.143 130.065 31.5742 157.279 -9.73024 167.266C-51.0347 177.252 -222.606 210.677 -290.266 227.102C-323.607 235.196 -460.241 240.91 -536.886 236.732" stroke="#DFBED8" stroke-opacity="0.6"/>
<path d="M494.284 208.457C486.222 192.881 441.187 158.244 325.542 144.304C180.985 126.878 59.4158 154.092 18.1113 164.079C-23.1932 174.065 -194.764 207.49 -262.424 223.915C-295.766 232.009 -432.399 237.723 -509.045 233.545" stroke="#DFBED8" stroke-opacity="0.6"/>
<path d="M522.129 205.783C514.067 190.207 469.033 155.57 353.387 141.629C208.83 124.204 87.2612 151.418 45.9568 161.404C4.6523 171.391 -166.919 204.816 -234.579 221.241C-267.92 229.335 -404.554 235.049 -481.199 230.871" stroke="#DFBED8" stroke-opacity="0.6"/>
<path d="M550 203.522C541.938 187.946 496.904 153.309 381.258 139.369C236.702 121.943 115.132 149.157 73.8279 159.144C32.5234 169.13 -139.048 202.555 -206.708 218.98C-240.049 227.074 -376.683 232.788 -453.328 228.61" stroke="#DFBED8" stroke-opacity="0.6"/>
<path d="M577.798 201.933C569.737 186.357 524.702 151.72 409.057 137.78C264.5 120.354 142.931 147.568 101.626 157.555C60.3217 167.541 -111.249 200.966 -178.909 217.392C-212.251 225.486 -348.884 231.199 -425.53 227.021" stroke="#DFBED8" stroke-opacity="0.6"/>
<path d="M605.619 200.952C597.557 185.376 552.523 150.739 436.877 136.799C292.32 119.373 170.751 146.587 129.447 156.574C88.1423 166.56 -83.4288 199.985 -151.089 216.411C-184.43 224.505 -321.064 230.218 -397.709 226.04" stroke="#DFBED8" stroke-opacity="0.6"/>
<path d="M633.422 200.511C625.36 184.935 580.326 150.298 464.68 136.358C320.124 118.932 198.554 146.146 157.25 156.133C115.946 166.12 -55.6255 199.544 -123.286 215.97C-156.627 224.064 -293.261 229.777 -369.906 225.599" stroke="#DFBED8" stroke-opacity="0.6"/>
<path d="M661.202 200.59C653.14 185.014 608.106 150.377 492.46 136.437C347.903 119.011 226.334 146.225 185.03 156.212C143.725 166.199 -27.8457 199.624 -95.5059 216.049C-128.847 224.143 -265.481 229.857 -342.126 225.678" stroke="#DFBED8" stroke-opacity="0.6"/>
<path d="M688.955 201.189C680.893 185.613 635.859 150.976 520.213 137.036C375.657 119.61 254.087 146.824 212.783 156.811C171.478 166.798 -0.0925717 200.223 -67.7527 216.648C-101.094 224.742 -237.728 230.456 -314.373 226.277" stroke="#DFBED8" stroke-opacity="0.6"/>
<path d="M716.675 202.32C708.613 186.744 663.578 152.107 547.933 138.166C403.376 120.741 281.807 147.955 240.503 157.941C199.198 167.928 27.6272 201.353 -40.033 217.778C-73.3745 225.872 -210.008 231.586 -286.653 227.408" stroke="#DFBED8" stroke-opacity="0.6"/>
<path d="M744.355 204.001C736.293 188.425 691.258 153.788 575.613 139.848C431.056 122.422 309.487 149.636 268.183 159.623C226.878 169.609 55.3071 203.034 -12.3531 219.459C-45.6945 227.553 -182.328 233.267 -258.973 229.089" stroke="#DFBED8" stroke-opacity="0.6"/>
<path d="M771.988 206.26C763.926 190.684 718.891 156.047 603.246 142.107C458.689 124.681 337.12 151.895 295.816 161.882C254.511 171.869 82.9401 205.294 15.28 221.719C-18.0615 229.813 -154.695 235.527 -231.34 231.348" stroke="#DFBED8" stroke-opacity="0.6"/>
<path d="M799.563 209.132C791.502 193.556 746.467 158.919 630.821 144.979C486.265 127.553 364.696 154.767 323.391 164.754C282.087 174.741 110.516 208.166 42.8554 224.591C9.51395 232.685 -127.119 238.399 -203.765 234.22" stroke="#DFBED8" stroke-opacity="0.6"/>
<path d="M827.07 212.658C819.008 197.083 773.974 162.446 658.328 148.505C513.772 131.08 392.202 158.294 350.898 168.28C309.593 178.267 138.022 211.692 70.3622 228.117C37.0208 236.211 -99.6126 241.925 -176.258 237.747" stroke="#DFBED8" stroke-opacity="0.6"/>
<path d="M854.495 216.89C846.433 201.314 801.398 166.677 685.753 152.737C541.196 135.311 419.627 162.525 378.322 172.512C337.018 182.498 165.447 215.923 97.7868 232.349C64.4454 240.443 -72.188 246.156 -148.834 241.978" stroke="#DFBED8" stroke-opacity="0.6"/>
<path d="M881.82 221.887C873.758 206.311 828.723 171.674 713.078 157.733C568.521 140.308 446.952 167.522 405.647 177.508C364.343 187.495 192.772 220.92 125.112 237.345C91.7703 245.439 -44.8631 251.153 -121.509 246.975" stroke="#DFBED8" stroke-opacity="0.6"/>
<path d="M909.023 227.721C900.961 212.146 855.926 177.509 740.281 163.568C595.724 146.143 474.155 173.357 432.85 183.343C391.546 193.33 219.975 226.755 152.315 243.18C118.973 251.274 -17.6602 256.988 -94.3057 252.81" stroke="#DFBED8" stroke-opacity="0.6"/>
<path d="M936.077 234.478C928.015 218.902 882.98 184.266 767.335 170.325C622.778 152.9 501.209 180.113 459.904 190.1C418.6 200.087 247.029 233.512 179.369 249.937C146.027 258.031 9.39379 263.745 -67.2517 259.566" stroke="#DFBED8" stroke-opacity="0.6"/>
<path d="M962.945 242.262C954.884 226.687 909.849 192.05 794.204 178.109C649.647 160.684 528.078 187.898 486.773 197.884C445.469 207.871 273.898 241.296 206.237 257.721C172.896 265.815 36.2627 271.529 -40.3828 267.351" stroke="#DFBED8" stroke-opacity="0.6"/>
<path d="M989.584 251.197C981.522 235.621 936.487 200.984 820.842 187.044C676.285 169.618 554.716 196.832 513.411 206.819C472.107 216.806 300.536 250.231 232.876 266.656C199.534 274.75 62.9009 280.464 -13.7447 276.285" stroke="#DFBED8" stroke-opacity="0.6"/>
<path d="M1015.93 261.433C1007.87 245.857 962.833 211.22 847.187 197.28C702.63 179.854 581.061 207.068 539.757 217.055C498.452 227.041 326.881 260.466 259.221 276.892C225.88 284.986 89.2463 290.699 12.6008 286.521" stroke="#DFBED8" stroke-opacity="0.6"/>
</svg>
