<svg width="915" height="190" viewBox="0 0 915 190" fill="none" xmlns="http://www.w3.org/2000/svg">
<path d="M673.058 85.6846C715.391 54.3513 831.258 -2.8154 956.058 19.1846C1112.06 46.6846 1180.06 119.185 1276.06 128.685C1352.86 136.285 1383.72 116.185 1389.56 105.185" stroke="#DFBED8" stroke-opacity="0.6"/>
<path d="M653.108 84.2686C695.442 52.9353 811.308 -4.23141 936.108 17.7686C1092.11 45.2686 1160.11 117.769 1256.11 127.269C1332.91 134.869 1363.78 114.769 1369.61 103.769" stroke="#DFBED8" stroke-opacity="0.6"/>
<path d="M633.229 82.0752C675.562 50.7419 791.429 -6.42477 916.229 15.5752C1072.23 43.0752 1140.23 115.575 1236.23 125.075C1313.03 132.675 1343.9 112.575 1349.73 101.575" stroke="#DFBED8" stroke-opacity="0.6"/>
<path d="M613.433 79.2246C655.766 47.8913 771.633 -9.27536 896.433 12.7246C1052.43 40.2246 1120.43 112.725 1216.43 122.225C1293.23 129.825 1324.1 109.725 1329.93 98.7246" stroke="#DFBED8" stroke-opacity="0.6"/>
<path d="M593.672 76.1397C636.006 44.8064 751.872 -12.3603 876.672 9.63968C1032.67 37.1397 1100.67 109.64 1196.67 119.14C1273.47 126.74 1304.34 106.64 1310.17 95.6396" stroke="#DFBED8" stroke-opacity="0.6"/>
<path d="M573.834 73.6026C616.167 42.2692 732.034 -14.8974 856.834 7.10257C1012.83 34.6026 1080.83 107.103 1176.83 116.603C1253.63 124.203 1284.5 104.103 1290.33 93.1025" stroke="#DFBED8" stroke-opacity="0.6"/>
<path d="M553.869 72.4151C596.202 41.0817 712.069 -16.0849 836.869 5.91507C992.869 33.4151 1060.87 105.915 1156.87 115.415C1233.67 123.015 1264.54 102.915 1270.37 91.915" stroke="#DFBED8" stroke-opacity="0.6"/>
<path d="M533.875 72.9112C576.209 41.5778 692.075 -15.5888 816.875 6.41117C972.875 33.9112 1040.88 106.411 1136.88 115.911C1213.68 123.511 1244.54 103.411 1250.38 92.4111" stroke="#DFBED8" stroke-opacity="0.6"/>
<path d="M513.978 74.8995C556.311 43.5661 672.178 -13.6006 796.978 8.39945C952.978 35.8994 1020.98 108.399 1116.98 117.899C1193.78 125.499 1224.64 105.399 1230.48 94.3994" stroke="#DFBED8" stroke-opacity="0.6"/>
<path d="M494.123 77.3096C536.456 45.9763 652.323 -11.1904 777.123 10.8096C933.123 38.3096 1001.12 110.81 1097.12 120.31C1173.92 127.91 1204.79 107.81 1210.62 96.8096" stroke="#DFBED8" stroke-opacity="0.6"/>
<path d="M474.287 79.8604C516.62 48.5271 632.487 -8.63961 757.287 13.3604C913.287 40.8604 981.287 113.36 1077.29 122.86C1154.09 130.46 1184.95 110.36 1190.79 99.3604" stroke="#DFBED8" stroke-opacity="0.6"/>
<path d="M454.51 82.8448C496.844 51.5114 612.71 -5.65524 737.51 16.3448C893.51 43.8448 961.51 116.345 1057.51 125.845C1134.31 133.445 1165.18 113.345 1171.01 102.345" stroke="#DFBED8" stroke-opacity="0.6"/>
<path d="M434.836 86.4414C477.17 55.1081 593.036 -2.05856 717.836 19.9414C873.836 47.4414 941.836 119.941 1037.84 129.441C1114.64 137.041 1145.5 116.941 1151.34 105.941" stroke="#DFBED8" stroke-opacity="0.6"/>
<path d="M415.263 90.5479C457.596 59.2146 573.463 2.04789 698.263 24.0479C854.263 51.5479 922.263 124.048 1018.26 133.548C1095.06 141.148 1125.93 121.048 1131.76 110.048" stroke="#DFBED8" stroke-opacity="0.6"/>
<path d="M395.759 94.9737C438.092 63.6403 553.959 6.47367 678.759 28.4737C834.759 55.9737 902.759 128.474 998.759 137.974C1075.56 145.574 1106.43 125.474 1112.26 114.474" stroke="#DFBED8" stroke-opacity="0.6"/>
<path d="M376.298 99.586C418.631 68.2526 534.498 11.086 659.298 33.086C815.298 60.586 883.298 133.086 979.298 142.586C1056.1 150.186 1086.96 130.086 1092.8 119.086" stroke="#DFBED8" stroke-opacity="0.6"/>
<path d="M356.864 104.31C399.197 72.9763 515.064 15.8096 639.864 37.8096C795.864 65.3096 863.864 137.81 959.864 147.31C1036.66 154.91 1067.53 134.81 1073.36 123.81" stroke="#DFBED8" stroke-opacity="0.6"/>
<path d="M337.446 109.1C379.779 77.7663 495.646 20.5996 620.446 42.5996C776.446 70.0996 844.446 142.6 940.446 152.1C1017.25 159.7 1048.11 139.6 1053.95 128.6" stroke="#DFBED8" stroke-opacity="0.6"/>
<path d="M318.039 113.933C360.372 82.5993 476.239 25.4327 601.039 47.4327C757.039 74.9327 825.039 147.433 921.039 156.933C997.839 164.533 1028.71 144.433 1034.54 133.433" stroke="#DFBED8" stroke-opacity="0.6"/>
<path d="M298.638 118.792C340.972 87.4587 456.838 30.292 581.638 52.292C737.638 79.792 805.638 152.292 901.638 161.792C978.438 169.392 1009.3 149.292 1015.14 138.292" stroke="#DFBED8" stroke-opacity="0.6"/>
<path d="M279.242 123.67C321.576 92.3366 437.442 35.17 562.242 57.17C718.242 84.67 786.242 157.17 882.242 166.67C959.042 174.27 989.909 154.17 995.742 143.17" stroke="#DFBED8" stroke-opacity="0.6"/>
<path d="M259.849 128.558C302.182 97.2243 418.049 40.0577 542.849 62.0577C698.849 89.5577 766.849 162.058 862.849 171.558C939.649 179.158 970.515 159.058 976.349 148.058" stroke="#DFBED8" stroke-opacity="0.6"/>
<path d="M240.393 133.158C282.726 101.825 398.593 44.6582 523.393 66.6582C679.393 94.1582 747.393 166.658 843.393 176.158C920.193 183.758 951.059 163.658 956.893 152.658" stroke="#DFBED8" stroke-opacity="0.6"/>
<path d="M220.658 136.405C262.991 105.072 378.858 47.9053 503.658 69.9053C659.658 97.4053 727.658 169.905 823.658 179.405C900.458 187.005 931.324 166.905 937.158 155.905" stroke="#DFBED8" stroke-opacity="0.6"/>
<path d="M200.805 138.825C243.138 107.492 359.005 50.3252 483.805 72.3252C639.805 99.8252 707.805 172.325 803.805 181.825C880.605 189.425 911.471 169.325 917.305 158.325" stroke="#DFBED8" stroke-opacity="0.6"/>
<path d="M180.894 140.713C223.227 109.38 339.094 52.2129 463.894 74.2129C619.894 101.713 687.894 174.213 783.894 183.713C860.694 191.313 891.561 171.213 897.394 160.213" stroke="#DFBED8" stroke-opacity="0.6"/>
<path d="M160.949 142.197C203.283 110.864 319.149 53.6973 443.949 75.6973C599.949 103.197 667.949 175.697 763.949 185.197C840.749 192.797 871.616 172.697 877.449 161.697" stroke="#DFBED8" stroke-opacity="0.6"/>
<path d="M140.981 143.331C183.315 111.998 299.181 54.8311 423.981 76.8311C579.981 104.331 647.981 176.831 743.981 186.331C820.781 193.931 851.648 173.831 857.481 162.831" stroke="#DFBED8" stroke-opacity="0.6"/>
<path d="M120.997 144.109C163.33 112.776 279.197 55.6094 403.997 77.6094C559.997 105.109 627.997 177.609 723.997 187.109C800.797 194.709 831.663 174.609 837.497 163.609" stroke="#DFBED8" stroke-opacity="0.6"/>
<path d="M101 144.417C143.333 113.084 259.2 55.917 384 77.917C540 105.417 608 177.917 704 187.417C780.8 195.017 811.667 174.917 817.5 163.917" stroke="#DFBED8" stroke-opacity="0.6"/>
<path d="M81 144.417C123.333 113.084 239.2 55.917 364 77.917C520 105.417 588 177.917 684 187.417C760.8 195.017 791.667 174.917 797.5 163.917" stroke="#DFBED8" stroke-opacity="0.6"/>
<path d="M61 144.417C103.333 113.084 219.2 55.917 344 77.917C500 105.417 568 177.917 664 187.417C740.8 195.017 771.667 174.917 777.5 163.917" stroke="#DFBED8" stroke-opacity="0.6"/>
<path d="M41 144.417C83.3333 113.084 199.2 55.917 324 77.917C480 105.417 548 177.917 644 187.417C720.8 195.017 751.667 174.917 757.5 163.917" stroke="#DFBED8" stroke-opacity="0.6"/>
<path d="M21 144.417C63.3333 113.084 179.2 55.917 304 77.917C460 105.417 528 177.917 624 187.417C700.8 195.017 731.667 174.917 737.5 163.917" stroke="#DFBED8" stroke-opacity="0.6"/>
<path d="M1 144.417C43.3333 113.084 159.2 55.917 284 77.917C440 105.417 508 177.917 604 187.417C680.8 195.017 711.667 174.917 717.5 163.917" stroke="#DFBED8" stroke-opacity="0.6"/>
</svg>
