<svg width="858" height="797" viewBox="0 0 858 797" fill="none" xmlns="http://www.w3.org/2000/svg">
<path d="M-139.494 337.941C-133.738 354.508 -94.1083 395.219 18.3629 425.524C158.952 463.405 283.161 453.823 325.468 449.835C367.775 445.846 542.36 437.254 611.672 430.655C645.827 427.403 781.877 441.251 857.142 456.327" stroke="#DFBED8" stroke-opacity="0.6"/>
<path d="M-167.922 341.782C-162.167 358.349 -122.537 399.059 -10.0658 429.365C130.523 467.246 254.732 457.664 297.039 453.676C339.346 449.687 513.931 441.095 583.243 434.496C617.399 431.244 753.449 445.092 828.713 460.168" stroke="#DFBED8" stroke-opacity="0.6"/>
<path d="M-196.353 345.657C-190.597 362.224 -150.968 402.934 -38.4965 433.24C102.093 471.121 226.301 461.539 268.609 457.551C310.916 453.562 485.501 444.97 554.813 438.371C588.968 435.119 725.018 448.967 800.282 464.043" stroke="#DFBED8" stroke-opacity="0.6"/>
<path d="M-224.785 349.567C-219.029 366.134 -179.4 406.845 -66.9286 437.15C73.6605 475.031 197.869 465.449 240.176 461.461C282.483 457.472 457.069 448.88 526.381 442.281C560.536 439.029 696.586 452.877 771.85 467.953" stroke="#DFBED8" stroke-opacity="0.6"/>
<path d="M-253.219 353.515C-247.463 370.082 -207.834 410.793 -95.3627 441.098C45.2264 478.98 169.435 469.398 211.742 465.409C254.049 461.42 428.635 452.828 497.947 446.229C532.102 442.977 668.152 456.825 743.416 471.902" stroke="#DFBED8" stroke-opacity="0.6"/>
<path d="M-281.655 357.509C-275.899 374.076 -236.27 414.787 -123.799 445.092C16.7904 482.973 140.999 473.391 183.306 469.403C225.613 465.414 400.199 456.822 469.51 450.223C503.666 446.971 639.716 460.819 714.98 475.895" stroke="#DFBED8" stroke-opacity="0.6"/>
<path d="M-310.093 361.562C-304.337 378.129 -264.708 418.839 -152.237 449.145C-11.6476 487.026 112.561 477.444 154.868 473.455C197.175 469.467 371.761 460.875 441.072 454.276C475.228 451.024 611.278 464.872 686.542 479.948" stroke="#DFBED8" stroke-opacity="0.6"/>
<path d="M-338.535 365.693C-332.779 382.26 -293.15 422.971 -180.679 453.276C-40.0895 491.157 84.1193 481.575 126.426 477.587C168.733 473.598 343.319 465.006 412.631 458.407C446.786 455.155 582.836 469.003 658.1 484.079" stroke="#DFBED8" stroke-opacity="0.6"/>
<path d="M-366.982 369.95C-361.226 386.517 -321.597 427.228 -209.125 457.533C-68.5363 495.415 55.6725 485.833 97.9796 481.844C140.287 477.855 314.872 469.263 384.184 462.664C418.339 459.412 554.389 473.261 629.653 488.337" stroke="#DFBED8" stroke-opacity="0.6"/>
<path d="M-395.432 374.464C-389.676 391.031 -350.046 431.742 -237.575 462.047C-96.986 499.928 27.2228 490.346 69.5299 486.358C111.837 482.369 286.422 473.777 355.734 467.178C389.89 463.926 525.939 477.774 601.204 492.85" stroke="#DFBED8" stroke-opacity="0.6"/>
<path d="M-423.895 379.447C-418.14 396.014 -378.51 436.725 -266.039 467.03C-125.45 504.911 -1.24102 495.329 41.066 491.341C83.3731 487.352 257.958 478.76 327.27 472.161C361.426 468.909 497.475 482.757 572.74 497.833" stroke="#DFBED8" stroke-opacity="0.6"/>
<path d="M-452.349 383.889C-446.593 400.456 -406.963 441.167 -294.492 471.472C-153.903 509.354 -29.6941 499.772 12.6129 495.783C54.9199 491.794 229.505 483.202 298.817 476.603C332.973 473.351 469.022 487.199 544.287 502.276" stroke="#DFBED8" stroke-opacity="0.6"/>
<path d="M-480.747 387.122C-474.991 403.689 -435.361 444.4 -322.89 474.705C-182.301 512.587 -58.0921 503.005 -15.7851 499.016C26.522 495.027 201.107 486.435 270.419 479.836C304.575 476.584 440.624 490.432 515.889 505.508" stroke="#DFBED8" stroke-opacity="0.6"/>
<path d="M-509.05 389.013C-503.294 405.58 -463.664 446.291 -351.193 476.596C-210.604 514.478 -86.3953 504.896 -44.0883 500.907C-1.78123 496.918 172.804 488.326 242.116 481.727C276.271 478.475 412.321 492.324 487.585 507.4" stroke="#DFBED8" stroke-opacity="0.6"/>
<path d="M-537.247 389.753C-531.491 406.32 -491.861 447.031 -379.39 477.336C-238.801 515.217 -114.592 505.635 -72.2851 501.647C-29.978 497.658 144.607 489.066 213.919 482.467C248.075 479.215 384.124 493.063 459.389 508.139" stroke="#DFBED8" stroke-opacity="0.6"/>
<path d="M-565.343 389.605C-559.587 406.172 -519.957 446.883 -407.486 477.188C-266.897 515.069 -142.688 505.487 -100.381 501.499C-58.0742 497.51 116.511 488.918 185.823 482.319C219.978 479.067 356.028 492.915 431.292 507.991" stroke="#DFBED8" stroke-opacity="0.6"/>
<path d="M-593.354 388.785C-587.598 405.352 -547.969 446.063 -435.497 476.368C-294.908 514.25 -170.7 504.668 -128.392 500.679C-86.0854 496.69 88.4999 488.098 157.812 481.499C191.967 478.247 328.017 492.095 403.281 507.172" stroke="#DFBED8" stroke-opacity="0.6"/>
<path d="M-621.296 387.458C-615.54 404.025 -575.911 444.735 -463.439 475.041C-322.85 512.922 -198.641 503.34 -156.334 499.351C-114.027 495.363 60.558 486.771 129.87 480.172C164.025 476.92 300.075 490.768 375.339 505.844" stroke="#DFBED8" stroke-opacity="0.6"/>
<path d="M-649.205 385.716C-643.449 402.284 -603.819 442.994 -491.348 473.299C-350.759 511.181 -226.55 501.599 -184.243 497.61C-141.936 493.622 32.6493 485.029 101.961 478.43C136.117 475.179 272.166 489.027 347.431 504.103" stroke="#DFBED8" stroke-opacity="0.6"/>
<path d="M-676.945 383.321C-671.189 399.888 -631.56 440.599 -519.088 470.904C-378.499 508.785 -254.29 499.203 -211.983 495.215C-169.676 491.226 4.90903 482.634 74.2209 476.035C108.376 472.783 244.426 486.631 319.69 501.707" stroke="#DFBED8" stroke-opacity="0.6"/>
<path d="M-704.621 380.321C-698.865 396.888 -659.235 437.599 -546.764 467.904C-406.175 505.785 -281.966 496.203 -239.659 492.215C-197.352 488.226 -22.7667 479.634 46.5452 473.035C80.7005 469.783 216.75 483.631 292.015 498.707" stroke="#DFBED8" stroke-opacity="0.6"/>
<path d="M-732.202 376.788C-726.446 393.355 -686.817 434.066 -574.346 464.371C-433.757 502.253 -309.548 492.671 -267.241 488.682C-224.934 484.693 -50.3483 476.101 18.9636 469.502C53.119 466.25 189.169 480.098 264.433 495.175" stroke="#DFBED8" stroke-opacity="0.6"/>
<path d="M-759.686 372.745C-753.93 389.312 -714.301 430.022 -601.829 460.328C-461.24 498.209 -337.032 488.627 -294.725 484.638C-252.417 480.65 -77.8322 472.058 -8.52028 465.459C25.6351 462.207 161.685 476.055 236.949 491.131" stroke="#DFBED8" stroke-opacity="0.6"/>
<path d="M-787.069 368.19C-781.313 384.757 -741.684 425.468 -629.213 455.773C-488.624 493.654 -364.415 484.072 -322.108 480.084C-279.801 476.095 -105.215 467.503 -35.9036 460.904C-1.74819 457.652 134.302 471.5 209.566 486.576" stroke="#DFBED8" stroke-opacity="0.6"/>
<path d="M-814.344 363.115C-808.588 379.682 -768.959 420.393 -656.488 450.698C-515.899 488.579 -391.69 478.997 -349.383 475.009C-307.076 471.02 -132.49 462.428 -63.1785 455.829C-29.0231 452.577 107.027 466.425 182.291 481.501" stroke="#DFBED8" stroke-opacity="0.6"/>
<path d="M-841.5 357.5C-835.745 374.067 -796.115 414.777 -683.644 445.082C-543.055 482.964 -418.846 473.382 -376.539 469.393C-334.232 465.405 -159.647 456.813 -90.3347 450.214C-56.1793 446.962 79.8705 460.81 155.135 475.886" stroke="#DFBED8" stroke-opacity="0.6"/>
<path d="M-868.528 351.319C-862.772 367.887 -823.143 408.597 -710.672 438.902C-570.083 476.784 -445.874 467.202 -403.567 463.213C-361.26 459.225 -186.674 450.632 -117.363 444.033C-83.2072 440.782 52.8426 454.63 128.107 469.706" stroke="#DFBED8" stroke-opacity="0.6"/>
<path d="M-895.411 344.54C-889.655 361.107 -850.026 401.818 -737.555 432.123C-596.966 470.005 -472.757 460.422 -430.45 456.434C-388.143 452.445 -213.557 443.853 -144.245 437.254C-110.09 434.002 25.9598 447.85 101.224 462.926" stroke="#DFBED8" stroke-opacity="0.6"/>
<path d="M-922.133 337.124C-916.377 353.691 -876.748 394.401 -764.276 424.707C-623.687 462.588 -499.478 453.006 -457.171 449.017C-414.864 445.029 -240.279 436.437 -170.967 429.838C-136.812 426.586 -0.761856 440.434 74.5024 455.51" stroke="#DFBED8" stroke-opacity="0.6"/>
<path d="M-948.673 329.021C-942.917 345.588 -903.288 386.298 -790.816 416.603C-650.227 454.485 -526.018 444.903 -483.711 440.914C-441.404 436.926 -266.819 428.334 -197.507 421.735C-163.352 418.483 -27.3019 432.331 47.9623 447.407" stroke="#DFBED8" stroke-opacity="0.6"/>
<path d="M-975.005 320.175C-969.249 336.742 -929.619 377.453 -817.148 407.758C-676.559 445.639 -552.35 436.057 -510.043 432.069C-467.736 428.08 -293.151 419.488 -223.839 412.889C-189.683 409.637 -53.6337 423.485 21.6306 438.561" stroke="#DFBED8" stroke-opacity="0.6"/>
</svg>
