<svg width="808" height="362" viewBox="0 0 808 362" fill="none" xmlns="http://www.w3.org/2000/svg">
<path d="M-189.965 123.73C-180.581 138.547 -132.706 169.139 -16.2871 172.977C129.237 177.775 247.982 140.101 288.262 126.562C328.542 113.024 496.56 64.8165 562.537 42.574C595.049 31.6133 730.669 14.048 807.387 11.5502" stroke="#DFBED8" stroke-opacity="0.6"/>
<path d="M-216.767 133.958C-207.382 148.774 -159.508 179.367 -43.0889 183.205C102.435 188.003 221.18 150.328 261.46 136.79C301.741 123.252 469.758 75.044 535.735 52.8015C568.247 41.8409 703.867 24.2755 780.586 21.7777" stroke="#DFBED8" stroke-opacity="0.6"/>
<path d="M-243.564 144.219C-234.179 159.035 -186.305 189.628 -69.8853 193.466C75.6389 198.264 194.383 160.589 234.664 147.051C274.944 133.513 442.962 85.3053 508.939 63.0627C541.451 52.1021 677.071 34.5368 753.789 32.0389" stroke="#DFBED8" stroke-opacity="0.6"/>
<path d="M-270.353 154.514C-260.968 169.331 -213.094 199.923 -96.6743 203.762C48.8498 208.56 167.594 170.885 207.875 157.346C248.155 143.808 416.173 95.6007 482.15 73.3581C514.662 62.3975 650.282 44.8322 727 42.3344" stroke="#DFBED8" stroke-opacity="0.6"/>
<path d="M-297.135 164.847C-287.751 179.664 -239.876 210.256 -123.457 214.095C22.0671 218.893 140.812 181.218 181.092 167.679C221.372 154.141 389.39 105.934 455.367 83.6911C487.879 72.7305 623.499 55.1652 700.217 52.6674" stroke="#DFBED8" stroke-opacity="0.6"/>
<path d="M-323.91 175.225C-314.525 190.041 -266.651 220.634 -150.231 224.472C-4.70731 229.27 114.037 191.595 154.318 178.057C194.598 164.519 362.615 116.311 428.592 94.0686C461.104 83.1079 596.724 65.5426 673.443 63.0448" stroke="#DFBED8" stroke-opacity="0.6"/>
<path d="M-350.672 185.66C-341.288 200.477 -293.413 231.069 -176.994 234.908C-31.47 239.706 87.2745 202.031 127.555 188.492C167.835 174.954 335.853 126.747 401.83 104.504C434.342 93.5435 569.962 75.9782 646.68 73.4804" stroke="#DFBED8" stroke-opacity="0.6"/>
<path d="M-377.421 196.173C-368.036 210.99 -320.162 241.582 -203.743 245.421C-58.2185 250.219 60.526 212.544 100.806 199.006C141.087 185.467 309.104 137.26 375.081 115.017C407.593 104.057 543.213 86.4914 619.932 83.9935" stroke="#DFBED8" stroke-opacity="0.6"/>
<path d="M-404.146 206.81C-394.761 221.627 -346.887 252.219 -230.467 256.057C-84.9431 260.856 33.8013 223.181 74.0818 209.642C114.362 196.104 282.38 147.897 348.357 125.654C380.869 114.693 516.489 97.1281 593.207 94.6303" stroke="#DFBED8" stroke-opacity="0.6"/>
<path d="M-430.815 217.697C-421.43 232.514 -373.556 263.106 -257.136 266.945C-111.612 271.743 7.1324 234.068 47.4128 220.53C87.6932 206.991 255.711 158.784 321.688 136.541C354.2 125.581 489.82 108.015 566.538 105.517" stroke="#DFBED8" stroke-opacity="0.6"/>
<path d="M-457.39 229.045C-448.006 243.861 -400.131 274.453 -283.712 278.292C-138.188 283.09 -19.4433 245.415 20.8371 231.877C61.1175 218.339 229.135 170.131 295.112 147.888C327.624 136.928 463.244 119.362 539.963 116.865" stroke="#DFBED8" stroke-opacity="0.6"/>
<path d="M-484.078 239.863C-474.693 254.679 -426.819 285.272 -310.4 289.11C-164.876 293.908 -46.1313 256.233 -5.85087 242.695C34.4295 229.157 202.447 180.949 268.424 158.707C300.936 147.746 436.556 130.181 513.275 127.683" stroke="#DFBED8" stroke-opacity="0.6"/>
<path d="M-510.989 249.491C-501.605 264.308 -453.73 294.9 -337.311 298.739C-191.787 303.537 -73.0424 265.862 -32.762 252.324C7.51841 238.785 175.536 190.578 241.513 168.335C274.025 157.375 409.645 139.809 486.363 137.311" stroke="#DFBED8" stroke-opacity="0.6"/>
<path d="M-538.114 257.792C-528.73 272.608 -480.855 303.201 -364.436 307.039C-218.912 311.837 -100.167 274.162 -59.887 260.624C-19.6066 247.086 148.411 198.878 214.388 176.635C246.9 165.675 382.52 148.11 459.238 145.612" stroke="#DFBED8" stroke-opacity="0.6"/>
<path d="M-565.398 264.947C-556.013 279.763 -508.139 310.356 -391.72 314.194C-246.196 318.992 -127.451 281.317 -87.1707 267.779C-46.8903 254.241 121.127 206.033 187.104 183.791C219.616 172.83 355.236 155.265 431.955 152.767" stroke="#DFBED8" stroke-opacity="0.6"/>
<path d="M-592.787 271.214C-583.402 286.031 -535.528 316.623 -419.108 320.462C-273.584 325.26 -154.84 287.585 -114.559 274.047C-74.279 260.508 93.7385 212.301 159.715 190.058C192.227 179.098 327.847 161.532 404.566 159.035" stroke="#DFBED8" stroke-opacity="0.6"/>
<path d="M-620.246 276.809C-610.861 291.625 -562.987 322.218 -446.567 326.056C-301.043 330.854 -182.299 293.179 -142.018 279.641C-101.738 266.103 66.2796 217.895 132.256 195.653C164.768 184.692 300.388 167.127 377.107 164.629" stroke="#DFBED8" stroke-opacity="0.6"/>
<path d="M-647.754 281.893C-638.369 296.709 -590.495 327.302 -474.075 331.14C-328.551 335.938 -209.807 298.263 -169.526 284.725C-129.246 271.187 38.7717 222.979 104.749 200.737C137.261 189.776 272.881 172.211 349.599 169.713" stroke="#DFBED8" stroke-opacity="0.6"/>
<path d="M-675.323 286.567C-665.938 301.383 -618.064 331.975 -501.645 335.814C-356.12 340.612 -237.376 302.937 -197.095 289.399C-156.815 275.86 11.2024 227.653 77.1793 205.41C109.691 194.45 245.311 176.884 322.03 174.387" stroke="#DFBED8" stroke-opacity="0.6"/>
<path d="M-702.878 290.565C-693.493 305.381 -645.619 335.973 -529.2 339.812C-383.676 344.61 -264.931 306.935 -224.651 293.397C-184.37 279.859 -16.3528 231.651 49.6242 209.408C82.1361 198.448 217.756 180.882 294.475 178.385" stroke="#DFBED8" stroke-opacity="0.6"/>
<path d="M-730.508 293.96C-721.123 308.776 -673.249 339.368 -556.83 343.207C-411.305 348.005 -292.561 310.33 -252.281 296.792C-212 283.254 -43.9827 235.046 21.9943 212.803C54.5063 201.843 190.126 184.277 266.845 181.78" stroke="#DFBED8" stroke-opacity="0.6"/>
<path d="M-758.168 296.815C-748.783 311.631 -700.909 342.224 -584.489 346.062C-438.965 350.86 -320.221 313.185 -279.94 299.647C-239.66 286.109 -71.6423 237.901 -5.66539 215.659C26.8466 204.698 162.467 187.133 239.185 184.635" stroke="#DFBED8" stroke-opacity="0.6"/>
<path d="M-785.849 299.15C-776.464 313.966 -728.59 344.559 -612.171 348.397C-466.647 353.195 -347.902 315.52 -307.622 301.982C-267.341 288.444 -99.324 240.236 -33.347 217.994C-0.835043 207.033 134.785 189.468 211.504 186.97" stroke="#DFBED8" stroke-opacity="0.6"/>
<path d="M-813.549 300.965C-804.165 315.781 -756.29 346.374 -639.871 350.212C-494.347 355.01 -375.602 317.335 -335.322 303.797C-295.042 290.259 -127.024 242.051 -61.0472 219.809C-28.5352 208.848 107.085 191.283 183.803 188.785" stroke="#DFBED8" stroke-opacity="0.6"/>
<path d="M-841.263 302.248C-831.878 317.065 -784.004 347.657 -667.584 351.495C-522.06 356.294 -403.316 318.619 -363.035 305.08C-322.755 291.542 -154.738 243.335 -88.7606 221.092C-56.2486 210.131 79.3714 192.566 156.09 190.068" stroke="#DFBED8" stroke-opacity="0.6"/>
<path d="M-868.984 302.978C-859.599 317.795 -811.725 348.387 -695.306 352.225C-549.782 357.024 -431.037 319.349 -390.757 305.81C-350.476 292.272 -182.459 244.065 -116.482 221.822C-83.9698 210.861 51.6502 193.296 128.369 190.798" stroke="#DFBED8" stroke-opacity="0.6"/>
<path d="M-896.709 303.129C-887.324 317.945 -839.45 348.538 -723.031 352.376C-577.507 357.174 -458.762 319.499 -418.482 305.961C-378.201 292.423 -210.184 244.215 -144.207 221.973C-111.695 211.012 23.9251 193.447 100.644 190.949" stroke="#DFBED8" stroke-opacity="0.6"/>
<path d="M-924.43 302.664C-915.045 317.48 -867.171 348.073 -750.751 351.911C-605.227 356.709 -486.483 319.034 -446.202 305.496C-405.922 291.958 -237.905 243.75 -171.928 221.508C-139.416 210.547 -3.79562 192.982 72.9231 190.484" stroke="#DFBED8" stroke-opacity="0.6"/>
<path d="M-952.139 301.541C-942.754 316.358 -894.88 346.95 -778.46 350.788C-632.936 355.587 -514.192 317.912 -473.911 304.373C-433.631 290.835 -265.614 242.628 -199.637 220.385C-167.125 209.424 -31.5046 191.859 45.2141 189.361" stroke="#DFBED8" stroke-opacity="0.6"/>
<path d="M-979.827 299.709C-970.443 314.525 -922.568 345.117 -806.149 348.956C-660.625 353.754 -541.88 316.079 -501.6 302.541C-461.319 289.003 -293.302 240.795 -227.325 218.552C-194.813 207.592 -59.1931 190.027 17.5256 187.529" stroke="#DFBED8" stroke-opacity="0.6"/>
</svg>