<svg width="790" height="195" viewBox="0 0 790 195" fill="none" xmlns="http://www.w3.org/2000/svg">
<path d="M28 34.5C-37.1667 67.8334 -192.5 124.5 -292.5 84.5C-392.5 44.5 -647.833 12.1666 -763 0.999931" stroke="#DFBED8" stroke-opacity="0.6"/>
<path d="M47.8931 36.5684C-17.2736 69.9017 -172.607 126.568 -272.607 86.5684C-372.607 46.5684 -627.94 14.235 -743.107 3.06829" stroke="#DFBED8" stroke-opacity="0.6"/>
<path d="M67.7739 38.7451C2.60726 72.0785 -152.726 128.745 -252.726 88.7451C-352.726 48.7451 -608.059 16.4117 -723.226 5.24505" stroke="#DFBED8" stroke-opacity="0.6"/>
<path d="M87.6445 41.0196C22.4779 74.3529 -132.855 131.02 -232.855 91.0195C-332.855 51.0195 -588.189 18.6861 -703.355 7.51946" stroke="#DFBED8" stroke-opacity="0.6"/>
<path d="M107.504 43.3858C42.3372 76.7191 -112.996 133.386 -212.996 93.3857C-312.996 53.3857 -568.329 21.0524 -683.496 9.88567" stroke="#DFBED8" stroke-opacity="0.6"/>
<path d="M127.353 45.8409C62.1859 79.1742 -93.1475 135.841 -193.147 95.8408C-293.147 55.8408 -548.481 23.5074 -663.647 12.3408" stroke="#DFBED8" stroke-opacity="0.6"/>
<path d="M147.19 48.3838C82.0238 81.7171 -73.3096 138.384 -173.31 98.3838C-273.31 58.3838 -528.643 26.0504 -643.81 14.8837" stroke="#DFBED8" stroke-opacity="0.6"/>
<path d="M167.016 51.0166C101.849 84.35 -53.4839 141.017 -153.484 101.017C-253.484 61.0166 -508.817 28.6832 -623.984 17.5165" stroke="#DFBED8" stroke-opacity="0.6"/>
<path d="M186.83 53.7412C121.663 87.0746 -33.6699 143.741 -133.67 103.741C-233.67 63.7412 -489.003 31.4078 -604.17 20.2411" stroke="#DFBED8" stroke-opacity="0.6"/>
<path d="M206.63 56.5606C141.463 89.8939 -13.8701 146.561 -113.87 106.561C-213.87 66.5605 -469.203 34.2272 -584.37 23.0605" stroke="#DFBED8" stroke-opacity="0.6"/>
<path d="M226.416 59.4815C161.249 92.8148 5.91553 149.481 -94.0845 109.481C-194.084 69.4814 -449.418 37.1481 -564.584 25.9814" stroke="#DFBED8" stroke-opacity="0.6"/>
<path d="M246.185 62.5088C181.018 95.8421 25.6851 152.509 -74.3149 112.509C-174.315 72.5088 -429.648 40.1754 -544.815 29.0087" stroke="#DFBED8" stroke-opacity="0.6"/>
<path d="M265.937 65.6504C200.77 98.9837 45.437 155.65 -54.563 115.65C-154.563 75.6504 -409.896 43.317 -525.063 32.1503" stroke="#DFBED8" stroke-opacity="0.6"/>
<path d="M285.668 68.918C220.501 102.251 65.168 158.918 -34.832 118.918C-134.832 78.918 -390.165 46.5846 -505.332 35.4179" stroke="#DFBED8" stroke-opacity="0.6"/>
<path d="M305.376 72.3223C240.21 105.656 84.8765 162.322 -15.1235 122.322C-115.124 82.3223 -370.457 49.9889 -485.624 38.8222" stroke="#DFBED8" stroke-opacity="0.6"/>
<path d="M325.058 75.8799C259.891 109.213 104.558 165.88 4.55762 125.88C-95.4424 85.8799 -350.776 53.5465 -465.942 42.3798" stroke="#DFBED8" stroke-opacity="0.6"/>
<path d="M344.707 79.6075C279.54 112.941 124.207 169.607 24.207 129.607C-75.793 89.6074 -331.126 57.274 -446.293 46.1074" stroke="#DFBED8" stroke-opacity="0.6"/>
<path d="M364.318 83.5323C299.152 116.866 143.818 173.532 43.8184 133.532C-56.1816 93.5322 -311.515 61.1988 -426.682 50.0322" stroke="#DFBED8" stroke-opacity="0.6"/>
<path d="M383.882 87.6836C318.716 121.017 163.382 177.684 63.3823 137.684C-36.6177 97.6836 -291.951 65.3502 -407.118 54.1835" stroke="#DFBED8" stroke-opacity="0.6"/>
<path d="M403.388 92.1045C338.221 125.438 182.888 182.105 82.8877 142.104C-17.1123 102.104 -272.446 69.7711 -387.612 58.6044" stroke="#DFBED8" stroke-opacity="0.6"/>
<path d="M422.815 96.8545C357.649 130.188 202.315 186.855 102.315 146.854C2.31543 106.854 -253.018 74.5211 -368.185 63.3544" stroke="#DFBED8" stroke-opacity="0.6"/>
<path d="M442.138 102.016C376.972 135.349 221.638 192.016 121.638 152.016C21.6382 112.016 -233.695 79.6822 -348.862 68.5156" stroke="#DFBED8" stroke-opacity="0.6"/>
<path d="M461.307 107.72C396.14 141.053 240.807 197.72 140.807 157.72C40.8071 117.72 -214.526 85.3863 -329.693 74.2197" stroke="#DFBED8" stroke-opacity="0.6"/>
<path d="M480.234 114.185C415.067 147.518 259.734 204.185 159.734 164.185C59.7339 124.185 -195.599 91.8512 -310.766 80.6845" stroke="#DFBED8" stroke-opacity="0.6"/>
<path d="M498.969 121.061C433.803 154.394 278.469 211.061 178.469 171.061C78.4692 131.061 -176.864 98.7272 -292.031 87.5605" stroke="#DFBED8" stroke-opacity="0.6"/>
<path d="M518.344 126.022C453.178 159.355 297.844 216.021 197.844 176.021C97.8442 136.021 -157.489 103.688 -272.656 92.5214" stroke="#DFBED8" stroke-opacity="0.6"/>
<path d="M538.111 129.067C472.944 162.401 317.611 219.067 217.611 179.067C117.611 139.067 -137.722 106.734 -252.889 95.5673" stroke="#DFBED8" stroke-opacity="0.6"/>
<path d="M558.061 130.477C492.894 163.81 337.561 220.477 237.561 180.477C137.561 140.477 -117.772 108.143 -232.939 96.9765" stroke="#DFBED8" stroke-opacity="0.6"/>
<path d="M578.061 130.49C512.894 163.824 357.561 220.49 257.561 180.49C157.561 140.49 -97.7723 108.157 -212.939 96.9902" stroke="#DFBED8" stroke-opacity="0.6"/>
<path d="M598.026 129.312C532.86 162.645 377.526 219.312 277.526 179.312C177.526 139.312 -77.807 106.978 -192.974 95.8115" stroke="#DFBED8" stroke-opacity="0.6"/>
<path d="M617.904 127.105C552.738 160.439 397.404 217.105 297.404 177.105C197.404 137.105 -57.929 104.772 -173.096 93.6054" stroke="#DFBED8" stroke-opacity="0.6"/>
<path d="M637.662 124.004C572.495 157.337 417.162 214.004 317.162 174.004C217.162 134.004 -38.1712 101.671 -153.338 90.5038" stroke="#DFBED8" stroke-opacity="0.6"/>
<path d="M657.28 120.112C592.113 153.446 436.78 210.112 336.78 170.112C236.78 130.112 -18.5535 97.7789 -133.72 86.6122" stroke="#DFBED8" stroke-opacity="0.6"/>
<path d="M676.744 115.514C611.577 148.847 456.244 205.514 356.244 165.514C256.244 125.514 0.910812 93.1803 -114.256 82.0136" stroke="#DFBED8" stroke-opacity="0.6"/>
<path d="M696.045 110.273C630.879 143.607 475.545 200.273 375.545 160.273C275.545 120.273 20.2121 87.9401 -94.9546 76.7734" stroke="#DFBED8" stroke-opacity="0.6"/>
<path d="M715.176 104.44C650.009 137.774 494.676 194.44 394.676 154.44C294.676 114.44 39.3425 82.107 -75.8242 70.9404" stroke="#DFBED8" stroke-opacity="0.6"/>
<path d="M734.127 98.0489C668.96 131.382 513.627 188.049 413.627 148.049C313.627 108.049 58.2936 75.7154 -56.873 64.5488" stroke="#DFBED8" stroke-opacity="0.6"/>
<path d="M752.887 91.1162C687.721 124.45 532.387 181.116 432.387 141.116C332.387 101.116 77.0539 68.7828 -38.1128 57.6161" stroke="#DFBED8" stroke-opacity="0.6"/>
<path d="M771.439 83.6436C706.272 116.977 550.939 173.644 450.939 133.644C350.939 93.6435 95.6056 61.3102 -19.561 50.1435" stroke="#DFBED8" stroke-opacity="0.6"/>
<path d="M789.749 75.5977C724.582 108.931 569.249 165.598 469.249 125.598C369.249 85.5976 113.916 53.2643 -1.25097 42.0976" stroke="#DFBED8" stroke-opacity="0.6"/>
</svg>
