<svg width="1032" height="273" viewBox="0 0 1032 273" fill="none" xmlns="http://www.w3.org/2000/svg">
<path d="M265.252 270.884C345.086 227.717 546.152 145.884 711.752 163.884C918.752 186.384 762.252 176.384 1031.25 198.884" stroke="#DFBED8" stroke-opacity="0.6"/>
<path d="M245.275 271.786C325.109 228.62 526.175 146.786 691.775 164.786C898.775 187.286 742.275 177.286 1011.28 199.786" stroke="#DFBED8" stroke-opacity="0.6"/>
<path d="M225.277 272.051C305.111 228.884 506.177 147.051 671.777 165.051C878.777 187.551 722.277 177.551 991.277 200.051" stroke="#DFBED8" stroke-opacity="0.6"/>
<path d="M205.278 271.869C285.112 228.702 486.178 146.869 651.778 164.869C858.778 187.369 702.278 177.369 971.278 199.869" stroke="#DFBED8" stroke-opacity="0.6"/>
<path d="M185.286 271.316C265.119 228.15 466.186 146.316 631.786 164.316C838.786 186.816 682.286 176.816 951.286 199.316" stroke="#DFBED8" stroke-opacity="0.6"/>
<path d="M165.305 270.436C245.139 227.269 446.205 145.436 611.805 163.436C818.805 185.936 662.305 175.936 931.305 198.436" stroke="#DFBED8" stroke-opacity="0.6"/>
<path d="M145.34 269.252C225.174 226.085 426.24 144.252 591.84 162.252C798.84 184.752 642.34 174.752 911.34 197.252" stroke="#DFBED8" stroke-opacity="0.6"/>
<path d="M125.395 267.78C205.228 224.613 406.295 142.78 571.895 160.78C778.895 183.28 622.395 173.28 891.395 195.78" stroke="#DFBED8" stroke-opacity="0.6"/>
<path d="M105.471 266.031C185.305 222.864 386.371 141.031 551.971 159.031C758.971 181.531 602.471 171.531 871.471 194.031" stroke="#DFBED8" stroke-opacity="0.6"/>
<path d="M85.5737 264.011C165.407 220.845 366.474 139.011 532.074 157.011C739.074 179.511 582.574 169.511 851.574 192.011" stroke="#DFBED8" stroke-opacity="0.6"/>
<path d="M65.7046 261.726C145.538 218.559 346.605 136.726 512.205 154.726C719.205 177.226 562.705 167.226 831.705 189.726" stroke="#DFBED8" stroke-opacity="0.6"/>
<path d="M45.8677 259.176C125.701 216.009 326.768 134.176 492.368 152.176C699.368 174.676 542.868 164.676 811.868 187.176" stroke="#DFBED8" stroke-opacity="0.6"/>
<path d="M26.0664 256.364C105.9 213.198 306.966 131.364 472.566 149.364C679.566 171.864 523.066 161.864 792.066 184.364" stroke="#DFBED8" stroke-opacity="0.6"/>
<path d="M6.3042 253.29C86.1375 210.123 287.204 128.29 452.804 146.29C659.804 168.79 503.304 158.79 772.304 181.29" stroke="#DFBED8" stroke-opacity="0.6"/>
<path d="M-13.4155 249.952C66.4178 206.785 267.484 124.952 433.084 142.952C640.084 165.452 483.584 155.452 752.584 177.952" stroke="#DFBED8" stroke-opacity="0.6"/>
<path d="M-33.0879 246.348C46.7454 203.182 247.812 121.348 413.412 139.348C620.412 161.848 463.912 151.848 732.912 174.348" stroke="#DFBED8" stroke-opacity="0.6"/>
<path d="M-52.7051 242.467C27.1283 199.301 228.195 117.467 393.795 135.467C600.795 157.967 444.295 147.967 713.295 170.467" stroke="#DFBED8" stroke-opacity="0.6"/>
<path d="M-72.2358 238.162C7.5975 194.995 208.664 113.162 374.264 131.162C581.264 153.662 424.764 143.662 693.764 166.162" stroke="#DFBED8" stroke-opacity="0.6"/>
<path d="M-91.6665 233.424C-11.8332 190.257 189.233 108.424 354.833 126.424C561.833 148.924 405.333 138.924 674.333 161.424" stroke="#DFBED8" stroke-opacity="0.6"/>
<path d="M-110.998 228.296C-31.1647 185.13 169.902 103.296 335.502 121.296C542.502 143.796 386.002 133.796 655.002 156.296" stroke="#DFBED8" stroke-opacity="0.6"/>
<path d="M-130.232 222.815C-50.3991 179.649 150.668 97.8155 316.268 115.815C523.268 138.315 366.768 128.315 635.768 150.815" stroke="#DFBED8" stroke-opacity="0.6"/>
<path d="M-149.372 217.012C-69.5387 173.845 131.528 92.0118 297.128 110.012C504.128 132.512 347.628 122.512 616.628 145.012" stroke="#DFBED8" stroke-opacity="0.6"/>
<path d="M-168.418 210.91C-88.5851 167.744 112.482 85.9102 278.082 103.91C485.082 126.41 328.582 116.41 597.582 138.91" stroke="#DFBED8" stroke-opacity="0.6"/>
<path d="M-187.375 204.532C-107.541 161.366 93.5255 79.5323 259.125 97.5323C466.125 120.032 309.625 110.032 578.625 132.532" stroke="#DFBED8" stroke-opacity="0.6"/>
<path d="M-206.241 197.897C-126.408 154.73 74.6588 72.8965 240.259 90.8965C447.259 113.397 290.759 103.396 559.759 125.896" stroke="#DFBED8" stroke-opacity="0.6"/>
<path d="M-225.021 191.019C-145.188 147.852 55.8785 66.0186 221.479 84.0186C428.479 106.519 271.979 96.5186 540.979 119.019" stroke="#DFBED8" stroke-opacity="0.6"/>
<path d="M-243.716 183.912C-163.883 140.745 37.1837 58.9117 202.784 76.9117C409.784 99.4117 253.284 89.4116 522.284 111.912" stroke="#DFBED8" stroke-opacity="0.6"/>
<path d="M-262.326 176.586C-182.493 133.419 18.5738 51.586 184.174 69.586C391.174 92.086 234.674 82.0859 503.674 104.586" stroke="#DFBED8" stroke-opacity="0.6"/>
<path d="M-280.853 169.05C-201.019 125.884 0.0474548 44.0504 165.647 62.0504C372.647 84.5504 216.147 74.5503 485.147 97.0503" stroke="#DFBED8" stroke-opacity="0.6"/>
<path d="M-299.294 161.311C-219.461 118.144 -18.394 36.3106 147.206 54.3106C354.206 76.8106 197.706 66.8105 466.706 89.3105" stroke="#DFBED8" stroke-opacity="0.6"/>
<path d="M-317.651 153.371C-237.818 110.204 -36.7509 28.3712 128.849 46.3712C335.849 68.8712 179.349 58.8711 448.349 81.3711" stroke="#DFBED8" stroke-opacity="0.6"/>
<path d="M-335.92 145.233C-256.087 102.066 -55.0199 20.233 110.58 38.233C317.58 60.733 161.08 50.7329 430.08 73.2329" stroke="#DFBED8" stroke-opacity="0.6"/>
<path d="M-354.098 136.894C-274.265 93.7269 -73.1984 11.8936 92.4016 29.8936C299.402 52.3936 142.902 42.3936 411.902 64.8936" stroke="#DFBED8" stroke-opacity="0.6"/>
<path d="M-372.18 128.346C-292.346 85.1791 -91.2797 3.34576 74.3203 21.3458C281.32 43.8458 124.82 33.8457 393.82 56.3457" stroke="#DFBED8" stroke-opacity="0.6"/>
<path d="M-390.153 119.573C-310.32 76.4066 -109.253 -5.4267 56.3467 12.5733C263.347 35.0733 106.847 25.0732 375.847 47.5732" stroke="#DFBED8" stroke-opacity="0.6"/>
<path d="M-408 110.546C-328.167 67.3798 -127.1 -14.4536 38.5 3.54645C245.5 26.0464 89 16.0464 358 38.5464" stroke="#DFBED8" stroke-opacity="0.6"/>
</svg>
