<svg width="914" height="190" viewBox="0 0 914 190" fill="none" xmlns="http://www.w3.org/2000/svg">
<path d="M197.058 85.6846C239.391 54.3513 355.258 -2.8154 480.058 19.1846C636.058 46.6846 704.058 119.185 800.058 128.685C876.858 136.285 907.725 116.185 913.558 105.185" stroke="#DFBED8" stroke-opacity="0.6"/>
<path d="M177.108 84.2686C219.442 52.9353 335.308 -4.23141 460.108 17.7686C616.108 45.2686 684.108 117.769 780.108 127.269C856.908 134.869 887.775 114.769 893.608 103.769" stroke="#DFBED8" stroke-opacity="0.6"/>
<path d="M157.229 82.0752C199.562 50.7419 315.429 -6.42477 440.229 15.5752C596.229 43.0752 664.229 115.575 760.229 125.075C837.029 132.675 867.895 112.575 873.729 101.575" stroke="#DFBED8" stroke-opacity="0.6"/>
<path d="M137.433 79.2246C179.766 47.8913 295.633 -9.27536 420.433 12.7246C576.433 40.2246 644.433 112.725 740.433 122.225C817.233 129.825 848.1 109.725 853.933 98.7246" stroke="#DFBED8" stroke-opacity="0.6"/>
<path d="M117.672 76.1397C160.006 44.8064 275.872 -12.3603 400.672 9.63968C556.672 37.1397 624.672 109.64 720.672 119.14C797.472 126.74 828.339 106.64 834.172 95.6396" stroke="#DFBED8" stroke-opacity="0.6"/>
<path d="M97.834 73.6026C140.167 42.2692 256.034 -14.8974 380.834 7.10257C536.834 34.6026 604.834 107.103 700.834 116.603C777.634 124.203 808.501 104.103 814.334 93.1025" stroke="#DFBED8" stroke-opacity="0.6"/>
<path d="M77.8691 72.4151C120.202 41.0817 236.069 -16.0849 360.869 5.91507C516.869 33.4151 584.869 105.915 680.869 115.415C757.669 123.015 788.536 102.915 794.369 91.915" stroke="#DFBED8" stroke-opacity="0.6"/>
<path d="M57.8755 72.9112C100.209 41.5778 216.075 -15.5888 340.875 6.41117C496.875 33.9112 564.875 106.411 660.875 115.911C737.675 123.511 768.542 103.411 774.375 92.4111" stroke="#DFBED8" stroke-opacity="0.6"/>
<path d="M37.978 74.8995C80.3114 43.5661 196.178 -13.6006 320.978 8.39945C476.978 35.8994 544.978 108.399 640.978 117.899C717.778 125.499 748.645 105.399 754.478 94.3994" stroke="#DFBED8" stroke-opacity="0.6"/>
<path d="M18.123 77.3096C60.4564 45.9763 176.323 -11.1904 301.123 10.8096C457.123 38.3096 525.123 110.81 621.123 120.31C697.923 127.91 728.79 107.81 734.623 96.8096" stroke="#DFBED8" stroke-opacity="0.6"/>
<path d="M-1.71338 79.8604C40.62 48.5271 156.487 -8.63961 281.287 13.3604C437.287 40.8604 505.287 113.36 601.287 122.86C678.087 130.46 708.953 110.36 714.787 99.3604" stroke="#DFBED8" stroke-opacity="0.6"/>
<path d="M-21.4897 82.8448C20.8436 51.5114 136.71 -5.65524 261.51 16.3448C417.51 43.8448 485.51 116.345 581.51 125.845C658.31 133.445 689.177 113.345 695.01 102.345" stroke="#DFBED8" stroke-opacity="0.6"/>
<path d="M-41.1636 86.4414C1.16976 55.1081 117.036 -2.05856 241.836 19.9414C397.836 47.4414 465.836 119.941 561.836 129.441C638.636 137.041 669.503 116.941 675.336 105.941" stroke="#DFBED8" stroke-opacity="0.6"/>
<path d="M-60.7373 90.5479C-18.404 59.2146 97.4627 2.04789 222.263 24.0479C378.263 51.5479 446.263 124.048 542.263 133.548C619.063 141.148 649.929 121.048 655.763 110.048" stroke="#DFBED8" stroke-opacity="0.6"/>
<path d="M-80.2412 94.9737C-37.9079 63.6403 77.9588 6.47367 202.759 28.4737C358.759 55.9737 426.759 128.474 522.759 137.974C599.559 145.574 630.425 125.474 636.259 114.474" stroke="#DFBED8" stroke-opacity="0.6"/>
<path d="M-99.7021 99.586C-57.3688 68.2526 58.4978 11.086 183.298 33.086C339.298 60.586 407.298 133.086 503.298 142.586C580.098 150.186 610.965 130.086 616.798 119.086" stroke="#DFBED8" stroke-opacity="0.6"/>
<path d="M-119.136 104.31C-76.8029 72.9763 39.0638 15.8096 163.864 37.8096C319.864 65.3096 387.864 137.81 483.864 147.31C560.664 154.91 591.53 134.81 597.364 123.81" stroke="#DFBED8" stroke-opacity="0.6"/>
<path d="M-138.554 109.1C-96.2209 77.7663 19.6458 20.5996 144.446 42.5996C300.446 70.0996 368.446 142.6 464.446 152.1C541.246 159.7 572.112 139.6 577.946 128.6" stroke="#DFBED8" stroke-opacity="0.6"/>
<path d="M-157.961 113.933C-115.628 82.5993 0.238571 25.4327 125.039 47.4327C281.039 74.9327 349.039 147.433 445.039 156.933C521.839 164.533 552.705 144.433 558.539 133.433" stroke="#DFBED8" stroke-opacity="0.6"/>
<path d="M-177.362 118.792C-135.028 87.4587 -19.1618 30.292 105.638 52.292C261.638 79.792 329.638 152.292 425.638 161.792C502.438 169.392 533.305 149.292 539.138 138.292" stroke="#DFBED8" stroke-opacity="0.6"/>
<path d="M-196.758 123.67C-154.425 92.3366 -38.5581 35.17 86.2419 57.17C242.242 84.67 310.242 157.17 406.242 166.67C483.042 174.27 513.909 154.17 519.742 143.17" stroke="#DFBED8" stroke-opacity="0.6"/>
<path d="M-216.151 128.558C-173.818 97.2243 -57.9514 40.0577 66.8486 62.0577C222.849 89.5577 290.849 162.058 386.849 171.558C463.649 179.158 494.515 159.058 500.349 148.058" stroke="#DFBED8" stroke-opacity="0.6"/>
<path d="M-235.608 133.158C-193.274 101.825 -77.4077 44.6582 47.3923 66.6582C203.392 94.1582 271.392 166.658 367.392 176.158C444.192 183.758 475.059 163.658 480.892 152.658" stroke="#DFBED8" stroke-opacity="0.6"/>
<path d="M-255.342 136.405C-213.009 105.072 -97.1423 47.9053 27.6577 69.9053C183.658 97.4053 251.658 169.905 347.658 179.405C424.458 187.005 455.324 166.905 461.158 155.905" stroke="#DFBED8" stroke-opacity="0.6"/>
<path d="M-275.195 138.825C-232.862 107.492 -116.995 50.3252 7.80469 72.3252C163.805 99.8252 231.805 172.325 327.805 181.825C404.605 189.425 435.471 169.325 441.305 158.325" stroke="#DFBED8" stroke-opacity="0.6"/>
<path d="M-295.106 140.713C-252.773 109.38 -136.906 52.2129 -12.106 74.2129C143.894 101.713 211.894 174.213 307.894 183.713C384.694 191.313 415.561 171.213 421.394 160.213" stroke="#DFBED8" stroke-opacity="0.6"/>
<path d="M-315.051 142.197C-272.717 110.864 -156.851 53.6973 -32.0508 75.6973C123.949 103.197 191.949 175.697 287.949 185.197C364.749 192.797 395.616 172.697 401.449 161.697" stroke="#DFBED8" stroke-opacity="0.6"/>
<path d="M-335.019 143.331C-292.685 111.998 -176.819 54.8311 -52.0188 76.8311C103.981 104.331 171.981 176.831 267.981 186.331C344.781 193.931 375.648 173.831 381.481 162.831" stroke="#DFBED8" stroke-opacity="0.6"/>
<path d="M-355.003 144.109C-312.67 112.776 -196.803 55.6094 -72.0034 77.6094C83.9966 105.109 151.997 177.609 247.997 187.109C324.797 194.709 355.663 174.609 361.497 163.609" stroke="#DFBED8" stroke-opacity="0.6"/>
<path d="M-375 144.417C-332.667 113.084 -216.8 55.917 -92 77.917C64 105.417 132 177.917 228 187.417C304.8 195.017 335.667 174.917 341.5 163.917" stroke="#DFBED8" stroke-opacity="0.6"/>
<path d="M-395 144.417C-352.667 113.084 -236.8 55.917 -112 77.917C44 105.417 112 177.917 208 187.417C284.8 195.017 315.667 174.917 321.5 163.917" stroke="#DFBED8" stroke-opacity="0.6"/>
<path d="M-415 144.417C-372.667 113.084 -256.8 55.917 -132 77.917C24 105.417 92 177.917 188 187.417C264.8 195.017 295.667 174.917 301.5 163.917" stroke="#DFBED8" stroke-opacity="0.6"/>
<path d="M-435 144.417C-392.667 113.084 -276.8 55.917 -152 77.917C4 105.417 72 177.917 168 187.417C244.8 195.017 275.667 174.917 281.5 163.917" stroke="#DFBED8" stroke-opacity="0.6"/>
<path d="M-455 144.417C-412.667 113.084 -296.8 55.917 -172 77.917C-16 105.417 52 177.917 148 187.417C224.8 195.017 255.667 174.917 261.5 163.917" stroke="#DFBED8" stroke-opacity="0.6"/>
<path d="M-475 144.417C-432.667 113.084 -316.8 55.917 -192 77.917C-36 105.417 32 177.917 128 187.417C204.8 195.017 235.667 174.917 241.5 163.917" stroke="#DFBED8" stroke-opacity="0.6"/>
</svg>
