<svg width="826" height="156" viewBox="0 0 826 156" fill="none" xmlns="http://www.w3.org/2000/svg">
<path d="M0.999982 26.2851C10.7208 37.2784 72.7051 55.9671 242.876 42.7751C413.047 29.5831 579.863 9.42848 642 1.00015" stroke="#DFBED8" stroke-opacity="0.6"/>
<path d="M19.1162 32.5146C28.837 43.5079 90.8213 62.1966 260.992 49.0046C431.163 35.8126 597.979 15.658 660.116 7.22965" stroke="#DFBED8" stroke-opacity="0.6"/>
<path d="M37.2886 38.6542C47.0093 49.6476 108.994 68.3363 279.165 55.1443C449.335 41.9523 616.152 21.7976 678.289 13.3693" stroke="#DFBED8" stroke-opacity="0.6"/>
<path d="M55.5112 44.7128C65.232 55.7062 127.216 74.3949 297.387 61.2029C467.558 48.0109 634.374 27.8562 696.511 19.4279" stroke="#DFBED8" stroke-opacity="0.6"/>
<path d="M73.7822 50.6933C83.503 61.6867 145.487 80.3753 315.658 67.1833C485.829 53.9913 652.645 33.8367 714.782 25.4084" stroke="#DFBED8" stroke-opacity="0.6"/>
<path d="M92.1001 56.5947C101.821 67.588 163.805 86.2767 333.976 73.0847C504.147 59.8927 670.963 39.7381 733.1 31.3097" stroke="#DFBED8" stroke-opacity="0.6"/>
<path d="M110.465 62.4179C120.186 73.4113 182.17 92.1 352.341 78.908C522.512 65.7159 689.328 45.5613 751.465 37.133" stroke="#DFBED8" stroke-opacity="0.6"/>
<path d="M128.877 68.1581C138.598 79.1515 200.583 97.8402 370.753 84.6482C540.924 71.4562 707.741 51.3015 769.877 42.8732" stroke="#DFBED8" stroke-opacity="0.6"/>
<path d="M147.339 73.8124C157.06 84.8058 219.044 103.494 389.215 90.3025C559.386 77.1105 726.202 56.9558 788.339 48.5275" stroke="#DFBED8" stroke-opacity="0.6"/>
<path d="M165.852 79.3759C175.572 90.3693 237.557 109.058 407.728 95.866C577.898 82.674 744.715 62.5193 806.852 54.091" stroke="#DFBED8" stroke-opacity="0.6"/>
<path d="M184.418 84.8417C194.139 95.8351 256.124 114.524 426.294 101.332C596.465 88.1398 763.282 67.9851 825.418 59.5568" stroke="#DFBED8" stroke-opacity="0.6"/>
<path d="M203.042 90.2011C212.763 101.194 274.748 119.883 444.918 106.691C615.089 93.4992 781.906 73.3445 844.042 64.9162" stroke="#DFBED8" stroke-opacity="0.6"/>
<path d="M221.728 95.4423C231.449 106.436 293.434 125.124 463.605 111.932C633.775 98.7404 800.592 78.5857 862.729 70.1574" stroke="#DFBED8" stroke-opacity="0.6"/>
<path d="M240.481 100.552C250.202 111.545 312.187 130.234 482.357 117.042C652.528 103.85 819.345 83.6951 881.481 75.2668" stroke="#DFBED8" stroke-opacity="0.6"/>
<path d="M259.309 105.514C269.029 116.507 331.014 135.196 501.185 122.004C671.356 108.812 838.172 88.657 900.309 80.2287" stroke="#DFBED8" stroke-opacity="0.6"/>
<path d="M278.218 110.303C287.939 121.296 349.923 139.985 520.094 126.793C690.265 113.601 857.081 93.4461 919.218 85.0177" stroke="#DFBED8" stroke-opacity="0.6"/>
<path d="M297.219 114.891C306.94 125.884 368.924 144.573 539.095 131.381C709.266 118.189 876.082 98.0339 938.219 89.6056" stroke="#DFBED8" stroke-opacity="0.6"/>
<path d="M316.326 119.235C326.046 130.229 388.031 148.917 558.202 135.725C728.373 122.533 895.189 102.379 957.326 93.9503" stroke="#DFBED8" stroke-opacity="0.6"/>
<path d="M335.554 123.28C345.274 134.274 407.259 152.962 577.43 139.77C747.601 126.578 914.417 106.424 976.554 97.9953" stroke="#DFBED8" stroke-opacity="0.6"/>
<path d="M354.925 126.937C364.646 137.931 426.63 156.619 596.801 143.427C766.972 130.235 933.789 110.081 995.925 101.652" stroke="#DFBED8" stroke-opacity="0.6"/>
<path d="M374.466 130.068C384.187 141.062 446.171 159.75 616.342 146.558C786.513 133.366 953.33 113.212 1015.47 104.783" stroke="#DFBED8" stroke-opacity="0.6"/>
<path d="M394.207 132.428C403.928 143.421 465.912 162.11 636.083 148.918C806.254 135.726 973.07 115.571 1035.21 107.143" stroke="#DFBED8" stroke-opacity="0.6"/>
<path d="M414.129 133.506C423.85 144.499 485.834 163.188 656.005 149.996C826.176 136.804 992.992 116.649 1055.13 108.221" stroke="#DFBED8" stroke-opacity="0.6"/>
<path d="M434.124 133.182C443.845 144.175 505.83 162.864 676.001 149.672C846.171 136.48 1012.99 116.325 1075.12 107.897" stroke="#DFBED8" stroke-opacity="0.6"/>
<path d="M454.044 131.869C463.765 142.862 525.749 161.551 695.92 148.359C866.091 135.167 1032.91 115.012 1095.04 106.584" stroke="#DFBED8" stroke-opacity="0.6"/>
<path d="M473.825 129.696C483.545 140.69 545.53 159.378 715.701 146.186C885.872 132.994 1052.69 112.84 1114.82 104.411" stroke="#DFBED8" stroke-opacity="0.6"/>
<path d="M493.425 126.77C503.146 137.764 565.13 156.452 735.301 143.26C905.472 130.068 1072.29 109.914 1134.42 101.486" stroke="#DFBED8" stroke-opacity="0.6"/>
<path d="M512.819 123.181C522.54 134.174 584.524 152.863 754.695 139.671C924.866 126.479 1091.68 106.324 1153.82 97.8957" stroke="#DFBED8" stroke-opacity="0.6"/>
<path d="M531.991 118.994C541.712 129.987 603.696 148.676 773.867 135.484C944.038 122.292 1110.85 102.137 1172.99 93.7091" stroke="#DFBED8" stroke-opacity="0.6"/>
<path d="M550.929 114.265C560.649 125.258 622.634 143.947 792.805 130.755C962.976 117.563 1129.79 97.408 1191.93 88.9796" stroke="#DFBED8" stroke-opacity="0.6"/>
<path d="M569.62 109.034C579.34 120.027 641.325 138.716 811.496 125.524C981.667 112.332 1148.48 92.1775 1210.62 83.7492" stroke="#DFBED8" stroke-opacity="0.6"/>
<path d="M588.049 103.321C597.77 114.315 659.754 133.003 829.925 119.811C1000.1 106.619 1166.91 86.4646 1229.05 78.0363" stroke="#DFBED8" stroke-opacity="0.6"/>
<path d="M606.191 97.1337C615.912 108.127 677.896 126.816 848.067 113.624C1018.24 100.432 1185.05 80.2771 1247.19 71.8488" stroke="#DFBED8" stroke-opacity="0.6"/>
<path d="M623.998 90.4413C633.719 101.435 695.703 120.123 865.874 106.931C1036.04 93.7394 1202.86 73.5847 1265 65.1564" stroke="#DFBED8" stroke-opacity="0.6"/>
</svg>
