<svg width="964" height="159" viewBox="0 0 964 159" fill="none" xmlns="http://www.w3.org/2000/svg">
<path d="M708.125 49.9913C739.792 33.708 845.525 1.1416 1015.12 1.1416C1184.73 1.1416 1400.12 52.9727 1486.62 78.8882" stroke="#DFBED8" stroke-opacity="0.6"/>
<path d="M688.125 49.9229C719.792 33.6397 825.525 1.07324 995.125 1.07324C1164.73 1.07324 1380.13 52.9043 1466.63 78.8199" stroke="#DFBED8" stroke-opacity="0.6"/>
<path d="M668.126 49.8497C699.793 33.5664 805.526 1 975.126 1C1144.73 1 1360.13 52.8311 1446.63 78.7466" stroke="#DFBED8" stroke-opacity="0.6"/>
<path d="M648.126 49.8672C679.793 33.584 785.526 1.01758 955.126 1.01758C1124.73 1.01758 1340.13 52.8487 1426.63 78.7642" stroke="#DFBED8" stroke-opacity="0.6"/>
<path d="M628.127 50.0318C659.794 33.7486 765.527 1.18213 935.127 1.18213C1104.73 1.18213 1320.13 53.0132 1406.63 78.9288" stroke="#DFBED8" stroke-opacity="0.6"/>
<path d="M608.134 50.3799C639.8 34.0967 745.534 1.53027 915.134 1.53027C1084.73 1.53027 1300.13 53.3614 1386.63 79.2769" stroke="#DFBED8" stroke-opacity="0.6"/>
<path d="M588.15 50.938C619.817 34.6548 725.55 2.08838 895.15 2.08838C1064.75 2.08838 1280.15 53.9195 1366.65 79.835" stroke="#DFBED8" stroke-opacity="0.6"/>
<path d="M568.183 51.7256C599.849 35.4424 705.583 2.87598 875.183 2.87598C1044.78 2.87598 1260.18 54.7071 1346.68 80.6226" stroke="#DFBED8" stroke-opacity="0.6"/>
<path d="M548.239 52.7569C579.906 36.4737 685.639 3.90723 855.239 3.90723C1024.84 3.90723 1240.24 55.7383 1326.74 81.6539" stroke="#DFBED8" stroke-opacity="0.6"/>
<path d="M528.327 54.0455C559.994 37.7622 665.727 5.1958 835.327 5.1958C1004.93 5.1958 1220.33 57.0269 1306.83 82.9424" stroke="#DFBED8" stroke-opacity="0.6"/>
<path d="M508.455 55.6006C540.122 39.3174 645.855 6.75098 815.455 6.75098C985.055 6.75098 1200.46 58.5821 1286.96 84.4976" stroke="#DFBED8" stroke-opacity="0.6"/>
<path d="M488.633 57.4312C520.299 41.148 626.033 8.58154 795.633 8.58154C965.233 8.58154 1180.63 60.4126 1267.13 86.3282" stroke="#DFBED8" stroke-opacity="0.6"/>
<path d="M468.87 59.544C500.537 43.2608 606.27 10.6943 775.87 10.6943C945.47 10.6943 1160.87 62.5254 1247.37 88.441" stroke="#DFBED8" stroke-opacity="0.6"/>
<path d="M449.177 61.9454C480.843 45.6621 586.577 13.0957 756.177 13.0957C925.777 13.0957 1141.18 64.9268 1227.68 90.8423" stroke="#DFBED8" stroke-opacity="0.6"/>
<path d="M429.564 64.6397C461.231 48.3565 566.964 15.79 736.564 15.79C906.164 15.79 1121.56 67.6211 1208.06 93.5367" stroke="#DFBED8" stroke-opacity="0.6"/>
<path d="M410.042 67.6314C441.709 51.3482 547.442 18.7817 717.042 18.7817C886.642 18.7817 1102.04 70.6128 1188.54 96.5284" stroke="#DFBED8" stroke-opacity="0.6"/>
<path d="M390.551 70.7037C422.217 54.4204 527.951 21.854 697.551 21.854C867.151 21.854 1082.55 73.6851 1169.05 99.6006" stroke="#DFBED8" stroke-opacity="0.6"/>
<path d="M370.985 73.5547C402.652 57.2715 508.385 24.7051 677.985 24.7051C847.585 24.7051 1062.98 76.5362 1149.48 102.452" stroke="#DFBED8" stroke-opacity="0.6"/>
<path d="M351.354 76.1856C383.02 59.9024 488.754 27.3359 658.354 27.3359C827.954 27.3359 1043.35 79.167 1129.85 105.083" stroke="#DFBED8" stroke-opacity="0.6"/>
<path d="M331.673 78.6348C363.34 62.3516 469.073 29.7852 638.673 29.7852C808.273 29.7852 1023.67 81.6162 1110.17 107.532" stroke="#DFBED8" stroke-opacity="0.6"/>
<path d="M311.971 81C343.637 64.7168 449.371 32.1504 618.971 32.1504C788.571 32.1504 1003.97 83.9815 1090.47 109.897" stroke="#DFBED8" stroke-opacity="0.6"/>
<path d="M292.284 83.4273C323.951 67.1441 429.684 34.5776 599.284 34.5776C768.884 34.5776 984.284 86.4087 1070.78 112.324" stroke="#DFBED8" stroke-opacity="0.6"/>
<path d="M272.656 86.0674C304.323 69.7842 410.056 37.2178 579.656 37.2178C749.256 37.2178 964.656 89.0489 1051.16 114.964" stroke="#DFBED8" stroke-opacity="0.6"/>
<path d="M253.122 89.0201C284.789 72.7368 390.522 40.1704 560.122 40.1704C729.722 40.1704 945.122 92.0015 1031.62 117.917" stroke="#DFBED8" stroke-opacity="0.6"/>
<path d="M233.703 92.314C265.37 76.0308 371.103 43.4644 540.703 43.4644C710.303 43.4644 925.703 95.2954 1012.2 121.211" stroke="#DFBED8" stroke-opacity="0.6"/>
<path d="M214.406 95.9297C246.073 79.6465 351.806 47.0801 521.406 47.0801C691.006 47.0801 906.406 98.9112 992.906 124.827" stroke="#DFBED8" stroke-opacity="0.6"/>
<path d="M195.225 99.8257C226.891 83.5425 332.625 50.9761 502.225 50.9761C671.825 50.9761 887.225 102.807 973.725 128.723" stroke="#DFBED8" stroke-opacity="0.6"/>
<path d="M176.147 103.957C207.814 87.6739 313.547 55.1074 483.147 55.1074C652.747 55.1074 868.147 106.939 954.647 132.854" stroke="#DFBED8" stroke-opacity="0.6"/>
<path d="M157.162 108.285C188.829 92.0015 294.562 59.4351 464.162 59.4351C633.762 59.4351 849.162 111.266 935.662 137.182" stroke="#DFBED8" stroke-opacity="0.6"/>
<path d="M138.257 112.774C169.924 96.4912 275.657 63.9248 445.257 63.9248C614.857 63.9248 830.257 115.756 916.757 141.671" stroke="#DFBED8" stroke-opacity="0.6"/>
<path d="M119.415 117.356C151.081 101.073 256.815 68.5068 426.415 68.5068C596.015 68.5068 811.415 120.338 897.915 146.253" stroke="#DFBED8" stroke-opacity="0.6"/>
<path d="M100.152 121.06C131.819 104.776 237.552 72.21 407.152 72.21C576.752 72.21 792.152 124.041 878.652 149.957" stroke="#DFBED8" stroke-opacity="0.6"/>
<path d="M80.562 123.831C112.229 107.548 217.962 74.9814 387.562 74.9814C557.162 74.9814 772.562 126.813 859.062 152.728" stroke="#DFBED8" stroke-opacity="0.6"/>
<path d="M60.7964 125.931C92.4631 109.648 198.196 77.0815 367.796 77.0815C537.396 77.0815 752.796 128.913 839.296 154.828" stroke="#DFBED8" stroke-opacity="0.6"/>
<path d="M40.9243 127.483C72.591 111.2 178.324 78.6338 347.924 78.6338C517.524 78.6338 732.924 130.465 819.424 156.38" stroke="#DFBED8" stroke-opacity="0.6"/>
<path d="M20.9834 128.54C52.6501 112.257 158.383 79.6904 327.983 79.6904C497.583 79.6904 712.983 131.522 799.483 157.437" stroke="#DFBED8" stroke-opacity="0.6"/>
<path d="M1 129.103C32.6667 112.82 138.4 80.2534 308 80.2534C477.6 80.2534 693 132.085 779.5 158" stroke="#DFBED8" stroke-opacity="0.6"/>
</svg>
