<svg width="926" height="156" viewBox="0 0 926 156" fill="none" xmlns="http://www.w3.org/2000/svg">
<path d="M924.998 129.248C915.277 118.255 853.293 99.566 683.122 112.758C512.951 125.95 346.135 146.105 283.998 154.533" stroke="#DFBED8" stroke-opacity="0.6"/>
<path d="M906.882 123.019C897.161 112.025 835.177 93.3365 665.006 106.529C494.835 119.721 328.019 139.875 265.882 148.304" stroke="#DFBED8" stroke-opacity="0.6"/>
<path d="M888.709 116.879C878.989 105.886 817.004 87.1969 646.833 100.389C476.663 113.581 309.846 133.736 247.709 142.164" stroke="#DFBED8" stroke-opacity="0.6"/>
<path d="M870.487 110.82C860.766 99.827 798.782 81.1383 628.611 94.3303C458.44 107.522 291.624 127.677 229.487 136.105" stroke="#DFBED8" stroke-opacity="0.6"/>
<path d="M852.216 104.84C842.495 93.8465 780.511 75.1578 610.34 88.3498C440.169 101.542 273.353 121.697 211.216 130.125" stroke="#DFBED8" stroke-opacity="0.6"/>
<path d="M833.898 98.9385C824.177 87.9451 762.193 69.2564 592.022 82.4485C421.851 95.6405 255.035 115.795 192.898 124.223" stroke="#DFBED8" stroke-opacity="0.6"/>
<path d="M815.533 93.1152C805.812 82.1219 743.828 63.4332 573.657 76.6252C403.486 89.8172 236.67 109.972 174.533 118.4" stroke="#DFBED8" stroke-opacity="0.6"/>
<path d="M797.121 87.375C787.4 76.3817 725.416 57.693 555.245 70.885C385.074 84.077 218.257 104.232 156.121 112.66" stroke="#DFBED8" stroke-opacity="0.6"/>
<path d="M778.659 81.7207C768.938 70.7274 706.954 52.0387 536.783 65.2307C366.612 78.4227 199.796 98.5774 137.659 107.006" stroke="#DFBED8" stroke-opacity="0.6"/>
<path d="M760.147 76.1572C750.426 65.1639 688.441 46.4752 518.27 59.6672C348.1 72.8592 181.283 93.0139 119.146 101.442" stroke="#DFBED8" stroke-opacity="0.6"/>
<path d="M741.58 70.6914C731.859 59.6981 669.875 41.0094 499.704 54.2014C329.533 67.3934 162.716 87.5481 100.58 95.9764" stroke="#DFBED8" stroke-opacity="0.6"/>
<path d="M722.956 65.332C713.235 54.3387 651.251 35.65 481.08 48.842C310.909 62.034 144.092 82.1887 81.9556 90.617" stroke="#DFBED8" stroke-opacity="0.6"/>
<path d="M704.27 60.0908C694.549 49.0975 632.564 30.4088 462.394 43.6008C292.223 56.7928 125.406 76.9475 63.2695 85.3758" stroke="#DFBED8" stroke-opacity="0.6"/>
<path d="M685.517 54.9814C675.796 43.9881 613.812 25.2994 443.641 38.4914C273.47 51.6834 106.653 71.8381 44.5166 80.2664" stroke="#DFBED8" stroke-opacity="0.6"/>
<path d="M666.689 50.0195C656.969 39.0262 594.984 20.3375 424.813 33.5295C254.643 46.7215 87.8262 66.8762 25.6895 75.3045" stroke="#DFBED8" stroke-opacity="0.6"/>
<path d="M647.78 45.2305C638.06 34.2371 576.075 15.5484 405.904 28.7404C235.733 41.9325 68.9171 62.0871 6.78027 70.5155" stroke="#DFBED8" stroke-opacity="0.6"/>
<path d="M628.779 40.6426C619.059 29.6492 557.074 10.9605 386.903 24.1526C216.732 37.3446 49.9161 57.4992 -12.2207 65.9276" stroke="#DFBED8" stroke-opacity="0.6"/>
<path d="M609.672 36.2979C599.952 25.3045 537.967 6.61581 367.796 19.8078C197.625 32.9999 30.8091 53.1545 -31.3276 61.5829" stroke="#DFBED8" stroke-opacity="0.6"/>
<path d="M590.444 32.2529C580.724 21.2596 518.739 2.57089 348.568 15.7629C178.397 28.9549 11.5811 49.1096 -50.5557 57.5379" stroke="#DFBED8" stroke-opacity="0.6"/>
<path d="M571.073 28.5957C561.352 17.6024 499.368 -1.08634 329.197 12.1057C159.026 25.2977 -7.79046 45.4524 -69.9272 53.8807" stroke="#DFBED8" stroke-opacity="0.6"/>
<path d="M551.532 25.4648C541.811 14.4715 479.827 -4.2172 309.656 8.97482C139.485 22.1668 -27.3315 42.3215 -89.4683 50.7498" stroke="#DFBED8" stroke-opacity="0.6"/>
<path d="M531.791 23.1055C522.07 12.1121 460.086 -6.57657 289.915 6.61545C119.744 19.8075 -47.0722 39.9621 -109.209 48.3905" stroke="#DFBED8" stroke-opacity="0.6"/>
<path d="M511.869 22.0273C502.148 11.034 440.164 -7.6547 269.993 5.53732C99.8222 18.7293 -66.9941 38.884 -129.131 47.3123" stroke="#DFBED8" stroke-opacity="0.6"/>
<path d="M491.874 22.3516C482.153 11.3582 420.168 -7.33048 249.998 5.86154C79.8266 19.0536 -86.9897 39.2082 -149.126 47.6366" stroke="#DFBED8" stroke-opacity="0.6"/>
<path d="M471.954 23.6641C462.233 12.6707 400.249 -6.01798 230.078 7.17404C59.9067 20.3661 -106.91 40.5207 -169.046 48.9491" stroke="#DFBED8" stroke-opacity="0.6"/>
<path d="M452.173 25.8369C442.453 14.8436 380.468 -3.84513 210.297 9.34689C40.1264 22.5389 -126.69 42.6936 -188.827 51.1219" stroke="#DFBED8" stroke-opacity="0.6"/>
<path d="M432.573 28.7627C422.852 17.7693 360.868 -0.919344 190.697 12.2727C20.5263 25.4647 -146.29 45.6194 -208.427 54.0477" stroke="#DFBED8" stroke-opacity="0.6"/>
<path d="M413.179 32.3525C403.458 21.3592 341.474 2.6705 171.303 15.8625C1.13179 29.0545 -165.685 49.2092 -227.821 57.6375" stroke="#DFBED8" stroke-opacity="0.6"/>
<path d="M394.007 36.5391C384.286 25.5457 322.302 6.85702 152.131 20.049C-18.0401 33.2411 -184.856 53.3957 -246.993 61.8241" stroke="#DFBED8" stroke-opacity="0.6"/>
<path d="M375.069 41.2686C365.349 30.2752 303.364 11.5865 133.193 24.7785C-36.9776 37.9706 -203.794 58.1252 -265.931 66.5536" stroke="#DFBED8" stroke-opacity="0.6"/>
<path d="M356.378 46.499C346.658 35.5057 284.673 16.817 114.502 30.009C-55.6685 43.201 -222.485 63.3557 -284.622 71.784" stroke="#DFBED8" stroke-opacity="0.6"/>
<path d="M337.949 52.2119C328.228 41.2186 266.244 22.5299 96.0732 35.7219C-74.0977 48.9139 -240.914 69.0686 -303.051 77.4969" stroke="#DFBED8" stroke-opacity="0.6"/>
<path d="M319.807 58.3994C310.086 47.4061 248.102 28.7174 77.9311 41.9094C-92.2398 55.1014 -259.056 75.2561 -321.193 83.6844" stroke="#DFBED8" stroke-opacity="0.6"/>
<path d="M302 65.0918C292.279 54.0985 230.295 35.4098 60.124 48.6018C-110.047 61.7938 -276.863 81.9485 -339 90.3768" stroke="#DFBED8" stroke-opacity="0.6"/>
</svg>
