<svg width="1005" height="195" viewBox="0 0 1005 195" fill="none" xmlns="http://www.w3.org/2000/svg">
<path d="M762.749 160.748C827.916 127.415 983.249 70.748 1083.25 110.748C1183.25 150.748 1438.58 183.081 1553.75 194.248" stroke="#DFBED8" stroke-opacity="0.6"/>
<path d="M742.856 158.68C808.023 125.346 963.356 68.6797 1063.36 108.68C1163.36 148.68 1418.69 181.013 1533.86 192.18" stroke="#DFBED8" stroke-opacity="0.6"/>
<path d="M722.975 156.502C788.142 123.169 943.475 66.5024 1043.48 106.502C1143.48 146.502 1398.81 178.836 1513.98 190.002" stroke="#DFBED8" stroke-opacity="0.6"/>
<path d="M703.104 154.228C768.271 120.895 923.604 64.228 1023.6 104.228C1123.6 144.228 1378.94 176.561 1494.1 187.728" stroke="#DFBED8" stroke-opacity="0.6"/>
<path d="M683.245 151.862C748.412 118.529 903.745 61.8623 1003.75 101.862C1103.75 141.862 1359.08 174.196 1474.25 185.362" stroke="#DFBED8" stroke-opacity="0.6"/>
<path d="M663.396 149.407C728.563 116.074 883.896 59.4072 983.896 99.4072C1083.9 139.407 1339.23 171.741 1454.4 182.907" stroke="#DFBED8" stroke-opacity="0.6"/>
<path d="M643.559 146.864C708.725 113.531 864.059 56.8642 964.059 96.8642C1064.06 136.864 1319.39 169.198 1434.56 180.364" stroke="#DFBED8" stroke-opacity="0.6"/>
<path d="M623.733 144.231C688.9 110.898 844.233 54.2314 944.233 94.2314C1044.23 134.231 1299.57 166.565 1414.73 177.731" stroke="#DFBED8" stroke-opacity="0.6"/>
<path d="M603.919 141.507C669.086 108.173 824.419 51.5068 924.419 91.5068C1024.42 131.507 1279.75 163.84 1394.92 175.007" stroke="#DFBED8" stroke-opacity="0.6"/>
<path d="M584.119 138.687C649.286 105.354 804.619 48.6875 904.619 88.6875C1004.62 128.687 1259.95 161.021 1375.12 172.188" stroke="#DFBED8" stroke-opacity="0.6"/>
<path d="M564.333 135.767C629.5 102.433 784.833 45.7666 884.833 85.7666C984.833 125.767 1240.17 158.1 1355.33 169.267" stroke="#DFBED8" stroke-opacity="0.6"/>
<path d="M544.564 132.739C609.731 99.4059 765.064 42.7392 865.064 82.7392C965.064 122.739 1220.4 155.073 1335.56 166.239" stroke="#DFBED8" stroke-opacity="0.6"/>
<path d="M524.812 129.597C589.979 96.2638 745.312 39.5971 845.312 79.5971C945.312 119.597 1200.65 151.93 1315.81 163.097" stroke="#DFBED8" stroke-opacity="0.6"/>
<path d="M505.081 126.33C570.248 92.9967 725.581 36.33 825.581 76.33C925.581 116.33 1180.91 148.663 1296.08 159.83" stroke="#DFBED8" stroke-opacity="0.6"/>
<path d="M485.373 122.925C550.539 89.5919 705.873 32.9253 805.873 72.9253C905.873 112.925 1161.21 145.259 1276.37 156.425" stroke="#DFBED8" stroke-opacity="0.6"/>
<path d="M465.691 119.368C530.858 86.0348 686.191 29.3681 786.191 69.3681C886.191 109.368 1141.52 141.701 1256.69 152.868" stroke="#DFBED8" stroke-opacity="0.6"/>
<path d="M446.042 115.64C511.209 82.3068 666.542 25.6401 766.542 65.6401C866.542 105.64 1121.88 137.973 1237.04 149.14" stroke="#DFBED8" stroke-opacity="0.6"/>
<path d="M426.431 111.716C491.597 78.3825 646.931 21.7158 746.931 61.7158C846.931 101.716 1102.26 134.049 1217.43 145.216" stroke="#DFBED8" stroke-opacity="0.6"/>
<path d="M406.867 107.564C472.033 74.2311 627.367 17.5644 727.367 57.5644C827.367 97.5644 1082.7 129.898 1197.87 141.064" stroke="#DFBED8" stroke-opacity="0.6"/>
<path d="M387.361 103.144C452.528 69.8102 607.861 13.1435 707.861 53.1435C807.861 93.1435 1063.19 125.477 1178.36 136.644" stroke="#DFBED8" stroke-opacity="0.6"/>
<path d="M367.934 98.3935C433.1 65.0602 588.434 8.39353 688.434 48.3935C788.434 88.3935 1043.77 120.727 1158.93 131.894" stroke="#DFBED8" stroke-opacity="0.6"/>
<path d="M348.611 93.2319C413.778 59.8986 569.111 3.2319 669.111 43.2319C769.111 83.2319 1024.44 115.565 1139.61 126.732" stroke="#DFBED8" stroke-opacity="0.6"/>
<path d="M329.442 87.5278C394.609 54.1945 549.942 -2.4722 649.942 37.5278C749.942 77.5278 1005.28 109.861 1120.44 121.028" stroke="#DFBED8" stroke-opacity="0.6"/>
<path d="M310.516 81.0634C375.682 47.7301 531.016 -8.93655 631.016 31.0634C731.016 71.0634 986.349 103.397 1101.52 114.563" stroke="#DFBED8" stroke-opacity="0.6"/>
<path d="M291.78 74.187C356.947 40.8536 512.28 -15.813 612.28 24.187C712.28 64.187 967.614 96.5203 1082.78 107.687" stroke="#DFBED8" stroke-opacity="0.6"/>
<path d="M272.405 69.2265C337.571 35.8932 492.905 -20.7735 592.905 19.2265C692.905 59.2265 948.238 91.5599 1063.4 102.727" stroke="#DFBED8" stroke-opacity="0.6"/>
<path d="M252.638 66.1801C317.805 32.8468 473.138 -23.8199 573.138 16.1801C673.138 56.1801 928.472 88.5135 1043.64 99.6802" stroke="#DFBED8" stroke-opacity="0.6"/>
<path d="M232.688 64.7715C297.855 31.4381 453.188 -25.2285 553.188 14.7715C653.188 54.7715 908.521 87.1048 1023.69 98.2715" stroke="#DFBED8" stroke-opacity="0.6"/>
<path d="M212.688 64.7578C277.855 31.4244 433.188 -25.2422 533.188 14.7578C633.188 54.7578 888.521 87.0911 1003.69 98.2578" stroke="#DFBED8" stroke-opacity="0.6"/>
<path d="M192.723 65.9365C257.889 32.6032 413.223 -24.0635 513.223 15.9365C613.223 55.9365 868.556 88.2698 983.723 99.4365" stroke="#DFBED8" stroke-opacity="0.6"/>
<path d="M172.845 68.1425C238.011 34.8092 393.345 -21.8575 493.345 18.1425C593.345 58.1425 848.678 90.4759 963.845 101.643" stroke="#DFBED8" stroke-opacity="0.6"/>
<path d="M153.087 71.2441C218.254 37.9108 373.587 -18.7559 473.587 21.2441C573.587 61.2441 828.92 93.5775 944.087 104.744" stroke="#DFBED8" stroke-opacity="0.6"/>
<path d="M133.469 75.1357C198.636 41.8024 353.969 -14.8643 453.969 25.1357C553.969 65.1357 809.303 97.4691 924.469 108.636" stroke="#DFBED8" stroke-opacity="0.6"/>
<path d="M114.005 79.7343C179.172 46.401 334.505 -10.2657 434.505 29.7343C534.505 69.7343 789.838 102.068 905.005 113.234" stroke="#DFBED8" stroke-opacity="0.6"/>
<path d="M94.7036 84.9746C159.87 51.6412 315.204 -5.02542 415.204 34.9746C515.204 74.9746 770.537 107.308 885.704 118.475" stroke="#DFBED8" stroke-opacity="0.6"/>
<path d="M75.5732 90.8076C140.74 57.4743 296.073 0.807589 396.073 40.8076C496.073 80.8076 751.407 113.141 866.573 124.308" stroke="#DFBED8" stroke-opacity="0.6"/>
<path d="M56.6221 97.1992C121.789 63.8659 277.122 7.19919 377.122 47.1992C477.122 87.1992 732.455 119.533 847.622 130.699" stroke="#DFBED8" stroke-opacity="0.6"/>
<path d="M37.8618 104.131C103.028 70.798 258.362 14.1313 358.362 54.1313C458.362 94.1313 713.695 126.465 828.862 137.631" stroke="#DFBED8" stroke-opacity="0.6"/>
<path d="M19.3101 111.604C84.4767 78.2711 239.81 21.6045 339.81 61.6045C439.81 101.604 695.143 133.938 810.31 145.104" stroke="#DFBED8" stroke-opacity="0.6"/>
<path d="M1 119.65C66.1667 86.317 221.5 29.6504 321.5 69.6504C421.5 109.65 676.833 141.984 792 153.15" stroke="#DFBED8" stroke-opacity="0.6"/>
</svg>
