<svg width="804" height="210" viewBox="0 0 804 210" fill="none" xmlns="http://www.w3.org/2000/svg">
<path d="M659 139.261C629.333 166.094 538.6 217.361 413 207.761C287.4 198.161 86 158.094 1.00001 139.261" stroke="#DFBED8" stroke-opacity="0.6"/>
<path d="M678.702 135.826C649.035 162.66 558.302 213.926 432.702 204.326C307.102 194.726 105.702 154.66 20.7022 135.826" stroke="#DFBED8" stroke-opacity="0.6"/>
<path d="M698.176 131.268C668.509 158.102 577.776 209.368 452.176 199.768C326.576 190.168 125.176 150.102 40.1758 131.268" stroke="#DFBED8" stroke-opacity="0.6"/>
<path d="M717.495 126.095C687.828 152.928 597.095 204.195 471.495 194.595C345.895 184.995 144.495 144.928 59.4951 126.095" stroke="#DFBED8" stroke-opacity="0.6"/>
<path d="M736.703 120.523C707.036 147.356 616.303 198.623 490.703 189.023C365.103 179.423 163.703 139.356 78.7031 120.523" stroke="#DFBED8" stroke-opacity="0.6"/>
<path d="M755.827 114.668C726.16 141.502 635.427 192.768 509.827 183.168C384.227 173.568 182.827 133.502 97.8272 114.668" stroke="#DFBED8" stroke-opacity="0.6"/>
<path d="M774.885 108.603C745.219 135.436 654.485 186.703 528.885 177.103C403.285 167.503 201.885 127.436 116.885 108.603" stroke="#DFBED8" stroke-opacity="0.6"/>
<path d="M793.891 102.375C764.224 129.208 673.491 180.475 547.891 170.875C422.291 161.275 220.891 121.208 135.891 102.375" stroke="#DFBED8" stroke-opacity="0.6"/>
<path d="M812.854 96.0193C783.187 122.853 692.454 174.119 566.854 164.519C441.254 154.919 239.854 114.853 154.854 96.0193" stroke="#DFBED8" stroke-opacity="0.6"/>
<path d="M831.783 89.5623C802.117 116.396 711.383 167.662 585.783 158.062C460.183 148.462 258.783 108.396 173.783 89.5623" stroke="#DFBED8" stroke-opacity="0.6"/>
<path d="M850.685 83.0267C821.018 109.86 730.285 161.127 604.685 151.527C479.085 141.927 277.685 101.86 192.685 83.0266" stroke="#DFBED8" stroke-opacity="0.6"/>
<path d="M869.566 76.431C839.9 103.264 749.166 154.531 623.566 144.931C497.966 135.331 296.566 95.2642 211.566 76.4309" stroke="#DFBED8" stroke-opacity="0.6"/>
<path d="M888.433 69.7952C858.766 96.6286 768.033 147.895 642.433 138.295C516.833 128.695 315.433 88.6285 230.433 69.7952" stroke="#DFBED8" stroke-opacity="0.6"/>
<path d="M907.293 63.139C877.626 89.9723 786.893 141.239 661.293 131.639C535.693 122.039 334.293 81.9723 249.293 63.1389" stroke="#DFBED8" stroke-opacity="0.6"/>
<path d="M926.155 56.4876C896.488 83.3209 805.755 134.588 680.155 124.988C554.555 115.388 353.155 75.3209 268.155 56.4875" stroke="#DFBED8" stroke-opacity="0.6"/>
<path d="M945.031 49.8768C915.364 76.7101 824.631 127.977 699.031 118.377C573.431 108.777 372.031 68.71 287.031 49.8767" stroke="#DFBED8" stroke-opacity="0.6"/>
<path d="M963.928 43.3821C934.262 70.2155 843.528 121.482 717.928 111.882C592.328 102.282 390.928 62.2154 305.928 43.3821" stroke="#DFBED8" stroke-opacity="0.6"/>
<path d="M982.946 37.1898C953.279 64.0231 862.546 115.29 736.946 105.69C611.346 96.0897 409.946 56.023 324.946 37.1897" stroke="#DFBED8" stroke-opacity="0.6"/>
<path d="M1002.08 31.3856C972.418 58.2189 881.685 109.486 756.085 99.8855C630.485 90.2855 429.085 50.2188 344.085 31.3855" stroke="#DFBED8" stroke-opacity="0.6"/>
<path d="M1021.34 25.9949C991.678 52.8283 900.945 104.095 775.345 94.4949C649.745 84.8949 448.345 44.8282 363.345 25.9949" stroke="#DFBED8" stroke-opacity="0.6"/>
<path d="M1040.72 21.0467C1011.06 47.88 920.323 99.1467 794.723 89.5467C669.123 79.9467 467.723 39.88 382.723 21.0466" stroke="#DFBED8" stroke-opacity="0.6"/>
<path d="M1060.22 16.5696C1030.55 43.403 939.815 94.6696 814.215 85.0696C688.615 75.4696 487.215 35.4029 402.215 16.5696" stroke="#DFBED8" stroke-opacity="0.6"/>
<path d="M1079.82 12.596C1050.15 39.4293 959.416 90.696 833.816 81.096C708.216 71.496 506.816 31.4293 421.816 12.5959" stroke="#DFBED8" stroke-opacity="0.6"/>
<path d="M1099.52 9.15704C1069.85 35.9904 979.119 87.257 853.519 77.657C727.919 68.057 526.519 27.9903 441.519 9.15698" stroke="#DFBED8" stroke-opacity="0.6"/>
<path d="M1119.31 6.28545C1089.64 33.1188 998.912 84.3854 873.312 74.7854C747.712 65.1854 546.312 25.1187 461.312 6.2854" stroke="#DFBED8" stroke-opacity="0.6"/>
<path d="M1139.18 4.01202C1109.52 30.8453 1018.78 82.112 893.182 72.512C767.582 62.912 566.182 22.8453 481.182 4.01196" stroke="#DFBED8" stroke-opacity="0.6"/>
<path d="M1159.11 2.36358C1129.45 29.1969 1038.71 80.4636 913.114 70.8636C787.514 61.2635 586.114 21.1969 501.114 2.36352" stroke="#DFBED8" stroke-opacity="0.6"/>
<path d="M1179.09 1.3587C1149.42 28.192 1058.69 79.4587 933.088 69.8587C807.488 60.2587 606.088 20.192 521.088 1.35864" stroke="#DFBED8" stroke-opacity="0.6"/>
<path d="M1199.09 0.999809C1169.42 27.8331 1078.69 79.0998 953.085 69.4998C827.485 59.8998 626.085 19.8331 541.085 0.999752" stroke="#DFBED8" stroke-opacity="0.6"/>
<path d="M1219.08 1.26055C1189.42 28.0939 1098.68 79.3605 973.083 69.7605C847.483 60.1605 646.084 20.0938 561.084 1.26049" stroke="#DFBED8" stroke-opacity="0.6"/>
<path d="M1239.07 2.05791C1209.4 28.8912 1118.67 80.1579 993.068 70.5579C867.468 60.9579 666.068 20.8912 581.068 2.05786" stroke="#DFBED8" stroke-opacity="0.6"/>
<path d="M1259.04 3.19903C1229.37 30.0324 1138.64 81.299 1013.04 71.699C887.435 62.099 686.035 22.0323 601.035 3.19897" stroke="#DFBED8" stroke-opacity="0.6"/>
<path d="M1279.01 4.23711C1249.34 31.0704 1158.61 82.3371 1033.01 72.7371C907.408 63.1371 706.008 23.0704 621.008 4.23706" stroke="#DFBED8" stroke-opacity="0.6"/>
</svg>
