<svg width="1728" height="1047" viewBox="0 0 1728 1047" fill="none" xmlns="http://www.w3.org/2000/svg">
<g clip-path="url(#clip0_1_350)">
<rect width="1728" height="1047" fill="white"/>
<g filter="url(#filter0_b_1_350)">
<path fill-rule="evenodd" clip-rule="evenodd" d="M-695.443 257.892C-695.383 -106.124 -650.806 -514.554 -312.134 -716.357C23.9313 -916.606 468.913 -793.024 855.423 -666.215C1205.59 -551.328 1617.57 -382.595 1784 -86.9935C1967.46 238.841 2090.75 905.954 1802.72 1059.2C1585.69 1174.67 1326.02 1088.74 827.864 1135.86C470.601 1169.66 -412.176 1326.15 -731.366 1173.39C-994.977 1047.24 -695.498 592.612 -695.443 257.892Z" fill="url(#paint0_linear_1_350)" fill-opacity="0.8"/>
<path fill-rule="evenodd" clip-rule="evenodd" d="M-695.443 257.892C-695.383 -106.124 -650.806 -514.554 -312.134 -716.357C23.9313 -916.606 468.913 -793.024 855.423 -666.215C1205.59 -551.328 1617.57 -382.595 1784 -86.9935C1967.46 238.841 2090.75 905.954 1802.72 1059.2C1585.69 1174.67 1326.02 1088.74 827.864 1135.86C470.601 1169.66 -412.176 1326.15 -731.366 1173.39C-994.977 1047.24 -695.498 592.612 -695.443 257.892Z" stroke="#768093" stroke-opacity="0.8" stroke-width="6"/>
</g>
<g filter="url(#filter1_bf_1_350)">
<ellipse cx="486.235" cy="428.116" rx="486.235" ry="428.116" transform="matrix(0.996875 0.0789914 -0.0777881 0.99697 -920.724 27.4575)" fill="url(#paint1_radial_1_350)" fill-opacity="0.7"/>
</g>
<g filter="url(#filter2_bf_1_350)">
<ellipse cx="244.955" cy="215.676" rx="244.955" ry="215.676" transform="matrix(0.996875 0.0789914 -0.0777881 0.99697 1551.47 289.16)" fill="url(#paint2_radial_1_350)" fill-opacity="0.9"/>
<path d="M2020.09 542.644C2010.98 659.399 1895.92 746.148 1762.34 735.563C1628.76 724.978 1528.58 621.174 1537.69 504.419C1546.8 387.664 1661.85 300.915 1795.43 311.5C1929.01 322.085 2029.2 425.889 2020.09 542.644Z" stroke="#768093" stroke-width="6"/>
</g>
<mask id="mask0_1_350" style="mask-type:luminance" maskUnits="userSpaceOnUse" x="-807" y="-879" width="2980" height="2068">
<path fill-rule="evenodd" clip-rule="evenodd" d="M-546.622 203.892C-546.562 -160.124 -501.985 -568.553 -163.313 -770.356C172.752 -970.606 617.734 -847.024 1004.24 -720.214C1354.42 -605.327 1766.39 -436.595 1932.83 -140.993C2116.28 184.842 2239.57 851.954 1951.54 1005.2C1734.51 1120.67 1474.84 1034.74 976.685 1081.86C619.423 1115.66 -263.355 1272.15 -582.545 1119.39C-846.156 993.236 -546.677 538.612 -546.622 203.892Z" fill="url(#paint3_linear_1_350)" fill-opacity="0.8" stroke="#768093" stroke-opacity="0.8" stroke-width="6"/>
<ellipse cx="486.235" cy="428.116" rx="486.235" ry="428.116" transform="matrix(0.996875 0.0789914 -0.0777881 0.99697 -771.903 -26.5425)" fill="url(#paint4_radial_1_350)" fill-opacity="0.7"/>
<path d="M2168.91 488.644C2159.8 605.399 2044.74 692.148 1911.16 681.563C1777.59 670.978 1677.4 567.174 1686.51 450.419C1695.62 333.664 1810.67 246.915 1944.25 257.5C2077.83 268.085 2178.02 371.888 2168.91 488.644Z" fill="url(#paint5_radial_1_350)" fill-opacity="0.9" stroke="#768093" stroke-width="6"/>
</mask>
<g mask="url(#mask0_1_350)">
<g style="mix-blend-mode:screen">
<path d="M1791.86 1115.36C1701.41 1211.05 1447.77 1400.44 1156.75 1392.46C792.964 1382.48 276.862 1171.57 201.72 1144.72C121.498 1116.04 72.6358 1048.74 -401.269 1101.43C-780.394 1143.59 -1151.03 1336.72 -1288.96 1428.01" stroke="url(#paint6_linear_1_350)" stroke-opacity="0.4" stroke-linecap="round"/>
<path d="M1815.08 1100.16C1724.64 1195.86 1471 1385.25 1179.97 1377.26C816.189 1367.28 300.087 1156.38 224.946 1129.52C144.723 1100.85 95.8613 1033.55 -378.044 1086.24C-757.168 1128.39 -1127.81 1321.52 -1265.73 1412.82" stroke="url(#paint7_linear_1_350)" stroke-opacity="0.4" stroke-linecap="round"/>
<path d="M1838.24 1084.86C1747.8 1180.55 1494.15 1369.95 1203.13 1361.96C839.346 1351.98 323.244 1141.08 248.102 1114.22C167.88 1085.55 119.018 1018.25 -354.887 1070.94C-734.011 1113.09 -1104.65 1306.22 -1242.58 1397.51" stroke="url(#paint8_linear_1_350)" stroke-opacity="0.4" stroke-linecap="round"/>
<path d="M1861.34 1069.48C1770.9 1165.17 1517.25 1354.57 1226.23 1346.58C862.447 1336.6 346.345 1125.7 271.203 1098.84C190.98 1070.17 142.119 1002.87 -331.787 1055.56C-710.911 1097.71 -1081.55 1290.84 -1219.48 1382.13" stroke="url(#paint9_linear_1_350)" stroke-opacity="0.4" stroke-linecap="round"/>
<path d="M1884.41 1054.07C1793.97 1149.76 1540.33 1339.15 1249.3 1331.17C885.52 1321.19 369.418 1110.28 294.277 1083.43C214.054 1054.75 165.192 987.454 -308.713 1040.14C-687.837 1082.3 -1058.47 1275.42 -1196.4 1366.72" stroke="url(#paint10_linear_1_350)" stroke-opacity="0.4" stroke-linecap="round"/>
<path d="M1907.47 1038.63C1817.03 1134.33 1563.39 1323.72 1272.36 1315.74C908.579 1305.76 392.477 1094.85 317.336 1067.99C237.113 1039.32 188.251 972.022 -285.654 1024.71C-664.778 1066.87 -1035.42 1259.99 -1173.34 1351.29" stroke="url(#paint11_linear_1_350)" stroke-opacity="0.4" stroke-linecap="round"/>
<path d="M1930.55 1023.24C1840.1 1118.93 1586.46 1308.32 1295.43 1300.34C931.651 1290.36 415.549 1079.46 340.407 1052.6C260.185 1023.92 211.323 956.626 -262.582 1009.32C-641.706 1051.47 -1012.34 1244.6 -1150.27 1335.89" stroke="url(#paint12_linear_1_350)" stroke-opacity="0.4" stroke-linecap="round"/>
<path d="M1953.66 1007.91C1863.22 1103.6 1609.57 1292.99 1318.55 1285.01C954.764 1275.03 438.662 1064.13 363.521 1037.27C283.298 1008.6 234.436 941.297 -239.469 993.988C-618.593 1036.14 -989.231 1229.27 -1127.16 1320.56" stroke="url(#paint13_linear_1_350)" stroke-opacity="0.4" stroke-linecap="round"/>
<path d="M1976.84 992.72C1886.4 1088.41 1632.75 1277.81 1341.73 1269.82C977.945 1259.84 461.843 1048.94 386.702 1022.08C306.479 993.407 257.617 926.109 -216.288 978.799C-595.412 1020.95 -966.05 1214.08 -1103.98 1305.37" stroke="url(#paint14_linear_1_350)" stroke-opacity="0.4" stroke-linecap="round"/>
<path d="M2000.14 977.751C1909.7 1073.45 1656.06 1262.84 1365.03 1254.85C1001.25 1244.87 485.146 1033.97 410.004 1007.11C329.781 978.438 280.919 911.14 -192.986 963.83C-572.11 1005.98 -942.748 1199.11 -1080.68 1290.41" stroke="url(#paint15_linear_1_350)" stroke-opacity="0.4" stroke-linecap="round"/>
<path d="M2023.65 963.115C1933.21 1058.81 1679.56 1248.2 1388.54 1240.22C1024.76 1230.24 508.653 1019.33 433.512 992.476C353.289 963.802 304.427 896.504 -169.478 949.194C-548.602 991.347 -919.24 1184.47 -1057.17 1275.77" stroke="url(#paint16_linear_1_350)" stroke-opacity="0.4" stroke-linecap="round"/>
<path d="M2047.35 949.085C1956.91 1044.78 1703.26 1234.17 1412.24 1226.19C1048.45 1216.21 532.352 1005.3 457.211 978.446C376.988 949.771 328.126 882.473 -145.779 935.164C-524.903 977.316 -895.541 1170.44 -1033.47 1261.74" stroke="url(#paint17_linear_1_350)" stroke-opacity="0.4" stroke-linecap="round"/>
<path d="M2071 936.278C1980.55 1031.97 1726.91 1221.36 1435.88 1213.38C1072.1 1203.4 555.999 992.498 480.858 965.639C400.635 936.965 351.773 869.667 -122.132 922.358C-501.256 964.51 -871.894 1157.64 -1009.82 1248.93" stroke="url(#paint18_linear_1_350)" stroke-opacity="0.4" stroke-linecap="round"/>
<path d="M2098.6 924.19C2008.16 1019.88 1754.51 1209.28 1463.49 1201.29C1099.71 1191.31 583.604 980.409 508.462 953.551C428.239 924.877 379.378 857.579 -94.5276 910.269C-473.652 952.422 -844.289 1145.55 -982.218 1236.84" stroke="url(#paint19_linear_1_350)" stroke-opacity="0.4" stroke-linecap="round"/>
<path d="M2124.57 914.537C2034.13 1010.23 1780.48 1199.62 1489.46 1191.64C1125.68 1181.66 609.573 970.756 534.432 943.898C454.209 915.223 405.347 847.925 -68.558 900.616C-447.682 942.768 -818.32 1135.9 -956.248 1227.19" stroke="url(#paint20_linear_1_350)" stroke-opacity="0.4" stroke-linecap="round"/>
<path d="M2150.16 903.789C2059.72 999.483 1806.07 1188.87 1515.05 1180.89C1151.26 1170.91 635.163 960.008 560.021 933.15C479.798 904.476 430.937 837.178 -42.9686 889.868C-422.093 932.021 -792.73 1125.15 -930.659 1216.44" stroke="url(#paint21_linear_1_350)" stroke-opacity="0.4" stroke-linecap="round"/>
<path d="M2175.49 892.432C2085.04 988.125 1831.4 1177.52 1540.37 1169.53C1176.59 1159.55 660.49 948.651 585.349 921.793C505.126 893.118 456.264 825.82 -17.641 878.511C-396.765 920.663 -767.403 1113.79 -905.331 1205.09" stroke="url(#paint22_linear_1_350)" stroke-opacity="0.4" stroke-linecap="round"/>
<path d="M2200.64 880.702C2110.2 976.396 1856.56 1165.79 1565.53 1157.8C1201.75 1147.83 685.646 936.921 610.504 910.063C530.281 881.389 481.42 814.091 7.51431 866.781C-371.61 908.934 -742.248 1102.06 -880.176 1193.36" stroke="url(#paint23_linear_1_350)" stroke-opacity="0.4" stroke-linecap="round"/>
<path d="M2225.69 868.744C2135.24 964.437 1881.6 1153.83 1590.57 1145.85C1226.79 1135.87 710.689 924.963 635.547 898.104C555.324 869.43 506.462 802.132 32.5572 854.823C-346.567 896.975 -717.205 1090.1 -855.133 1181.4" stroke="url(#paint24_linear_1_350)" stroke-opacity="0.4" stroke-linecap="round"/>
<path d="M2250.67 856.633C2160.22 952.327 1906.58 1141.72 1615.55 1133.74C1251.77 1123.76 735.669 912.852 660.528 885.994C580.305 857.32 531.443 790.022 57.538 842.712C-321.586 884.865 -692.224 1077.99 -830.152 1169.29" stroke="url(#paint25_linear_1_350)" stroke-opacity="0.4" stroke-linecap="round"/>
<path d="M2275.61 844.454C2185.16 940.148 1931.52 1129.54 1640.49 1121.56C1276.71 1111.58 760.609 900.673 685.467 873.815C605.244 845.141 556.382 777.843 82.4771 830.533C-296.647 872.686 -667.285 1065.81 -805.213 1157.11" stroke="url(#paint26_linear_1_350)" stroke-opacity="0.4" stroke-linecap="round"/>
<path d="M2300.54 832.262C2210.09 927.956 1956.45 1117.35 1665.42 1109.36C1301.64 1099.39 785.539 888.481 710.398 861.623C630.175 832.948 581.313 765.65 107.408 818.341C-271.716 860.493 -642.354 1053.62 -780.282 1144.92" stroke="url(#paint27_linear_1_350)" stroke-opacity="0.4" stroke-linecap="round"/>
<path d="M2325.49 820.1C2235.04 915.794 1981.4 1105.19 1690.38 1097.2C1326.59 1087.22 810.491 876.319 735.349 849.461C655.127 820.787 606.265 753.489 132.36 806.179C-246.765 848.331 -617.402 1041.46 -755.33 1132.75" stroke="url(#paint28_linear_1_350)" stroke-opacity="0.4" stroke-linecap="round"/>
<path d="M2350.48 808.033C2260.04 903.727 2006.4 1093.12 1715.37 1085.14C1351.59 1075.16 835.486 864.252 760.345 837.394C680.122 808.72 631.26 741.422 157.355 794.112C-221.769 836.265 -592.407 1029.39 -730.335 1120.69" stroke="url(#paint29_linear_1_350)" stroke-opacity="0.4" stroke-linecap="round"/>
<path d="M2375.55 796.118C2285.11 891.812 2031.46 1081.2 1740.44 1073.22C1376.65 1063.24 860.552 852.337 785.41 825.479C705.188 796.805 656.326 729.507 182.421 782.197C-196.703 824.349 -567.341 1017.48 -705.269 1108.77" stroke="url(#paint30_linear_1_350)" stroke-opacity="0.4" stroke-linecap="round"/>
<path d="M2400.72 784.419C2310.28 880.112 2056.63 1069.5 1765.61 1061.52C1401.83 1051.54 885.724 840.638 810.582 813.78C730.36 785.105 681.498 717.807 207.593 770.498C-171.532 812.65 -542.169 1005.78 -680.098 1097.07" stroke="url(#paint31_linear_1_350)" stroke-opacity="0.4" stroke-linecap="round"/>
<path d="M2426.03 773.035C2335.59 868.729 2081.94 1058.12 1790.92 1050.14C1427.14 1040.16 911.035 829.254 835.893 802.396C755.671 773.722 706.809 706.424 232.904 759.114C-146.221 801.267 -516.858 994.395 -654.786 1085.69" stroke="url(#paint32_linear_1_350)" stroke-opacity="0.4" stroke-linecap="round"/>
<path d="M2451.54 762.093C2361.1 857.787 2107.46 1047.18 1816.43 1039.2C1452.65 1029.22 936.546 818.312 861.404 791.454C781.181 762.78 732.319 695.482 258.414 748.172C-120.71 790.324 -491.348 983.453 -629.276 1074.75" stroke="url(#paint33_linear_1_350)" stroke-opacity="0.4" stroke-linecap="round"/>
<path d="M2477.32 751.808C2386.88 847.502 2133.24 1036.89 1842.21 1028.91C1478.43 1018.93 962.326 808.027 887.184 781.169C806.962 752.495 758.1 685.197 284.195 737.887C-94.9297 780.04 -465.567 973.168 -603.496 1064.46" stroke="url(#paint34_linear_1_350)" stroke-opacity="0.4" stroke-linecap="round"/>
<path d="M2503.49 742.553C2413.04 838.247 2159.4 1027.64 1868.37 1019.66C1504.59 1009.68 988.489 798.772 913.347 771.914C833.124 743.239 784.263 675.941 310.357 728.632C-68.7669 770.784 -439.404 963.912 -577.333 1055.21" stroke="url(#paint35_linear_1_350)" stroke-opacity="0.4" stroke-linecap="round"/>
<path d="M2530.23 735.14C2439.79 830.833 2186.15 1020.23 1895.12 1012.24C1531.34 1002.26 1015.24 791.359 940.096 764.501C859.873 735.826 811.011 668.528 337.106 721.219C-42.0183 763.371 -412.656 956.499 -550.584 1047.79" stroke="url(#paint36_linear_1_350)" stroke-opacity="0.4" stroke-linecap="round"/>
<path d="M2557.78 732.103C2467.33 827.797 2213.69 1017.19 1922.66 1009.21C1558.88 999.227 1042.78 788.323 967.638 761.464C887.415 732.79 838.553 665.492 364.648 718.183C-14.4761 760.335 -385.114 953.463 -523.042 1044.76" stroke="url(#paint37_linear_1_350)" stroke-opacity="0.4" stroke-linecap="round"/>
<path d="M2585.47 733.941C2495.03 829.635 2241.38 1019.03 1950.36 1011.04C1586.58 1001.06 1070.47 790.161 995.332 763.302C915.109 734.628 866.247 667.33 392.342 720.021C13.2176 762.173 -357.42 955.301 -495.348 1046.6" stroke="url(#paint38_linear_1_350)" stroke-opacity="0.4" stroke-linecap="round"/>
<path d="M2613.03 737.229C2522.59 832.922 2268.94 1022.31 1977.92 1014.33C1614.13 1004.35 1098.03 793.448 1022.89 766.59C942.668 737.915 893.806 670.617 419.901 723.308C40.7765 765.46 -329.861 958.588 -467.789 1049.88" stroke="url(#paint39_linear_1_350)" stroke-opacity="0.4" stroke-linecap="round"/>
<path d="M2640.49 741.216C2550.05 836.91 2296.41 1026.3 2005.38 1018.32C1641.6 1008.34 1125.5 797.435 1050.36 770.577C970.133 741.903 921.271 674.605 447.366 727.295C68.2417 769.448 -302.396 962.576 -440.324 1053.87" stroke="url(#paint40_linear_1_350)" stroke-opacity="0.4" stroke-linecap="round"/>
<path d="M2667.9 745.623C2577.46 841.317 2323.81 1030.71 2032.79 1022.73C1669 1012.75 1152.9 801.843 1077.76 774.984C997.538 746.31 948.676 679.012 474.771 731.702C95.6467 773.855 -274.991 966.983 -412.919 1058.28" stroke="url(#paint41_linear_1_350)" stroke-opacity="0.4" stroke-linecap="round"/>
<path d="M2695.25 750.312C2604.81 846.006 2351.17 1035.4 2060.14 1027.41C1696.36 1017.44 1180.26 806.531 1105.12 779.673C1024.89 750.999 976.031 683.7 502.126 736.391C123.002 778.543 -247.636 971.671 -385.564 1062.97" stroke="url(#paint42_linear_1_350)" stroke-opacity="0.4" stroke-linecap="round"/>
<path d="M2722.58 755.208C2632.13 850.901 2378.49 1040.29 2087.47 1032.31C1723.68 1022.33 1207.58 811.427 1132.44 784.568C1052.22 755.894 1003.36 688.596 529.45 741.287C150.326 783.439 -220.312 976.567 -358.24 1067.86" stroke="url(#paint43_linear_1_350)" stroke-opacity="0.4" stroke-linecap="round"/>
<path d="M2749.87 760.255C2659.43 855.949 2405.78 1045.34 2114.76 1037.36C1750.97 1027.38 1234.87 816.474 1159.73 789.616C1079.51 760.942 1030.65 693.644 556.741 746.334C177.617 788.487 -193.021 981.615 -330.949 1072.91" stroke="url(#paint44_linear_1_350)" stroke-opacity="0.4" stroke-linecap="round"/>
<path d="M2777.14 765.423C2686.7 861.117 2433.05 1050.51 2142.03 1042.53C1778.24 1032.55 1262.14 821.642 1187 794.784C1106.78 766.11 1057.92 698.812 584.011 751.502C204.887 793.655 -165.751 986.783 -303.679 1078.08" stroke="url(#paint45_linear_1_350)" stroke-opacity="0.4" stroke-linecap="round"/>
<path d="M2804.39 770.678C2713.95 866.372 2460.31 1055.76 2169.28 1047.78C1805.5 1037.8 1289.4 826.897 1214.25 800.039C1134.03 771.365 1085.17 704.067 611.264 756.757C232.14 798.91 -138.497 992.038 -276.426 1083.33" stroke="url(#paint46_linear_1_350)" stroke-opacity="0.4" stroke-linecap="round"/>
<path d="M2831.63 776.002C2741.19 871.696 2487.54 1061.09 2196.52 1053.1C1832.74 1043.13 1316.63 832.221 1241.49 805.363C1161.27 776.689 1112.41 709.391 638.503 762.081C259.379 804.234 -111.259 997.362 -249.187 1088.66" stroke="url(#paint47_linear_1_350)" stroke-opacity="0.4" stroke-linecap="round"/>
<path d="M2858.86 781.387C2768.42 877.081 2514.78 1066.47 2223.75 1058.49C1859.97 1048.51 1343.87 837.606 1268.73 810.748C1188.5 782.074 1139.64 714.775 665.736 767.466C286.612 809.618 -84.026 1002.75 -221.954 1094.04" stroke="url(#paint48_linear_1_350)" stroke-opacity="0.4" stroke-linecap="round"/>
<path d="M2886.08 786.802C2795.64 882.495 2542 1071.89 2250.97 1063.9C1887.19 1053.92 1371.09 843.021 1295.95 816.163C1215.72 787.488 1166.86 720.19 692.956 772.881C313.832 815.033 -56.8058 1008.16 -194.734 1099.46" stroke="url(#paint49_linear_1_350)" stroke-opacity="0.4" stroke-linecap="round"/>
<path d="M2913.3 792.243C2822.86 887.937 2569.21 1077.33 2278.19 1069.35C1914.41 1059.37 1398.3 848.462 1323.16 821.604C1242.94 792.929 1194.08 725.631 720.172 778.322C341.048 820.474 -29.5899 1013.6 -167.518 1104.9" stroke="url(#paint50_linear_1_350)" stroke-opacity="0.4" stroke-linecap="round"/>
<path d="M2940.52 797.701C2850.07 893.395 2596.43 1082.79 2305.4 1074.8C1941.62 1064.82 1425.52 853.92 1350.38 827.062C1270.16 798.388 1221.29 731.09 747.388 783.78C368.264 825.933 -2.37381 1019.06 -140.302 1110.36" stroke="url(#paint51_linear_1_350)" stroke-opacity="0.4" stroke-linecap="round"/>
<path d="M2967.73 803.159C2877.29 898.853 2623.64 1088.24 2332.62 1080.26C1968.84 1070.28 1452.73 859.378 1377.59 832.52C1297.37 803.845 1248.51 736.547 774.602 789.238C395.478 831.39 24.8401 1024.52 -113.088 1115.81" stroke="url(#paint52_linear_1_350)" stroke-opacity="0.4" stroke-linecap="round"/>
<path d="M2994.94 808.609C2904.5 904.302 2650.85 1093.69 2359.83 1085.71C1996.05 1075.73 1479.95 864.828 1404.8 837.969C1324.58 809.295 1275.72 741.997 801.814 794.688C422.689 836.84 52.0518 1029.97 -85.8764 1121.26" stroke="url(#paint53_linear_1_350)" stroke-opacity="0.4" stroke-linecap="round"/>
<path d="M3022.16 814.036C2931.72 909.73 2678.07 1099.12 2387.05 1091.14C2023.27 1081.16 1507.17 870.255 1432.02 843.397C1351.8 814.723 1302.94 747.425 829.034 800.115C449.91 842.268 79.2719 1035.4 -58.6563 1126.69" stroke="url(#paint54_linear_1_350)" stroke-opacity="0.4" stroke-linecap="round"/>
<path d="M3049.39 819.43C2958.95 915.124 2705.3 1104.52 2414.28 1096.53C2050.5 1086.55 1534.39 875.649 1459.25 848.791C1379.03 820.116 1330.17 752.818 856.262 805.509C477.138 847.661 106.5 1040.79 -31.4278 1132.08" stroke="url(#paint55_linear_1_350)" stroke-opacity="0.4" stroke-linecap="round"/>
<path d="M3076.63 824.775C2986.18 920.469 2732.54 1109.86 2441.51 1101.88C2077.73 1091.9 1561.63 880.994 1486.49 854.136C1406.27 825.462 1357.4 758.164 883.499 810.854C504.375 853.007 133.737 1046.13 -4.19113 1137.43" stroke="url(#paint56_linear_1_350)" stroke-opacity="0.4" stroke-linecap="round"/>
<path d="M3103.88 830.052C3013.43 925.746 2759.79 1115.14 2468.76 1107.15C2104.98 1097.18 1588.88 886.271 1513.74 859.413C1433.52 830.739 1384.65 763.441 910.748 816.131C531.624 858.283 160.986 1051.41 23.0581 1142.71" stroke="url(#paint57_linear_1_350)" stroke-opacity="0.4" stroke-linecap="round"/>
<path d="M3131.14 835.242C3040.7 930.936 2787.05 1120.33 2496.03 1112.34C2132.25 1102.37 1616.14 891.461 1541 864.603C1460.78 835.929 1411.92 768.63 938.012 821.321C558.888 863.473 188.25 1056.6 50.3219 1147.9" stroke="url(#paint58_linear_1_350)" stroke-opacity="0.4" stroke-linecap="round"/>
<path d="M3158.43 840.311C3067.99 936.005 2814.34 1125.4 2523.32 1117.41C2159.53 1107.43 1643.43 896.53 1568.29 869.672C1488.07 840.997 1439.21 773.699 965.301 826.39C586.177 868.542 215.539 1061.67 77.6106 1152.97" stroke="url(#paint59_linear_1_350)" stroke-opacity="0.4" stroke-linecap="round"/>
<path d="M3185.78 844.978C3095.33 940.672 2841.69 1130.06 2550.67 1122.08C2186.88 1112.1 1670.78 901.197 1595.64 874.339C1515.42 845.664 1466.55 778.366 992.65 831.057C613.525 873.209 242.888 1066.34 104.96 1157.63" stroke="url(#paint60_linear_1_350)" stroke-opacity="0.4" stroke-linecap="round"/>
<path d="M3213.25 848.913C3122.81 944.607 2869.16 1134 2578.14 1126.02C2214.35 1116.04 1698.25 905.132 1623.11 878.274C1542.89 849.6 1494.03 782.302 1020.12 834.992C640.997 877.145 270.359 1070.27 132.431 1161.57" stroke="url(#paint61_linear_1_350)" stroke-opacity="0.4" stroke-linecap="round"/>
<path d="M3240.82 852.101C3150.38 947.795 2896.74 1137.19 2605.71 1129.2C2241.93 1119.22 1725.83 908.32 1650.68 881.462C1570.46 852.787 1521.6 785.489 1047.69 838.18C668.57 880.332 297.933 1073.46 160.004 1164.76" stroke="url(#paint62_linear_1_350)" stroke-opacity="0.4" stroke-linecap="round"/>
<path d="M3268.47 854.532C3178.03 950.225 2924.39 1139.62 2633.36 1131.63C2269.58 1121.65 1753.48 910.751 1678.33 883.892C1598.11 855.218 1549.25 787.92 1075.34 840.611C696.22 882.763 325.583 1075.89 187.655 1167.19" stroke="url(#paint63_linear_1_350)" stroke-opacity="0.4" stroke-linecap="round"/>
<path d="M3296.18 856.201C3205.73 951.895 2952.09 1141.29 2661.06 1133.3C2297.28 1123.32 1781.18 912.42 1706.04 885.562C1625.82 856.888 1576.95 789.59 1103.05 842.28C723.925 884.432 353.287 1077.56 215.359 1168.86" stroke="url(#paint64_linear_1_350)" stroke-opacity="0.4" stroke-linecap="round"/>
<path d="M3323.92 857.1C3233.47 952.794 2979.83 1142.19 2688.81 1134.2C2325.02 1124.22 1808.92 913.32 1733.78 886.461C1653.56 857.787 1604.7 790.489 1130.79 843.18C751.666 885.332 381.029 1078.46 243.1 1169.76" stroke="url(#paint65_linear_1_350)" stroke-opacity="0.4" stroke-linecap="round"/>
<path d="M3351.68 857.235C3261.23 952.929 3007.59 1142.32 2716.56 1134.34C2352.78 1124.36 1836.68 913.454 1761.54 886.596C1681.32 857.921 1632.45 790.623 1158.55 843.314C779.424 885.466 408.787 1078.59 270.859 1169.89" stroke="url(#paint66_linear_1_350)" stroke-opacity="0.4" stroke-linecap="round"/>
<path d="M3379.42 856.608C3288.98 952.301 3035.34 1141.69 2744.31 1133.71C2380.53 1123.73 1864.43 912.827 1789.28 885.969C1709.06 857.294 1660.2 789.996 1186.29 842.687C807.17 884.839 436.533 1077.97 298.604 1169.26" stroke="url(#paint67_linear_1_350)" stroke-opacity="0.4" stroke-linecap="round"/>
<path d="M3407.15 855.232C3316.7 950.926 3063.06 1140.32 2772.03 1132.33C2408.25 1122.36 1892.15 911.451 1817.01 884.593C1736.78 855.919 1687.92 788.621 1214.02 841.311C834.893 883.464 464.255 1076.59 326.327 1167.89" stroke="url(#paint68_linear_1_350)" stroke-opacity="0.4" stroke-linecap="round"/>
<path d="M3434.82 853.126C3344.38 948.819 3090.73 1138.21 2799.71 1130.23C2435.93 1120.25 1919.82 909.345 1844.68 882.487C1764.46 853.812 1715.6 786.514 1241.69 839.205C862.568 881.357 491.931 1074.49 354.002 1165.78" stroke="url(#paint69_linear_1_350)" stroke-opacity="0.4" stroke-linecap="round"/>
<path d="M3462.43 850.302C3371.99 945.996 3118.34 1135.39 2827.32 1127.4C2463.54 1117.43 1947.43 906.521 1872.29 879.663C1792.07 850.988 1743.21 783.69 1269.3 836.381C890.179 878.533 519.541 1071.66 381.613 1162.96" stroke="url(#paint70_linear_1_350)" stroke-opacity="0.4" stroke-linecap="round"/>
<path d="M3489.96 846.785C3399.52 942.479 3145.88 1131.87 2854.85 1123.89C2491.07 1113.91 1974.97 903.005 1899.82 876.146C1819.6 847.472 1770.74 780.174 1296.83 832.865C917.71 875.017 547.073 1068.15 409.145 1159.44" stroke="url(#paint71_linear_1_350)" stroke-opacity="0.4" stroke-linecap="round"/>
<path d="M3517.4 842.603C3426.96 938.297 3173.32 1127.69 2882.29 1119.71C2518.51 1109.73 2002.41 898.822 1927.26 871.964C1847.04 843.29 1798.18 775.992 1324.28 828.682C945.151 870.835 574.513 1063.96 436.585 1155.26" stroke="url(#paint72_linear_1_350)" stroke-opacity="0.4" stroke-linecap="round"/>
<path d="M3544.74 837.785C3454.29 933.479 3200.65 1122.87 2909.62 1114.89C2545.84 1104.91 2029.74 894.004 1954.6 867.146C1874.37 838.472 1825.51 771.174 1351.61 823.864C972.483 866.017 601.846 1059.14 463.917 1150.44" stroke="url(#paint73_linear_1_350)" stroke-opacity="0.4" stroke-linecap="round"/>
<path d="M3571.96 832.366C3481.51 928.06 3227.87 1117.45 2936.85 1109.47C2573.06 1099.49 2056.96 888.585 1981.82 861.727C1901.6 833.053 1852.74 765.755 1378.83 818.445C999.706 860.597 629.068 1053.73 491.14 1145.02" stroke="url(#paint74_linear_1_350)" stroke-opacity="0.4" stroke-linecap="round"/>
<path d="M3599.06 826.376C3508.61 922.07 3254.97 1111.46 2963.94 1103.48C2600.16 1093.5 2084.06 882.595 2008.92 855.737C1928.7 827.063 1879.83 759.765 1405.93 812.455C1026.81 854.608 656.168 1047.74 518.239 1139.03" stroke="url(#paint75_linear_1_350)" stroke-opacity="0.4" stroke-linecap="round"/>
<path d="M3626.03 819.845C3535.59 915.539 3281.95 1104.93 2990.92 1096.95C2627.14 1086.97 2111.04 876.064 2035.9 849.206C1955.67 820.532 1906.81 753.234 1432.91 805.924C1053.78 848.076 683.145 1041.2 545.216 1132.5" stroke="url(#paint76_linear_1_350)" stroke-opacity="0.4" stroke-linecap="round"/>
<path d="M3652.89 812.817C3562.45 908.51 3308.8 1097.9 3017.78 1089.92C2653.99 1079.94 2137.89 869.036 2062.75 842.178C1982.53 813.503 1933.67 746.205 1459.76 798.896C1080.64 841.048 709.999 1034.18 572.071 1125.47" stroke="url(#paint77_linear_1_350)" stroke-opacity="0.4" stroke-linecap="round"/>
<path d="M3679.61 805.33C3589.17 901.024 3335.53 1090.42 3044.5 1082.43C2680.72 1072.45 2164.62 861.55 2089.47 834.691C2009.25 806.017 1960.39 738.719 1486.48 791.409C1107.36 833.562 736.723 1026.69 598.794 1117.99" stroke="url(#paint78_linear_1_350)" stroke-opacity="0.4" stroke-linecap="round"/>
<path d="M3706.21 797.411C3615.77 893.105 3362.13 1082.5 3071.1 1074.51C2707.32 1064.53 2191.22 853.63 2116.08 826.772C2035.85 798.098 1986.99 730.8 1513.09 783.49C1133.96 825.643 763.324 1018.77 625.396 1110.07" stroke="url(#paint79_linear_1_350)" stroke-opacity="0.4" stroke-linecap="round"/>
<path d="M3732.67 789.06C3642.23 884.754 3388.58 1074.15 3097.56 1066.16C2733.77 1056.18 2217.67 845.279 2142.53 818.421C2062.31 789.746 2013.45 722.448 1539.54 775.139C1160.42 817.291 789.78 1010.42 651.851 1101.71" stroke="url(#paint80_linear_1_350)" stroke-opacity="0.4" stroke-linecap="round"/>
<path d="M3758.82 779.743C3668.37 875.437 3414.73 1064.83 3123.7 1056.85C2759.92 1046.87 2243.82 835.962 2168.68 809.104C2088.45 780.43 2039.59 713.132 1565.69 765.822C1186.56 807.975 815.926 1001.1 677.997 1092.4" stroke="url(#paint81_linear_1_350)" stroke-opacity="0.4" stroke-linecap="round"/>
<path d="M3784.56 769.368C3694.12 865.062 3440.47 1054.45 3149.45 1046.47C2785.66 1036.49 2269.56 825.587 2194.42 798.729C2114.2 770.054 2065.34 702.756 1591.43 755.447C1212.31 797.599 841.669 990.727 703.741 1082.02" stroke="url(#paint82_linear_1_350)" stroke-opacity="0.4" stroke-linecap="round"/>
<path d="M3809.88 757.997C3719.44 853.691 3465.79 1043.08 3174.77 1035.1C2810.99 1025.12 2294.88 814.217 2219.74 787.358C2139.52 758.684 2090.66 691.386 1616.75 744.077C1237.63 786.229 866.99 979.357 729.062 1070.65" stroke="url(#paint83_linear_1_350)" stroke-opacity="0.4" stroke-linecap="round"/>
<path d="M3834.76 745.689C3744.31 841.382 3490.67 1030.77 3199.64 1022.79C2835.86 1012.81 2319.76 801.908 2244.62 775.05C2164.4 746.375 2115.53 679.077 1641.63 731.768C1262.5 773.92 891.867 967.048 753.939 1058.34" stroke="url(#paint84_linear_1_350)" stroke-opacity="0.4" stroke-linecap="round"/>
<path d="M3859.17 732.489C3768.73 828.183 3515.09 1017.57 3224.06 1009.59C2860.28 999.612 2344.18 788.708 2269.03 761.85C2188.81 733.175 2139.95 665.877 1666.04 718.568C1286.92 760.72 916.283 953.848 778.355 1045.14" stroke="url(#paint85_linear_1_350)" stroke-opacity="0.4" stroke-linecap="round"/>
<path d="M3883.11 718.436C3792.67 814.13 3539.02 1003.52 3248 995.539C2884.22 985.56 2368.11 774.656 2292.97 747.797C2212.75 719.123 2163.89 651.825 1689.98 704.516C1310.86 746.668 940.221 939.796 802.292 1031.09" stroke="url(#paint86_linear_1_350)" stroke-opacity="0.4" stroke-linecap="round"/>
<path d="M3906.55 703.567C3816.1 799.261 3562.46 988.653 3271.43 980.669C2907.65 970.69 2391.55 759.786 2316.41 732.928C2236.18 704.254 2187.32 636.956 1713.42 689.646C1334.29 731.798 963.656 924.927 825.728 1016.22" stroke="url(#paint87_linear_1_350)" stroke-opacity="0.4" stroke-linecap="round"/>
<path d="M3929.45 687.893C3839.01 783.587 3585.36 972.979 3294.34 964.996C2930.55 955.017 2414.45 744.112 2339.31 717.254C2259.09 688.58 2210.23 621.282 1736.32 673.972C1357.2 716.125 986.559 909.253 848.631 1000.55" stroke="url(#paint88_linear_1_350)" stroke-opacity="0.4" stroke-linecap="round"/>
<path d="M3951.79 671.415C3861.34 767.109 3607.7 956.501 3316.67 948.518C2952.89 938.538 2436.79 727.634 2361.65 700.776C2281.43 672.102 2232.56 604.804 1758.66 657.494C1379.53 699.647 1008.9 892.775 870.969 984.07" stroke="url(#paint89_linear_1_350)" stroke-opacity="0.4" stroke-linecap="round"/>
<path d="M3973.49 654.115C3883.05 749.809 3629.4 939.201 3338.38 931.218C2974.6 921.239 2458.49 710.334 2383.35 683.476C2303.13 654.802 2254.27 587.504 1780.36 640.194C1401.24 682.347 1030.6 875.475 892.672 966.77" stroke="url(#paint90_linear_1_350)" stroke-opacity="0.4" stroke-linecap="round"/>
<path d="M3994.42 635.889C3903.98 731.583 3650.34 920.975 3359.31 912.992C2995.53 903.013 2479.43 692.108 2404.29 665.25C2324.06 636.576 2275.2 569.278 1801.3 621.968C1422.17 664.121 1051.53 857.249 913.605 948.544" stroke="url(#paint91_linear_1_350)" stroke-opacity="0.4" stroke-linecap="round"/>
<path d="M4014.24 616.479C3923.8 712.173 3670.16 901.565 3379.13 893.582C3015.35 883.602 2499.25 672.698 2424.1 645.84C2343.88 617.166 2295.02 549.868 1821.11 602.558C1441.99 644.711 1071.35 837.839 933.424 929.134" stroke="url(#paint92_linear_1_350)" stroke-opacity="0.4" stroke-linecap="round"/>
</g>
</g>
</g>
<defs>
<filter id="filter0_b_1_350" x="-892.896" y="-874.951" width="2919.93" height="2167.15" filterUnits="userSpaceOnUse" color-interpolation-filters="sRGB">
<feFlood flood-opacity="0" result="BackgroundImageFix"/>
<feGaussianBlur in="BackgroundImageFix" stdDeviation="25"/>
<feComposite in2="SourceAlpha" operator="in" result="effect1_backgroundBlur_1_350"/>
<feBlend mode="normal" in="SourceGraphic" in2="effect1_backgroundBlur_1_350" result="shape"/>
</filter>
<filter id="filter1_bf_1_350" x="-1355.19" y="-335.886" width="1771.76" height="1657.14" filterUnits="userSpaceOnUse" color-interpolation-filters="sRGB">
<feFlood flood-opacity="0" result="BackgroundImageFix"/>
<feGaussianBlur in="BackgroundImageFix" stdDeviation="5"/>
<feComposite in2="SourceAlpha" operator="in" result="effect1_backgroundBlur_1_350"/>
<feBlend mode="normal" in="SourceGraphic" in2="effect1_backgroundBlur_1_350" result="shape"/>
<feGaussianBlur stdDeviation="200" result="effect2_foregroundBlur_1_350"/>
</filter>
<filter id="filter2_bf_1_350" x="1134.11" y="-92.3733" width="1289.55" height="1231.81" filterUnits="userSpaceOnUse" color-interpolation-filters="sRGB">
<feFlood flood-opacity="0" result="BackgroundImageFix"/>
<feGaussianBlur in="BackgroundImageFix" stdDeviation="5"/>
<feComposite in2="SourceAlpha" operator="in" result="effect1_backgroundBlur_1_350"/>
<feBlend mode="normal" in="SourceGraphic" in2="effect1_backgroundBlur_1_350" result="shape"/>
<feGaussianBlur stdDeviation="200" result="effect2_foregroundBlur_1_350"/>
</filter>
<linearGradient id="paint0_linear_1_350" x1="352.248" y1="303.913" x2="2341.26" y2="3369.57" gradientUnits="userSpaceOnUse">
<stop offset="0.15625" stop-color="#6D809C"/>
<stop offset="1" stop-color="#EB84D6" stop-opacity="0.04"/>
</linearGradient>
<radialGradient id="paint1_radial_1_350" cx="0" cy="0" r="1" gradientUnits="userSpaceOnUse" gradientTransform="translate(486.235 428.116) rotate(90) scale(796.122 904.201)">
<stop stop-color="#8EE3DA" stop-opacity="0.8"/>
<stop offset="1" stop-color="white" stop-opacity="0"/>
</radialGradient>
<radialGradient id="paint2_radial_1_350" cx="0" cy="0" r="1" gradientUnits="userSpaceOnUse" gradientTransform="translate(244.955 215.676) rotate(90) scale(401.07 455.518)">
<stop stop-color="#8EE3DA"/>
<stop offset="1" stop-color="white" stop-opacity="0"/>
</radialGradient>
<linearGradient id="paint3_linear_1_350" x1="501.069" y1="249.913" x2="2490.08" y2="3315.57" gradientUnits="userSpaceOnUse">
<stop offset="0.15625" stop-color="#6D809C"/>
<stop offset="1" stop-color="#EB84D6" stop-opacity="0.04"/>
</linearGradient>
<radialGradient id="paint4_radial_1_350" cx="0" cy="0" r="1" gradientUnits="userSpaceOnUse" gradientTransform="translate(486.235 428.116) rotate(90) scale(796.122 904.201)">
<stop stop-color="#8EE3DA" stop-opacity="0.8"/>
<stop offset="1" stop-color="white" stop-opacity="0"/>
</radialGradient>
<radialGradient id="paint5_radial_1_350" cx="0" cy="0" r="1" gradientUnits="userSpaceOnUse" gradientTransform="translate(1927.71 469.531) rotate(94.4614) scale(401.07 455.517)">
<stop stop-color="#8EE3DA"/>
<stop offset="1" stop-color="white" stop-opacity="0"/>
</radialGradient>
<linearGradient id="paint6_linear_1_350" x1="253.404" y1="1406.16" x2="248.613" y2="1076.58" gradientUnits="userSpaceOnUse">
<stop stop-color="#C9D4F8"/>
<stop offset="1" stop-color="#96A5BB"/>
</linearGradient>
<linearGradient id="paint7_linear_1_350" x1="276.63" y1="1390.97" x2="271.839" y2="1061.38" gradientUnits="userSpaceOnUse">
<stop stop-color="#C9D4F8"/>
<stop offset="1" stop-color="#96A5BB"/>
</linearGradient>
<linearGradient id="paint8_linear_1_350" x1="299.787" y1="1375.67" x2="294.995" y2="1046.08" gradientUnits="userSpaceOnUse">
<stop stop-color="#C9D4F8"/>
<stop offset="1" stop-color="#96A5BB"/>
</linearGradient>
<linearGradient id="paint9_linear_1_350" x1="322.887" y1="1360.29" x2="318.096" y2="1030.7" gradientUnits="userSpaceOnUse">
<stop stop-color="#C9D4F8"/>
<stop offset="1" stop-color="#96A5BB"/>
</linearGradient>
<linearGradient id="paint10_linear_1_350" x1="345.961" y1="1344.87" x2="341.17" y2="1015.29" gradientUnits="userSpaceOnUse">
<stop stop-color="#C9D4F8"/>
<stop offset="1" stop-color="#96A5BB"/>
</linearGradient>
<linearGradient id="paint11_linear_1_350" x1="369.02" y1="1329.44" x2="364.229" y2="999.854" gradientUnits="userSpaceOnUse">
<stop stop-color="#C9D4F8"/>
<stop offset="1" stop-color="#96A5BB"/>
</linearGradient>
<linearGradient id="paint12_linear_1_350" x1="392.092" y1="1314.05" x2="387.3" y2="984.457" gradientUnits="userSpaceOnUse">
<stop stop-color="#C9D4F8"/>
<stop offset="1" stop-color="#96A5BB"/>
</linearGradient>
<linearGradient id="paint13_linear_1_350" x1="415.205" y1="1298.72" x2="410.414" y2="969.129" gradientUnits="userSpaceOnUse">
<stop stop-color="#C9D4F8"/>
<stop offset="1" stop-color="#96A5BB"/>
</linearGradient>
<linearGradient id="paint14_linear_1_350" x1="438.386" y1="1283.53" x2="433.595" y2="953.94" gradientUnits="userSpaceOnUse">
<stop stop-color="#C9D4F8"/>
<stop offset="1" stop-color="#96A5BB"/>
</linearGradient>
<linearGradient id="paint15_linear_1_350" x1="461.688" y1="1268.56" x2="456.897" y2="938.972" gradientUnits="userSpaceOnUse">
<stop stop-color="#C9D4F8"/>
<stop offset="1" stop-color="#96A5BB"/>
</linearGradient>
<linearGradient id="paint16_linear_1_350" x1="485.196" y1="1253.92" x2="480.405" y2="924.336" gradientUnits="userSpaceOnUse">
<stop stop-color="#C9D4F8"/>
<stop offset="1" stop-color="#96A5BB"/>
</linearGradient>
<linearGradient id="paint17_linear_1_350" x1="508.895" y1="1239.89" x2="504.104" y2="910.305" gradientUnits="userSpaceOnUse">
<stop stop-color="#C9D4F8"/>
<stop offset="1" stop-color="#96A5BB"/>
</linearGradient>
<linearGradient id="paint18_linear_1_350" x1="532.542" y1="1227.09" x2="527.751" y2="897.499" gradientUnits="userSpaceOnUse">
<stop stop-color="#C9D4F8"/>
<stop offset="1" stop-color="#96A5BB"/>
</linearGradient>
<linearGradient id="paint19_linear_1_350" x1="560.146" y1="1215" x2="555.355" y2="885.41" gradientUnits="userSpaceOnUse">
<stop stop-color="#C9D4F8"/>
<stop offset="1" stop-color="#96A5BB"/>
</linearGradient>
<linearGradient id="paint20_linear_1_350" x1="586.116" y1="1205.34" x2="581.325" y2="875.757" gradientUnits="userSpaceOnUse">
<stop stop-color="#C9D4F8"/>
<stop offset="1" stop-color="#96A5BB"/>
</linearGradient>
<linearGradient id="paint21_linear_1_350" x1="611.705" y1="1194.6" x2="606.914" y2="865.009" gradientUnits="userSpaceOnUse">
<stop stop-color="#C9D4F8"/>
<stop offset="1" stop-color="#96A5BB"/>
</linearGradient>
<linearGradient id="paint22_linear_1_350" x1="637.033" y1="1183.24" x2="632.242" y2="853.652" gradientUnits="userSpaceOnUse">
<stop stop-color="#C9D4F8"/>
<stop offset="1" stop-color="#96A5BB"/>
</linearGradient>
<linearGradient id="paint23_linear_1_350" x1="662.188" y1="1171.51" x2="657.397" y2="841.922" gradientUnits="userSpaceOnUse">
<stop stop-color="#C9D4F8"/>
<stop offset="1" stop-color="#96A5BB"/>
</linearGradient>
<linearGradient id="paint24_linear_1_350" x1="687.231" y1="1159.55" x2="682.44" y2="829.964" gradientUnits="userSpaceOnUse">
<stop stop-color="#C9D4F8"/>
<stop offset="1" stop-color="#96A5BB"/>
</linearGradient>
<linearGradient id="paint25_linear_1_350" x1="712.212" y1="1147.44" x2="707.421" y2="817.854" gradientUnits="userSpaceOnUse">
<stop stop-color="#C9D4F8"/>
<stop offset="1" stop-color="#96A5BB"/>
</linearGradient>
<linearGradient id="paint26_linear_1_350" x1="737.151" y1="1135.26" x2="732.36" y2="805.674" gradientUnits="userSpaceOnUse">
<stop stop-color="#C9D4F8"/>
<stop offset="1" stop-color="#96A5BB"/>
</linearGradient>
<linearGradient id="paint27_linear_1_350" x1="762.082" y1="1123.07" x2="757.291" y2="793.482" gradientUnits="userSpaceOnUse">
<stop stop-color="#C9D4F8"/>
<stop offset="1" stop-color="#96A5BB"/>
</linearGradient>
<linearGradient id="paint28_linear_1_350" x1="787.033" y1="1110.91" x2="782.242" y2="781.32" gradientUnits="userSpaceOnUse">
<stop stop-color="#C9D4F8"/>
<stop offset="1" stop-color="#96A5BB"/>
</linearGradient>
<linearGradient id="paint29_linear_1_350" x1="812.029" y1="1098.84" x2="807.238" y2="769.254" gradientUnits="userSpaceOnUse">
<stop stop-color="#C9D4F8"/>
<stop offset="1" stop-color="#96A5BB"/>
</linearGradient>
<linearGradient id="paint30_linear_1_350" x1="837.095" y1="1086.93" x2="832.303" y2="757.338" gradientUnits="userSpaceOnUse">
<stop stop-color="#C9D4F8"/>
<stop offset="1" stop-color="#96A5BB"/>
</linearGradient>
<linearGradient id="paint31_linear_1_350" x1="862.266" y1="1075.23" x2="857.475" y2="745.639" gradientUnits="userSpaceOnUse">
<stop stop-color="#C9D4F8"/>
<stop offset="1" stop-color="#96A5BB"/>
</linearGradient>
<linearGradient id="paint32_linear_1_350" x1="887.577" y1="1063.84" x2="882.786" y2="734.255" gradientUnits="userSpaceOnUse">
<stop stop-color="#C9D4F8"/>
<stop offset="1" stop-color="#96A5BB"/>
</linearGradient>
<linearGradient id="paint33_linear_1_350" x1="913.088" y1="1052.9" x2="908.297" y2="723.313" gradientUnits="userSpaceOnUse">
<stop stop-color="#C9D4F8"/>
<stop offset="1" stop-color="#96A5BB"/>
</linearGradient>
<linearGradient id="paint34_linear_1_350" x1="938.868" y1="1042.62" x2="934.077" y2="713.029" gradientUnits="userSpaceOnUse">
<stop stop-color="#C9D4F8"/>
<stop offset="1" stop-color="#96A5BB"/>
</linearGradient>
<linearGradient id="paint35_linear_1_350" x1="965.031" y1="1033.36" x2="960.24" y2="703.773" gradientUnits="userSpaceOnUse">
<stop stop-color="#C9D4F8"/>
<stop offset="1" stop-color="#96A5BB"/>
</linearGradient>
<linearGradient id="paint36_linear_1_350" x1="991.78" y1="1025.95" x2="986.989" y2="696.36" gradientUnits="userSpaceOnUse">
<stop stop-color="#C9D4F8"/>
<stop offset="1" stop-color="#96A5BB"/>
</linearGradient>
<linearGradient id="paint37_linear_1_350" x1="1019.32" y1="1022.91" x2="1014.53" y2="693.324" gradientUnits="userSpaceOnUse">
<stop stop-color="#C9D4F8"/>
<stop offset="1" stop-color="#96A5BB"/>
</linearGradient>
<linearGradient id="paint38_linear_1_350" x1="1047.02" y1="1024.75" x2="1042.22" y2="695.162" gradientUnits="userSpaceOnUse">
<stop stop-color="#C9D4F8"/>
<stop offset="1" stop-color="#96A5BB"/>
</linearGradient>
<linearGradient id="paint39_linear_1_350" x1="1074.57" y1="1028.04" x2="1069.78" y2="698.449" gradientUnits="userSpaceOnUse">
<stop stop-color="#C9D4F8"/>
<stop offset="1" stop-color="#96A5BB"/>
</linearGradient>
<linearGradient id="paint40_linear_1_350" x1="1102.04" y1="1032.02" x2="1097.25" y2="702.436" gradientUnits="userSpaceOnUse">
<stop stop-color="#C9D4F8"/>
<stop offset="1" stop-color="#96A5BB"/>
</linearGradient>
<linearGradient id="paint41_linear_1_350" x1="1129.44" y1="1036.43" x2="1124.65" y2="706.844" gradientUnits="userSpaceOnUse">
<stop stop-color="#C9D4F8"/>
<stop offset="1" stop-color="#96A5BB"/>
</linearGradient>
<linearGradient id="paint42_linear_1_350" x1="1156.8" y1="1041.12" x2="1152.01" y2="711.532" gradientUnits="userSpaceOnUse">
<stop stop-color="#C9D4F8"/>
<stop offset="1" stop-color="#96A5BB"/>
</linearGradient>
<linearGradient id="paint43_linear_1_350" x1="1184.12" y1="1046.02" x2="1179.33" y2="716.428" gradientUnits="userSpaceOnUse">
<stop stop-color="#C9D4F8"/>
<stop offset="1" stop-color="#96A5BB"/>
</linearGradient>
<linearGradient id="paint44_linear_1_350" x1="1211.41" y1="1051.06" x2="1206.62" y2="721.475" gradientUnits="userSpaceOnUse">
<stop stop-color="#C9D4F8"/>
<stop offset="1" stop-color="#96A5BB"/>
</linearGradient>
<linearGradient id="paint45_linear_1_350" x1="1238.68" y1="1056.23" x2="1233.89" y2="726.644" gradientUnits="userSpaceOnUse">
<stop stop-color="#C9D4F8"/>
<stop offset="1" stop-color="#96A5BB"/>
</linearGradient>
<linearGradient id="paint46_linear_1_350" x1="1265.94" y1="1061.49" x2="1261.15" y2="731.898" gradientUnits="userSpaceOnUse">
<stop stop-color="#C9D4F8"/>
<stop offset="1" stop-color="#96A5BB"/>
</linearGradient>
<linearGradient id="paint47_linear_1_350" x1="1293.18" y1="1066.81" x2="1288.39" y2="737.222" gradientUnits="userSpaceOnUse">
<stop stop-color="#C9D4F8"/>
<stop offset="1" stop-color="#96A5BB"/>
</linearGradient>
<linearGradient id="paint48_linear_1_350" x1="1320.41" y1="1072.19" x2="1315.62" y2="742.607" gradientUnits="userSpaceOnUse">
<stop stop-color="#C9D4F8"/>
<stop offset="1" stop-color="#96A5BB"/>
</linearGradient>
<linearGradient id="paint49_linear_1_350" x1="1347.63" y1="1077.61" x2="1342.84" y2="748.022" gradientUnits="userSpaceOnUse">
<stop stop-color="#C9D4F8"/>
<stop offset="1" stop-color="#96A5BB"/>
</linearGradient>
<linearGradient id="paint50_linear_1_350" x1="1374.85" y1="1083.05" x2="1370.05" y2="753.463" gradientUnits="userSpaceOnUse">
<stop stop-color="#C9D4F8"/>
<stop offset="1" stop-color="#96A5BB"/>
</linearGradient>
<linearGradient id="paint51_linear_1_350" x1="1402.06" y1="1088.51" x2="1397.27" y2="758.921" gradientUnits="userSpaceOnUse">
<stop stop-color="#C9D4F8"/>
<stop offset="1" stop-color="#96A5BB"/>
</linearGradient>
<linearGradient id="paint52_linear_1_350" x1="1429.28" y1="1093.97" x2="1424.48" y2="764.379" gradientUnits="userSpaceOnUse">
<stop stop-color="#C9D4F8"/>
<stop offset="1" stop-color="#96A5BB"/>
</linearGradient>
<linearGradient id="paint53_linear_1_350" x1="1456.49" y1="1099.42" x2="1451.7" y2="769.829" gradientUnits="userSpaceOnUse">
<stop stop-color="#C9D4F8"/>
<stop offset="1" stop-color="#96A5BB"/>
</linearGradient>
<linearGradient id="paint54_linear_1_350" x1="1483.71" y1="1104.84" x2="1478.92" y2="775.257" gradientUnits="userSpaceOnUse">
<stop stop-color="#C9D4F8"/>
<stop offset="1" stop-color="#96A5BB"/>
</linearGradient>
<linearGradient id="paint55_linear_1_350" x1="1510.94" y1="1110.24" x2="1506.15" y2="780.65" gradientUnits="userSpaceOnUse">
<stop stop-color="#C9D4F8"/>
<stop offset="1" stop-color="#96A5BB"/>
</linearGradient>
<linearGradient id="paint56_linear_1_350" x1="1538.17" y1="1115.58" x2="1533.38" y2="785.996" gradientUnits="userSpaceOnUse">
<stop stop-color="#C9D4F8"/>
<stop offset="1" stop-color="#96A5BB"/>
</linearGradient>
<linearGradient id="paint57_linear_1_350" x1="1565.42" y1="1120.86" x2="1560.63" y2="791.272" gradientUnits="userSpaceOnUse">
<stop stop-color="#C9D4F8"/>
<stop offset="1" stop-color="#96A5BB"/>
</linearGradient>
<linearGradient id="paint58_linear_1_350" x1="1592.69" y1="1126.05" x2="1587.89" y2="796.462" gradientUnits="userSpaceOnUse">
<stop stop-color="#C9D4F8"/>
<stop offset="1" stop-color="#96A5BB"/>
</linearGradient>
<linearGradient id="paint59_linear_1_350" x1="1619.97" y1="1131.12" x2="1615.18" y2="801.531" gradientUnits="userSpaceOnUse">
<stop stop-color="#C9D4F8"/>
<stop offset="1" stop-color="#96A5BB"/>
</linearGradient>
<linearGradient id="paint60_linear_1_350" x1="1647.32" y1="1135.79" x2="1642.53" y2="806.198" gradientUnits="userSpaceOnUse">
<stop stop-color="#C9D4F8"/>
<stop offset="1" stop-color="#96A5BB"/>
</linearGradient>
<linearGradient id="paint61_linear_1_350" x1="1674.79" y1="1139.72" x2="1670" y2="810.133" gradientUnits="userSpaceOnUse">
<stop stop-color="#C9D4F8"/>
<stop offset="1" stop-color="#96A5BB"/>
</linearGradient>
<linearGradient id="paint62_linear_1_350" x1="1702.37" y1="1142.91" x2="1697.58" y2="813.321" gradientUnits="userSpaceOnUse">
<stop stop-color="#C9D4F8"/>
<stop offset="1" stop-color="#96A5BB"/>
</linearGradient>
<linearGradient id="paint63_linear_1_350" x1="1730.02" y1="1145.34" x2="1725.23" y2="815.752" gradientUnits="userSpaceOnUse">
<stop stop-color="#C9D4F8"/>
<stop offset="1" stop-color="#96A5BB"/>
</linearGradient>
<linearGradient id="paint64_linear_1_350" x1="1757.72" y1="1147.01" x2="1752.93" y2="817.421" gradientUnits="userSpaceOnUse">
<stop stop-color="#C9D4F8"/>
<stop offset="1" stop-color="#96A5BB"/>
</linearGradient>
<linearGradient id="paint65_linear_1_350" x1="1785.46" y1="1147.91" x2="1780.67" y2="818.321" gradientUnits="userSpaceOnUse">
<stop stop-color="#C9D4F8"/>
<stop offset="1" stop-color="#96A5BB"/>
</linearGradient>
<linearGradient id="paint66_linear_1_350" x1="1813.22" y1="1148.04" x2="1808.43" y2="818.455" gradientUnits="userSpaceOnUse">
<stop stop-color="#C9D4F8"/>
<stop offset="1" stop-color="#96A5BB"/>
</linearGradient>
<linearGradient id="paint67_linear_1_350" x1="1840.97" y1="1147.42" x2="1836.18" y2="817.828" gradientUnits="userSpaceOnUse">
<stop stop-color="#C9D4F8"/>
<stop offset="1" stop-color="#96A5BB"/>
</linearGradient>
<linearGradient id="paint68_linear_1_350" x1="1868.69" y1="1146.04" x2="1863.9" y2="816.452" gradientUnits="userSpaceOnUse">
<stop stop-color="#C9D4F8"/>
<stop offset="1" stop-color="#96A5BB"/>
</linearGradient>
<linearGradient id="paint69_linear_1_350" x1="1896.37" y1="1143.93" x2="1891.58" y2="814.346" gradientUnits="userSpaceOnUse">
<stop stop-color="#C9D4F8"/>
<stop offset="1" stop-color="#96A5BB"/>
</linearGradient>
<linearGradient id="paint70_linear_1_350" x1="1923.98" y1="1141.11" x2="1919.19" y2="811.522" gradientUnits="userSpaceOnUse">
<stop stop-color="#C9D4F8"/>
<stop offset="1" stop-color="#96A5BB"/>
</linearGradient>
<linearGradient id="paint71_linear_1_350" x1="1951.51" y1="1137.59" x2="1946.72" y2="808.006" gradientUnits="userSpaceOnUse">
<stop stop-color="#C9D4F8"/>
<stop offset="1" stop-color="#96A5BB"/>
</linearGradient>
<linearGradient id="paint72_linear_1_350" x1="1978.95" y1="1133.41" x2="1974.16" y2="803.823" gradientUnits="userSpaceOnUse">
<stop stop-color="#C9D4F8"/>
<stop offset="1" stop-color="#96A5BB"/>
</linearGradient>
<linearGradient id="paint73_linear_1_350" x1="2006.28" y1="1128.59" x2="2001.49" y2="799.005" gradientUnits="userSpaceOnUse">
<stop stop-color="#C9D4F8"/>
<stop offset="1" stop-color="#96A5BB"/>
</linearGradient>
<linearGradient id="paint74_linear_1_350" x1="2033.5" y1="1123.17" x2="2028.71" y2="793.586" gradientUnits="userSpaceOnUse">
<stop stop-color="#C9D4F8"/>
<stop offset="1" stop-color="#96A5BB"/>
</linearGradient>
<linearGradient id="paint75_linear_1_350" x1="2060.6" y1="1117.18" x2="2055.81" y2="787.596" gradientUnits="userSpaceOnUse">
<stop stop-color="#C9D4F8"/>
<stop offset="1" stop-color="#96A5BB"/>
</linearGradient>
<linearGradient id="paint76_linear_1_350" x1="2087.58" y1="1110.65" x2="2082.79" y2="781.065" gradientUnits="userSpaceOnUse">
<stop stop-color="#C9D4F8"/>
<stop offset="1" stop-color="#96A5BB"/>
</linearGradient>
<linearGradient id="paint77_linear_1_350" x1="2114.43" y1="1103.62" x2="2109.64" y2="774.037" gradientUnits="userSpaceOnUse">
<stop stop-color="#C9D4F8"/>
<stop offset="1" stop-color="#96A5BB"/>
</linearGradient>
<linearGradient id="paint78_linear_1_350" x1="2141.16" y1="1096.14" x2="2136.37" y2="766.551" gradientUnits="userSpaceOnUse">
<stop stop-color="#C9D4F8"/>
<stop offset="1" stop-color="#96A5BB"/>
</linearGradient>
<linearGradient id="paint79_linear_1_350" x1="2167.76" y1="1088.22" x2="2162.97" y2="758.632" gradientUnits="userSpaceOnUse">
<stop stop-color="#C9D4F8"/>
<stop offset="1" stop-color="#96A5BB"/>
</linearGradient>
<linearGradient id="paint80_linear_1_350" x1="2194.22" y1="1079.87" x2="2189.42" y2="750.28" gradientUnits="userSpaceOnUse">
<stop stop-color="#C9D4F8"/>
<stop offset="1" stop-color="#96A5BB"/>
</linearGradient>
<linearGradient id="paint81_linear_1_350" x1="2220.36" y1="1070.55" x2="2215.57" y2="740.964" gradientUnits="userSpaceOnUse">
<stop stop-color="#C9D4F8"/>
<stop offset="1" stop-color="#96A5BB"/>
</linearGradient>
<linearGradient id="paint82_linear_1_350" x1="2246.1" y1="1060.18" x2="2241.31" y2="730.588" gradientUnits="userSpaceOnUse">
<stop stop-color="#C9D4F8"/>
<stop offset="1" stop-color="#96A5BB"/>
</linearGradient>
<linearGradient id="paint83_linear_1_350" x1="2271.43" y1="1048.81" x2="2266.63" y2="719.218" gradientUnits="userSpaceOnUse">
<stop stop-color="#C9D4F8"/>
<stop offset="1" stop-color="#96A5BB"/>
</linearGradient>
<linearGradient id="paint84_linear_1_350" x1="2296.3" y1="1036.5" x2="2291.51" y2="706.909" gradientUnits="userSpaceOnUse">
<stop stop-color="#C9D4F8"/>
<stop offset="1" stop-color="#96A5BB"/>
</linearGradient>
<linearGradient id="paint85_linear_1_350" x1="2320.72" y1="1023.3" x2="2315.93" y2="693.709" gradientUnits="userSpaceOnUse">
<stop stop-color="#C9D4F8"/>
<stop offset="1" stop-color="#96A5BB"/>
</linearGradient>
<linearGradient id="paint86_linear_1_350" x1="2344.66" y1="1009.24" x2="2339.87" y2="679.657" gradientUnits="userSpaceOnUse">
<stop stop-color="#C9D4F8"/>
<stop offset="1" stop-color="#96A5BB"/>
</linearGradient>
<linearGradient id="paint87_linear_1_350" x1="2368.09" y1="994.375" x2="2363.3" y2="664.787" gradientUnits="userSpaceOnUse">
<stop stop-color="#C9D4F8"/>
<stop offset="1" stop-color="#96A5BB"/>
</linearGradient>
<linearGradient id="paint88_linear_1_350" x1="2390.99" y1="978.701" x2="2386.2" y2="649.114" gradientUnits="userSpaceOnUse">
<stop stop-color="#C9D4F8"/>
<stop offset="1" stop-color="#96A5BB"/>
</linearGradient>
<linearGradient id="paint89_linear_1_350" x1="2413.33" y1="962.223" x2="2408.54" y2="632.635" gradientUnits="userSpaceOnUse">
<stop stop-color="#C9D4F8"/>
<stop offset="1" stop-color="#96A5BB"/>
</linearGradient>
<linearGradient id="paint90_linear_1_350" x1="2435.04" y1="944.923" x2="2430.24" y2="615.336" gradientUnits="userSpaceOnUse">
<stop stop-color="#C9D4F8"/>
<stop offset="1" stop-color="#96A5BB"/>
</linearGradient>
<linearGradient id="paint91_linear_1_350" x1="2455.97" y1="926.697" x2="2451.18" y2="597.11" gradientUnits="userSpaceOnUse">
<stop stop-color="#C9D4F8"/>
<stop offset="1" stop-color="#96A5BB"/>
</linearGradient>
<linearGradient id="paint92_linear_1_350" x1="2475.79" y1="907.287" x2="2471" y2="577.699" gradientUnits="userSpaceOnUse">
<stop stop-color="#C9D4F8"/>
<stop offset="1" stop-color="#96A5BB"/>
</linearGradient>
<clipPath id="clip0_1_350">
<rect width="1728" height="1047" fill="white"/>
</clipPath>
</defs>
</svg>
