<svg width="1000" height="121" viewBox="0 0 1000 121" fill="none" xmlns="http://www.w3.org/2000/svg">
<path d="M1928.24 144.752C1814.2 170.834 1143.72 174.283 898.634 174.283C614.891 174.283 143.275 166.655 -51.8872 144.752C-247.05 122.849 -466.211 37.4262 -297.867 28.3704C-175.881 21.8083 -120.069 16.4171 -97.928 12.554C-159.731 2.99083 -50.0278 4.19633 -97.928 12.554C-87.7363 14.131 -72.8806 16.0009 -51.8853 18.1798C136.6 37.741 1543.64 -24.2165 1839.13 18.1793C2282.46 81.786 2009.35 130.621 1928.24 144.752Z" fill="#768093"/>
<path d="M1928.24 144.752C1814.2 170.834 1143.72 174.283 898.634 174.283C614.891 174.283 143.275 166.655 -51.8872 144.752C-247.049 122.849 -466.211 37.4262 -297.867 28.3704C131.55 5.27036 -259.048 -3.3197 -51.8853 18.1798C136.6 37.741 1543.64 -24.2165 1839.13 18.1793C2282.46 81.786 2009.35 130.621 1928.24 144.752Z" stroke="#839FC9" stroke-width="6"/>
</svg>
