<svg width="1728" height="1090" viewBox="0 0 1728 1090" fill="none" xmlns="http://www.w3.org/2000/svg">
<g clip-path="url(#clip0_2_3)">
<path fill-rule="evenodd" clip-rule="evenodd" d="M-20.0346 211.805C-19.9916 -50.4957 12.1292 -344.799 256.168 -490.214C498.328 -634.508 818.971 -545.458 1097.48 -454.082C1349.81 -371.298 1646.67 -249.713 1766.59 -36.7104C1898.79 198.078 1987.62 678.783 1780.08 789.206C1623.69 872.409 1414.12 881.781 1077.62 844.448C820.348 815.906 320.5 899.277 90.4996 789.205C-99.4516 698.3 -20.0742 452.996 -20.0346 211.805Z" fill="url(#paint0_linear_2_3)"/>
<g filter="url(#filter0_f_2_3)">
<path d="M118.913 688.554C311.812 703.84 478.931 578.534 492.184 408.676C505.437 238.819 359.806 88.731 166.907 73.4459C-25.9917 58.1608 -193.111 183.467 -206.364 353.324C-219.617 523.182 -73.9853 673.269 118.913 688.554Z" fill="url(#paint1_radial_2_3)" fill-opacity="0.7"/>
</g>
<g filter="url(#filter1_f_2_3)">
<path d="M1750.81 558.167C1847.99 565.867 1932.18 502.741 1938.86 417.169C1945.53 331.598 1872.17 255.987 1774.99 248.287C1677.81 240.586 1593.62 303.713 1586.94 389.284C1580.26 474.855 1653.63 550.467 1750.81 558.167Z" fill="url(#paint2_radial_2_3)" fill-opacity="0.9"/>
<path d="M1935.87 416.932C1929.35 500.505 1846.94 562.774 1751.05 555.175C1655.15 547.576 1583.42 473.093 1589.94 389.521C1596.46 305.948 1678.86 243.679 1774.76 251.278C1870.65 258.876 1942.39 333.359 1935.87 416.932Z" stroke="#768093" stroke-width="6"/>
</g>
<g clip-path="url(#clip1_2_3)">
<g style="mix-blend-mode:screen">
<path d="M951 170.207C884.833 230.332 700.1 348.638 490.5 340.857C228.5 331.131 44.847 266.844 -6.5 243.961C-172 170.207 -296.912 87.0154 -640.5 87.0153C-940.5 87.0153 -1171.67 283.974 -1272 340.857" stroke="#A98EA4" stroke-opacity="0.26" stroke-width="3"/>
<path d="M965.23 157.979C899.064 218.105 714.33 336.411 504.73 328.63C242.73 318.903 59.0774 254.616 7.73047 231.733C-157.77 157.979 -282.681 74.7876 -626.27 74.7876C-926.27 74.7875 -1157.44 271.746 -1257.77 328.629" stroke="#A98EA4" stroke-opacity="0.26" stroke-width="3"/>
<path d="M979.135 145.378C912.968 205.503 728.235 323.81 518.635 316.029C256.635 306.302 72.9817 242.015 21.6348 219.132C-143.865 145.378 -268.777 62.1865 -612.365 62.1865C-912.365 62.1865 -1143.53 259.145 -1243.87 316.028" stroke="#A98EA4" stroke-opacity="0.26" stroke-width="3"/>
<path d="M992.86 132.583C926.694 192.708 741.96 311.014 532.36 303.233C270.36 293.507 86.7073 229.22 35.3604 206.337C-130.14 132.583 -255.051 49.3913 -598.64 49.3913C-898.64 49.3913 -1129.81 246.35 -1230.14 303.233" stroke="#A98EA4" stroke-opacity="0.26" stroke-width="3"/>
<path d="M1006.5 119.693C940.332 179.818 755.599 298.124 545.999 290.343C283.999 280.617 100.345 216.33 48.9985 193.447C-116.501 119.693 -241.413 36.5014 -585.001 36.5014C-885.001 36.5014 -1116.17 233.46 -1216.5 290.343" stroke="#A98EA4" stroke-opacity="0.26" stroke-width="3"/>
<path d="M1020.11 106.767C953.944 166.893 769.211 285.199 559.611 277.418C297.611 267.692 113.958 203.404 62.6108 180.522C-102.889 106.767 -227.801 23.5759 -571.389 23.5759C-871.389 23.5759 -1102.56 220.534 -1202.89 277.418" stroke="#A98EA4" stroke-opacity="0.26" stroke-width="3"/>
<path d="M1033.74 93.848C967.575 153.974 782.841 272.28 573.241 264.499C311.241 254.773 127.588 190.485 76.2412 167.602C-89.259 93.8481 -214.17 10.6567 -557.759 10.6567C-857.759 10.6567 -1088.93 207.615 -1189.26 264.499" stroke="#A98EA4" stroke-opacity="0.26" stroke-width="3"/>
<path d="M1047.42 80.965C981.256 141.091 796.523 259.397 586.923 251.616C324.923 241.889 141.27 177.602 89.9229 154.719C-75.577 80.9649 -200.489 -2.2263 -544.077 -2.22632C-844.077 -2.22634 -1075.24 194.732 -1175.58 251.616" stroke="#A98EA4" stroke-opacity="0.26" stroke-width="3"/>
<path d="M1061.18 68.1427C995.015 128.268 810.282 246.574 600.682 238.793C338.682 229.067 155.029 164.78 103.682 141.897C-61.818 68.1426 -186.729 -15.0486 -530.318 -15.0486C-830.318 -15.0486 -1061.48 181.91 -1161.82 238.793" stroke="#A98EA4" stroke-opacity="0.26" stroke-width="3"/>
<path d="M1075.04 55.4008C1008.87 115.526 824.14 233.832 614.54 226.051C352.54 216.325 168.887 152.038 117.54 129.155C-47.9599 55.4007 -172.872 -27.7905 -516.46 -27.7906C-816.46 -27.7906 -1047.63 169.168 -1147.96 226.051" stroke="#A98EA4" stroke-opacity="0.26" stroke-width="3"/>
<path d="M1089.02 42.7575C1022.85 102.883 838.115 221.189 628.515 213.408C366.515 203.682 182.862 139.394 131.515 116.512C-33.9848 42.7574 -158.896 -40.4339 -502.485 -40.4339C-802.485 -40.4339 -1033.65 156.524 -1133.98 213.408" stroke="#A98EA4" stroke-opacity="0.26" stroke-width="3"/>
<path d="M1103.12 30.2282C1036.96 90.3538 852.224 208.66 642.624 200.879C380.624 191.153 196.971 126.865 145.624 103.982C-19.876 30.2281 -144.788 -52.9632 -488.376 -52.9632C-788.376 -52.9632 -1019.54 143.995 -1119.88 200.879" stroke="#A98EA4" stroke-opacity="0.26" stroke-width="3"/>
<path d="M1117.38 17.83C1051.21 77.9556 866.481 196.262 656.881 188.481C394.881 178.754 211.228 114.467 159.881 91.5843C-5.61913 17.8299 -130.531 -65.3613 -474.119 -65.3614C-774.119 -65.3614 -1005.29 131.597 -1105.62 188.481" stroke="#A98EA4" stroke-opacity="0.26" stroke-width="3"/>
<path d="M1131.8 5.57682C1065.63 65.7024 880.898 184.008 671.298 176.227C409.298 166.501 225.645 102.214 174.298 79.3311C8.79837 5.57674 -116.113 -77.6145 -459.702 -77.6145C-759.702 -77.6146 -990.87 119.344 -1091.2 176.227" stroke="#A98EA4" stroke-opacity="0.26" stroke-width="3"/>
<path d="M1146.39 -6.5162C1080.22 53.6094 895.489 171.915 685.889 164.134C423.889 154.408 240.236 90.1207 188.889 67.2381C23.3892 -6.51627 -101.522 -89.7075 -445.111 -89.7076C-745.111 -89.7076 -976.28 107.251 -1076.61 164.134" stroke="#A98EA4" stroke-opacity="0.26" stroke-width="3"/>
<path d="M1161.16 -18.4325C1095 41.6932 910.265 159.999 700.665 152.218C438.665 142.492 255.012 78.2044 203.665 55.3218C38.1646 -18.4326 -86.7469 -101.624 -430.335 -101.624C-730.335 -101.624 -961.5 95.3345 -1061.84 152.218" stroke="#A98EA4" stroke-opacity="0.26" stroke-width="3"/>
<path d="M1176.14 -30.1569C1109.97 29.9688 925.236 148.275 715.636 140.494C453.636 130.768 269.983 66.48 218.636 43.5975C53.1357 -30.1569 -71.776 -113.348 -415.364 -113.348C-715.364 -113.348 -946.531 83.6102 -1046.86 140.494" stroke="#A98EA4" stroke-opacity="0.26" stroke-width="3"/>
<path d="M1191.31 -41.6725C1125.15 18.4532 940.413 136.759 730.813 128.978C468.813 119.252 285.16 54.9644 233.813 32.0819C68.313 -41.6726 -56.599 -124.864 -400.187 -124.864C-700.187 -124.864 -931.354 72.0945 -1031.69 128.978" stroke="#A98EA4" stroke-opacity="0.26" stroke-width="3"/>
<path d="M1206.71 -52.962C1140.54 7.16366 955.807 125.47 746.207 117.689C484.207 107.962 300.553 43.6749 249.207 20.7923C83.7066 -52.9621 -41.205 -136.153 -384.793 -136.153C-684.793 -136.153 -915.96 60.8051 -1016.29 117.689" stroke="#A98EA4" stroke-opacity="0.26" stroke-width="3"/>
<path d="M1222.33 -64.0065C1156.16 -3.88082 971.426 114.425 761.826 106.644C499.826 96.918 316.173 32.6304 264.826 9.74786C99.3262 -64.0065 -25.5854 -147.198 -369.174 -147.198C-669.174 -147.198 -900.34 49.7606 -1000.67 106.644" stroke="#A98EA4" stroke-opacity="0.26" stroke-width="3"/>
<path d="M1238.18 -74.7858C1172.01 -14.6601 987.281 103.646 777.681 95.8649C515.681 86.1387 332.028 21.8511 280.681 -1.03142C115.181 -74.7858 -9.73087 -157.977 -353.319 -157.977C-653.319 -157.977 -884.486 38.9813 -984.82 95.8648" stroke="#A98EA4" stroke-opacity="0.26" stroke-width="3"/>
<path d="M1254.28 -85.2787C1188.11 -25.153 1003.38 93.153 793.779 85.372C531.779 75.6458 348.126 11.3582 296.779 -11.5243C131.279 -85.2788 6.36771 -168.47 -337.221 -168.47C-637.221 -168.47 -868.387 28.4883 -968.72 85.3719" stroke="#A98EA4" stroke-opacity="0.26" stroke-width="3"/>
<path d="M1270.63 -95.4625C1204.46 -35.3369 1019.73 82.9692 810.13 75.1882C548.13 65.462 364.477 1.17438 313.13 -21.7082C147.63 -95.4626 22.7183 -178.654 -320.87 -178.654C-620.87 -178.654 -852.037 18.3045 -952.37 75.1881" stroke="#A98EA4" stroke-opacity="0.26" stroke-width="3"/>
<path d="M1287.24 -105.313C1221.07 -45.1875 1036.34 73.1186 826.74 65.3376C564.74 55.6114 381.087 -8.6762 329.74 -31.5588C164.24 -105.313 39.3287 -188.504 -304.26 -188.504C-604.26 -188.504 -835.426 8.45393 -935.76 65.3375" stroke="#A98EA4" stroke-opacity="0.26" stroke-width="3"/>
<path d="M1304.12 -114.804C1237.95 -54.6779 1053.22 63.6281 843.616 55.8471C581.616 46.1209 397.963 -18.1667 346.616 -41.0493C181.116 -114.804 56.2041 -197.995 -287.384 -197.995C-587.384 -197.995 -818.551 -1.03657 -918.884 55.847" stroke="#A98EA4" stroke-opacity="0.26" stroke-width="3"/>
<path d="M1321.26 -123.906C1255.1 -63.7807 1070.36 54.5254 860.763 46.7444C598.763 37.0182 415.11 -27.2694 363.763 -50.1519C198.263 -123.906 73.351 -207.098 -270.237 -207.098C-570.237 -207.098 -801.404 -10.1394 -901.737 46.7442" stroke="#A98EA4" stroke-opacity="0.26" stroke-width="3"/>
<path d="M1338.68 -132.592C1272.52 -72.466 1087.78 45.8401 878.184 38.0591C616.184 28.3329 432.531 -35.9548 381.184 -58.8372C215.684 -132.592 90.7726 -215.783 -252.816 -215.783C-552.816 -215.783 -783.983 -18.8247 -884.316 38.0589" stroke="#A98EA4" stroke-opacity="0.26" stroke-width="3"/>
<path d="M1356.38 -140.828C1290.22 -80.7019 1105.48 37.6042 895.883 29.8232C633.883 20.097 450.23 -44.1906 398.883 -67.0732C233.383 -140.828 108.471 -224.019 -235.117 -224.019C-535.117 -224.019 -766.284 -27.0605 -866.617 29.8231" stroke="#A98EA4" stroke-opacity="0.26" stroke-width="3"/>
<path d="M1374.36 -148.58C1308.19 -88.4545 1123.46 29.8515 913.858 22.0705C651.858 12.3443 468.205 -51.9433 416.858 -74.8259C251.358 -148.58 126.447 -231.772 -217.142 -231.772C-517.142 -231.772 -748.308 -34.8132 -848.642 22.0704" stroke="#A98EA4" stroke-opacity="0.26" stroke-width="3"/>
<path d="M1392.61 -155.815C1326.44 -95.6897 1141.71 22.6164 932.108 14.8354C670.108 5.10923 486.455 -59.1783 435.108 -82.0609C269.608 -155.815 144.696 -239.007 -198.892 -239.007C-498.892 -239.007 -730.059 -42.0483 -830.392 14.8353" stroke="#A98EA4" stroke-opacity="0.26" stroke-width="3"/>
<path d="M1411.13 -162.495C1344.96 -102.37 1160.23 15.9362 950.626 8.15527C688.626 -1.57095 504.973 -65.8586 453.626 -88.7411C288.126 -162.496 163.214 -245.687 -180.374 -245.687C-480.374 -245.687 -711.541 -48.7285 -811.874 8.15515" stroke="#A98EA4" stroke-opacity="0.26" stroke-width="3"/>
<path d="M1429.9 -168.584C1363.74 -108.459 1179 9.84734 969.403 2.06636C707.403 -7.65986 523.75 -71.9475 472.403 -94.83C306.903 -168.584 181.991 -251.776 -161.597 -251.776C-461.597 -251.776 -692.764 -54.8173 -793.097 2.06624" stroke="#A98EA4" stroke-opacity="0.26" stroke-width="3"/>
<path d="M1448.93 -174.044C1382.76 -113.918 1198.03 4.38813 988.426 -3.39285C726.426 -13.1191 542.773 -77.4067 491.426 -100.289C325.926 -174.044 201.015 -257.235 -142.574 -257.235C-442.574 -257.235 -673.74 -60.2766 -774.074 -3.39299" stroke="#A98EA4" stroke-opacity="0.26" stroke-width="3"/>
<path d="M1468.18 -178.836C1402.01 -118.71 1217.28 -0.403847 1007.68 -8.18483C745.678 -17.9111 562.025 -82.1987 510.678 -105.081C345.178 -178.836 220.266 -262.027 -123.322 -262.027C-423.322 -262.027 -654.489 -65.0686 -754.822 -8.18495" stroke="#A98EA4" stroke-opacity="0.26" stroke-width="3"/>
<path d="M1766.08 -177.965C1699.92 -117.839 1515.18 0.466972 1305.58 -7.31401C1043.58 -17.0402 859.932 -81.3278 808.585 -104.21C643.085 -177.965 518.173 -261.156 174.585 -261.156C-125.415 -261.156 -356.582 -64.1977 -456.915 -7.31413" stroke="#A98EA4" stroke-opacity="0.26" stroke-width="3"/>
<path d="M1785.7 -174.541C1719.53 -114.416 1534.8 3.89034 1325.2 -3.89064C1063.2 -13.6169 879.547 -77.9045 828.2 -100.787C662.7 -174.541 537.788 -257.733 194.2 -257.733C-105.8 -257.733 -336.967 -60.7744 -437.3 -3.89076" stroke="#A98EA4" stroke-opacity="0.26" stroke-width="3"/>
<path d="M1805.21 -170.68C1739.04 -110.554 1554.31 7.75216 1344.71 -0.0288239C1082.71 -9.75505 899.057 -74.0427 847.71 -96.9252C682.21 -170.68 557.298 -253.871 213.71 -253.871C-86.29 -253.871 -317.457 -56.9125 -417.79 -0.0289459" stroke="#A98EA4" stroke-opacity="0.26" stroke-width="3"/>
<path d="M1824.6 -166.365C1758.43 -106.239 1573.7 12.0666 1364.1 4.28563C1102.1 -5.44059 918.446 -69.7282 867.099 -92.6108C701.599 -166.365 576.688 -249.556 233.099 -249.556C-66.901 -249.556 -298.068 -52.5981 -398.401 4.28551" stroke="#A98EA4" stroke-opacity="0.26" stroke-width="3"/>
<path d="M1843.85 -161.586C1777.68 -101.461 1592.95 16.8454 1383.35 9.06445C1121.35 -0.661772 937.696 -64.9494 886.349 -87.832C720.849 -161.586 595.937 -244.778 252.349 -244.778C-47.6513 -244.778 -278.818 -47.8193 -379.151 9.06433" stroke="#A98EA4" stroke-opacity="0.26" stroke-width="3"/>
<path d="M1862.94 -156.333C1796.77 -96.2077 1612.04 22.0983 1402.44 14.3173C1140.44 4.59115 956.787 -59.6965 905.44 -82.579C739.94 -156.333 615.028 -239.525 271.44 -239.525C-28.5601 -239.525 -259.727 -42.5664 -360.06 14.3172" stroke="#A98EA4" stroke-opacity="0.26" stroke-width="3"/>
<path d="M1881.85 -150.6C1815.69 -90.4746 1630.95 27.8315 1421.35 20.0505C1159.35 10.3243 975.701 -53.9633 924.355 -76.8459C758.855 -150.6 633.943 -233.792 290.355 -233.792C-9.64551 -233.792 -240.812 -36.8332 -341.146 20.0504" stroke="#A98EA4" stroke-opacity="0.26" stroke-width="3"/>
<path d="M1900.57 -144.384C1834.41 -84.2587 1649.67 34.0473 1440.07 26.2663C1178.07 16.5401 994.42 -47.7475 943.073 -70.6301C777.573 -144.384 652.662 -227.576 309.073 -227.576C9.0733 -227.576 -222.093 -30.6174 -322.427 26.2662" stroke="#A98EA4" stroke-opacity="0.26" stroke-width="3"/>
<path d="M1919.08 -137.689C1852.91 -77.5634 1668.18 40.7426 1458.58 32.9616C1196.58 23.2354 1012.93 -41.0522 961.58 -63.9347C796.08 -137.689 671.169 -220.88 327.58 -220.88C27.58 -220.88 -203.587 -23.9221 -303.92 32.9615" stroke="#A98EA4" stroke-opacity="0.26" stroke-width="3"/>
<path d="M1937.36 -130.52C1871.19 -70.3947 1686.46 47.9113 1476.86 40.1303C1214.86 30.4041 1031.21 -33.8835 979.859 -56.766C814.359 -130.52 689.448 -213.712 345.859 -213.712C45.8594 -213.712 -185.307 -16.7534 -285.641 40.1302" stroke="#A98EA4" stroke-opacity="0.26" stroke-width="3"/>
<path d="M1955.4 -122.891C1889.23 -62.7651 1704.5 55.5409 1494.9 47.76C1232.9 38.0337 1049.25 -26.2539 997.899 -49.1364C832.399 -122.891 707.488 -206.082 363.899 -206.082C63.8994 -206.082 -167.267 -9.1237 -267.601 47.7598" stroke="#A98EA4" stroke-opacity="0.26" stroke-width="3"/>
<path d="M1973.19 -114.818C1907.02 -54.6928 1722.29 63.6132 1512.69 55.8322C1250.69 46.106 1067.04 -18.1816 1015.69 -41.0641C850.191 -114.819 725.28 -198.01 381.691 -198.01C81.6914 -198.01 -149.475 -1.05141 -249.809 55.8322" stroke="#A98EA4" stroke-opacity="0.26" stroke-width="3"/>
<path d="M1990.73 -106.325C1924.57 -46.1997 1739.83 72.1064 1530.23 64.3254C1268.23 54.5992 1084.58 -9.68839 1033.23 -32.571C867.732 -106.325 742.82 -189.517 399.232 -189.517C99.2319 -189.517 -131.935 7.44173 -232.268 64.3253" stroke="#A98EA4" stroke-opacity="0.26" stroke-width="3"/>
<path d="M2008.02 -97.4398C1941.86 -37.3142 1757.12 80.9919 1547.52 73.2109C1285.52 63.4847 1101.87 -0.802912 1050.52 -23.6855C885.022 -97.4399 760.111 -180.631 416.522 -180.631C116.522 -180.631 -114.644 16.3272 -214.978 73.2108" stroke="#A98EA4" stroke-opacity="0.26" stroke-width="3"/>
<path d="M2025.07 -88.1923C1958.9 -28.0666 1774.17 90.2394 1564.57 82.4585C1302.57 72.7322 1118.92 8.44466 1067.57 -14.4379C902.069 -88.1923 777.157 -171.384 433.569 -171.384C133.569 -171.384 -97.598 25.5748 -197.931 82.4583" stroke="#A98EA4" stroke-opacity="0.26" stroke-width="3"/>
<path d="M2041.88 -78.6195C1975.72 -18.4939 1790.98 99.8122 1581.38 92.0312C1319.38 82.305 1135.73 18.0174 1084.38 -4.86514C918.884 -78.6196 793.973 -161.811 450.384 -161.811C150.384 -161.811 -80.782 35.1475 -181.116 92.0311" stroke="#A98EA4" stroke-opacity="0.26" stroke-width="3"/>
<path d="M2058.49 -68.7589C1992.32 -8.63322 1807.59 109.673 1597.99 101.892C1335.99 92.1656 1152.33 27.8781 1100.99 4.99548C935.486 -68.7589 810.575 -151.95 466.986 -151.95C166.986 -151.95 -64.18 45.0081 -164.514 101.892" stroke="#A98EA4" stroke-opacity="0.26" stroke-width="3"/>
<path d="M2074.9 -58.652C2008.73 1.47372 1824 119.78 1614.4 111.999C1352.4 102.273 1168.74 37.9849 1117.4 15.1024C951.897 -58.652 826.986 -141.843 483.397 -141.843C183.397 -141.843 -47.7692 55.1151 -148.103 111.999" stroke="#A98EA4" stroke-opacity="0.26" stroke-width="3"/>
<path d="M2091.15 -48.3402C2024.98 11.7854 1840.25 130.091 1630.65 122.311C1368.65 112.584 1184.99 48.2967 1133.65 25.4141C968.146 -48.3403 843.234 -131.532 499.646 -131.532C199.646 -131.532 -31.5211 65.4268 -131.854 122.31" stroke="#A98EA4" stroke-opacity="0.26" stroke-width="3"/>
<path d="M2107.26 -37.868C2041.09 22.2576 1856.36 140.564 1646.76 132.783C1384.76 123.056 1201.11 58.7689 1149.76 35.8863C984.261 -37.8681 859.35 -121.059 515.761 -121.059C215.761 -121.059 -15.4054 75.8991 -115.739 132.783" stroke="#A98EA4" stroke-opacity="0.26" stroke-width="3"/>
<path d="M2123.28 -27.2789C2057.11 32.8467 1872.38 151.153 1662.78 143.372C1400.78 133.646 1217.13 69.358 1165.78 46.4754C1000.28 -27.279 875.368 -110.47 531.779 -110.47C231.779 -110.47 0.612656 86.4881 -99.7209 143.372" stroke="#A98EA4" stroke-opacity="0.26" stroke-width="3"/>
<path d="M2139.23 -16.6161C2073.07 43.5096 1888.33 161.816 1678.73 154.035C1416.73 144.308 1233.08 80.0208 1181.73 57.1382C1016.23 -16.6162 891.323 -99.8074 547.735 -99.8074C247.735 -99.8074 16.5682 97.1509 -83.765 154.035" stroke="#A98EA4" stroke-opacity="0.26" stroke-width="3"/>
<path d="M2155.17 -5.92464C2089 54.201 1904.27 172.507 1694.67 164.726C1432.67 155 1249.01 90.7122 1197.67 67.8297C1032.17 -5.92472 907.254 -89.116 563.666 -89.116C263.666 -89.116 32.4989 107.842 -67.834 164.726" stroke="#A98EA4" stroke-opacity="0.26" stroke-width="3"/>
<path d="M2171.11 4.75285C2104.94 64.8785 1920.21 183.185 1710.61 175.404C1448.61 165.677 1264.96 101.39 1213.61 78.5071C1048.11 4.75277 923.197 -78.4385 579.608 -78.4385C279.608 -78.4385 48.4418 118.52 -51.892 175.403" stroke="#A98EA4" stroke-opacity="0.26" stroke-width="3"/>
<path d="M2187.1 15.3732C2120.93 75.4988 1936.2 193.805 1726.6 186.024C1464.6 176.298 1280.95 112.01 1229.6 89.1275C1064.1 15.3731 939.188 -67.8181 595.599 -67.8182C295.599 -67.8182 64.4325 129.14 -35.9009 186.024" stroke="#A98EA4" stroke-opacity="0.26" stroke-width="3"/>
<path d="M2203.17 25.8908C2137 86.0164 1952.27 204.322 1742.67 196.541C1480.67 186.815 1297.01 122.528 1245.67 99.6451C1080.17 25.8907 955.254 -57.3006 611.666 -57.3006C311.666 -57.3006 80.4989 139.658 -19.8345 196.541" stroke="#A98EA4" stroke-opacity="0.26" stroke-width="3"/>
<path d="M2220.19 36.7235C2154.02 96.8492 1969.29 215.155 1759.69 207.374C1497.69 197.648 1314.03 133.36 1262.69 110.478C1097.19 36.7234 972.276 -46.4678 628.688 -46.4678C328.688 -46.4678 97.5213 150.491 -2.81201 207.374" stroke="#A98EA4" stroke-opacity="0.26" stroke-width="3"/>
<path d="M2236.57 46.1832C2170.4 106.309 1985.67 224.615 1776.07 216.834C1514.07 207.108 1330.41 142.82 1279.07 119.938C1113.57 46.1833 988.655 -37.0081 645.067 -37.0081C345.067 -37.0081 113.9 159.95 13.5669 216.834" stroke="#A98EA4" stroke-opacity="0.26" stroke-width="3"/>
<path d="M2253.53 55.2067C2187.37 115.332 2002.63 233.638 1793.03 225.857C1531.03 216.131 1347.38 151.844 1296.03 128.961C1130.53 55.2066 1005.62 -27.9846 662.032 -27.9847C362.032 -27.9847 130.866 168.974 30.5322 225.857" stroke="#A98EA4" stroke-opacity="0.26" stroke-width="3"/>
<path d="M2270.87 63.8229C2204.7 123.949 2019.97 242.255 1810.37 234.474C1548.37 224.747 1364.71 160.46 1313.37 137.577C1147.87 63.8228 1022.96 -19.3684 679.368 -19.3685C379.368 -19.3685 148.201 177.59 47.8677 234.473" stroke="#A98EA4" stroke-opacity="0.26" stroke-width="3"/>
<path d="M2288.48 72.0612C2222.32 132.187 2037.58 250.493 1827.98 242.712C1565.98 232.986 1382.33 168.698 1330.98 145.815C1165.48 72.0611 1040.57 -11.1301 696.984 -11.1302C396.984 -11.1302 165.817 185.828 65.4839 242.712" stroke="#A98EA4" stroke-opacity="0.26" stroke-width="3"/>
<path d="M2306.33 79.9423C2240.17 140.068 2055.43 258.374 1845.83 250.593C1583.83 240.867 1400.18 176.579 1348.83 153.697C1183.33 79.9422 1058.42 -3.24902 714.834 -3.24905C414.834 -3.24907 183.667 193.709 83.334 250.593" stroke="#A98EA4" stroke-opacity="0.26" stroke-width="3"/>
<path d="M2324.39 87.4804C2258.22 147.606 2073.49 265.912 1863.89 258.131C1601.89 248.405 1418.23 184.117 1366.89 161.235C1201.39 87.4803 1076.48 4.28908 732.887 4.28906C432.887 4.28904 201.721 201.247 101.387 258.131" stroke="#A98EA4" stroke-opacity="0.26" stroke-width="3"/>
<path d="M2342.62 94.6869C2276.46 154.813 2091.72 273.119 1882.12 265.338C1620.12 255.611 1436.47 191.324 1385.12 168.441C1219.62 94.6868 1094.71 11.4956 751.123 11.4956C451.123 11.4955 219.956 208.454 119.623 265.337" stroke="#A98EA4" stroke-opacity="0.26" stroke-width="3"/>
<path d="M2361.02 101.569C2294.86 161.695 2110.12 280.001 1900.52 272.22C1638.52 262.494 1454.87 198.206 1403.52 175.324C1238.02 101.569 1113.11 18.3779 769.524 18.3779C469.524 18.3779 238.357 215.336 138.024 272.22" stroke="#A98EA4" stroke-opacity="0.26" stroke-width="3"/>
<path d="M2379.58 108.132C2313.41 168.258 2128.68 286.564 1919.08 278.783C1657.08 269.057 1473.43 204.769 1422.08 181.887C1256.58 108.132 1131.67 24.9409 788.078 24.9409C488.078 24.9409 256.911 221.899 156.578 278.783" stroke="#A98EA4" stroke-opacity="0.26" stroke-width="3"/>
<path d="M2398.27 114.38C2332.11 174.505 2147.37 292.811 1937.77 285.03C1675.77 275.304 1492.12 211.017 1440.77 188.134C1275.27 114.38 1150.36 31.1885 806.775 31.1884C506.775 31.1884 275.608 228.147 175.275 285.03" stroke="#A98EA4" stroke-opacity="0.26" stroke-width="3"/>
<path d="M2417.1 120.314C2350.94 180.44 2166.2 298.746 1956.6 290.965C1694.6 281.239 1510.95 216.951 1459.6 194.068C1294.1 120.314 1169.19 37.1228 825.604 37.1228C525.604 37.1227 294.437 234.081 194.104 290.965" stroke="#A98EA4" stroke-opacity="0.26" stroke-width="3"/>
<path d="M2436.06 125.937C2369.89 186.063 2185.16 304.369 1975.56 296.588C1713.56 286.862 1529.9 222.574 1478.56 199.692C1313.06 125.937 1188.15 42.7461 844.557 42.746C544.557 42.746 313.39 239.704 213.057 296.588" stroke="#A98EA4" stroke-opacity="0.26" stroke-width="3"/>
<path d="M2455.12 131.25C2388.96 191.376 2204.22 309.682 1994.62 301.901C1732.62 292.175 1548.97 227.887 1497.62 205.004C1332.12 131.25 1207.21 48.0588 863.625 48.0588C563.625 48.0588 332.458 245.017 232.125 301.901" stroke="#A98EA4" stroke-opacity="0.26" stroke-width="3"/>
<path d="M2474.3 136.252C2408.13 196.378 2223.4 314.684 2013.8 306.903C1751.8 297.177 1568.15 232.889 1516.8 210.006C1351.3 136.252 1226.39 53.0608 882.801 53.0607C582.801 53.0607 351.635 250.019 251.301 306.903" stroke="#A98EA4" stroke-opacity="0.26" stroke-width="3"/>
<path d="M2493.58 140.944C2427.41 201.07 2242.68 319.376 2033.08 311.595C1771.08 301.869 1587.43 237.581 1536.08 214.699C1370.58 140.944 1245.67 57.7529 902.079 57.7529C602.079 57.7529 370.912 254.711 270.579 311.595" stroke="#A98EA4" stroke-opacity="0.26" stroke-width="3"/>
<path d="M2512.95 145.326C2446.78 205.452 2262.05 323.758 2052.45 315.977C1790.45 306.251 1606.8 241.963 1555.45 219.08C1389.95 145.326 1265.04 62.1347 921.45 62.1347C621.45 62.1347 390.283 259.093 289.95 315.977" stroke="#A98EA4" stroke-opacity="0.26" stroke-width="3"/>
<path d="M2532.41 149.396C2466.24 209.522 2281.51 327.828 2071.91 320.047C1809.91 310.321 1626.26 246.033 1574.91 223.151C1409.41 149.396 1284.5 66.2051 940.908 66.205C640.908 66.205 409.742 263.163 309.408 320.047" stroke="#A98EA4" stroke-opacity="0.26" stroke-width="3"/>
<path d="M2551.95 153.155C2485.78 213.281 2301.05 331.587 2091.45 323.806C1829.45 314.08 1645.79 249.792 1594.45 226.909C1428.95 153.155 1304.04 69.9638 960.447 69.9638C660.447 69.9638 429.281 266.922 328.947 323.806" stroke="#A98EA4" stroke-opacity="0.26" stroke-width="3"/>
<path d="M2571.56 156.601C2505.39 216.727 2320.66 335.033 2111.06 327.252C1849.06 317.526 1665.41 253.238 1614.06 230.356C1448.56 156.601 1323.65 73.4099 980.061 73.4099C680.061 73.4098 448.894 270.368 348.561 327.252" stroke="#A98EA4" stroke-opacity="0.26" stroke-width="3"/>
<path d="M2591.24 159.734C2525.07 219.859 2340.34 338.165 2130.74 330.384C1868.74 320.658 1685.09 256.37 1633.74 233.488C1468.24 159.733 1343.33 76.5422 999.741 76.5422C699.741 76.5422 468.574 273.501 368.241 330.384" stroke="#A98EA4" stroke-opacity="0.26" stroke-width="3"/>
<path d="M2610.98 162.552C2544.82 222.678 2360.08 340.984 2150.48 333.203C1888.48 323.476 1704.83 259.189 1653.48 236.306C1487.98 162.552 1363.07 79.3606 1019.48 79.3606C719.482 79.3605 488.316 276.319 387.982 333.202" stroke="#A98EA4" stroke-opacity="0.26" stroke-width="3"/>
<path d="M2630.78 165.055C2564.61 225.181 2379.88 343.487 2170.28 335.706C1908.28 325.98 1724.63 261.692 1673.28 238.809C1507.78 165.055 1382.87 81.8637 1039.28 81.8637C739.278 81.8637 508.112 278.822 407.778 335.706" stroke="#A98EA4" stroke-opacity="0.26" stroke-width="3"/>
<path d="M2650.62 167.242C2584.46 227.368 2399.72 345.674 2190.12 337.893C1928.12 328.167 1744.47 263.879 1693.12 240.997C1527.62 167.242 1402.71 84.051 1059.12 84.051C759.122 84.051 527.955 281.009 427.622 337.893" stroke="#A98EA4" stroke-opacity="0.26" stroke-width="3"/>
<path d="M2670.51 169.113C2604.34 229.239 2419.61 347.545 2210.01 339.764C1948.01 330.038 1764.36 265.75 1713.01 242.867C1547.51 169.113 1422.6 85.9219 1079.01 85.9218C779.008 85.9218 547.842 282.88 447.508 339.764" stroke="#A98EA4" stroke-opacity="0.26" stroke-width="3"/>
<path d="M2690.43 170.667C2624.26 230.793 2439.53 349.099 2229.93 341.318C1967.93 331.591 1784.28 267.304 1732.93 244.421C1567.43 170.667 1442.52 87.4756 1098.93 87.4755C798.929 87.4755 567.763 284.434 467.429 341.317" stroke="#A98EA4" stroke-opacity="0.26" stroke-width="3"/>
<path d="M2710.44 171.907C2644.28 232.033 2459.54 350.339 2249.94 342.558C1987.94 332.831 1804.29 268.544 1752.94 245.661C1587.44 171.907 1462.53 88.7156 1118.94 88.7155C818.944 88.7155 587.777 285.674 487.444 342.557" stroke="#A98EA4" stroke-opacity="0.26" stroke-width="3"/>
<path d="M2729.73 172.478C2663.57 232.603 2478.83 350.909 2269.23 343.128C2007.23 333.402 1823.58 269.115 1772.23 246.232C1606.73 172.478 1481.82 89.2863 1138.23 89.2863C838.233 89.2863 607.066 286.245 506.733 343.128" stroke="#A98EA4" stroke-opacity="0.26" stroke-width="3"/>
<path d="M2749.73 172.025C2683.56 232.15 2498.83 350.456 2289.23 342.675C2027.23 332.949 1843.57 268.662 1792.23 245.779C1626.73 172.025 1501.81 88.8335 1158.23 88.8335C858.226 88.8334 627.059 285.792 526.726 342.675" stroke="#A98EA4" stroke-opacity="0.26" stroke-width="3"/>
<path d="M2769.65 170.538C2703.49 230.664 2518.75 348.97 2309.15 341.189C2047.15 331.463 1863.5 267.175 1812.15 244.293C1646.65 170.538 1521.74 87.3469 1178.15 87.3469C878.155 87.3469 646.988 284.305 546.655 341.189" stroke="#A98EA4" stroke-opacity="0.26" stroke-width="3"/>
<path d="M2789.46 168.058C2723.29 228.184 2538.56 346.49 2328.96 338.709C2066.96 328.982 1883.3 264.695 1831.96 241.812C1666.46 168.058 1541.55 84.8667 1197.96 84.8667C897.957 84.8666 666.79 281.825 566.457 338.709" stroke="#A98EA4" stroke-opacity="0.26" stroke-width="3"/>
<path d="M2809.08 164.633C2742.91 224.759 2558.18 343.065 2348.58 335.284C2086.58 325.557 1902.93 261.27 1851.58 238.387C1686.08 164.633 1561.17 81.4416 1217.58 81.4416C917.578 81.4416 686.411 278.4 586.078 335.284" stroke="#A98EA4" stroke-opacity="0.26" stroke-width="3"/>
<path d="M2828.47 160.316C2762.31 220.442 2577.57 338.748 2367.97 330.967C2105.97 321.241 1922.32 256.953 1870.97 234.07C1705.47 160.316 1580.56 77.1247 1236.97 77.1247C936.973 77.1247 705.806 274.083 605.473 330.967" stroke="#A98EA4" stroke-opacity="0.26" stroke-width="3"/>
<path d="M2847.61 155.164C2781.44 215.29 2596.71 333.596 2387.11 325.815C2125.11 316.088 1941.45 251.801 1890.11 228.918C1724.61 155.164 1599.69 71.9726 1256.11 71.9726C956.105 71.9726 724.939 268.931 624.605 325.815" stroke="#A98EA4" stroke-opacity="0.26" stroke-width="3"/>
<path d="M2866.45 149.233C2800.28 209.358 2615.55 327.664 2405.95 319.884C2143.95 310.157 1960.29 245.87 1908.95 222.987C1743.45 149.233 1618.54 66.0415 1274.95 66.0415C974.947 66.0414 743.781 263 643.447 319.883" stroke="#A98EA4" stroke-opacity="0.26" stroke-width="3"/>
<path d="M2884.98 142.578C2818.81 202.704 2634.08 321.01 2424.48 313.229C2162.48 303.502 1978.82 239.215 1927.48 216.332C1761.98 142.578 1637.07 59.3867 1293.48 59.3867C993.477 59.3867 762.31 256.345 661.977 313.229" stroke="#A98EA4" stroke-opacity="0.26" stroke-width="3"/>
<path d="M2903.18 135.253C2837.01 195.378 2652.28 313.685 2442.68 305.904C2180.68 296.177 1997.03 231.89 1945.68 209.007C1780.18 135.253 1655.27 52.0615 1311.68 52.0615C1011.68 52.0615 780.514 249.02 680.181 305.903" stroke="#A98EA4" stroke-opacity="0.26" stroke-width="3"/>
<path d="M2921.05 127.307C2854.88 187.432 2670.15 305.738 2460.55 297.957C2198.55 288.231 2014.89 223.943 1963.55 201.061C1798.05 127.306 1673.14 44.1152 1329.55 44.1152C1029.55 44.1152 798.381 241.074 698.048 297.957" stroke="#A98EA4" stroke-opacity="0.26" stroke-width="3"/>
<path d="M2938.57 118.786C2872.41 178.912 2687.67 297.218 2478.07 289.437C2216.07 279.711 2032.42 215.423 1981.07 192.541C1815.57 118.786 1690.66 35.5949 1347.07 35.5949C1047.07 35.5949 815.907 232.553 715.573 289.437" stroke="#A98EA4" stroke-opacity="0.26" stroke-width="3"/>
<path d="M2955.75 109.734C2889.59 169.859 2704.85 288.165 2495.25 280.384C2233.25 270.658 2049.6 206.37 1998.25 183.488C1832.75 109.733 1707.84 26.5422 1364.25 26.5422C1064.25 26.5422 833.087 223.501 732.753 280.384" stroke="#A98EA4" stroke-opacity="0.26" stroke-width="3"/>
<path d="M2972.59 100.187C2906.42 160.313 2721.69 278.619 2512.09 270.838C2250.09 261.112 2066.44 196.824 2015.09 173.942C1849.59 100.187 1724.68 16.9961 1381.09 16.996C1081.09 16.996 849.922 213.954 749.589 270.838" stroke="#A98EA4" stroke-opacity="0.26" stroke-width="3"/>
<path d="M2989.08 90.1823C2922.91 150.308 2738.18 268.614 2528.58 260.833C2266.58 251.107 2082.93 186.819 2031.58 163.937C1866.08 90.1822 1741.17 6.99097 1397.58 6.99094C1097.58 6.99092 866.413 203.949 766.08 260.833" stroke="#A98EA4" stroke-opacity="0.26" stroke-width="3"/>
<path d="M3005.23 79.7496C2939.06 139.875 2754.33 258.181 2544.73 250.4C2282.73 240.674 2099.07 176.387 2047.73 153.504C1882.23 79.7496 1757.32 -3.44163 1413.73 -3.44165C1113.73 -3.44168 882.561 193.517 782.228 250.4" stroke="#A98EA4" stroke-opacity="0.26" stroke-width="3"/>
<path d="M3021.03 68.9179C2954.87 129.043 2770.13 247.35 2560.53 239.569C2298.53 229.842 2114.88 165.555 2063.53 142.672C1898.03 68.9178 1773.12 -14.2735 1429.53 -14.2735C1129.53 -14.2735 898.368 182.685 798.035 239.568" stroke="#A98EA4" stroke-opacity="0.26" stroke-width="3"/>
<path d="M3036.5 57.7103C2970.34 117.836 2785.6 236.142 2576 228.361C2314 218.635 2130.35 154.347 2079 131.465C1913.5 57.7103 1788.59 -25.481 1445 -25.481C1145 -25.481 913.836 171.477 813.503 228.361" stroke="#A98EA4" stroke-opacity="0.26" stroke-width="3"/>
<path d="M3051.63 46.1488C2985.47 106.274 2800.73 224.58 2591.13 216.8C2329.13 207.073 2145.48 142.786 2094.13 119.903C1928.63 46.1487 1803.72 -37.0425 1460.13 -37.0425C1160.13 -37.0425 928.966 159.916 828.633 216.799" stroke="#A98EA4" stroke-opacity="0.26" stroke-width="3"/>
<path d="M3066.42 34.2518C3000.26 94.3775 2815.52 212.684 2605.92 204.903C2343.92 195.176 2160.27 130.889 2108.92 108.006C1943.42 34.2518 1818.51 -48.9395 1474.92 -48.9395C1174.92 -48.9395 943.757 148.019 843.424 204.902" stroke="#A98EA4" stroke-opacity="0.26" stroke-width="3"/>
<path d="M3080.88 22.0346C3014.71 82.1602 2829.98 200.466 2620.38 192.685C2358.38 182.959 2174.72 118.671 2123.38 95.7889C1957.88 22.0345 1832.96 -61.1568 1489.38 -61.1568C1189.38 -61.1568 958.208 135.802 857.875 192.685" stroke="#A98EA4" stroke-opacity="0.26" stroke-width="3"/>
<path d="M3094.98 9.50942C3028.81 69.6351 2844.08 187.941 2634.48 180.16C2372.48 170.434 2188.83 106.146 2137.48 83.2637C1971.98 9.50935 1847.07 -73.6819 1503.48 -73.6819C1203.48 -73.6819 972.314 123.276 871.981 180.16" stroke="#A98EA4" stroke-opacity="0.26" stroke-width="3"/>
<path d="M3108.73 -3.31453C3042.57 56.8111 2857.83 175.117 2648.23 167.336C2386.23 157.61 2202.58 93.3223 2151.23 70.4398C1985.73 -3.31461 1860.82 -86.5059 1517.23 -86.5059C1217.23 -86.5059 986.067 110.452 885.733 167.336" stroke="#A98EA4" stroke-opacity="0.26" stroke-width="3"/>
<path d="M3122.12 -16.4322C3055.95 43.6934 2871.22 161.999 2661.62 154.218C2399.62 144.492 2215.97 80.2046 2164.62 57.3221C1999.12 -16.4323 1874.21 -99.6236 1530.62 -99.6236C1230.62 -99.6236 999.453 97.3348 899.12 154.218" stroke="#A98EA4" stroke-opacity="0.26" stroke-width="3"/>
<path d="M3135.11 -29.8324C3068.94 30.2933 2884.21 148.599 2674.61 140.818C2412.61 131.092 2228.96 66.8045 2177.61 43.9219C2012.11 -29.8325 1887.2 -113.024 1543.61 -113.024C1243.61 -113.024 1012.44 83.9346 912.109 140.818" stroke="#A98EA4" stroke-opacity="0.26" stroke-width="3"/>
<path d="M3147.66 -43.5013C3081.49 16.6243 2896.76 134.93 2687.16 127.149C2425.16 117.423 2241.5 53.1356 2190.16 30.253C2024.66 -43.5014 1899.74 -126.693 1556.16 -126.693C1256.16 -126.693 1024.99 70.2657 924.655 127.149" stroke="#A98EA4" stroke-opacity="0.26" stroke-width="3"/>
<path d="M3160.06 -57.8712C3093.89 2.25446 2909.16 120.56 2699.56 112.779C2437.56 103.053 2253.91 38.7657 2202.56 15.8831C2037.06 -57.8713 1912.15 -141.063 1568.56 -141.063C1268.56 -141.063 1037.39 55.8958 937.059 112.779" stroke="#A98EA4" stroke-opacity="0.26" stroke-width="3"/>
<path d="M3171.86 -72.5936C3105.7 -12.468 2920.96 105.838 2711.36 98.0571C2449.36 88.3309 2265.71 24.0433 2214.36 1.16074C2048.86 -72.5937 1923.95 -155.785 1580.36 -155.785C1280.36 -155.785 1049.2 41.1734 948.864 98.057" stroke="#A98EA4" stroke-opacity="0.26" stroke-width="3"/>
</g>
</g>
<g clip-path="url(#clip2_2_3)">
<g style="mix-blend-mode:screen">
<path d="M1218.98 631.497C1276.15 594.232 1435.76 520.908 1616.85 525.73C1843.22 531.758 2001.91 571.603 2046.26 585.785C2189.25 631.497 2297.19 683.057 2594.04 683.057C2853.24 683.057 3052.97 560.986 3139.65 525.73" stroke="#8EE3DA" stroke-opacity="0.1" stroke-width="3"/>
<path d="M1206.69 639.075C1263.86 601.81 1423.47 528.486 1604.56 533.309C1830.93 539.337 1989.61 579.181 2033.97 593.363C2176.96 639.075 2284.88 690.636 2581.74 690.636C2840.94 690.636 3040.68 568.564 3127.36 533.309" stroke="#8EE3DA" stroke-opacity="0.1" stroke-width="3"/>
<path d="M1194.68 646.885C1251.85 609.621 1411.46 536.296 1592.55 541.119C1818.92 547.147 1977.59 586.991 2021.96 601.174C2164.95 646.885 2272.87 698.446 2569.73 698.446C2828.93 698.446 3028.67 576.374 3115.35 541.119" stroke="#8EE3DA" stroke-opacity="0.1" stroke-width="3"/>
<path d="M1182.82 654.815C1239.99 617.55 1399.59 544.226 1580.69 549.049C1807.06 555.077 1965.74 594.921 2010.1 609.104C2153.09 654.815 2261.02 706.376 2557.87 706.376C2817.07 706.376 3016.8 584.305 3103.49 549.049" stroke="#8EE3DA" stroke-opacity="0.1" stroke-width="3"/>
<path d="M1171.04 662.804C1228.2 625.539 1387.82 552.215 1568.91 557.038C1795.28 563.066 1953.95 602.91 1998.32 617.093C2141.31 662.804 2249.23 714.365 2546.1 714.365C2805.3 714.365 3005.02 592.294 3091.71 557.038" stroke="#8EE3DA" stroke-opacity="0.1" stroke-width="3"/>
<path d="M1159.27 670.816C1216.44 633.551 1376.05 560.226 1557.14 565.049C1783.51 571.077 1942.19 610.922 1986.55 625.104C2129.54 670.816 2237.47 722.376 2534.33 722.376C2793.53 722.376 2993.26 600.304 3079.94 565.049" stroke="#8EE3DA" stroke-opacity="0.1" stroke-width="3"/>
<path d="M1147.5 678.823C1204.67 641.558 1364.27 568.234 1545.37 573.056C1771.74 579.084 1930.42 618.929 1974.78 633.111C2117.77 678.823 2225.69 730.383 2522.55 730.383C2781.75 730.383 2981.48 608.311 3068.17 573.056" stroke="#8EE3DA" stroke-opacity="0.1" stroke-width="3"/>
<path d="M1135.68 686.807C1192.85 649.542 1352.45 576.218 1533.55 581.041C1759.92 587.069 1918.59 626.913 1962.96 641.096C2105.95 686.807 2213.87 738.368 2510.73 738.368C2769.93 738.368 2969.66 616.297 3056.35 581.041" stroke="#8EE3DA" stroke-opacity="0.1" stroke-width="3"/>
<path d="M1123.79 694.754C1180.96 657.49 1340.57 584.165 1521.66 588.988C1748.03 595.016 1906.7 634.86 1951.07 649.042C2094.06 694.754 2201.98 746.315 2498.84 746.315C2758.04 746.315 2957.77 624.243 3044.46 588.988" stroke="#8EE3DA" stroke-opacity="0.1" stroke-width="3"/>
<path d="M1111.81 702.651C1168.98 665.386 1328.59 592.062 1509.68 596.885C1736.05 602.913 1894.73 642.757 1939.09 656.94C2082.08 702.651 2190.02 754.212 2486.87 754.212C2746.07 754.212 2945.8 632.141 3032.48 596.885" stroke="#8EE3DA" stroke-opacity="0.1" stroke-width="3"/>
<path d="M1099.74 710.488C1156.91 673.223 1316.52 599.899 1497.61 604.721C1723.98 610.75 1882.66 650.594 1927.02 664.776C2070.01 710.488 2177.94 762.048 2474.8 762.048C2734 762.048 2933.73 639.977 3020.41 604.721" stroke="#8EE3DA" stroke-opacity="0.1" stroke-width="3"/>
<path d="M1087.55 718.253C1144.72 680.988 1304.33 607.664 1485.42 612.487C1711.79 618.515 1870.46 658.359 1914.83 672.541C2057.82 718.253 2165.75 769.814 2462.61 769.814C2721.81 769.814 2921.54 647.742 3008.22 612.487" stroke="#8EE3DA" stroke-opacity="0.1" stroke-width="3"/>
<path d="M1075.23 725.938C1132.4 688.673 1292.01 615.348 1473.1 620.171C1699.47 626.199 1858.15 666.044 1902.51 680.226C2045.5 725.938 2153.42 777.498 2450.29 777.498C2709.49 777.498 2909.22 655.426 2995.9 620.171" stroke="#8EE3DA" stroke-opacity="0.1" stroke-width="3"/>
<path d="M1062.78 733.531C1119.94 696.266 1279.56 622.942 1460.65 627.765C1687.02 633.793 1845.69 673.637 1890.06 687.82C2033.05 733.531 2140.97 785.092 2437.84 785.092C2697.04 785.092 2896.76 663.021 2983.45 627.765" stroke="#8EE3DA" stroke-opacity="0.1" stroke-width="3"/>
<path d="M1050.17 741.027C1107.34 703.762 1266.94 630.437 1448.04 635.26C1674.41 641.288 1833.09 681.133 1877.45 695.315C2020.44 741.027 2128.37 792.587 2425.22 792.587C2684.42 792.587 2884.15 670.516 2970.84 635.26" stroke="#8EE3DA" stroke-opacity="0.1" stroke-width="3"/>
<path d="M1037.4 748.412C1094.58 711.147 1254.18 637.823 1435.28 642.646C1661.64 648.674 1820.32 688.518 1864.68 702.701C2007.68 748.412 2115.6 799.973 2412.46 799.973C2671.66 799.973 2871.39 677.901 2958.08 642.646" stroke="#8EE3DA" stroke-opacity="0.1" stroke-width="3"/>
<path d="M1024.47 755.679C1081.63 718.414 1241.25 645.09 1422.34 649.912C1648.71 655.94 1807.38 695.785 1851.75 709.967C1994.74 755.679 2102.66 807.239 2399.53 807.239C2658.73 807.239 2858.45 685.168 2945.14 649.912" stroke="#8EE3DA" stroke-opacity="0.1" stroke-width="3"/>
<path d="M1011.36 762.816C1068.53 725.551 1228.13 652.227 1409.23 657.05C1635.6 663.078 1794.27 702.922 1838.64 717.104C1981.63 762.816 2089.55 814.376 2386.41 814.376C2645.61 814.376 2845.34 692.305 2932.03 657.05" stroke="#8EE3DA" stroke-opacity="0.1" stroke-width="3"/>
<path d="M998.058 769.813C1055.22 732.548 1214.84 659.224 1395.93 664.047C1622.3 670.075 1780.97 709.919 1825.34 724.101C1968.33 769.813 2076.25 821.373 2373.11 821.373C2632.31 821.373 2832.04 699.302 2918.73 664.047" stroke="#8EE3DA" stroke-opacity="0.1" stroke-width="3"/>
<path d="M984.563 776.658C1041.72 739.393 1201.34 666.069 1382.43 670.892C1608.8 676.92 1767.48 716.764 1811.84 730.946C1954.83 776.658 2062.76 828.219 2359.62 828.219C2618.82 828.219 2818.54 706.147 2905.23 670.892" stroke="#8EE3DA" stroke-opacity="0.1" stroke-width="3"/>
<path d="M970.862 783.339C1028.03 746.074 1187.64 672.75 1368.73 677.573C1595.1 683.601 1753.78 723.445 1798.14 737.627C1941.13 783.339 2049.05 834.9 2345.92 834.9C2605.12 834.9 2804.85 712.828 2891.53 677.573" stroke="#8EE3DA" stroke-opacity="0.1" stroke-width="3"/>
<path d="M956.953 789.842C1014.12 752.578 1173.73 679.253 1354.82 684.076C1581.19 690.104 1739.87 729.948 1784.23 744.13C1927.22 789.842 2035.15 841.403 2332.01 841.403C2591.21 841.403 2790.94 719.331 2877.62 684.076" stroke="#8EE3DA" stroke-opacity="0.1" stroke-width="3"/>
<path d="M942.826 796.154C999.993 758.889 1159.6 685.565 1340.69 690.387C1567.06 696.415 1725.74 736.26 1770.1 750.442C1913.09 796.154 2021.03 847.715 2317.88 847.715C2577.08 847.715 2776.81 725.643 2863.49 690.387" stroke="#8EE3DA" stroke-opacity="0.1" stroke-width="3"/>
<path d="M928.475 802.259C985.643 764.994 1145.25 691.67 1326.34 696.493C1552.71 702.521 1711.39 742.365 1755.75 756.547C1898.74 802.259 2006.67 853.82 2303.53 853.82C2562.73 853.82 2762.46 731.748 2849.14 696.493" stroke="#8EE3DA" stroke-opacity="0.1" stroke-width="3"/>
<path d="M913.894 808.141C971.063 770.876 1130.67 697.552 1311.77 702.375C1538.14 708.403 1696.81 748.247 1741.18 762.43C1884.17 808.141 1992.09 859.702 2288.95 859.702C2548.15 859.702 2747.87 737.63 2834.57 702.375" stroke="#8EE3DA" stroke-opacity="0.1" stroke-width="3"/>
<path d="M899.079 813.783C956.248 776.518 1115.86 703.194 1296.95 708.016C1523.32 714.045 1681.99 753.889 1726.36 768.072C1869.35 813.783 1977.27 865.344 2274.13 865.344C2533.33 865.344 2733.07 743.272 2819.75 708.016" stroke="#8EE3DA" stroke-opacity="0.1" stroke-width="3"/>
<path d="M884.027 819.166C941.195 781.901 1100.81 708.577 1281.9 713.4C1508.27 719.428 1666.94 759.272 1711.31 773.454C1854.3 819.166 1962.22 870.726 2259.08 870.726C2518.28 870.726 2718.01 748.655 2804.7 713.4" stroke="#8EE3DA" stroke-opacity="0.1" stroke-width="3"/>
<path d="M868.735 824.271C925.904 787.006 1085.51 713.682 1266.61 718.504C1492.97 724.532 1651.65 764.377 1696.01 778.559C1839.01 824.271 1946.93 875.831 2243.79 875.831C2502.99 875.831 2702.72 753.76 2789.41 718.504" stroke="#8EE3DA" stroke-opacity="0.1" stroke-width="3"/>
<path d="M853.204 829.076C910.373 791.811 1069.99 718.487 1251.08 723.309C1477.45 729.337 1636.12 769.182 1680.49 783.364C1823.48 829.076 1931.4 880.636 2228.26 880.636C2487.46 880.636 2687.19 758.565 2773.88 723.309" stroke="#8EE3DA" stroke-opacity="0.1" stroke-width="3"/>
<path d="M837.437 833.56C894.605 796.295 1054.22 722.971 1235.31 727.793C1461.68 733.821 1620.35 773.666 1664.72 787.848C1807.71 833.56 1915.63 885.121 2212.5 885.121C2471.7 885.121 2671.42 763.049 2758.11 727.793" stroke="#8EE3DA" stroke-opacity="0.1" stroke-width="3"/>
<path d="M821.438 837.7C878.605 800.435 1038.22 727.111 1219.31 731.933C1445.68 737.961 1604.35 777.806 1648.72 791.988C1791.71 837.7 1899.63 889.261 2196.5 889.261C2455.7 889.261 2655.42 767.189 2742.11 731.933" stroke="#8EE3DA" stroke-opacity="0.1" stroke-width="3"/>
<path d="M464.197 840.099C521.364 802.834 680.975 729.509 862.069 734.332C1088.43 740.36 1247.11 780.205 1291.47 794.387C1434.46 840.099 1542.4 891.659 1839.25 891.659C2098.45 891.659 2298.18 769.587 2384.86 734.332" stroke="#8EE3DA" stroke-opacity="0.1" stroke-width="3"/>
<path d="M447.565 837.137C504.733 799.872 664.342 726.547 845.437 731.37C1071.81 737.398 1230.48 777.242 1274.85 791.425C1417.84 837.137 1525.76 888.697 1822.63 888.697C2081.83 888.697 2281.55 766.625 2368.24 731.37" stroke="#8EE3DA" stroke-opacity="0.1" stroke-width="3"/>
<path d="M431.07 833.881C488.238 796.616 647.848 723.292 828.942 728.114C1055.31 734.142 1213.99 773.987 1258.35 788.169C1401.34 833.881 1509.27 885.442 1806.12 885.442C2065.32 885.442 2265.05 763.37 2351.74 728.114" stroke="#8EE3DA" stroke-opacity="0.1" stroke-width="3"/>
<path d="M414.728 830.327C471.896 793.063 631.505 719.738 812.6 724.561C1038.97 730.589 1197.64 770.433 1242.01 784.616C1385 830.327 1492.92 881.888 1789.78 881.888C2048.98 881.888 2248.72 759.817 2335.4 724.561" stroke="#8EE3DA" stroke-opacity="0.1" stroke-width="3"/>
<path d="M398.555 826.475C455.723 789.21 615.333 715.886 796.427 720.708C1022.79 726.737 1181.47 766.581 1225.83 780.763C1368.83 826.475 1476.75 878.036 1773.61 878.036C2032.81 878.036 2232.54 755.964 2319.23 720.708" stroke="#8EE3DA" stroke-opacity="0.1" stroke-width="3"/>
<path d="M382.565 822.325C439.733 785.06 599.343 711.736 780.437 716.559C1006.8 722.587 1165.48 762.431 1209.84 776.614C1352.83 822.325 1460.76 873.886 1757.62 873.886C2016.82 873.886 2216.55 751.815 2303.23 716.559" stroke="#8EE3DA" stroke-opacity="0.1" stroke-width="3"/>
<path d="M366.771 817.883C423.94 780.618 583.549 707.294 764.643 712.116C991.008 718.144 1149.69 757.989 1194.05 772.171C1337.04 817.883 1444.97 869.443 1741.82 869.443C2001.02 869.443 2200.75 747.371 2287.44 712.116" stroke="#8EE3DA" stroke-opacity="0.1" stroke-width="3"/>
<path d="M351.185 813.154C408.353 775.889 567.962 702.565 749.057 707.387C975.425 713.415 1134.1 753.26 1178.46 767.442C1321.45 813.154 1429.38 864.714 1726.24 864.714C1985.44 864.714 2185.17 742.643 2271.85 707.387" stroke="#8EE3DA" stroke-opacity="0.1" stroke-width="3"/>
<path d="M335.812 808.151C392.981 770.886 552.59 697.562 733.684 702.384C960.052 708.413 1118.73 748.257 1163.09 762.439C1306.08 808.151 1414.01 859.711 1710.87 859.711C1970.07 859.711 2169.8 737.64 2256.48 702.384" stroke="#8EE3DA" stroke-opacity="0.1" stroke-width="3"/>
<path d="M320.658 802.887C377.826 765.622 537.436 692.298 718.53 697.12C944.898 703.148 1103.57 742.993 1147.94 757.175C1290.93 802.887 1398.85 854.447 1695.71 854.447C1954.91 854.447 2154.64 732.376 2241.33 697.12" stroke="#8EE3DA" stroke-opacity="0.1" stroke-width="3"/>
<path d="M305.719 797.38C362.887 760.115 522.496 686.791 703.591 691.613C929.959 697.641 1088.63 737.486 1133 751.668C1275.99 797.38 1383.91 848.94 1680.77 848.94C1939.97 848.94 2139.7 726.869 2226.39 691.613" stroke="#8EE3DA" stroke-opacity="0.1" stroke-width="3"/>
<path d="M290.991 791.648C348.159 754.383 507.768 681.059 688.863 685.882C915.231 691.91 1073.91 731.754 1118.27 745.937C1261.26 791.648 1369.19 843.209 1666.04 843.209C1925.24 843.209 2124.97 721.137 2211.66 685.882" stroke="#8EE3DA" stroke-opacity="0.1" stroke-width="3"/>
<path d="M276.462 785.715C333.63 748.45 493.239 675.126 674.334 679.949C900.702 685.977 1059.38 725.821 1103.74 740.003C1246.73 785.715 1354.66 837.276 1651.52 837.276C1910.72 837.276 2110.45 715.204 2197.13 679.949" stroke="#8EE3DA" stroke-opacity="0.1" stroke-width="3"/>
<path d="M262.118 779.604C319.286 742.339 478.895 669.015 659.99 673.837C886.358 679.865 1045.03 719.71 1089.4 733.892C1232.39 779.604 1340.31 831.164 1637.18 831.164C1896.38 831.164 2096.1 709.093 2182.79 673.837" stroke="#8EE3DA" stroke-opacity="0.1" stroke-width="3"/>
<path d="M247.939 773.34C305.107 736.075 464.716 662.75 645.811 667.573C872.179 673.601 1030.86 713.446 1075.22 727.628C1218.21 773.34 1326.14 824.9 1623 824.9C1882.2 824.9 2081.92 702.828 2168.61 667.573" stroke="#8EE3DA" stroke-opacity="0.1" stroke-width="3"/>
<path d="M233.9 766.949C291.069 729.684 450.678 656.36 631.772 661.182C858.14 667.21 1016.82 707.055 1061.18 721.237C1204.17 766.949 1312.1 818.509 1608.96 818.509C1868.16 818.509 2067.88 696.437 2154.57 661.182" stroke="#8EE3DA" stroke-opacity="0.1" stroke-width="3"/>
<path d="M219.977 760.458C277.144 723.193 436.755 649.869 617.849 654.691C844.217 660.72 1002.9 700.564 1047.25 714.747C1190.25 760.458 1298.17 812.019 1595.03 812.019C1854.23 812.019 2053.96 689.947 2140.65 654.691" stroke="#8EE3DA" stroke-opacity="0.1" stroke-width="3"/>
<path d="M206.136 753.895C263.305 716.63 422.914 643.306 604.008 648.128C830.376 654.157 989.055 694.001 1033.41 708.183C1176.41 753.895 1284.34 805.455 1581.19 805.455C1840.39 805.455 2040.12 683.384 2126.81 648.128" stroke="#8EE3DA" stroke-opacity="0.1" stroke-width="3"/>
<path d="M192.351 747.286C249.52 710.022 409.129 636.697 590.223 641.52C816.591 647.548 975.268 687.392 1019.63 701.574C1162.62 747.286 1270.55 798.847 1567.41 798.847C1826.61 798.847 2026.34 676.775 2113.02 641.52" stroke="#8EE3DA" stroke-opacity="0.1" stroke-width="3"/>
<path d="M178.587 740.66C235.755 703.395 395.365 630.071 576.459 634.893C802.827 640.921 961.503 680.766 1005.87 694.948C1148.86 740.66 1256.78 792.221 1553.64 792.221C1812.84 792.221 2012.57 670.149 2099.26 634.893" stroke="#8EE3DA" stroke-opacity="0.1" stroke-width="3"/>
<path d="M164.813 734.043C221.981 696.778 381.59 623.454 562.684 628.276C789.052 634.304 947.728 674.149 992.097 688.331C1135.09 734.043 1243.01 785.603 1539.87 785.603C1799.07 785.603 1998.79 663.531 2085.49 628.276" stroke="#8EE3DA" stroke-opacity="0.1" stroke-width="3"/>
<path d="M150.997 727.46C208.164 690.195 367.774 616.871 548.869 621.693C775.237 627.721 933.913 667.566 978.277 681.748C1121.26 727.46 1229.2 779.021 1526.05 779.021C1785.25 779.021 1984.98 656.949 2071.66 621.693" stroke="#8EE3DA" stroke-opacity="0.1" stroke-width="3"/>
<path d="M137.115 720.941C194.283 683.676 353.893 610.352 534.987 615.175C761.355 621.203 920.031 661.047 964.395 675.23C1107.39 720.941 1215.31 772.502 1512.17 772.502C1771.37 772.502 1971.09 650.431 2057.79 615.175" stroke="#8EE3DA" stroke-opacity="0.1" stroke-width="3"/>
<path d="M122.408 714.228C179.576 676.963 339.186 603.639 520.28 608.461C746.648 614.489 905.324 654.334 949.688 668.516C1092.68 714.228 1200.61 765.788 1497.47 765.788C1756.67 765.788 1956.39 643.716 2043.08 608.461" stroke="#8EE3DA" stroke-opacity="0.1" stroke-width="3"/>
<path d="M108.256 708.364C165.424 671.099 325.034 597.775 506.129 602.598C732.496 608.626 891.173 648.47 935.536 662.652C1078.53 708.364 1186.45 759.925 1483.32 759.925C1742.52 759.925 1942.24 637.853 2028.93 602.598" stroke="#8EE3DA" stroke-opacity="0.1" stroke-width="3"/>
<path d="M93.5983 702.772C150.766 665.507 310.376 592.183 491.471 597.005C717.839 603.033 876.515 642.878 920.879 657.06C1063.87 702.772 1171.79 754.332 1468.65 754.332C1727.85 754.332 1927.58 632.261 2014.27 597.005" stroke="#8EE3DA" stroke-opacity="0.1" stroke-width="3"/>
<path d="M78.6205 697.432C135.789 660.167 295.398 586.842 476.492 591.665C702.86 597.693 861.537 637.538 905.9 651.72C1048.9 697.432 1156.82 748.992 1453.68 748.992C1712.88 748.992 1912.6 626.921 1999.3 591.665" stroke="#8EE3DA" stroke-opacity="0.1" stroke-width="3"/>
<path d="M63.4001 692.326C120.568 655.061 280.178 581.737 461.272 586.559C687.64 592.587 846.316 632.432 890.68 646.614C1033.67 692.326 1141.59 743.886 1438.46 743.886C1697.66 743.886 1897.39 621.814 1984.07 586.559" stroke="#8EE3DA" stroke-opacity="0.1" stroke-width="3"/>
<path d="M47.9777 687.441C105.146 650.176 264.755 576.852 445.85 581.675C672.218 587.703 830.894 627.547 875.258 641.729C1018.25 687.441 1126.17 739.002 1423.03 739.002C1682.23 739.002 1881.96 616.93 1968.65 581.675" stroke="#8EE3DA" stroke-opacity="0.1" stroke-width="3"/>
<path d="M32.3797 682.769C89.5476 645.505 249.158 572.18 430.252 577.003C656.62 583.031 815.296 622.875 859.66 637.057C1002.65 682.769 1110.58 734.33 1407.44 734.33C1666.64 734.33 1866.36 612.258 1953.05 577.003" stroke="#8EE3DA" stroke-opacity="0.1" stroke-width="3"/>
<path d="M16.6241 678.303C73.7923 641.038 233.402 567.714 414.496 572.536C640.864 578.564 799.54 618.409 843.904 632.591C986.895 678.303 1094.82 729.864 1391.68 729.864C1650.88 729.864 1850.61 607.791 1937.3 572.536" stroke="#8EE3DA" stroke-opacity="0.1" stroke-width="3"/>
<path d="M0.725647 674.037C57.8935 636.772 217.503 563.448 398.598 568.271C624.966 574.299 783.642 614.143 828.006 628.325C970.998 674.037 1078.92 725.598 1375.78 725.598C1634.98 725.598 1834.71 603.526 1921.4 568.271" stroke="#8EE3DA" stroke-opacity="0.1" stroke-width="3"/>
<path d="M-15.3049 669.969C41.8628 632.705 201.472 559.38 382.567 564.203C608.935 570.231 767.611 610.075 811.975 624.258C954.967 669.969 1062.89 721.53 1359.75 721.53C1618.95 721.53 1818.68 599.458 1905.37 564.203" stroke="#8EE3DA" stroke-opacity="0.1" stroke-width="3"/>
<path d="M-31.4592 666.097C25.7091 628.832 185.318 555.508 366.413 560.331C592.781 566.359 751.457 606.203 795.821 620.386C938.813 666.097 1046.74 717.658 1343.6 717.658C1602.8 717.658 1802.53 595.587 1889.21 560.331" stroke="#8EE3DA" stroke-opacity="0.1" stroke-width="3"/>
<path d="M-47.7274 662.419C9.44007 625.155 169.05 551.83 350.145 556.653C576.513 562.681 735.189 602.525 779.553 616.708C922.545 662.419 1030.47 713.98 1327.33 713.98C1586.53 713.98 1786.26 591.908 1872.94 556.653" stroke="#8EE3DA" stroke-opacity="0.1" stroke-width="3"/>
<path d="M-64.1028 658.934C-6.93449 621.669 152.675 548.345 333.769 553.168C560.137 559.196 718.813 599.04 763.177 613.222C906.169 658.934 1014.09 710.495 1310.96 710.495C1570.16 710.495 1769.88 588.423 1856.57 553.168" stroke="#8EE3DA" stroke-opacity="0.1" stroke-width="3"/>
<path d="M-80.5775 655.642C-23.4092 618.377 136.2 545.052 317.294 549.875C543.662 555.903 702.339 595.748 746.702 609.93C889.694 655.642 997.618 707.202 1294.48 707.202C1553.68 707.202 1753.41 585.13 1840.1 549.875" stroke="#8EE3DA" stroke-opacity="0.1" stroke-width="3"/>
<path d="M-97.1465 652.541C-39.9782 615.276 119.632 541.952 300.725 546.775C527.093 552.803 685.771 592.647 730.133 606.83C873.125 652.541 981.049 704.102 1277.91 704.102C1537.11 704.102 1736.84 582.03 1823.52 546.775" stroke="#8EE3DA" stroke-opacity="0.1" stroke-width="3"/>
<path d="M-113.802 649.633C-56.6335 612.368 102.976 539.044 284.07 543.867C510.438 549.895 669.114 589.739 713.478 603.921C856.47 649.633 964.394 701.194 1261.26 701.194C1520.46 701.194 1720.18 579.122 1806.87 543.867" stroke="#8EE3DA" stroke-opacity="0.1" stroke-width="3"/>
<path d="M-130.538 646.917C-73.3701 609.652 86.2393 536.328 267.334 541.151C493.702 547.179 652.378 587.023 696.742 601.206C839.734 646.917 947.658 698.478 1244.51 698.478C1503.71 698.478 1703.45 576.406 1790.13 541.151" stroke="#8EE3DA" stroke-opacity="0.1" stroke-width="3"/>
<path d="M-147.35 644.395C-90.1827 607.13 69.4272 533.806 250.522 538.628C476.89 544.656 635.566 584.501 679.93 598.683C822.922 644.395 930.845 695.955 1227.71 695.955C1486.91 695.955 1686.63 573.884 1773.33 538.628" stroke="#8EE3DA" stroke-opacity="0.1" stroke-width="3"/>
<path d="M-164.232 642.065C-107.064 604.8 52.5454 531.476 233.64 536.298C460.008 542.327 618.684 582.171 663.048 596.353C806.04 642.065 913.963 693.626 1210.83 693.626C1470.03 693.626 1669.75 571.554 1756.44 536.298" stroke="#8EE3DA" stroke-opacity="0.1" stroke-width="3"/>
<path d="M-181.178 639.929C-124.01 602.664 35.5994 529.34 216.694 534.163C443.062 540.191 601.738 580.035 646.102 594.218C789.094 639.929 897.018 691.49 1193.88 691.49C1453.08 691.49 1652.81 569.418 1739.49 534.163" stroke="#8EE3DA" stroke-opacity="0.1" stroke-width="3"/>
<path d="M-198.182 637.988C-141.014 600.723 18.5958 527.399 199.69 532.221C426.058 538.249 584.734 578.094 629.098 592.276C772.09 637.988 880.014 689.548 1176.87 689.548C1436.07 689.548 1635.8 567.477 1722.49 532.221" stroke="#8EE3DA" stroke-opacity="0.1" stroke-width="3"/>
<path d="M-215.239 636.241C-158.071 598.976 1.53872 525.652 182.633 530.474C409.001 536.503 567.677 576.347 612.041 590.529C755.033 636.241 862.957 687.802 1159.82 687.802C1419.02 687.802 1618.75 565.73 1705.43 530.474" stroke="#8EE3DA" stroke-opacity="0.1" stroke-width="3"/>
<path d="M-232.343 634.689C-175.174 597.425 -15.5651 524.1 165.53 528.923C391.897 534.951 550.574 574.796 594.937 588.978C737.929 634.689 845.853 686.25 1142.72 686.25C1401.92 686.25 1601.64 564.179 1688.33 528.923" stroke="#8EE3DA" stroke-opacity="0.1" stroke-width="3"/>
<path d="M-249.487 633.334C-192.32 596.069 -32.7094 522.745 148.385 527.567C374.753 533.596 533.429 573.44 577.793 587.622C720.785 633.334 828.708 684.895 1125.57 684.895C1384.77 684.895 1584.5 562.823 1671.18 527.567" stroke="#8EE3DA" stroke-opacity="0.1" stroke-width="3"/>
<path d="M-266.669 632.175C-209.501 594.91 -49.8917 521.585 131.203 526.408C357.571 532.436 516.248 572.281 560.611 586.463C703.603 632.175 811.527 683.735 1108.39 683.735C1367.59 683.735 1567.31 561.663 1654.01 526.408" stroke="#8EE3DA" stroke-opacity="0.1" stroke-width="3"/>
<path d="M-283.88 631.211C-226.713 593.946 -67.1026 520.622 113.991 525.445C340.36 531.473 499.036 571.318 543.4 585.5C686.392 631.211 794.315 682.772 1091.17 682.772C1350.37 682.772 1550.1 560.7 1636.79 525.445" stroke="#8EE3DA" stroke-opacity="0.1" stroke-width="3"/>
<path d="M-301.173 630.443C-244.005 593.178 -84.3956 519.854 96.6987 524.676C323.067 530.705 481.743 570.549 526.107 584.731C669.099 630.443 777.023 682.004 1073.88 682.004C1333.08 682.004 1532.81 559.932 1619.5 524.676" stroke="#8EE3DA" stroke-opacity="0.1" stroke-width="3"/>
<path d="M-317.839 630.089C-260.671 592.825 -101.061 519.5 80.033 524.323C306.401 530.351 465.077 570.195 509.441 584.377C652.433 630.089 760.356 681.65 1057.22 681.65C1316.42 681.65 1516.15 559.578 1602.83 524.323" stroke="#8EE3DA" stroke-opacity="0.1" stroke-width="3"/>
<path d="M-335.113 630.37C-277.945 593.105 -118.335 519.781 62.7589 524.603C289.127 530.632 447.803 570.476 492.167 584.658C635.159 630.37 743.082 681.93 1039.94 681.93C1299.14 681.93 1498.87 559.859 1585.56 524.603" stroke="#8EE3DA" stroke-opacity="0.1" stroke-width="3"/>
<path d="M-352.332 631.291C-295.163 594.026 -135.554 520.702 45.5404 525.525C271.908 531.553 430.585 571.397 474.948 585.579C617.94 631.291 725.864 682.852 1022.73 682.852C1281.93 682.852 1481.66 560.78 1568.34 525.525" stroke="#8EE3DA" stroke-opacity="0.1" stroke-width="3"/>
<path d="M-369.44 632.828C-312.273 595.564 -152.663 522.239 28.4316 527.062C254.8 533.09 413.476 572.935 457.84 587.117C600.832 632.828 708.755 684.389 1005.62 684.389C1264.82 684.389 1464.54 562.317 1551.23 527.062" stroke="#8EE3DA" stroke-opacity="0.1" stroke-width="3"/>
<path d="M-386.393 634.951C-329.226 597.687 -169.615 524.362 11.4791 529.185C237.847 535.213 396.523 575.057 440.887 589.239C583.879 634.951 691.802 686.512 988.666 686.512C1247.87 686.512 1447.59 564.44 1534.28 529.185" stroke="#8EE3DA" stroke-opacity="0.1" stroke-width="3"/>
<path d="M-403.15 637.627C-345.983 600.362 -186.373 527.038 -5.27826 531.86C221.09 537.888 379.766 577.733 424.13 591.915C567.122 637.627 675.045 689.187 971.906 689.187C1231.1 689.187 1430.84 567.116 1517.52 531.86" stroke="#8EE3DA" stroke-opacity="0.1" stroke-width="3"/>
<path d="M-419.681 640.82C-362.513 603.555 -202.904 530.231 -21.8092 535.053C204.559 541.082 363.235 580.926 407.599 595.108C550.591 640.82 658.515 692.38 955.375 692.38C1214.58 692.38 1414.3 570.309 1500.99 535.053" stroke="#8EE3DA" stroke-opacity="0.1" stroke-width="3"/>
<path d="M-435.96 644.496C-378.792 607.231 -219.183 533.907 -38.0878 538.729C188.28 544.758 346.956 584.602 391.32 598.784C534.312 644.496 642.235 696.057 939.096 696.057C1198.3 696.057 1398.02 573.985 1484.71 538.729" stroke="#8EE3DA" stroke-opacity="0.1" stroke-width="3"/>
<path d="M-451.97 648.621C-394.802 611.356 -235.192 538.032 -54.0977 542.854C172.27 548.882 330.946 588.727 375.31 602.909C518.302 648.621 626.225 700.181 923.086 700.181C1182.29 700.181 1382.01 578.109 1468.7 542.854" stroke="#8EE3DA" stroke-opacity="0.1" stroke-width="3"/>
<path d="M-467.698 653.161C-410.53 615.896 -250.92 542.572 -69.826 547.394C156.542 553.422 315.218 593.267 359.582 607.449C502.574 653.161 610.498 704.721 907.358 704.721C1166.56 704.721 1366.29 582.65 1452.97 547.394" stroke="#8EE3DA" stroke-opacity="0.1" stroke-width="3"/>
<path d="M-483.135 658.086C-425.967 620.821 -266.357 547.496 -85.263 552.319C141.105 558.347 299.781 598.192 344.145 612.374C487.137 658.086 595.061 709.646 891.921 709.646C1151.12 709.646 1350.85 587.575 1437.54 552.319" stroke="#8EE3DA" stroke-opacity="0.1" stroke-width="3"/>
<path d="M-498.277 663.366C-441.109 626.102 -281.499 552.777 -100.405 557.6C125.963 563.628 284.64 603.472 329.003 617.654C471.995 663.366 579.919 714.927 876.779 714.927C1135.98 714.927 1335.71 592.855 1422.39 557.6" stroke="#8EE3DA" stroke-opacity="0.1" stroke-width="3"/>
<path d="M-513.121 668.977C-455.953 631.712 -296.343 558.388 -115.249 563.211C111.119 569.239 269.795 609.083 314.159 623.265C457.151 668.977 565.075 720.537 861.935 720.537C1121.13 720.537 1320.87 598.466 1407.55 563.211" stroke="#8EE3DA" stroke-opacity="0.1" stroke-width="3"/>
<path d="M-527.667 674.893C-470.498 637.628 -310.889 564.305 -129.795 569.127C96.5734 575.155 255.25 614.999 299.614 629.182C442.606 674.893 550.529 726.454 847.39 726.454C1106.59 726.454 1306.32 604.383 1393 569.127" stroke="#8EE3DA" stroke-opacity="0.1" stroke-width="3"/>
<path d="M-541.915 681.095C-484.746 643.83 -325.137 570.506 -144.043 575.328C82.3255 581.356 241.002 621.201 285.365 635.383C428.357 681.095 536.281 732.655 833.141 732.655C1092.34 732.655 1292.07 610.583 1378.75 575.328" stroke="#8EE3DA" stroke-opacity="0.1" stroke-width="3"/>
<path d="M-555.867 687.561C-498.698 650.296 -339.089 576.971 -157.995 581.794C68.3736 587.822 227.05 627.667 271.413 641.849C414.405 687.561 522.329 739.121 819.189 739.121C1078.39 739.121 1278.12 617.049 1364.81 581.794" stroke="#8EE3DA" stroke-opacity="0.1" stroke-width="3"/>
<path d="M-569.524 694.274C-512.356 657.009 -352.746 583.685 -171.652 588.507C54.7163 594.535 213.392 634.38 257.756 648.562C400.748 694.274 508.672 745.835 805.532 745.835C1064.73 745.835 1264.46 623.763 1351.15 588.507" stroke="#8EE3DA" stroke-opacity="0.1" stroke-width="3"/>
<path d="M-582.888 701.22C-525.72 663.955 -366.111 590.631 -185.016 595.453C41.3516 601.482 200.028 641.326 244.392 655.509C387.384 701.22 495.307 752.781 792.168 752.781C1051.37 752.781 1251.1 630.709 1337.78 595.453" stroke="#8EE3DA" stroke-opacity="0.1" stroke-width="3"/>
<path d="M-595.96 708.386C-538.792 671.121 -379.183 597.797 -198.088 602.619C28.2795 608.647 186.956 648.492 231.32 662.674C374.312 708.386 482.236 759.947 779.096 759.947C1038.29 759.947 1238.03 637.875 1324.71 602.619" stroke="#8EE3DA" stroke-opacity="0.1" stroke-width="3"/>
<path d="M-608.74 715.759C-551.572 678.494 -391.962 605.17 -210.868 609.993C15.5001 616.021 174.176 655.865 218.54 670.048C361.532 715.759 469.456 767.32 766.316 767.32C1025.52 767.32 1225.25 645.249 1311.93 609.993" stroke="#8EE3DA" stroke-opacity="0.1" stroke-width="3"/>
<path d="M-621.226 723.332C-564.058 686.067 -404.448 612.743 -223.354 617.565C3.01439 623.593 161.69 663.438 206.054 677.62C349.046 723.332 456.969 774.892 753.83 774.892C1013.03 774.892 1212.76 652.82 1299.45 617.565" stroke="#8EE3DA" stroke-opacity="0.1" stroke-width="3"/>
<path d="M-633.413 731.094C-576.246 693.829 -416.636 620.505 -235.541 625.328C-9.17323 631.356 149.503 671.2 193.867 685.383C336.859 731.094 444.782 782.655 741.643 782.655C1000.84 782.655 1200.57 660.583 1287.26 625.328" stroke="#8EE3DA" stroke-opacity="0.1" stroke-width="3"/>
<path d="M-645.296 739.043C-588.127 701.778 -428.518 628.454 -247.424 633.276C-21.0558 639.304 137.621 679.149 181.985 693.331C324.976 739.043 432.9 790.603 729.76 790.603C988.96 790.603 1188.69 668.531 1275.38 633.276" stroke="#8EE3DA" stroke-opacity="0.1" stroke-width="3"/>
<path d="M-656.861 747.172C-599.693 709.908 -440.084 636.583 -258.989 641.406C-32.6212 647.434 126.055 687.278 170.419 701.46C313.411 747.172 421.335 798.733 718.195 798.733C977.395 798.733 1177.12 676.661 1263.81 641.406" stroke="#8EE3DA" stroke-opacity="0.1" stroke-width="3"/>
<path d="M-668.085 755.478C-610.916 718.213 -451.307 644.889 -270.213 649.711C-43.8446 655.739 114.832 695.584 159.196 709.766C302.187 755.478 410.111 807.039 706.971 807.039C966.171 807.039 1165.9 684.967 1252.58 649.711" stroke="#8EE3DA" stroke-opacity="0.1" stroke-width="3"/>
<path d="M-678.924 763.949C-621.756 726.684 -462.147 653.36 -281.052 658.183C-54.6843 664.211 103.992 704.055 148.356 718.238C291.348 763.949 399.272 815.51 696.132 815.51C955.332 815.51 1155.06 693.439 1241.75 658.183" stroke="#8EE3DA" stroke-opacity="0.1" stroke-width="3"/>
<path d="M-689.641 772.856C-632.472 735.591 -472.863 662.267 -291.768 667.089C-65.4005 673.117 93.2759 712.962 137.64 727.144C280.632 772.856 388.555 824.417 685.416 824.417C944.616 824.417 1144.34 702.345 1231.04 667.089" stroke="#8EE3DA" stroke-opacity="0.1" stroke-width="3"/>
<path d="M-699.84 781.981C-642.672 744.716 -483.062 671.392 -301.968 676.214C-75.6001 682.242 83.0762 722.087 127.44 736.269C270.432 781.981 378.356 833.541 675.216 833.541C934.416 833.541 1134.15 711.469 1220.83 676.214" stroke="#8EE3DA" stroke-opacity="0.1" stroke-width="3"/>
</g>
</g>
</g>
<defs>
<filter id="filter0_f_2_3" x="-607.201" y="-327.816" width="1500.22" height="1417.63" filterUnits="userSpaceOnUse" color-interpolation-filters="sRGB">
<feFlood flood-opacity="0" result="BackgroundImageFix"/>
<feBlend mode="normal" in="SourceGraphic" in2="BackgroundImageFix" result="shape"/>
<feGaussianBlur stdDeviation="200" result="effect1_foregroundBlur_2_3"/>
</filter>
<filter id="filter1_f_2_3" x="1186.52" y="-152.349" width="1152.76" height="1111.15" filterUnits="userSpaceOnUse" color-interpolation-filters="sRGB">
<feFlood flood-opacity="0" result="BackgroundImageFix"/>
<feBlend mode="normal" in="SourceGraphic" in2="BackgroundImageFix" result="shape"/>
<feGaussianBlur stdDeviation="200" result="effect1_foregroundBlur_2_3"/>
</filter>
<linearGradient id="paint0_linear_2_3" x1="734.904" y1="244.968" x2="2168.13" y2="2454.01" gradientUnits="userSpaceOnUse">
<stop offset="0.15625" stop-color="#768093"/>
<stop offset="1" stop-color="#EB84D6" stop-opacity="0.04"/>
</linearGradient>
<radialGradient id="paint1_radial_2_3" cx="0" cy="0" r="1" gradientUnits="userSpaceOnUse" gradientTransform="translate(142.91 381) rotate(94.4614) scale(573.666 651.543)">
<stop stop-color="#8EE3DA" stop-opacity="0.8"/>
<stop offset="1" stop-color="white" stop-opacity="0"/>
</radialGradient>
<radialGradient id="paint2_radial_2_3" cx="0" cy="0" r="1" gradientUnits="userSpaceOnUse" gradientTransform="translate(1762.9 403.227) rotate(94.4614) scale(289.001 328.235)">
<stop stop-color="#8EE3DA"/>
<stop offset="1" stop-color="white" stop-opacity="0"/>
</radialGradient>
<clipPath id="clip0_2_3">
<rect width="1728" height="1090" fill="white"/>
</clipPath>
<clipPath id="clip1_2_3">
<rect width="2000" height="345" fill="white" transform="translate(-85)"/>
</clipPath>
<clipPath id="clip2_2_3">
<rect width="1728" height="331" fill="white" transform="translate(0 523)"/>
</clipPath>
</defs>
</svg>
