<svg width="1728" height="1090" viewBox="0 0 1728 1090" fill="none" xmlns="http://www.w3.org/2000/svg">
<g filter="url(#filter0_b_814_690)">
<path fill-rule="evenodd" clip-rule="evenodd" d="M-20.0346 211.805C-19.9916 -50.496 12.1292 -344.8 256.168 -490.214C498.328 -634.509 818.971 -545.458 1097.48 -454.083C1349.81 -371.298 1646.67 -249.714 1766.59 -36.7108C1898.79 198.078 1987.62 678.782 1780.08 789.206C1623.69 872.409 1414.12 881.78 1077.62 844.448C820.348 815.905 320.5 899.277 90.4996 789.205C-99.4516 698.3 -20.0742 452.996 -20.0346 211.805Z" fill="url(#paint0_linear_814_690)"/>
</g>
<g filter="url(#filter1_bf_814_690)">
<ellipse cx="350.369" cy="308.489" rx="350.369" ry="308.489" transform="matrix(0.996875 0.0789914 -0.0777881 0.99697 -182.367 45.7695)" fill="url(#paint1_radial_814_690)" fill-opacity="0.7"/>
</g>
<g filter="url(#filter2_bf_814_690)">
<ellipse cx="176.509" cy="155.411" rx="176.509" ry="155.411" transform="matrix(0.996875 0.0789914 -0.0777881 0.99697 1599.03 234.344)" fill="url(#paint2_radial_814_690)" fill-opacity="0.9"/>
<path d="M1935.87 416.932C1929.35 500.504 1846.94 562.774 1751.05 555.175C1655.15 547.576 1583.42 473.093 1589.94 389.52C1596.46 305.948 1678.86 243.679 1774.76 251.277C1870.65 258.876 1942.39 333.359 1935.87 416.932Z" stroke="#768093" stroke-width="6"/>
</g>
<g style="mix-blend-mode:screen">
<path d="M900 162.265C833.833 219.586 649.1 332.371 439.5 324.954C177.5 315.681 -6.15305 254.393 -57.5 232.578C-223 162.265 -347.912 82.9557 -691.5 82.9557C-991.5 82.9557 -1222.67 270.724 -1323 324.953" stroke="#A98EA4" stroke-opacity="0.26" stroke-width="3"/>
<path d="M914.23 150.608C848.064 207.928 663.33 320.714 453.73 313.296C191.73 304.024 8.07742 242.736 -43.2695 220.921C-208.77 150.608 -333.681 71.2985 -677.27 71.2984C-977.27 71.2984 -1208.44 259.067 -1308.77 313.296" stroke="#A98EA4" stroke-opacity="0.26" stroke-width="3"/>
<path d="M928.135 138.595C861.968 195.915 677.235 308.701 467.635 301.283C205.635 292.011 21.9817 230.723 -29.3652 208.908C-194.865 138.595 -319.777 59.2853 -663.365 59.2853C-963.365 59.2852 -1194.53 247.054 -1294.87 301.283" stroke="#A98EA4" stroke-opacity="0.26" stroke-width="3"/>
<path d="M941.86 126.397C875.694 183.717 690.96 296.503 481.36 289.085C219.36 279.812 35.7073 218.525 -15.6396 196.71C-181.14 126.397 -306.051 47.087 -649.64 47.087C-949.64 47.087 -1180.81 234.855 -1281.14 289.085" stroke="#A98EA4" stroke-opacity="0.26" stroke-width="3"/>
<path d="M955.499 114.108C889.332 171.428 704.599 284.214 494.999 276.796C232.999 267.524 49.3455 206.236 -2.00145 184.421C-167.501 114.108 -292.413 34.7985 -636.001 34.7984C-936.001 34.7984 -1167.17 222.567 -1267.5 276.796" stroke="#A98EA4" stroke-opacity="0.26" stroke-width="3"/>
<path d="M969.111 101.786C902.944 159.106 718.211 271.892 508.611 264.474C246.611 255.202 62.9578 193.914 11.6109 172.099C-153.889 101.786 -278.801 22.4762 -622.389 22.4762C-922.389 22.4762 -1153.56 210.245 -1253.89 264.474" stroke="#A98EA4" stroke-opacity="0.26" stroke-width="3"/>
<path d="M982.741 89.4694C916.575 146.79 731.841 259.576 522.241 252.158C260.241 242.885 76.5882 181.597 25.2412 159.782C-140.259 89.4694 -265.17 10.1598 -608.759 10.1598C-908.759 10.1598 -1139.93 197.928 -1240.26 252.158" stroke="#A98EA4" stroke-opacity="0.26" stroke-width="3"/>
<path d="M996.423 77.1877C930.256 134.508 745.523 247.294 535.923 239.876C273.923 230.604 90.2698 169.316 38.9229 147.501C-126.577 77.1876 -251.489 -2.12194 -595.077 -2.12197C-895.077 -2.12198 -1126.24 185.646 -1226.58 239.876" stroke="#A98EA4" stroke-opacity="0.26" stroke-width="3"/>
<path d="M1010.18 64.9636C944.015 122.284 759.282 235.07 549.682 227.652C287.682 218.379 104.029 157.091 52.6821 135.277C-112.818 64.9635 -237.729 -14.3461 -581.318 -14.3461C-881.318 -14.3461 -1112.48 173.422 -1212.82 227.652" stroke="#A98EA4" stroke-opacity="0.26" stroke-width="3"/>
<path d="M1024.04 52.8161C957.873 110.136 773.14 222.922 563.54 215.504C301.54 206.232 117.887 144.944 66.5401 123.129C-98.9599 52.816 -223.872 -26.4935 -567.46 -26.4935C-867.46 -26.4936 -1098.63 161.275 -1198.96 215.504" stroke="#A98EA4" stroke-opacity="0.26" stroke-width="3"/>
<path d="M1038.02 40.7629C971.848 98.0831 787.115 210.869 577.515 203.451C315.515 194.179 131.862 132.891 80.5151 111.076C-84.9848 40.7628 -209.896 -38.5467 -553.485 -38.5468C-853.485 -38.5468 -1084.65 149.222 -1184.98 203.451" stroke="#A98EA4" stroke-opacity="0.26" stroke-width="3"/>
<path d="M1052.12 28.8181C985.957 86.1383 801.224 198.924 591.624 191.506C329.624 182.234 145.971 120.946 94.624 99.1311C-70.876 28.818 -195.788 -50.4916 -539.376 -50.4916C-839.376 -50.4916 -1070.54 137.277 -1170.88 191.506" stroke="#A98EA4" stroke-opacity="0.26" stroke-width="3"/>
<path d="M1066.38 16.9987C1000.21 74.3189 815.481 187.105 605.881 179.687C343.881 170.415 160.228 109.127 108.881 87.3117C-56.6191 16.9987 -181.531 -62.3109 -525.119 -62.3109C-825.119 -62.3109 -1056.29 125.457 -1156.62 179.687" stroke="#A98EA4" stroke-opacity="0.26" stroke-width="3"/>
<path d="M1080.8 5.31709C1014.63 62.6373 829.898 175.423 620.298 168.005C358.298 158.733 174.645 97.4449 123.298 75.6301C-42.2016 5.31702 -167.113 -73.9925 -510.702 -73.9926C-810.702 -73.9926 -1041.87 113.776 -1142.2 168.005" stroke="#A98EA4" stroke-opacity="0.26" stroke-width="3"/>
<path d="M1095.39 -6.21172C1029.22 51.1085 844.489 163.894 634.889 156.476C372.889 147.204 189.236 85.9161 137.889 64.1013C-27.6108 -6.21179 -152.522 -85.5214 -496.111 -85.5214C-796.111 -85.5214 -1027.28 102.247 -1127.61 156.476" stroke="#A98EA4" stroke-opacity="0.26" stroke-width="3"/>
<path d="M1110.16 -17.5721C1044 39.7481 859.265 152.534 649.665 145.116C387.665 135.844 204.012 74.5558 152.665 52.7409C-12.8354 -17.5721 -137.747 -96.8817 -481.335 -96.8817C-781.335 -96.8817 -1012.5 90.8866 -1112.84 145.116" stroke="#A98EA4" stroke-opacity="0.26" stroke-width="3"/>
<path d="M1125.14 -28.7493C1058.97 28.5709 874.236 141.357 664.636 133.939C402.636 124.666 218.983 63.3785 167.636 41.5637C2.13576 -28.7494 -122.776 -108.059 -466.364 -108.059C-766.364 -108.059 -997.531 79.7094 -1097.86 133.939" stroke="#A98EA4" stroke-opacity="0.26" stroke-width="3"/>
<path d="M1140.31 -39.7278C1074.15 17.5924 889.413 130.378 679.813 122.96C417.813 113.688 234.16 52.4 182.813 30.5852C17.313 -39.7279 -107.599 -119.037 -451.187 -119.037C-751.187 -119.038 -982.354 68.7309 -1082.69 122.96" stroke="#A98EA4" stroke-opacity="0.26" stroke-width="3"/>
<path d="M1155.71 -50.4905C1089.54 6.82968 904.807 119.616 695.207 112.198C433.207 102.925 249.553 41.6373 198.207 19.8225C32.7066 -50.4906 -92.205 -129.8 -435.793 -129.8C-735.793 -129.8 -966.96 57.9682 -1067.29 112.198" stroke="#A98EA4" stroke-opacity="0.26" stroke-width="3"/>
<path d="M1171.33 -61.0193C1105.16 -3.69913 920.426 109.087 710.826 101.669C448.826 92.3965 265.173 31.1085 213.826 9.29365C48.3262 -61.0194 -76.5854 -140.329 -420.174 -140.329C-720.174 -140.329 -951.34 47.4394 -1051.67 101.669" stroke="#A98EA4" stroke-opacity="0.26" stroke-width="3"/>
<path d="M1187.18 -71.2957C1121.01 -13.9755 936.281 98.8104 726.681 91.3925C464.681 82.1201 281.028 20.8321 229.681 -0.982717C64.1807 -71.2958 -60.7309 -150.605 -404.319 -150.605C-704.319 -150.605 -935.486 37.163 -1035.82 91.3924" stroke="#A98EA4" stroke-opacity="0.26" stroke-width="3"/>
<path d="M1203.28 -81.2991C1137.11 -23.9789 952.379 88.807 742.779 81.3891C480.779 72.1167 297.126 10.8287 245.779 -10.9861C80.2793 -81.2992 -44.6323 -160.609 -388.221 -160.609C-688.221 -160.609 -919.387 27.1596 -1019.72 81.389" stroke="#A98EA4" stroke-opacity="0.26" stroke-width="3"/>
<path d="M1219.63 -91.0076C1153.46 -33.6874 968.73 79.0985 759.13 71.6806C497.13 62.4082 313.477 1.12023 262.13 -20.6946C96.6299 -91.0077 -28.2817 -170.317 -371.87 -170.317C-671.87 -170.317 -903.037 17.4511 -1003.37 71.6805" stroke="#A98EA4" stroke-opacity="0.26" stroke-width="3"/>
<path d="M1236.24 -100.399C1170.07 -43.0785 985.34 69.7074 775.74 62.2895C513.74 53.0171 330.087 -8.27088 278.74 -30.0857C113.24 -100.399 -11.6713 -179.708 -355.26 -179.708C-655.26 -179.708 -886.426 8.05997 -986.76 62.2894" stroke="#A98EA4" stroke-opacity="0.26" stroke-width="3"/>
<path d="M1253.12 -109.447C1186.95 -52.1264 1002.22 60.6596 792.616 53.2416C530.616 43.9692 346.963 -17.3187 295.616 -39.1336C130.116 -109.447 5.20416 -188.756 -338.384 -188.756C-638.384 -188.756 -869.551 -0.987885 -969.884 53.2415" stroke="#A98EA4" stroke-opacity="0.26" stroke-width="3"/>
<path d="M1270.26 -118.124C1204.1 -60.8041 1019.36 51.9818 809.763 44.5639C547.763 35.2915 364.11 -25.9965 312.763 -47.8113C147.263 -118.124 22.3511 -197.434 -321.237 -197.434C-621.237 -197.434 -852.404 -9.66562 -952.737 44.5638" stroke="#A98EA4" stroke-opacity="0.26" stroke-width="3"/>
<path d="M1287.68 -126.405C1221.52 -69.0844 1036.78 43.7015 827.184 36.2836C565.184 27.0112 381.531 -34.2767 330.184 -56.0916C164.684 -126.405 39.7725 -205.714 -303.816 -205.714C-603.816 -205.714 -834.983 -17.9459 -935.316 36.2835" stroke="#A98EA4" stroke-opacity="0.26" stroke-width="3"/>
<path d="M1305.38 -134.256C1239.22 -76.9359 1054.48 35.85 844.883 28.4321C582.883 19.1597 399.23 -42.1283 347.883 -63.9432C182.383 -134.256 57.4713 -213.566 -286.117 -213.566C-586.117 -213.566 -817.284 -25.7975 -917.617 28.432" stroke="#A98EA4" stroke-opacity="0.26" stroke-width="3"/>
<path d="M1323.36 -141.647C1257.19 -84.3266 1072.46 28.4594 862.858 21.0414C600.858 11.769 417.205 -49.5189 365.858 -71.3338C200.358 -141.647 75.4468 -220.956 -268.142 -220.956C-568.142 -220.956 -799.308 -33.1881 -899.642 21.0413" stroke="#A98EA4" stroke-opacity="0.26" stroke-width="3"/>
<path d="M1341.61 -148.545C1275.44 -91.2245 1090.71 21.5614 881.108 14.1435C619.108 4.87109 435.455 -56.4169 384.108 -78.2317C218.608 -148.545 93.6963 -227.854 -249.892 -227.854C-549.892 -227.854 -781.059 -40.086 -881.392 14.1434" stroke="#A98EA4" stroke-opacity="0.26" stroke-width="3"/>
<path d="M1360.13 -154.913C1293.96 -97.5927 1109.23 15.1932 899.626 7.77533C637.626 -1.49708 453.973 -62.785 402.626 -84.5999C237.126 -154.913 112.214 -234.223 -231.374 -234.223C-531.374 -234.223 -762.541 -46.4542 -862.874 7.77522" stroke="#A98EA4" stroke-opacity="0.26" stroke-width="3"/>
<path d="M1378.9 -160.718C1312.74 -103.397 1128 9.38856 918.403 1.97064C656.403 -7.30176 472.75 -68.5897 421.403 -90.4046C255.903 -160.718 130.991 -240.027 -212.597 -240.027C-512.597 -240.027 -743.764 -52.2589 -844.097 1.97053" stroke="#A98EA4" stroke-opacity="0.26" stroke-width="3"/>
<path d="M1397.93 -165.922C1331.76 -108.602 1147.03 4.18397 937.426 -3.23395C675.426 -12.5064 491.773 -73.7943 440.426 -95.6092C274.926 -165.922 150.015 -245.232 -193.574 -245.232C-493.574 -245.232 -724.74 -57.4635 -825.074 -3.23406" stroke="#A98EA4" stroke-opacity="0.26" stroke-width="3"/>
<path d="M1417.18 -170.491C1351.01 -113.17 1166.28 -0.384388 956.678 -7.80231C694.678 -17.0747 511.025 -78.3627 459.678 -100.178C294.178 -170.491 169.266 -249.8 -174.322 -249.8C-474.322 -249.8 -705.489 -62.0318 -805.822 -7.80242" stroke="#A98EA4" stroke-opacity="0.26" stroke-width="3"/>
<path d="M1715.08 -169.66C1648.92 -112.34 1464.18 0.44569 1254.58 -6.97223C992.585 -16.2446 808.932 -77.5326 757.585 -99.3475C592.085 -169.661 467.173 -248.97 123.585 -248.97C-176.415 -248.97 -407.582 -61.2018 -507.915 -6.97234" stroke="#A98EA4" stroke-opacity="0.26" stroke-width="3"/>
<path d="M1734.7 -166.397C1668.53 -109.077 1483.8 3.70936 1274.2 -3.70856C1012.2 -12.981 828.547 -74.2689 777.2 -96.0838C611.7 -166.397 486.788 -245.706 143.2 -245.706C-156.8 -245.706 -387.967 -57.9381 -488.3 -3.70867" stroke="#A98EA4" stroke-opacity="0.26" stroke-width="3"/>
<path d="M1754.21 -162.715C1688.04 -105.395 1503.31 7.391 1293.71 -0.0269199C1031.71 -9.29932 848.057 -70.5873 796.71 -92.4022C631.21 -162.715 506.298 -242.025 162.71 -242.025C-137.29 -242.025 -368.457 -54.2564 -468.79 -0.027029" stroke="#A98EA4" stroke-opacity="0.26" stroke-width="3"/>
<path d="M1773.6 -158.602C1707.43 -101.282 1522.7 11.5038 1313.1 4.08587C1051.1 -5.18653 867.446 -66.4745 816.099 -88.2894C650.599 -158.602 525.688 -237.912 182.099 -237.912C-117.901 -237.912 -349.068 -50.1436 -449.401 4.08576" stroke="#A98EA4" stroke-opacity="0.26" stroke-width="3"/>
<path d="M1792.85 -154.046C1726.68 -96.726 1541.95 16.0599 1332.35 8.64203C1070.35 -0.630378 886.696 -61.9183 835.349 -83.7332C669.849 -154.046 544.937 -233.356 201.349 -233.356C-98.6513 -233.356 -329.818 -45.5875 -430.151 8.64192" stroke="#A98EA4" stroke-opacity="0.26" stroke-width="3"/>
<path d="M1811.94 -149.038C1745.77 -91.7182 1561.04 21.0678 1351.44 13.6498C1089.44 4.37743 905.787 -56.9105 854.44 -78.7254C688.94 -149.038 564.028 -228.348 220.44 -228.348C-79.56 -228.348 -310.727 -40.5797 -411.06 13.6497" stroke="#A98EA4" stroke-opacity="0.26" stroke-width="3"/>
<path d="M1830.85 -143.573C1764.69 -86.2528 1579.95 26.5331 1370.35 19.1152C1108.35 9.84277 924.701 -51.4452 873.355 -73.2601C707.855 -143.573 582.943 -222.883 239.355 -222.883C-60.6455 -222.883 -291.812 -35.1143 -392.146 19.1151" stroke="#A98EA4" stroke-opacity="0.26" stroke-width="3"/>
<path d="M1849.57 -137.647C1783.41 -80.3271 1598.67 32.4589 1389.07 25.041C1127.07 15.7685 943.42 -45.5194 892.073 -67.3343C726.573 -137.647 601.662 -216.957 258.073 -216.957C-41.9267 -216.957 -273.093 -29.1886 -373.427 25.0408" stroke="#A98EA4" stroke-opacity="0.26" stroke-width="3"/>
<path d="M1868.08 -131.264C1801.91 -73.9438 1617.18 38.8422 1407.58 31.4243C1145.58 22.1518 961.927 -39.1361 910.58 -60.951C745.08 -131.264 620.169 -210.574 276.58 -210.574C-23.4199 -210.574 -254.587 -22.8053 -354.92 31.4241" stroke="#A98EA4" stroke-opacity="0.26" stroke-width="3"/>
<path d="M1886.36 -124.43C1820.19 -67.1098 1635.46 45.6762 1425.86 38.2582C1163.86 28.9858 980.206 -32.3021 928.859 -54.117C763.359 -124.43 638.448 -203.74 294.859 -203.74C-5.1406 -203.74 -236.307 -15.9713 -336.641 38.2581" stroke="#A98EA4" stroke-opacity="0.26" stroke-width="3"/>
<path d="M1904.4 -117.156C1838.23 -59.8358 1653.5 52.9501 1443.9 45.5322C1181.9 36.2598 998.246 -25.0282 946.899 -46.8431C781.399 -117.156 656.488 -196.466 312.899 -196.466C12.8994 -196.466 -218.267 -8.69736 -318.601 45.5321" stroke="#A98EA4" stroke-opacity="0.26" stroke-width="3"/>
<path d="M1922.19 -109.461C1856.02 -52.1405 1671.29 60.6454 1461.69 53.2275C1199.69 43.9551 1016.04 -17.3329 964.691 -39.1478C799.191 -109.461 674.28 -188.77 330.691 -188.77C30.6914 -188.77 -200.475 -1.00204 -300.809 53.2274" stroke="#A98EA4" stroke-opacity="0.26" stroke-width="3"/>
<path d="M1939.73 -101.364C1873.57 -44.0439 1688.83 68.7421 1479.23 61.3242C1217.23 52.0518 1033.58 -9.23621 982.232 -31.0511C816.732 -101.364 691.82 -180.674 348.232 -180.674C48.232 -180.674 -182.935 7.09463 -283.268 61.324" stroke="#A98EA4" stroke-opacity="0.26" stroke-width="3"/>
<path d="M1957.02 -92.8929C1890.86 -35.5727 1706.12 77.2133 1496.52 69.7953C1234.52 60.5229 1050.87 -0.765019 999.522 -22.5799C834.022 -92.8929 709.111 -172.203 365.522 -172.203C65.5225 -172.203 -165.644 15.5658 -265.978 69.7952" stroke="#A98EA4" stroke-opacity="0.26" stroke-width="3"/>
<path d="M1974.07 -84.077C1907.9 -26.7567 1723.17 86.0292 1513.57 78.6113C1251.57 69.3389 1067.92 8.0509 1016.57 -13.764C851.069 -84.077 726.157 -163.387 382.569 -163.387C82.5689 -163.387 -148.598 24.3817 -248.931 78.6112" stroke="#A98EA4" stroke-opacity="0.26" stroke-width="3"/>
<path d="M1990.88 -74.9505C1924.72 -17.6303 1739.98 95.1557 1530.38 87.7377C1268.38 78.4653 1084.73 17.1774 1033.38 -4.6375C867.884 -74.9506 742.973 -154.26 399.384 -154.26C99.3843 -154.26 -131.782 33.5082 -232.116 87.7376" stroke="#A98EA4" stroke-opacity="0.26" stroke-width="3"/>
<path d="M2007.49 -65.5501C1941.32 -8.22989 1756.59 104.556 1546.99 97.1381C1284.99 87.8657 1101.33 26.5778 1049.99 4.76289C884.486 -65.5502 759.575 -144.86 415.986 -144.86C115.986 -144.86 -115.18 42.9086 -215.514 97.138" stroke="#A98EA4" stroke-opacity="0.26" stroke-width="3"/>
<path d="M2023.9 -55.9148C1957.73 1.40536 1773 114.191 1563.4 106.773C1301.4 97.501 1117.74 36.213 1066.4 14.3981C900.897 -55.9149 775.986 -135.224 432.397 -135.225C132.397 -135.225 -98.7692 52.5439 -199.103 106.773" stroke="#A98EA4" stroke-opacity="0.26" stroke-width="3"/>
<path d="M2040.15 -46.0843C1973.98 11.2359 1789.25 124.022 1579.65 116.604C1317.65 107.332 1133.99 46.0436 1082.65 24.2287C917.146 -46.0843 792.234 -125.394 448.646 -125.394C148.646 -125.394 -82.5211 62.3744 -182.854 116.604" stroke="#A98EA4" stroke-opacity="0.26" stroke-width="3"/>
<path d="M2056.26 -36.1009C1990.09 21.2193 1805.36 134.005 1595.76 126.587C1333.76 117.315 1150.11 56.027 1098.76 34.2121C933.261 -36.1009 808.35 -115.411 464.761 -115.411C164.761 -115.411 -66.4054 72.3578 -166.739 126.587" stroke="#A98EA4" stroke-opacity="0.26" stroke-width="3"/>
<path d="M2072.28 -26.0057C2006.11 31.3145 1821.38 144.1 1611.78 136.683C1349.78 127.41 1166.13 66.1222 1114.78 44.3073C949.279 -26.0057 824.368 -105.315 480.779 -105.315C180.779 -105.315 -50.3874 82.453 -150.721 136.682" stroke="#A98EA4" stroke-opacity="0.26" stroke-width="3"/>
<path d="M2088.23 -15.8406C2022.07 41.4796 1837.33 154.266 1627.73 146.848C1365.73 137.575 1182.08 76.2872 1130.73 54.4724C965.235 -15.8407 840.323 -95.1503 496.735 -95.1503C196.735 -95.1503 -34.4318 92.6181 -134.765 146.847" stroke="#A98EA4" stroke-opacity="0.26" stroke-width="3"/>
<path d="M2104.17 -5.64775C2038 51.6725 1853.27 164.458 1643.67 157.04C1381.67 147.768 1198.01 86.4801 1146.67 64.6652C981.166 -5.64782 856.254 -84.9574 512.666 -84.9574C212.666 -84.9574 -18.5011 102.811 -118.834 157.04" stroke="#A98EA4" stroke-opacity="0.26" stroke-width="3"/>
<path d="M2120.11 4.53144C2053.94 61.8517 1869.21 174.638 1659.61 167.22C1397.61 157.947 1213.96 96.6593 1162.61 74.8444C997.108 4.53138 872.197 -74.7782 528.608 -74.7782C228.608 -74.7782 -2.55826 112.99 -102.892 167.22" stroke="#A98EA4" stroke-opacity="0.26" stroke-width="3"/>
<path d="M2136.1 14.6564C2069.93 71.9767 1885.2 184.763 1675.6 177.345C1413.6 168.072 1229.95 106.784 1178.6 84.9694C1013.1 14.6564 888.188 -64.6532 544.599 -64.6532C244.599 -64.6532 13.4325 123.115 -86.9009 177.345" stroke="#A98EA4" stroke-opacity="0.26" stroke-width="3"/>
<path d="M2152.17 24.6833C2086 82.0035 1901.27 194.789 1691.67 187.372C1429.67 178.099 1246.01 116.811 1194.67 94.9963C1029.17 24.6832 904.254 -54.6263 560.666 -54.6264C260.666 -54.6264 29.4989 133.142 -70.8345 187.371" stroke="#A98EA4" stroke-opacity="0.26" stroke-width="3"/>
<path d="M2169.19 35.0104C2103.02 92.3307 1918.29 205.117 1708.69 197.699C1446.69 188.426 1263.03 127.138 1211.69 105.323C1046.19 35.0104 921.276 -44.2992 577.688 -44.2992C277.688 -44.2992 46.5213 143.469 -53.812 197.699" stroke="#A98EA4" stroke-opacity="0.26" stroke-width="3"/>
<path d="M2185.57 44.029C2119.4 101.349 1934.67 214.135 1725.07 206.717C1463.07 197.445 1279.41 136.157 1228.07 114.342C1062.57 44.0289 937.655 -35.2806 594.067 -35.2807C294.067 -35.2807 62.9002 152.488 -37.4331 206.717" stroke="#A98EA4" stroke-opacity="0.26" stroke-width="3"/>
<path d="M2202.53 52.6311C2136.37 109.951 1951.63 222.737 1742.03 215.319C1480.03 206.047 1296.38 144.759 1245.03 122.944C1079.53 52.631 954.621 -26.6786 611.032 -26.6786C311.032 -26.6786 79.8656 161.09 -20.4678 215.319" stroke="#A98EA4" stroke-opacity="0.26" stroke-width="3"/>
<path d="M2219.87 60.8454C2153.7 118.166 1968.97 230.952 1759.37 223.534C1497.37 214.261 1313.71 152.973 1262.37 131.158C1096.87 60.8453 971.956 -18.4642 628.368 -18.4643C328.368 -18.4643 97.201 169.304 -3.13232 223.534" stroke="#A98EA4" stroke-opacity="0.26" stroke-width="3"/>
<path d="M2237.48 68.6994C2171.32 126.02 1986.58 238.806 1776.98 231.388C1514.98 222.115 1331.33 160.827 1279.98 139.012C1114.48 68.6993 989.572 -10.6102 645.984 -10.6102C345.984 -10.6103 114.817 177.158 14.4839 231.388" stroke="#A98EA4" stroke-opacity="0.26" stroke-width="3"/>
<path d="M2255.33 76.2126C2189.17 133.533 2004.43 246.319 1794.83 238.901C1532.83 229.628 1349.18 168.34 1297.83 146.526C1132.33 76.2125 1007.42 -3.09704 663.834 -3.09706C363.834 -3.09708 132.667 184.671 32.334 238.901" stroke="#A98EA4" stroke-opacity="0.26" stroke-width="3"/>
<path d="M2273.39 83.3991C2207.22 140.719 2022.49 253.505 1812.89 246.087C1550.89 236.815 1367.23 175.527 1315.89 153.712C1150.39 83.3991 1025.48 4.08948 681.887 4.08946C381.887 4.08944 150.721 191.858 50.3872 246.087" stroke="#A98EA4" stroke-opacity="0.26" stroke-width="3"/>
<path d="M2291.62 90.2692C2225.46 147.589 2040.72 260.375 1831.12 252.957C1569.12 243.685 1385.47 182.397 1334.12 160.582C1168.62 90.2692 1043.71 10.9596 700.123 10.9596C400.123 10.9596 168.956 198.728 68.6226 252.957" stroke="#A98EA4" stroke-opacity="0.26" stroke-width="3"/>
<path d="M2310.02 96.8308C2243.86 154.151 2059.12 266.937 1849.52 259.519C1587.52 250.247 1403.87 188.959 1352.52 167.144C1187.02 96.8307 1062.11 17.5211 718.524 17.5211C418.524 17.5211 187.357 205.289 87.0239 259.519" stroke="#A98EA4" stroke-opacity="0.26" stroke-width="3"/>
<path d="M2328.58 103.087C2262.41 160.407 2077.68 273.193 1868.08 265.775C1606.08 256.503 1422.43 195.215 1371.08 173.4C1205.58 103.087 1080.67 23.7775 737.078 23.7774C437.078 23.7774 205.911 211.546 105.578 265.775" stroke="#A98EA4" stroke-opacity="0.26" stroke-width="3"/>
<path d="M2347.27 109.043C2281.11 166.363 2096.37 279.149 1886.77 271.731C1624.77 262.459 1441.12 201.171 1389.77 179.356C1224.27 109.043 1099.36 29.7335 755.775 29.7335C455.775 29.7335 224.608 217.502 124.275 271.731" stroke="#A98EA4" stroke-opacity="0.26" stroke-width="3"/>
<path d="M2366.1 114.701C2299.94 172.021 2115.2 284.807 1905.6 277.389C1643.6 268.117 1459.95 206.829 1408.6 185.014C1243.1 114.701 1118.19 35.3912 774.604 35.3912C474.604 35.3912 243.437 223.16 143.104 277.389" stroke="#A98EA4" stroke-opacity="0.26" stroke-width="3"/>
<path d="M2385.06 120.062C2318.89 177.382 2134.16 290.168 1924.56 282.75C1662.56 273.478 1478.9 212.19 1427.56 190.375C1262.06 120.062 1137.15 40.7521 793.557 40.7521C493.557 40.752 262.39 228.52 162.057 282.75" stroke="#A98EA4" stroke-opacity="0.26" stroke-width="3"/>
<path d="M2404.12 125.126C2337.96 182.446 2153.22 295.232 1943.62 287.814C1681.62 278.542 1497.97 217.254 1446.62 195.439C1281.12 125.126 1156.21 45.8165 812.625 45.8165C512.625 45.8165 281.458 233.585 181.125 287.814" stroke="#A98EA4" stroke-opacity="0.26" stroke-width="3"/>
<path d="M2423.3 129.895C2357.13 187.215 2172.4 300.001 1962.8 292.583C1700.8 283.311 1517.15 222.023 1465.8 200.208C1300.3 129.895 1175.39 50.5856 831.801 50.5856C531.801 50.5855 300.635 238.354 200.301 292.583" stroke="#A98EA4" stroke-opacity="0.26" stroke-width="3"/>
<path d="M2442.58 134.368C2376.41 191.689 2191.68 304.474 1982.08 297.057C1720.08 287.784 1536.43 226.496 1485.08 204.681C1319.58 134.368 1194.67 55.0587 851.079 55.0587C551.079 55.0587 319.912 242.827 219.579 297.056" stroke="#A98EA4" stroke-opacity="0.26" stroke-width="3"/>
<path d="M2461.95 138.546C2395.78 195.866 2211.05 308.652 2001.45 301.234C1739.45 291.961 1555.8 230.673 1504.45 208.859C1338.95 138.546 1214.04 59.236 870.45 59.2359C570.45 59.2359 339.283 247.004 238.95 301.234" stroke="#A98EA4" stroke-opacity="0.26" stroke-width="3"/>
<path d="M2481.41 142.426C2415.24 199.746 2230.51 312.532 2020.91 305.114C1758.91 295.842 1575.26 234.554 1523.91 212.739C1358.41 142.426 1233.5 63.1163 889.908 63.1163C589.908 63.1163 358.742 250.885 258.408 305.114" stroke="#A98EA4" stroke-opacity="0.26" stroke-width="3"/>
<path d="M2500.95 146.009C2434.78 203.33 2250.05 316.116 2040.45 308.698C1778.45 299.425 1594.79 238.137 1543.45 216.322C1377.95 146.009 1253.04 66.6998 909.447 66.6998C609.447 66.6998 378.281 254.468 277.947 308.698" stroke="#A98EA4" stroke-opacity="0.26" stroke-width="3"/>
<path d="M2520.56 149.295C2454.39 206.615 2269.66 319.401 2060.06 311.983C1798.06 302.71 1614.41 241.422 1563.06 219.608C1397.56 149.295 1272.65 69.985 929.061 69.985C629.061 69.9849 397.894 257.753 297.561 311.983" stroke="#A98EA4" stroke-opacity="0.26" stroke-width="3"/>
<path d="M2540.24 152.281C2474.07 209.601 2289.34 322.387 2079.74 314.969C1817.74 305.697 1634.09 244.409 1582.74 222.594C1417.24 152.281 1292.33 72.9713 948.741 72.9713C648.741 72.9713 417.574 260.74 317.241 314.969" stroke="#A98EA4" stroke-opacity="0.26" stroke-width="3"/>
<path d="M2559.98 154.968C2493.82 212.288 2309.08 325.074 2099.48 317.656C1837.48 308.384 1653.83 247.096 1602.48 225.281C1436.98 154.968 1312.07 75.6583 968.482 75.6583C668.482 75.6583 437.316 263.427 336.982 317.656" stroke="#A98EA4" stroke-opacity="0.26" stroke-width="3"/>
<path d="M2579.78 157.354C2513.61 214.674 2328.88 327.46 2119.28 320.042C1857.28 310.77 1673.63 249.482 1622.28 227.667C1456.78 157.354 1331.87 78.0446 988.278 78.0445C688.278 78.0445 457.112 265.813 356.778 320.042" stroke="#A98EA4" stroke-opacity="0.26" stroke-width="3"/>
<path d="M2599.62 159.439C2533.46 216.759 2348.72 329.545 2139.12 322.127C1877.12 312.855 1693.47 251.567 1642.12 229.752C1476.62 159.439 1351.71 80.1295 1008.12 80.1295C708.122 80.1295 476.955 267.898 376.622 322.127" stroke="#A98EA4" stroke-opacity="0.26" stroke-width="3"/>
<path d="M2619.51 161.223C2553.34 218.543 2368.61 331.329 2159.01 323.911C1897.01 314.639 1713.36 253.351 1662.01 231.536C1496.51 161.223 1371.6 81.9132 1028.01 81.9132C728.008 81.9132 496.842 269.682 396.508 323.911" stroke="#A98EA4" stroke-opacity="0.26" stroke-width="3"/>
<path d="M2639.43 162.704C2573.26 220.025 2388.53 332.81 2178.93 325.393C1916.93 316.12 1733.28 254.832 1681.93 233.017C1516.43 162.704 1391.52 83.3947 1047.93 83.3946C747.929 83.3946 516.763 271.163 416.429 325.392" stroke="#A98EA4" stroke-opacity="0.26" stroke-width="3"/>
<path d="M2659.44 163.886C2593.28 221.207 2408.54 333.993 2198.94 326.575C1936.94 317.302 1753.29 256.014 1701.94 234.199C1536.44 163.886 1411.53 84.5768 1067.94 84.5768C767.944 84.5767 536.777 272.345 436.444 326.575" stroke="#A98EA4" stroke-opacity="0.26" stroke-width="3"/>
<path d="M2678.73 164.43C2612.57 221.751 2427.83 334.537 2218.23 327.119C1956.23 317.846 1772.58 256.558 1721.23 234.743C1555.73 164.43 1430.82 85.1207 1087.23 85.1207C787.233 85.1207 556.066 272.889 455.733 327.118" stroke="#A98EA4" stroke-opacity="0.26" stroke-width="3"/>
<path d="M2698.73 163.999C2632.56 221.319 2447.83 334.105 2238.23 326.687C1976.23 317.415 1792.57 256.127 1741.23 234.312C1575.73 163.999 1450.81 84.6891 1107.23 84.6891C807.226 84.6891 576.059 272.457 475.726 326.687" stroke="#A98EA4" stroke-opacity="0.26" stroke-width="3"/>
<path d="M2718.65 162.581C2652.49 219.901 2467.75 332.687 2258.15 325.269C1996.15 315.997 1812.5 254.709 1761.15 232.894C1595.65 162.581 1470.74 83.2716 1127.15 83.2716C827.155 83.2716 595.988 271.04 495.655 325.269" stroke="#A98EA4" stroke-opacity="0.26" stroke-width="3"/>
<path d="M2738.46 160.217C2672.29 217.537 2487.56 330.323 2277.96 322.905C2015.96 313.633 1832.3 252.345 1780.96 230.53C1615.46 160.217 1490.55 80.9074 1146.96 80.9073C846.957 80.9073 615.79 268.676 515.457 322.905" stroke="#A98EA4" stroke-opacity="0.26" stroke-width="3"/>
<path d="M2758.08 156.952C2691.91 214.272 2507.18 327.058 2297.58 319.64C2035.58 310.368 1851.93 249.08 1800.58 227.265C1635.08 156.952 1510.17 77.6422 1166.58 77.6422C866.578 77.6422 635.411 265.411 535.078 319.64" stroke="#A98EA4" stroke-opacity="0.26" stroke-width="3"/>
<path d="M2777.47 152.836C2711.31 210.156 2526.57 322.942 2316.97 315.524C2054.97 306.252 1871.32 244.964 1819.97 223.149C1654.47 152.836 1529.56 73.5265 1185.97 73.5265C885.973 73.5265 654.806 261.295 554.473 315.524" stroke="#A98EA4" stroke-opacity="0.26" stroke-width="3"/>
<path d="M2796.61 147.925C2730.44 205.245 2545.71 318.031 2336.11 310.613C2074.11 301.34 1890.45 240.052 1839.11 218.237C1673.61 147.924 1548.69 68.6149 1205.11 68.6149C905.105 68.6148 673.939 256.383 573.605 310.613" stroke="#A98EA4" stroke-opacity="0.26" stroke-width="3"/>
<path d="M2815.45 142.27C2749.28 199.59 2564.55 312.376 2354.95 304.958C2092.95 295.686 1909.29 234.398 1857.95 212.583C1692.45 142.27 1567.54 62.9606 1223.95 62.9606C923.947 62.9605 692.781 250.729 592.447 304.958" stroke="#A98EA4" stroke-opacity="0.26" stroke-width="3"/>
<path d="M2833.98 135.926C2767.81 193.246 2583.08 306.032 2373.48 298.614C2111.48 289.342 1927.82 228.054 1876.48 206.239C1710.98 135.926 1586.07 56.6163 1242.48 56.6163C942.477 56.6163 711.31 244.385 610.977 298.614" stroke="#A98EA4" stroke-opacity="0.26" stroke-width="3"/>
<path d="M2852.18 128.942C2786.01 186.262 2601.28 299.048 2391.68 291.63C2129.68 282.358 1946.03 221.07 1894.68 199.255C1729.18 128.942 1604.27 49.6325 1260.68 49.6324C960.681 49.6324 729.514 237.401 629.181 291.63" stroke="#A98EA4" stroke-opacity="0.26" stroke-width="3"/>
<path d="M2870.05 121.367C2803.88 178.687 2619.15 291.473 2409.55 284.055C2147.55 274.783 1963.89 213.495 1912.55 191.68C1747.05 121.367 1622.14 42.0573 1278.55 42.0572C978.548 42.0572 747.381 229.826 647.048 284.055" stroke="#A98EA4" stroke-opacity="0.26" stroke-width="3"/>
<path d="M2887.57 113.244C2821.41 170.565 2636.67 283.35 2427.07 275.933C2165.07 266.66 1981.42 205.372 1930.07 183.557C1764.57 113.244 1639.66 33.9347 1296.07 33.9347C996.073 33.9347 764.907 221.703 664.573 275.932" stroke="#A98EA4" stroke-opacity="0.26" stroke-width="3"/>
<path d="M2904.75 104.614C2838.59 161.934 2653.85 274.72 2444.25 267.302C2182.25 258.03 1998.6 196.742 1947.25 174.927C1781.75 104.614 1656.84 25.3043 1313.25 25.3043C1013.25 25.3043 782.087 213.073 681.753 267.302" stroke="#A98EA4" stroke-opacity="0.26" stroke-width="3"/>
<path d="M2921.59 95.5129C2855.42 152.833 2670.69 265.619 2461.09 258.201C2199.09 248.929 2015.44 187.641 1964.09 165.826C1798.59 95.5128 1673.68 16.2033 1330.09 16.2032C1030.09 16.2032 798.922 203.972 698.589 258.201" stroke="#A98EA4" stroke-opacity="0.26" stroke-width="3"/>
<path d="M2938.08 85.9748C2871.91 143.295 2687.18 256.081 2477.58 248.663C2215.58 239.391 2031.93 178.103 1980.58 156.288C1815.08 85.9747 1690.17 6.66517 1346.58 6.66514C1046.58 6.66513 815.413 194.434 715.08 248.663" stroke="#A98EA4" stroke-opacity="0.26" stroke-width="3"/>
<path d="M2954.23 76.029C2888.06 133.349 2703.33 246.135 2493.73 238.717C2231.73 229.445 2048.07 168.157 1996.73 146.342C1831.23 76.0289 1706.32 -3.28064 1362.73 -3.28066C1062.73 -3.28068 831.561 184.488 731.228 238.717" stroke="#A98EA4" stroke-opacity="0.26" stroke-width="3"/>
<path d="M2970.03 65.7023C2903.87 123.023 2719.13 235.808 2509.53 228.391C2247.53 219.118 2063.88 157.83 2012.53 136.015C1847.03 65.7023 1722.12 -13.6073 1378.53 -13.6073C1078.53 -13.6073 847.368 174.161 747.035 228.39" stroke="#A98EA4" stroke-opacity="0.26" stroke-width="3"/>
<path d="M2985.5 55.0178C2919.34 112.338 2734.6 225.124 2525 217.706C2263 208.434 2079.35 147.146 2028 125.331C1862.5 55.0177 1737.59 -24.2919 1394 -24.2919C1094 -24.2919 862.836 163.476 762.503 217.706" stroke="#A98EA4" stroke-opacity="0.26" stroke-width="3"/>
<path d="M3000.63 43.9958C2934.47 101.316 2749.73 214.102 2540.13 206.684C2278.13 197.412 2094.48 136.124 2043.13 114.309C1877.63 43.9957 1752.72 -35.3138 1409.13 -35.3139C1109.13 -35.3139 877.966 152.454 777.633 206.684" stroke="#A98EA4" stroke-opacity="0.26" stroke-width="3"/>
<path d="M3015.42 32.654C2949.26 89.9742 2764.52 202.76 2554.92 195.342C2292.92 186.07 2109.27 124.782 2057.92 102.967C1892.42 32.6539 1767.51 -46.6556 1423.92 -46.6557C1123.92 -46.6557 892.757 141.113 792.424 195.342" stroke="#A98EA4" stroke-opacity="0.26" stroke-width="3"/>
<path d="M3029.88 21.007C2963.71 78.3272 2778.98 191.113 2569.38 183.695C2307.38 174.423 2123.72 113.135 2072.38 91.32C1906.88 21.007 1781.96 -58.3026 1438.38 -58.3026C1138.38 -58.3026 907.208 129.466 806.875 183.695" stroke="#A98EA4" stroke-opacity="0.26" stroke-width="3"/>
<path d="M3043.98 9.06611C2977.81 66.3863 2793.08 179.172 2583.48 171.754C2321.48 162.482 2137.83 101.194 2086.48 79.3791C1920.98 9.06604 1796.07 -70.2435 1452.48 -70.2435C1152.48 -70.2436 921.314 117.525 820.981 171.754" stroke="#A98EA4" stroke-opacity="0.26" stroke-width="3"/>
<path d="M3057.73 -3.15947C2991.57 54.1607 2806.83 166.947 2597.23 159.529C2335.23 150.256 2151.58 88.9684 2100.23 67.1535C1934.73 -3.15954 1809.82 -82.4691 1466.23 -82.4691C1166.23 -82.4692 935.067 105.299 834.733 159.529" stroke="#A98EA4" stroke-opacity="0.26" stroke-width="3"/>
<path d="M3071.12 -15.6648C3004.95 41.6554 2820.22 154.441 2610.62 147.023C2348.62 137.751 2164.97 76.463 2113.62 54.6481C1948.12 -15.6649 1823.21 -94.9745 1479.62 -94.9745C1179.62 -94.9745 948.453 92.7939 848.12 147.023" stroke="#A98EA4" stroke-opacity="0.26" stroke-width="3"/>
<path d="M3084.11 -28.4402C3017.94 28.88 2833.21 141.666 2623.61 134.248C2361.61 124.976 2177.96 63.6876 2126.61 41.8728C1961.11 -28.4403 1836.2 -107.75 1492.61 -107.75C1192.61 -107.75 961.443 80.0185 861.109 134.248" stroke="#A98EA4" stroke-opacity="0.26" stroke-width="3"/>
<path d="M3096.66 -41.471C3030.49 15.8492 2845.76 128.635 2636.16 121.217C2374.16 111.945 2190.5 50.6569 2139.16 28.842C1973.66 -41.4711 1848.74 -120.781 1505.16 -120.781C1205.16 -120.781 973.989 66.9877 873.655 121.217" stroke="#A98EA4" stroke-opacity="0.26" stroke-width="3"/>
<path d="M3109.06 -55.1707C3042.89 2.1495 2858.16 114.935 2648.56 107.518C2386.56 98.2451 2202.91 36.9571 2151.56 15.1423C1986.06 -55.1708 1861.15 -134.48 1517.56 -134.48C1217.56 -134.48 986.392 53.288 886.059 107.517" stroke="#A98EA4" stroke-opacity="0.26" stroke-width="3"/>
<path d="M3120.86 -69.2059C3054.7 -11.8857 2869.96 100.9 2660.36 93.4824C2398.36 84.21 2214.71 22.922 2163.36 1.10713C1997.86 -69.2059 1872.95 -148.515 1529.36 -148.516C1229.36 -148.516 998.197 39.2528 897.864 93.4822" stroke="#A98EA4" stroke-opacity="0.26" stroke-width="3"/>
</g>
<mask id="mask0_814_690" style="mask-type:alpha" maskUnits="userSpaceOnUse" x="-207" y="-568" width="2162" height="1430">
<path fill-rule="evenodd" clip-rule="evenodd" d="M-18.3429 208.58C-18.4306 -52.0994 13.7703 -344.567 259.463 -488.959C503.264 -632.24 826.22 -543.578 1106.75 -452.627C1360.9 -370.227 1659.92 -249.245 1780.8 -37.4987C1914.05 195.905 2003.75 673.682 1794.79 783.318C1637.34 865.928 1426.3 875.136 1087.4 837.864C828.287 809.369 324.945 891.972 93.2619 782.465C-98.0785 692.027 -18.2621 448.279 -18.3429 208.58Z" fill="url(#paint3_linear_814_690)" fill-opacity="0.8" stroke="#768093" stroke-opacity="0.8" stroke-width="6"/>
<ellipse cx="352.846" cy="306.583" rx="352.846" ry="306.583" transform="matrix(0.996918 0.0784508 -0.0783242 0.996928 -181.907 43.4863)" fill="url(#paint4_radial_814_690)" fill-opacity="0.7"/>
<path d="M1951.52 413.423C1945 496.429 1862.07 558.302 1765.44 550.698C1668.82 543.094 1596.56 469.009 1603.09 386.003C1609.61 302.998 1692.54 241.125 1789.17 248.728C1885.79 256.332 1958.04 330.417 1951.52 413.423Z" fill="url(#paint5_radial_814_690)" fill-opacity="0.9" stroke="#768093" stroke-width="6"/>
</mask>
<g mask="url(#mask0_814_690)">
<g style="mix-blend-mode:screen">
<path d="M1274.86 677.982C1341.03 609.982 1525.76 476.182 1735.36 484.982C1997.36 495.982 2181.02 568.689 2232.36 594.569C2397.86 677.982 2522.78 772.069 2866.36 772.069C3166.36 772.069 3397.53 549.316 3497.86 484.982" stroke="#8EE3DA" stroke-opacity="0.1" stroke-width="3"/>
<path d="M1260.63 691.812C1326.8 623.812 1511.53 490.012 1721.13 498.812C1983.13 509.812 2166.79 582.519 2218.13 608.398C2383.63 691.812 2508.54 785.898 2852.13 785.898C3152.13 785.898 3383.3 563.145 3483.63 498.812" stroke="#8EE3DA" stroke-opacity="0.1" stroke-width="3"/>
<path d="M1246.73 706.063C1312.9 638.063 1497.63 504.263 1707.23 513.063C1969.23 524.063 2152.88 596.77 2204.23 622.649C2369.73 706.063 2494.64 800.149 2838.23 800.149C3138.23 800.149 3369.4 577.396 3469.73 513.063" stroke="#8EE3DA" stroke-opacity="0.1" stroke-width="3"/>
<path d="M1233 720.534C1299.17 652.534 1483.9 518.734 1693.5 527.534C1955.5 538.534 2139.16 611.241 2190.5 637.12C2356 720.534 2480.92 814.62 2824.5 814.62C3124.5 814.62 3355.67 591.867 3456 527.534" stroke="#8EE3DA" stroke-opacity="0.1" stroke-width="3"/>
<path d="M1219.37 735.112C1285.53 667.112 1470.27 533.312 1679.87 542.112C1941.87 553.112 2125.52 625.819 2176.87 651.698C2342.37 735.112 2467.28 829.198 2810.87 829.198C3110.87 829.198 3342.03 606.445 3442.37 542.112" stroke="#8EE3DA" stroke-opacity="0.1" stroke-width="3"/>
<path d="M1205.75 749.73C1271.92 681.73 1456.65 547.93 1666.25 556.73C1928.25 567.73 2111.91 640.437 2163.25 666.316C2328.75 749.73 2453.66 843.816 2797.25 843.816C3097.25 843.816 3328.42 621.063 3428.75 556.73" stroke="#8EE3DA" stroke-opacity="0.1" stroke-width="3"/>
<path d="M1192.12 764.341C1258.29 696.341 1443.02 562.541 1652.62 571.341C1914.62 582.341 2098.28 655.048 2149.62 680.928C2315.12 764.341 2440.03 858.428 2783.62 858.428C3083.62 858.428 3314.79 635.675 3415.12 571.341" stroke="#8EE3DA" stroke-opacity="0.1" stroke-width="3"/>
<path d="M1178.44 778.912C1244.61 710.912 1429.34 577.112 1638.94 585.912C1900.94 596.912 2084.59 669.619 2135.94 695.498C2301.44 778.912 2426.35 872.998 2769.94 872.998C3069.94 872.998 3301.11 650.245 3401.44 585.912" stroke="#8EE3DA" stroke-opacity="0.1" stroke-width="3"/>
<path d="M1164.68 793.413C1230.85 725.413 1415.58 591.613 1625.18 600.413C1887.18 611.413 2070.83 684.12 2122.18 710C2287.68 793.413 2412.59 887.5 2756.18 887.5C3056.18 887.5 3287.35 664.746 3387.68 600.413" stroke="#8EE3DA" stroke-opacity="0.1" stroke-width="3"/>
<path d="M1150.82 807.824C1216.99 739.824 1401.72 606.024 1611.32 614.824C1873.32 625.824 2056.98 698.531 2108.32 724.41C2273.82 807.824 2398.74 901.91 2742.32 901.91C3042.32 901.91 3273.49 679.157 3373.82 614.824" stroke="#8EE3DA" stroke-opacity="0.1" stroke-width="3"/>
<path d="M1136.85 822.123C1203.02 754.123 1387.75 620.323 1597.35 629.123C1859.35 640.123 2043 712.83 2094.35 738.709C2259.85 822.123 2384.76 916.209 2728.35 916.209C3028.35 916.209 3259.52 693.456 3359.85 629.123" stroke="#8EE3DA" stroke-opacity="0.1" stroke-width="3"/>
<path d="M1122.74 836.293C1188.91 768.293 1373.64 634.493 1583.24 643.293C1845.24 654.293 2028.89 727 2080.24 752.879C2245.74 836.293 2370.65 930.379 2714.24 930.379C3014.24 930.379 3245.41 707.626 3345.74 643.293" stroke="#8EE3DA" stroke-opacity="0.1" stroke-width="3"/>
<path d="M1108.48 850.315C1174.65 782.315 1359.38 648.515 1568.98 657.315C1830.98 668.315 2014.64 741.022 2065.98 766.901C2231.48 850.315 2356.39 944.401 2699.98 944.401C2999.98 944.401 3231.15 721.648 3331.48 657.315" stroke="#8EE3DA" stroke-opacity="0.1" stroke-width="3"/>
<path d="M1094.07 864.173C1160.23 796.173 1344.97 662.373 1554.57 671.173C1816.57 682.173 2000.22 754.88 2051.57 780.759C2217.07 864.173 2341.98 958.259 2685.57 958.259C2985.57 958.259 3216.73 735.506 3317.07 671.173" stroke="#8EE3DA" stroke-opacity="0.1" stroke-width="3"/>
<path d="M1079.47 877.85C1145.64 809.85 1330.37 676.05 1539.97 684.85C1801.97 695.85 1985.63 768.557 2036.97 794.436C2202.47 877.85 2327.39 971.936 2670.97 971.936C2970.97 971.936 3202.14 749.183 3302.47 684.85" stroke="#8EE3DA" stroke-opacity="0.1" stroke-width="3"/>
<path d="M1064.7 891.327C1130.87 823.327 1315.6 689.527 1525.2 698.327C1787.2 709.327 1970.85 782.034 2022.2 807.913C2187.7 891.327 2312.61 985.413 2656.2 985.413C2956.2 985.413 3187.37 762.66 3287.7 698.327" stroke="#8EE3DA" stroke-opacity="0.1" stroke-width="3"/>
<path d="M1049.73 904.586C1115.89 836.586 1300.63 702.786 1510.23 711.586C1772.23 722.586 1955.88 795.293 2007.23 821.173C2172.73 904.586 2297.64 998.673 2641.23 998.673C2941.23 998.673 3172.39 775.92 3272.73 711.586" stroke="#8EE3DA" stroke-opacity="0.1" stroke-width="3"/>
<path d="M1034.55 917.61C1100.72 849.61 1285.45 715.81 1495.05 724.61C1757.05 735.61 1940.7 808.317 1992.05 834.197C2157.55 917.61 2282.46 1011.7 2626.05 1011.7C2926.05 1011.7 3157.22 788.944 3257.55 724.61" stroke="#8EE3DA" stroke-opacity="0.1" stroke-width="3"/>
<path d="M1019.16 930.378C1085.32 862.378 1270.06 728.578 1479.66 737.378C1741.66 748.378 1925.31 821.085 1976.66 846.965C2142.16 930.378 2267.07 1024.46 2610.66 1024.46C2910.66 1024.46 3141.82 801.712 3242.16 737.378" stroke="#8EE3DA" stroke-opacity="0.1" stroke-width="3"/>
<path d="M1003.54 942.869C1069.7 874.869 1254.44 741.069 1464.04 749.869C1726.04 760.869 1909.69 833.576 1961.04 859.456C2126.54 942.869 2251.45 1036.96 2595.04 1036.96C2895.04 1036.96 3126.2 814.203 3226.54 749.869" stroke="#8EE3DA" stroke-opacity="0.1" stroke-width="3"/>
<path d="M987.683 955.06C1053.85 887.06 1238.58 753.26 1448.18 762.06C1710.18 773.06 1893.84 845.767 1945.18 871.646C2110.68 955.06 2235.59 1049.15 2579.18 1049.15C2879.18 1049.15 3110.35 826.393 3210.68 762.06" stroke="#8EE3DA" stroke-opacity="0.1" stroke-width="3"/>
<path d="M971.584 966.927C1037.75 898.927 1222.48 765.127 1432.08 773.927C1694.08 784.927 1877.74 857.634 1929.08 883.514C2094.58 966.927 2219.5 1061.01 2563.08 1061.01C2863.08 1061.01 3094.25 838.261 3194.58 773.927" stroke="#8EE3DA" stroke-opacity="0.1" stroke-width="3"/>
<path d="M955.234 978.445C1021.4 910.445 1206.13 776.645 1415.73 785.445C1677.73 796.445 1861.39 869.152 1912.73 895.031C2078.23 978.445 2203.15 1072.53 2546.73 1072.53C2846.73 1072.53 3077.9 849.778 3178.23 785.445" stroke="#8EE3DA" stroke-opacity="0.1" stroke-width="3"/>
<path d="M938.624 989.586C1004.79 921.586 1189.52 787.786 1399.12 796.586C1661.12 807.586 1844.78 880.293 1896.12 906.172C2061.62 989.586 2186.54 1083.67 2530.12 1083.67C2830.12 1083.67 3061.29 860.919 3161.62 796.586" stroke="#8EE3DA" stroke-opacity="0.1" stroke-width="3"/>
<path d="M921.748 1000.32C987.915 932.319 1172.65 798.519 1382.25 807.319C1644.25 818.319 1827.9 891.026 1879.25 916.905C2044.75 1000.32 2169.66 1094.41 2513.25 1094.41C2813.25 1094.41 3044.41 871.652 3144.75 807.319" stroke="#8EE3DA" stroke-opacity="0.1" stroke-width="3"/>
<path d="M904.601 1010.61C970.768 942.614 1155.5 808.814 1365.1 817.614C1627.1 828.614 1810.75 901.321 1862.1 927.2C2027.6 1010.61 2152.51 1104.7 2496.1 1104.7C2796.1 1104.7 3027.27 881.947 3127.6 817.614" stroke="#8EE3DA" stroke-opacity="0.1" stroke-width="3"/>
<path d="M887.18 1020.44C953.346 952.437 1138.08 818.637 1347.68 827.437C1609.68 838.437 1793.33 911.144 1844.68 937.023C2010.18 1020.44 2135.09 1114.52 2478.68 1114.52C2778.68 1114.52 3009.85 891.77 3110.18 827.437" stroke="#8EE3DA" stroke-opacity="0.1" stroke-width="3"/>
<path d="M869.481 1029.75C935.648 961.751 1120.38 827.951 1329.98 836.751C1591.98 847.751 1775.63 920.458 1826.98 946.337C1992.48 1029.75 2117.39 1123.84 2460.98 1123.84C2760.98 1123.84 2992.15 901.084 3092.48 836.751" stroke="#8EE3DA" stroke-opacity="0.1" stroke-width="3"/>
<path d="M851.505 1038.52C917.672 970.519 1102.41 836.719 1312.01 845.519C1574.01 856.519 1757.66 929.226 1809.01 955.105C1974.51 1038.52 2099.42 1132.61 2443.01 1132.61C2743.01 1132.61 2974.17 909.852 3074.51 845.519" stroke="#8EE3DA" stroke-opacity="0.1" stroke-width="3"/>
<path d="M833.256 1046.7C899.423 978.702 1084.16 844.902 1293.76 853.702C1555.76 864.702 1739.41 937.409 1790.76 963.288C1956.26 1046.7 2081.17 1140.79 2424.76 1140.79C2724.76 1140.79 2955.92 918.035 3056.26 853.702" stroke="#8EE3DA" stroke-opacity="0.1" stroke-width="3"/>
<path d="M814.738 1054.26C880.904 986.257 1065.64 852.457 1275.24 861.257C1537.24 872.257 1720.89 944.964 1772.24 970.843C1937.74 1054.26 2062.65 1148.34 2406.24 1148.34C2706.24 1148.34 2937.4 925.59 3037.74 861.257" stroke="#8EE3DA" stroke-opacity="0.1" stroke-width="3"/>
<path d="M401.265 1058.63C467.431 990.633 652.165 856.833 861.765 865.633C1123.76 876.633 1307.42 949.34 1358.76 975.22C1524.26 1058.63 1649.18 1152.72 1992.76 1152.72C2292.76 1152.72 2523.93 929.967 2624.26 865.633" stroke="#8EE3DA" stroke-opacity="0.1" stroke-width="3"/>
<path d="M382.015 1053.23C448.182 985.229 632.915 851.429 842.515 860.229C1104.52 871.229 1288.17 943.936 1339.52 969.815C1505.02 1053.23 1629.93 1147.31 1973.52 1147.31C2273.52 1147.31 2504.68 924.562 2605.02 860.229" stroke="#8EE3DA" stroke-opacity="0.1" stroke-width="3"/>
<path d="M362.924 1047.29C429.09 979.288 613.824 845.488 823.424 854.288C1085.42 865.288 1269.08 937.995 1320.42 963.874C1485.92 1047.29 1610.84 1141.37 1954.42 1141.37C2254.42 1141.37 2485.59 918.621 2585.92 854.288" stroke="#8EE3DA" stroke-opacity="0.1" stroke-width="3"/>
<path d="M344.009 1040.8C410.176 972.804 594.909 839.004 804.509 847.804C1066.51 858.804 1250.16 931.511 1301.51 957.39C1467.01 1040.8 1591.92 1134.89 1935.51 1134.89C2235.51 1134.89 2466.68 912.137 2567.01 847.804" stroke="#8EE3DA" stroke-opacity="0.1" stroke-width="3"/>
<path d="M325.291 1033.77C391.457 965.774 576.191 831.974 785.791 840.774C1047.79 851.774 1231.44 924.481 1282.79 950.36C1448.29 1033.77 1573.2 1127.86 1916.79 1127.86C2216.79 1127.86 2447.96 905.107 2548.29 840.774" stroke="#8EE3DA" stroke-opacity="0.1" stroke-width="3"/>
<path d="M306.784 1026.2C372.95 958.202 557.684 824.402 767.284 833.202C1029.28 844.202 1212.94 916.909 1264.28 942.788C1429.78 1026.2 1554.7 1120.29 1898.28 1120.29C2198.28 1120.29 2429.45 897.535 2529.78 833.202" stroke="#8EE3DA" stroke-opacity="0.1" stroke-width="3"/>
<path d="M288.504 1018.09C354.671 950.094 539.404 816.294 749.004 825.094C1011 836.094 1194.66 908.801 1246 934.681C1411.5 1018.09 1536.42 1112.18 1880 1112.18C2180 1112.18 2411.17 889.428 2511.5 825.094" stroke="#8EE3DA" stroke-opacity="0.1" stroke-width="3"/>
<path d="M270.464 1009.47C336.631 941.465 521.364 807.665 730.964 816.465C992.964 827.465 1176.62 900.172 1227.96 926.052C1393.46 1009.47 1518.38 1103.55 1861.96 1103.55C2161.96 1103.55 2393.13 880.799 2493.46 816.465" stroke="#8EE3DA" stroke-opacity="0.1" stroke-width="3"/>
<path d="M252.672 1000.34C318.839 932.336 503.572 798.536 713.172 807.336C975.172 818.336 1158.83 891.043 1210.17 916.922C1375.67 1000.34 1500.58 1094.42 1844.17 1094.42C2144.17 1094.42 2375.34 871.669 2475.67 807.336" stroke="#8EE3DA" stroke-opacity="0.1" stroke-width="3"/>
<path d="M235.132 990.731C301.299 922.731 486.032 788.931 695.632 797.731C957.632 808.731 1141.28 881.438 1192.63 907.317C1358.13 990.731 1483.04 1084.82 1826.63 1084.82C2126.63 1084.82 2357.8 862.064 2458.13 797.731" stroke="#8EE3DA" stroke-opacity="0.1" stroke-width="3"/>
<path d="M217.841 980.681C284.008 912.681 468.741 778.881 678.341 787.681C940.341 798.681 1123.99 871.388 1175.34 897.268C1340.84 980.681 1465.75 1074.77 1809.34 1074.77C2109.34 1074.77 2340.51 852.015 2440.84 787.681" stroke="#8EE3DA" stroke-opacity="0.1" stroke-width="3"/>
<path d="M200.795 970.223C266.962 902.223 451.695 768.423 661.295 777.223C923.295 788.223 1106.95 860.93 1158.29 886.809C1323.79 970.223 1448.71 1064.31 1792.29 1064.31C2092.29 1064.31 2323.46 841.556 2423.79 777.223" stroke="#8EE3DA" stroke-opacity="0.1" stroke-width="3"/>
<path d="M183.979 959.396C250.146 891.396 434.879 757.596 644.479 766.396C906.479 777.396 1090.13 850.103 1141.48 875.982C1306.98 959.396 1431.89 1053.48 1775.48 1053.48C2075.48 1053.48 2306.65 830.729 2406.98 766.396" stroke="#8EE3DA" stroke-opacity="0.1" stroke-width="3"/>
<path d="M167.377 948.244C233.544 880.244 418.277 746.444 627.877 755.244C889.877 766.244 1073.53 838.951 1124.88 864.831C1290.38 948.244 1415.29 1042.33 1758.88 1042.33C2058.88 1042.33 2290.04 819.578 2390.38 755.244" stroke="#8EE3DA" stroke-opacity="0.1" stroke-width="3"/>
<path d="M150.966 936.814C217.133 868.814 401.866 735.014 611.466 743.814C873.466 754.814 1057.12 827.521 1108.47 853.4C1273.97 936.814 1398.88 1030.9 1742.47 1030.9C2042.47 1030.9 2273.63 808.147 2373.97 743.814" stroke="#8EE3DA" stroke-opacity="0.1" stroke-width="3"/>
<path d="M134.718 925.151C200.885 857.151 385.618 723.351 595.218 732.151C857.218 743.151 1040.87 815.858 1092.22 841.738C1257.72 925.151 1382.63 1019.24 1726.22 1019.24C2026.22 1019.24 2257.38 796.485 2357.72 732.151" stroke="#8EE3DA" stroke-opacity="0.1" stroke-width="3"/>
<path d="M118.603 913.308C184.769 845.308 369.503 711.508 579.103 720.308C841.103 731.308 1024.76 804.015 1076.1 829.894C1241.6 913.308 1366.51 1007.39 1710.1 1007.39C2010.1 1007.39 2241.27 784.641 2341.6 720.308" stroke="#8EE3DA" stroke-opacity="0.1" stroke-width="3"/>
<path d="M102.584 901.332C168.751 833.332 353.484 699.532 563.084 708.332C825.084 719.332 1008.74 792.039 1060.08 817.918C1225.58 901.332 1350.5 995.418 1694.08 995.418C1994.08 995.418 2225.25 772.665 2325.58 708.332" stroke="#8EE3DA" stroke-opacity="0.1" stroke-width="3"/>
<path d="M86.6289 889.273C152.796 821.273 337.529 687.473 547.129 696.273C809.129 707.273 992.782 779.98 1044.13 805.859C1209.63 889.273 1334.54 983.359 1678.13 983.359C1978.13 983.359 2209.3 760.606 2309.63 696.273" stroke="#8EE3DA" stroke-opacity="0.1" stroke-width="3"/>
<path d="M70.6982 877.181C136.865 809.181 321.598 675.381 531.198 684.181C793.198 695.181 976.851 767.888 1028.2 793.767C1193.7 877.181 1318.61 971.267 1662.2 971.267C1962.2 971.267 2193.36 748.514 2293.7 684.181" stroke="#8EE3DA" stroke-opacity="0.1" stroke-width="3"/>
<path d="M54.7554 865.105C120.922 797.105 305.655 663.305 515.255 672.105C777.255 683.105 960.908 755.812 1012.26 781.691C1177.76 865.105 1302.67 959.191 1646.26 959.191C1946.26 959.191 2177.42 736.438 2277.76 672.105" stroke="#8EE3DA" stroke-opacity="0.1" stroke-width="3"/>
<path d="M38.7646 853.094C104.931 785.094 289.665 651.294 499.265 660.094C761.265 671.094 944.918 743.801 996.265 769.68C1161.76 853.094 1286.68 947.18 1630.26 947.18C1930.26 947.18 2161.43 724.427 2261.76 660.094" stroke="#8EE3DA" stroke-opacity="0.1" stroke-width="3"/>
<path d="M22.6982 841.199C88.8649 773.199 273.598 639.399 483.198 648.199C745.198 659.199 928.851 731.906 980.198 757.785C1145.7 841.199 1270.61 935.285 1614.2 935.285C1914.2 935.285 2145.36 712.532 2245.7 648.199" stroke="#8EE3DA" stroke-opacity="0.1" stroke-width="3"/>
<path d="M5.67578 828.947C71.8424 760.947 256.576 627.147 466.176 635.947C728.176 646.947 911.829 719.654 963.176 745.534C1128.68 828.947 1253.59 923.034 1597.18 923.034C1897.18 923.034 2128.34 700.281 2228.68 635.947" stroke="#8EE3DA" stroke-opacity="0.1" stroke-width="3"/>
<path d="M-10.7031 818.249C55.4635 750.249 240.197 616.449 449.797 625.249C711.797 636.249 895.45 708.956 946.797 734.835C1112.3 818.249 1237.21 912.335 1580.8 912.335C1880.8 912.335 2111.96 689.582 2212.3 625.249" stroke="#8EE3DA" stroke-opacity="0.1" stroke-width="3"/>
<path d="M-27.6685 808.044C38.4982 740.044 223.232 606.244 432.832 615.044C694.832 626.044 878.485 698.751 929.832 724.63C1095.33 808.044 1220.24 902.13 1563.83 902.13C1863.83 902.13 2095 679.377 2195.33 615.044" stroke="#8EE3DA" stroke-opacity="0.1" stroke-width="3"/>
<path d="M-45.0039 798.299C21.1628 730.299 205.896 596.499 415.496 605.299C677.496 616.299 861.149 689.006 912.496 714.885C1078 798.299 1202.91 892.385 1546.5 892.385C1846.5 892.385 2077.66 669.632 2178 605.299" stroke="#8EE3DA" stroke-opacity="0.1" stroke-width="3"/>
<path d="M-62.6201 788.982C3.54655 720.982 188.28 587.182 397.88 595.982C659.88 606.982 843.533 679.689 894.88 705.568C1060.38 788.982 1185.29 883.068 1528.88 883.068C1828.88 883.068 2060.05 660.315 2160.38 595.982" stroke="#8EE3DA" stroke-opacity="0.1" stroke-width="3"/>
<path d="M-80.4702 780.068C-14.3036 712.068 170.43 578.268 380.03 587.068C642.03 598.068 825.683 670.775 877.03 696.655C1042.53 780.068 1167.44 874.155 1511.03 874.155C1811.03 874.155 2042.2 651.402 2142.53 587.068" stroke="#8EE3DA" stroke-opacity="0.1" stroke-width="3"/>
<path d="M-98.5234 771.543C-32.3568 703.543 152.377 569.743 361.977 578.543C623.977 589.543 807.63 662.25 858.977 688.129C1024.48 771.543 1149.39 865.629 1492.98 865.629C1792.98 865.629 2024.14 642.876 2124.48 578.543" stroke="#8EE3DA" stroke-opacity="0.1" stroke-width="3"/>
<path d="M-116.759 763.393C-50.5921 695.393 134.141 561.593 343.741 570.393C605.741 581.393 789.394 654.1 840.741 679.979C1006.24 763.393 1131.15 857.479 1474.74 857.479C1774.74 857.479 2005.91 634.726 2106.24 570.393" stroke="#8EE3DA" stroke-opacity="0.1" stroke-width="3"/>
<path d="M-135.16 755.609C-68.9935 687.609 115.74 553.809 325.34 562.609C587.34 573.609 770.993 646.316 822.34 672.195C987.84 755.609 1112.75 849.695 1456.34 849.695C1756.34 849.695 1987.51 626.942 2087.84 562.609" stroke="#8EE3DA" stroke-opacity="0.1" stroke-width="3"/>
<path d="M-153.714 748.187C-87.5477 680.187 97.1856 546.387 306.786 555.187C568.786 566.187 752.439 638.894 803.786 664.773C969.286 748.187 1094.2 842.273 1437.79 842.273C1737.79 842.273 1968.95 619.52 2069.29 555.187" stroke="#8EE3DA" stroke-opacity="0.1" stroke-width="3"/>
<path d="M-172.411 741.121C-106.244 673.121 78.4889 539.321 288.089 548.121C550.089 559.121 733.742 631.828 785.089 657.707C950.589 741.121 1075.5 835.207 1419.09 835.207C1719.09 835.207 1950.26 612.454 2050.59 548.121" stroke="#8EE3DA" stroke-opacity="0.1" stroke-width="3"/>
<path d="M-191.24 734.409C-125.074 666.409 59.6598 532.609 269.26 541.409C531.26 552.409 714.913 625.116 766.26 650.996C931.76 734.409 1056.67 828.496 1400.26 828.496C1700.26 828.496 1931.43 605.743 2031.76 541.409" stroke="#8EE3DA" stroke-opacity="0.1" stroke-width="3"/>
<path d="M-210.193 728.049C-144.026 660.049 40.7071 526.249 250.307 535.049C512.307 546.049 695.96 618.756 747.307 644.636C912.807 728.049 1037.72 822.136 1381.31 822.136C1681.31 822.136 1912.47 599.383 2012.81 535.049" stroke="#8EE3DA" stroke-opacity="0.1" stroke-width="3"/>
<path d="M-229.261 722.041C-163.094 654.041 21.6393 520.241 231.239 529.041C493.239 540.041 676.892 612.748 728.239 638.627C893.739 722.041 1018.65 816.127 1362.24 816.127C1662.24 816.127 1893.41 593.374 1993.74 529.041" stroke="#8EE3DA" stroke-opacity="0.1" stroke-width="3"/>
<path d="M-248.438 716.384C-182.271 648.384 2.46249 514.584 212.062 523.384C474.062 534.384 657.716 607.091 709.062 632.97C874.562 716.384 999.474 810.47 1343.06 810.47C1643.06 810.47 1874.23 587.717 1974.56 523.384" stroke="#8EE3DA" stroke-opacity="0.1" stroke-width="3"/>
<path d="M-267.715 711.077C-201.548 643.077 -16.8148 509.277 192.785 518.077C454.785 529.077 638.438 601.784 689.785 627.664C855.285 711.077 980.197 805.164 1323.79 805.164C1623.79 805.164 1854.95 582.411 1955.29 518.077" stroke="#8EE3DA" stroke-opacity="0.1" stroke-width="3"/>
<path d="M-287.086 706.122C-220.919 638.122 -36.1859 504.322 173.414 513.122C435.414 524.122 619.067 596.829 670.414 622.708C835.914 706.122 960.826 800.208 1304.41 800.208C1604.41 800.208 1835.58 577.455 1935.91 513.122" stroke="#8EE3DA" stroke-opacity="0.1" stroke-width="3"/>
<path d="M-306.544 701.518C-240.378 633.518 -55.6444 499.718 153.956 508.518C415.956 519.518 599.609 592.225 650.956 618.104C816.456 701.518 941.367 795.604 1284.96 795.604C1584.96 795.604 1816.12 572.851 1916.46 508.518" stroke="#8EE3DA" stroke-opacity="0.1" stroke-width="3"/>
<path d="M-326.083 697.267C-259.917 629.267 -75.1835 495.467 134.417 504.267C396.417 515.267 580.07 587.974 631.417 613.854C796.917 697.267 921.828 791.354 1265.42 791.354C1565.42 791.354 1796.58 568.6 1896.92 504.267" stroke="#8EE3DA" stroke-opacity="0.1" stroke-width="3"/>
<path d="M-345.697 693.37C-279.53 625.37 -94.7968 491.57 114.803 500.37C376.803 511.37 560.456 584.077 611.803 609.956C777.303 693.37 902.215 787.456 1245.8 787.456C1545.8 787.456 1776.97 564.703 1877.3 500.37" stroke="#8EE3DA" stroke-opacity="0.1" stroke-width="3"/>
<path d="M-365.377 689.827C-299.21 621.827 -114.477 488.027 95.123 496.827C357.123 507.827 540.776 580.534 592.123 606.414C757.623 689.827 882.535 783.914 1226.12 783.914C1526.12 783.914 1757.29 561.161 1857.62 496.827" stroke="#8EE3DA" stroke-opacity="0.1" stroke-width="3"/>
<path d="M-385.119 686.64C-318.952 618.64 -134.219 484.84 75.3813 493.64C337.381 504.64 521.034 577.347 572.381 603.226C737.881 686.64 862.793 780.726 1206.38 780.726C1506.38 780.726 1737.55 557.973 1837.88 493.64" stroke="#8EE3DA" stroke-opacity="0.1" stroke-width="3"/>
<path d="M-404.915 683.809C-338.748 615.809 -154.015 482.009 55.5854 490.809C317.585 501.809 501.239 574.516 552.585 600.395C718.085 683.809 842.997 777.895 1186.59 777.895C1486.59 777.895 1717.75 555.142 1818.09 490.809" stroke="#8EE3DA" stroke-opacity="0.1" stroke-width="3"/>
<path d="M-424.758 681.335C-358.592 613.335 -173.858 479.535 35.7417 488.335C297.742 499.335 481.395 572.042 532.742 597.921C698.242 681.335 823.153 775.421 1166.74 775.421C1466.74 775.421 1697.91 552.668 1798.24 488.335" stroke="#8EE3DA" stroke-opacity="0.1" stroke-width="3"/>
<path d="M-444.645 679.219C-378.478 611.219 -193.745 477.419 15.8555 486.219C277.855 497.219 461.509 569.926 512.855 595.806C678.355 679.219 803.267 773.306 1146.86 773.306C1446.86 773.306 1678.02 550.553 1778.36 486.219" stroke="#8EE3DA" stroke-opacity="0.1" stroke-width="3"/>
<path d="M-464.565 677.462C-398.399 609.462 -213.665 475.662 -4.06543 484.462C257.935 495.462 441.588 568.169 492.935 594.048C658.435 677.462 783.346 771.548 1126.93 771.548C1426.93 771.548 1658.1 548.795 1758.43 484.462" stroke="#8EE3DA" stroke-opacity="0.1" stroke-width="3"/>
<path d="M-484.58 676.06C-418.413 608.06 -233.68 474.26 -24.0801 483.06C237.92 494.06 421.573 566.767 472.92 592.646C638.42 676.06 763.332 770.146 1106.92 770.146C1406.92 770.146 1638.09 547.393 1738.42 483.06" stroke="#8EE3DA" stroke-opacity="0.1" stroke-width="3"/>
<path d="M-503.869 675.414C-437.702 607.414 -252.969 473.614 -43.3691 482.414C218.631 493.414 402.284 566.121 453.631 592C619.131 675.414 744.042 769.5 1087.63 769.5C1387.63 769.5 1618.8 546.747 1719.13 482.414" stroke="#8EE3DA" stroke-opacity="0.1" stroke-width="3"/>
<path d="M-523.862 675.926C-457.696 607.926 -272.962 474.126 -63.3623 482.926C198.638 493.926 382.291 566.633 433.638 592.513C599.138 675.926 724.049 770.013 1067.64 770.013C1367.64 770.013 1598.8 547.26 1699.14 482.926" stroke="#8EE3DA" stroke-opacity="0.1" stroke-width="3"/>
<path d="M-543.791 677.607C-477.624 609.607 -292.891 475.807 -83.291 484.607C178.709 495.607 362.362 568.314 413.709 594.194C579.209 677.607 704.121 771.694 1047.71 771.694C1347.71 771.694 1578.88 548.941 1679.21 484.607" stroke="#8EE3DA" stroke-opacity="0.1" stroke-width="3"/>
<path d="M-563.593 680.413C-497.427 612.413 -312.693 478.613 -103.093 487.413C158.907 498.413 342.56 571.12 393.907 596.999C559.407 680.413 684.318 774.499 1027.91 774.499C1327.91 774.499 1559.07 551.746 1659.41 487.413" stroke="#8EE3DA" stroke-opacity="0.1" stroke-width="3"/>
<path d="M-583.214 684.286C-517.048 616.286 -332.314 482.486 -122.714 491.286C139.286 502.286 322.939 574.993 374.286 600.873C539.786 684.286 664.697 778.373 1008.29 778.373C1308.29 778.373 1539.45 555.62 1639.79 491.286" stroke="#8EE3DA" stroke-opacity="0.1" stroke-width="3"/>
<path d="M-602.609 689.169C-536.443 621.169 -351.709 487.369 -142.109 496.169C119.891 507.169 303.544 579.876 354.891 605.755C520.391 689.169 645.302 783.255 988.891 783.255C1288.89 783.255 1520.06 560.502 1620.39 496.169" stroke="#8EE3DA" stroke-opacity="0.1" stroke-width="3"/>
<path d="M-621.742 694.995C-555.575 626.995 -370.842 493.195 -161.242 501.995C100.758 512.995 284.411 585.702 335.758 611.582C501.258 694.995 626.17 789.082 969.758 789.082C1269.76 789.082 1500.92 566.329 1601.26 501.995" stroke="#8EE3DA" stroke-opacity="0.1" stroke-width="3"/>
<path d="M-640.583 701.703C-574.417 633.703 -389.684 499.903 -180.083 508.703C81.9165 519.703 265.57 592.41 316.917 618.29C482.417 701.703 607.328 795.79 950.917 795.79C1250.92 795.79 1482.08 573.037 1582.42 508.703" stroke="#8EE3DA" stroke-opacity="0.1" stroke-width="3"/>
<path d="M-659.113 709.23C-592.947 641.23 -408.213 507.43 -198.613 516.23C63.3867 527.23 247.04 599.937 298.387 625.816C463.887 709.23 588.798 803.316 932.387 803.316C1232.39 803.316 1463.55 580.563 1563.89 516.23" stroke="#8EE3DA" stroke-opacity="0.1" stroke-width="3"/>
<path d="M-677.317 717.514C-611.15 649.514 -426.417 515.714 -216.817 524.514C45.1831 535.514 228.836 608.221 280.183 634.101C445.683 717.514 570.595 811.601 914.183 811.601C1214.18 811.601 1445.35 588.848 1545.68 524.514" stroke="#8EE3DA" stroke-opacity="0.1" stroke-width="3"/>
<path d="M-695.184 726.501C-629.017 658.501 -444.284 524.701 -234.684 533.501C27.3159 544.501 210.969 617.208 262.316 643.087C427.816 726.501 552.728 820.587 896.316 820.587C1196.32 820.587 1427.48 597.834 1527.82 533.501" stroke="#8EE3DA" stroke-opacity="0.1" stroke-width="3"/>
<path d="M-712.709 736.137C-646.543 668.137 -461.809 534.337 -252.209 543.137C9.79053 554.137 193.444 626.844 244.791 652.724C410.291 736.137 535.202 830.224 878.791 830.224C1178.79 830.224 1409.96 607.471 1510.29 543.137" stroke="#8EE3DA" stroke-opacity="0.1" stroke-width="3"/>
<path d="M-729.89 746.376C-663.723 678.376 -478.99 544.576 -269.39 553.376C-7.38965 564.376 176.263 637.083 227.61 662.962C393.11 746.376 518.022 840.462 861.61 840.462C1161.61 840.462 1392.78 617.709 1493.11 553.376" stroke="#8EE3DA" stroke-opacity="0.1" stroke-width="3"/>
<path d="M-746.725 757.172C-680.558 689.172 -495.825 555.372 -286.225 564.172C-24.2251 575.172 159.428 647.879 210.775 673.758C376.275 757.172 501.186 851.258 844.775 851.258C1144.77 851.258 1375.94 628.505 1476.27 564.172" stroke="#8EE3DA" stroke-opacity="0.1" stroke-width="3"/>
<path d="M-763.216 768.487C-697.049 700.487 -512.316 566.687 -302.716 575.487C-40.7158 586.487 142.937 659.194 194.284 685.074C359.784 768.487 484.696 862.574 828.284 862.574C1128.28 862.574 1359.45 639.821 1459.78 575.487" stroke="#8EE3DA" stroke-opacity="0.1" stroke-width="3"/>
<path d="M-779.364 780.286C-713.197 712.286 -528.464 578.486 -318.864 587.286C-56.8638 598.286 126.789 670.993 178.136 696.873C343.636 780.286 468.548 874.373 812.136 874.373C1112.14 874.373 1343.3 651.62 1443.64 587.286" stroke="#8EE3DA" stroke-opacity="0.1" stroke-width="3"/>
<path d="M-795.171 792.537C-729.004 724.537 -544.271 590.737 -334.671 599.537C-72.6709 610.537 110.982 683.244 162.329 709.123C327.829 792.537 452.741 886.623 796.329 886.623C1096.33 886.623 1327.5 663.87 1427.83 599.537" stroke="#8EE3DA" stroke-opacity="0.1" stroke-width="3"/>
<path d="M-810.639 805.212C-744.472 737.212 -559.739 603.412 -350.139 612.212C-88.1392 623.212 95.5139 695.919 146.861 721.798C312.361 805.212 437.272 899.298 780.861 899.298C1080.86 899.298 1312.03 676.545 1412.36 612.212" stroke="#8EE3DA" stroke-opacity="0.1" stroke-width="3"/>
<path d="M-825.769 818.288C-759.602 750.288 -574.869 616.488 -365.269 625.288C-103.269 636.288 80.384 708.995 131.731 734.874C297.231 818.288 422.143 912.374 765.731 912.374C1065.73 912.374 1296.9 689.621 1397.23 625.288" stroke="#8EE3DA" stroke-opacity="0.1" stroke-width="3"/>
<path d="M-840.56 831.743C-774.393 763.743 -589.66 629.943 -380.06 638.743C-118.06 649.743 65.593 722.45 116.94 748.329C282.44 831.743 407.352 925.829 750.94 925.829C1050.94 925.829 1282.11 703.076 1382.44 638.743" stroke="#8EE3DA" stroke-opacity="0.1" stroke-width="3"/>
<path d="M-855.011 845.56C-788.845 777.56 -604.111 643.76 -394.511 652.56C-132.511 663.56 51.1418 736.267 102.489 762.146C267.989 845.56 392.9 939.646 736.489 939.646C1036.49 939.646 1267.66 716.893 1367.99 652.56" stroke="#8EE3DA" stroke-opacity="0.1" stroke-width="3"/>
<path d="M-869.117 859.726C-802.951 791.726 -618.217 657.926 -408.617 666.726C-146.617 677.726 37.0359 750.433 88.3828 776.312C253.883 859.726 378.794 953.812 722.383 953.812C1022.38 953.812 1253.55 731.059 1353.88 666.726" stroke="#8EE3DA" stroke-opacity="0.1" stroke-width="3"/>
<path d="M-882.87 874.229C-816.703 806.229 -631.97 672.429 -422.37 681.229C-160.37 692.229 23.2834 764.936 74.6304 790.815C240.13 874.229 365.042 968.315 708.63 968.315C1008.63 968.315 1239.8 745.562 1340.13 681.229" stroke="#8EE3DA" stroke-opacity="0.1" stroke-width="3"/>
<path d="M-896.256 889.065C-830.089 821.065 -645.356 687.265 -435.756 696.065C-173.756 707.065 9.8972 779.772 61.2441 805.651C226.744 889.065 351.656 983.151 695.244 983.151C995.244 983.151 1226.41 760.398 1326.74 696.065" stroke="#8EE3DA" stroke-opacity="0.1" stroke-width="3"/>
<path d="M-909.246 904.22C-843.079 836.22 -658.346 702.42 -448.746 711.22C-186.746 722.22 -3.09255 794.927 48.2544 820.806C213.754 904.22 338.666 998.306 682.254 998.306C982.254 998.306 1213.42 775.553 1313.75 711.22" stroke="#8EE3DA" stroke-opacity="0.1" stroke-width="3"/>
<path d="M-921.792 919.679C-855.625 851.679 -670.892 717.879 -461.292 726.679C-199.292 737.679 -15.6384 810.386 35.7085 836.265C201.208 919.679 326.12 1013.77 669.708 1013.77C969.708 1013.77 1200.88 791.012 1301.21 726.679" stroke="#8EE3DA" stroke-opacity="0.1" stroke-width="3"/>
<path d="M-934.195 935.931C-868.028 867.931 -683.295 734.131 -473.695 742.931C-211.695 753.931 -28.0418 826.638 23.3052 852.517C188.805 935.931 313.717 1030.02 657.305 1030.02C957.305 1030.02 1188.47 807.264 1288.81 742.931" stroke="#8EE3DA" stroke-opacity="0.1" stroke-width="3"/>
<path d="M-946 952.581C-879.833 884.581 -695.1 750.781 -485.5 759.581C-223.5 770.581 -39.8469 843.288 11.5 869.167C177 952.581 301.912 1046.67 645.5 1046.67C945.5 1046.67 1176.67 823.914 1277 759.581" stroke="#8EE3DA" stroke-opacity="0.1" stroke-width="3"/>
</g>
</g>
<defs>
<filter id="filter0_b_814_690" x="-86.5203" y="-616.302" width="2040.05" height="1531.65" filterUnits="userSpaceOnUse" color-interpolation-filters="sRGB">
<feFlood flood-opacity="0" result="BackgroundImageFix"/>
<feGaussianBlur in="BackgroundImageFix" stdDeviation="25"/>
<feComposite in2="SourceAlpha" operator="in" result="effect1_backgroundBlur_814_690"/>
<feBlend mode="normal" in="SourceGraphic" in2="effect1_backgroundBlur_814_690" result="shape"/>
</filter>
<filter id="filter1_bf_814_690" x="-607.202" y="-327.816" width="1500.22" height="1417.63" filterUnits="userSpaceOnUse" color-interpolation-filters="sRGB">
<feFlood flood-opacity="0" result="BackgroundImageFix"/>
<feGaussianBlur in="BackgroundImageFix" stdDeviation="5"/>
<feComposite in2="SourceAlpha" operator="in" result="effect1_backgroundBlur_814_690"/>
<feBlend mode="normal" in="SourceGraphic" in2="effect1_backgroundBlur_814_690" result="shape"/>
<feGaussianBlur stdDeviation="200" result="effect2_foregroundBlur_814_690"/>
</filter>
<filter id="filter2_bf_814_690" x="1186.52" y="-152.35" width="1152.76" height="1111.15" filterUnits="userSpaceOnUse" color-interpolation-filters="sRGB">
<feFlood flood-opacity="0" result="BackgroundImageFix"/>
<feGaussianBlur in="BackgroundImageFix" stdDeviation="5"/>
<feComposite in2="SourceAlpha" operator="in" result="effect1_backgroundBlur_814_690"/>
<feBlend mode="normal" in="SourceGraphic" in2="effect1_backgroundBlur_814_690" result="shape"/>
<feGaussianBlur stdDeviation="200" result="effect2_foregroundBlur_814_690"/>
</filter>
<linearGradient id="paint0_linear_814_690" x1="734.904" y1="244.968" x2="2168.13" y2="2454.01" gradientUnits="userSpaceOnUse">
<stop offset="0.15625" stop-color="#768093"/>
<stop offset="1" stop-color="#EB84D6" stop-opacity="0.04"/>
</linearGradient>
<radialGradient id="paint1_radial_814_690" cx="0" cy="0" r="1" gradientUnits="userSpaceOnUse" gradientTransform="translate(350.369 308.489) rotate(90) scale(573.666 651.544)">
<stop stop-color="#8EE3DA" stop-opacity="0.8"/>
<stop offset="1" stop-color="white" stop-opacity="0"/>
</radialGradient>
<radialGradient id="paint2_radial_814_690" cx="0" cy="0" r="1" gradientUnits="userSpaceOnUse" gradientTransform="translate(176.509 155.411) rotate(90) scale(289.001 328.235)">
<stop stop-color="#8EE3DA"/>
<stop offset="1" stop-color="white" stop-opacity="0"/>
</radialGradient>
<linearGradient id="paint3_linear_814_690" x1="741.953" y1="241.918" x2="2158.73" y2="2455.75" gradientUnits="userSpaceOnUse">
<stop offset="0.15625" stop-color="#6D809C"/>
<stop offset="1" stop-color="#EB84D6" stop-opacity="0.04"/>
</linearGradient>
<radialGradient id="paint4_radial_814_690" cx="0" cy="0" r="1" gradientUnits="userSpaceOnUse" gradientTransform="translate(352.846 306.583) rotate(90) scale(570.12 656.151)">
<stop stop-color="#8EE3DA" stop-opacity="0.8"/>
<stop offset="1" stop-color="white" stop-opacity="0"/>
</radialGradient>
<radialGradient id="paint5_radial_814_690" cx="0" cy="0" r="1" gradientUnits="userSpaceOnUse" gradientTransform="translate(1777.3 399.713) rotate(94.4922) scale(287.215 330.556)">
<stop stop-color="#8EE3DA"/>
<stop offset="1" stop-color="white" stop-opacity="0"/>
</radialGradient>
</defs>
</svg>
