<svg width="9787" height="5627" viewBox="0 0 9787 5627" fill="none" xmlns="http://www.w3.org/2000/svg">
<g filter="url(#filter0_b_0_3)">
<path fill-rule="evenodd" clip-rule="evenodd" d="M5.14441 2976.08C-13.6372 1958.84 127.993 820.011 1355.47 275.262C2573.49 -265.291 4206.55 105.275 5626.04 481.546C6912.08 822.44 8426.86 1317.31 9050.67 2152.8C9738.29 3073.74 10223.8 4944.97 9178.9 5356.89C8391.6 5667.27 7329.13 5687.13 5619.36 5515.89C4312.15 5384.96 2318.3 5677.28 1143.53 5232.31C173.331 4864.83 22.4145 3911.45 5.14441 2976.08Z" fill="url(#paint0_linear_0_3)"/>
<path fill-rule="evenodd" clip-rule="evenodd" d="M5.14441 2976.08C-13.6372 1958.84 127.993 820.011 1355.47 275.262C2573.49 -265.291 4206.55 105.275 5626.04 481.546C6912.08 822.44 8426.86 1317.31 9050.67 2152.8C9738.29 3073.74 10223.8 4944.97 9178.9 5356.89C8391.6 5667.27 7329.13 5687.13 5619.36 5515.89C4312.15 5384.96 2318.3 5677.28 1143.53 5232.31C173.331 4864.83 22.4145 3911.45 5.14441 2976.08Z" stroke="#768093" stroke-width="6"/>
</g>
<defs>
<filter id="filter0_b_0_3" x="-49.354" y="-49.541" width="9886.36" height="5725.85" filterUnits="userSpaceOnUse" color-interpolation-filters="sRGB">
<feFlood flood-opacity="0" result="BackgroundImageFix"/>
<feGaussianBlur in="BackgroundImageFix" stdDeviation="25"/>
<feComposite in2="SourceAlpha" operator="in" result="effect1_backgroundBlur_0_3"/>
<feBlend mode="normal" in="SourceGraphic" in2="effect1_backgroundBlur_0_3" result="shape"/>
</filter>
<linearGradient id="paint0_linear_0_3" x1="3837.34" y1="3164.06" x2="8660.24" y2="13108.5" gradientUnits="userSpaceOnUse">
<stop offset="0.15625" stop-color="#6D809C"/>
<stop offset="1" stop-color="#EB84D6" stop-opacity="0.04"/>
</linearGradient>
</defs>
</svg>
