<svg width="96" height="113" viewBox="0 0 96 113" fill="none" xmlns="http://www.w3.org/2000/svg">
<g clip-path="url(#clip0_449_1876)">
<path d="M40.6199 76.7341C40.636 77.3973 40.7402 78.0684 40.652 78.7156C40.3954 80.6092 39.5376 82.1752 37.3728 81.8556C35.3765 81.552 34.2219 79.8821 34.8072 78.0525C36.0179 74.2973 34.0616 73.8578 31.2554 74.2893C27.8961 74.8086 27.5032 72.9789 27.7758 70.3822C28.0564 67.6337 27.84 65.5324 24.0557 67.0185C22.6927 67.5538 21.1293 67.1224 20.2634 65.6043C19.6941 64.5976 19.662 63.5829 20.3836 62.6321C21.4019 61.2898 22.9573 60.8744 24.3122 61.4496C27.5754 62.8319 27.88 61.2019 27.8159 58.6052C27.7437 55.5611 27.8881 52.517 27.9362 49.4649C28.5936 48.7059 29.4836 48.4262 30.4296 48.4102C32.426 48.3863 33.6126 47.7471 33.7489 45.454C33.8852 43.105 35.2241 41.4032 37.7897 41.4112C40.5317 41.4192 41.4057 43.3287 41.3656 45.6937C41.3335 47.5953 42.1994 48.3144 43.9793 48.3303C45.1659 48.3383 46.3765 48.3383 47.507 48.8257C47.8919 49.0175 48.1885 49.3051 48.413 49.6726C49.4392 52.6528 48.862 55.7289 48.9582 58.765C49.0624 62.1208 47.3066 63.2154 44.1396 62.8079C43.0974 62.6721 41.8226 62.8638 41.6783 64.2381C41.542 65.5244 42.7285 65.5404 43.6345 65.7002C49.311 66.683 50.1608 68.3049 48.1083 74.2493C46.136 75.5277 43.9552 74.4571 41.8787 74.7607C40.3233 74.9844 40.0186 75.4158 40.6199 76.7341Z" fill="#D4DCE9"/>
<path d="M47.8759 25.4074C48.8059 25.3594 49.7359 25.2236 50.666 25.2715C53.6806 25.4393 56.5108 25.6151 54.9313 21.0449C54.4984 19.7905 55.0837 18.3284 56.4627 17.6652C58.2346 16.8183 59.5013 17.841 60.6318 19.0714C60.704 19.3271 60.7761 19.5828 60.8563 19.8385C60.6799 24.904 65.2579 23.9772 67.9438 25.4393C67.9358 27.4288 67.9037 29.4183 67.9358 31.4077C67.9919 34.5317 66.5728 38.8303 72.7544 36.7849C74.3258 36.2655 75.8171 37.7676 75.8571 39.6372C75.8972 41.5388 74.3178 43.0649 72.8425 42.5855C66.2842 40.4602 68.1202 45.1342 67.9198 48.2343C67.8957 48.6258 67.8236 49.0173 67.7674 49.4168C67.1821 50.016 66.4445 50.3755 65.6428 50.3596C62.7805 50.3036 61.2492 51.2944 61.3855 54.4983C61.4656 56.3439 60.1508 57.7022 58.1865 57.9579C56.5348 58.1736 55.4685 57.1589 54.7229 55.8086C53.6565 53.8831 49.8402 50.2797 47.8759 49.3768L47.916 49.4168C46.9939 48.4899 46.8817 47.2995 46.8416 46.085C46.7213 42.4177 47.5632 41.4829 51.2833 41.1553C52.4539 41.0514 54.0734 41.2592 54.0173 39.6213C53.9612 38.0792 52.3737 38.0632 51.1791 38.1831C47.6273 38.5426 46.6973 36.4813 46.8416 33.549C46.9779 30.8165 46.0719 27.9321 47.8759 25.4074Z" fill="#D4DCE9"/>
<path d="M47.8837 49.3855C48.942 49.4015 50.0084 49.5134 51.0507 49.4095C53.8808 49.1458 55.6848 49.6971 55.1316 53.2047C54.7868 55.3859 55.7249 57.4553 58.2665 57.1277C60.3911 56.856 61.1528 54.9465 60.4232 52.8611C59.3809 49.8809 61.0646 49.4175 63.4137 49.4495C64.8649 49.4654 66.3161 49.4335 67.7753 49.4255C67.8314 52.4456 67.9757 55.4658 67.9036 58.4859C67.8474 61.1066 67.9436 63.152 71.4954 61.4901C72.2491 61.1386 73.3154 61.4502 74.2294 61.4502C76.0334 62.0095 76.8672 63.1999 76.4583 65.0696C76.1135 66.6595 75.0392 67.8021 73.4357 67.7941C70.3329 67.7701 68.9539 68.9526 68.8256 72.1965C68.7053 75.3205 66.0034 75.2726 63.7104 75.2086C61.3612 75.1447 59.0442 74.889 59.2205 71.5733C59.2847 70.4227 59.445 68.8008 57.9538 68.6011C56.254 68.3694 56.5026 70.1271 56.23 71.1898C55.2358 75.1128 53.937 75.5762 47.8757 74.0901C47.8837 73.1632 47.7875 72.2284 47.9078 71.3176C48.3888 67.834 47.8116 65.7087 43.442 66.9552C41.6621 67.4665 39.9383 66.7234 39.9143 64.3505C39.8902 61.7538 41.9668 60.9308 43.6825 61.5061C48.3808 63.0881 47.9879 60.2597 47.8998 57.3274C47.8276 54.6748 47.8837 52.0302 47.8837 49.3855Z" fill="#728094"/>
<path d="M47.8759 25.4079C47.8839 28.468 47.94 31.5281 47.8759 34.5803C47.8277 36.8094 48.5173 37.9919 50.9305 37.0491C52.6222 36.386 54.0414 36.5617 55.2199 38.0239C55.9656 38.9507 56.2061 40.0453 55.5727 40.9881C54.4663 42.626 52.7585 42.8817 50.9786 42.2665C48.6455 41.4595 47.7556 42.2744 47.8839 44.6394C47.9721 46.2294 47.9159 47.8274 47.924 49.4253C46.593 49.4333 45.2621 49.3934 43.9312 49.4573C41.1972 49.5931 38.9523 49.5372 40.4596 45.6382C41.0048 44.232 40.2512 42.6739 38.5194 42.2665C36.7074 41.843 34.687 42.7459 34.9355 44.4077C35.9537 51.0393 31.3356 49.2815 27.9362 49.4653C27.8881 48.8181 27.824 48.1709 27.7919 47.5318C27.6636 44.5995 29.0346 40.3649 23.1818 42.658C22.1956 43.0415 20.9609 42.1306 20.0469 41.3556C19.9267 37.2409 21.009 36.0823 24.8414 37.105C27.5594 37.8321 27.856 36.6976 27.7999 34.6042C27.7518 33.0063 28.0084 31.3763 27.7438 29.8263C27.0703 25.7994 28.8582 24.7048 32.5784 25.1842C34.4304 25.4239 35.7373 25.5358 35.0558 27.9407C34.6068 29.5067 34.5908 31.1526 36.2103 32.2312C37.1885 32.8864 38.2388 32.9264 39.1848 32.1993C40.636 31.0807 40.9968 29.5626 40.3393 27.9167C39.5296 25.8873 40.3474 25.2322 42.2716 25.2801C44.1477 25.3201 46.0078 25.36 47.8759 25.4079Z" fill="#728094"/>
<path d="M54.3377 2.96399C48.068 2.33279 41.8143 2.0931 35.6408 3.76297C34.9112 3.76297 34.1816 3.76297 33.444 3.76297C32.9148 3.2676 31.9367 3.76297 31.5679 2.92404C34.7268 1.39798 38.2786 1.80546 41.5577 0.854675C42.5439 -0.223951 43.5942 -0.24792 44.6926 0.670909C46.0315 0.670909 47.3625 0.670909 48.7014 0.670909C51.1467 1.36602 53.8166 0.902614 56.1497 2.14903C55.7729 2.90806 54.8508 2.47661 54.3377 2.96399Z" fill="#302E2F"/>
<path d="M12.2058 103.021C7.63575 101.159 9.45573 97.38 9.51987 94.1282C10.0811 91.4835 9.96886 88.8309 9.59203 86.1783C9.35952 85.7389 9.38357 85.3953 9.92877 85.2355C10.3056 84.836 10.6183 84.876 10.8748 85.3633C12.0053 88.8789 11.0913 92.4104 10.931 95.9339C10.6744 101.599 12.2779 102.869 17.8982 101.399C18.4033 101.271 18.9405 101.279 19.4616 101.231C20.2874 101.135 21.3778 100.44 21.442 102.094C19.9988 102.398 18.5557 102.701 17.1125 103.005C15.4769 103.46 13.8413 103.46 12.2058 103.021Z" fill="#323031"/>
<path d="M6.9222 28.2043C7.47541 23.2586 9.49584 18.9201 12.4463 14.9732C13.3282 14.7335 13.6409 15.093 13.4725 15.9479C10.7065 20.6459 8.47761 25.5517 7.73999 31.0167C5.79173 30.5533 6.91418 29.219 6.9222 28.2043Z" fill="#2E2C2D"/>
<path d="M10.915 78.9717C10.3938 80.9851 11.9252 81.3606 13.2641 81.888C15.02 82.5911 17.0644 82.663 18.7481 84.189C17.3451 85.5393 16.1504 84.4926 14.9959 84.3808C13.3443 83.9733 11.7087 83.9174 10.1373 84.7004C7.83623 84.189 11.404 81.9918 9.19922 81.4485C9.74441 80.6096 9.17517 78.9956 10.915 78.9717Z" fill="#333031"/>
<path d="M17.9941 9.36392C20.8484 6.75924 24.2158 5.0654 27.8798 3.92285C28.6575 3.94682 29.3791 4.07466 29.6677 4.94555C29.339 6.58346 27.6713 5.40896 26.9417 6.22392C23.887 6.75125 21.6582 8.87654 19.0284 10.2348C18.4992 10.1629 18.1545 9.87527 17.9941 9.36392Z" fill="#302E2F"/>
<path d="M73.4755 103.708C73.0105 103.612 72.5535 103.516 72.0885 103.42C72.0805 101.119 72.0725 98.8182 72.0645 96.5171C72.7219 95.1429 72.0244 93.5849 72.6578 92.2026C72.7059 91.5235 72.754 90.8364 72.8021 90.1572C74.9909 90.6766 73.3473 92.6341 74.133 93.6807C74.9267 97.0844 74.4457 100.408 73.4755 103.708Z" fill="#333031"/>
<path d="M73.6922 93.6171C73.3955 92.4586 73.9407 91.0923 72.8022 90.1495C73.6842 87.2732 74.6463 84.4448 76.6427 82.0958C77.5727 81.936 77.9656 82.2716 77.6769 83.2224C75.7928 86.3304 74.053 89.4864 74.1893 93.2895L74.053 93.6171H73.6922Z" fill="#333132"/>
<path d="M77.669 83.2297C77.3243 82.8541 76.9795 82.4786 76.6348 82.1031C78.7354 79.3466 80.3148 76.1826 83.0648 73.9375C83.4737 74.313 83.5379 74.7445 83.2653 75.2319C81.7339 78.1242 79.7456 80.7049 77.669 83.2297Z" fill="#333232"/>
<path d="M10.9148 78.9716C10.0008 79.5629 10.4016 81.057 9.20703 81.4565C9.28721 78.1966 9.35936 74.9288 9.43954 71.6689L9.39144 71.7728C11.9651 71.5491 11.0831 73.5545 11.1713 74.729C11.2836 76.1273 11.019 77.5574 10.9148 78.9716Z" fill="#312F30"/>
<path d="M4.36429 60.675C4.21196 56.9677 6.30454 54.1633 8.27686 51.2949C7.92409 54.7705 6.46489 57.8546 4.36429 60.675Z" fill="#312E2F"/>
<path d="M30.7344 100.208C32.9392 100.24 32.4501 102.03 32.3619 103.133C32.2096 105.01 32.2818 107 31.1914 108.701C30.2052 108.086 31.039 106.896 30.3896 106.177C30.3255 104.315 30.8466 102.437 30.1812 100.592C30.2533 100.296 30.4377 100.168 30.7344 100.208Z" fill="#494748"/>
<path d="M80.7476 14.2618C83.1128 15.628 84.9328 17.5456 86.3839 19.8307C86.6004 20.5977 86.3278 20.8773 85.5581 20.6536C83.69 18.8 81.8219 16.9463 79.9458 15.0927C79.6652 14.2937 80.026 14.102 80.7476 14.2618Z" fill="#333131"/>
<path d="M92.806 30.9849C89.5428 29.7305 89.8154 26.0552 87.9072 23.874C88.0916 23.2588 88.4765 22.8833 89.1339 22.8193C91.8038 24.7129 93.4714 27.1258 93.1908 30.5535C93.0625 30.6893 92.9342 30.8411 92.806 30.9849Z" fill="#353334"/>
<path d="M1.45431 70.1583C1.02938 68.8639 0.227625 67.6495 0.588415 66.1794C1.92735 64.8211 1.51043 62.3762 3.58698 61.3535C5.02212 64.0381 -0.0690238 66.8665 3.81147 69.3833C4.12416 70.0464 3.72328 70.3501 3.20214 70.5977C2.83333 70.6617 2.48858 70.6057 2.16787 70.422C1.95942 70.2622 1.71889 70.1743 1.45431 70.1583Z" fill="#272526"/>
<path d="M6.92201 28.2041C7.07434 29.1709 6.79373 30.2655 7.7398 31.0085C6.84183 34.4601 7.17055 37.9037 7.85205 41.3474C8.27698 42.2103 8.54957 43.0012 7.09038 43.0012C6.31268 42.2502 5.95189 41.3553 6.13629 40.2767C5.70334 38.3751 5.6392 36.4736 6.17638 34.58C5.85567 32.3828 5.99999 30.2495 6.92201 28.2041Z" fill="#333132"/>
<path d="M17.9942 9.36426C18.3389 9.65189 18.6837 9.94751 19.0284 10.2351C17.1764 12.1367 15.3163 14.0383 13.4642 15.9399C13.1195 15.6123 12.7827 15.2927 12.438 14.9651C13.9613 12.7759 15.653 10.7465 17.9942 9.36426Z" fill="#302D2E"/>
<path d="M87.0415 68.2486C88.0998 66.1552 89.1661 64.0619 90.2245 61.9766C90.9059 62.1284 91.3389 62.5438 91.6115 63.167C91.395 65.9795 90.8659 68.6081 87.723 69.6867C87.0976 69.3911 86.6246 69.0236 87.0415 68.2486Z" fill="#383637"/>
<path d="M93.4394 45.9172C93.4554 43.4164 93.4715 40.9156 93.4875 38.4148C93.3272 37.3521 92.5334 36.0738 94.4095 35.6982C95.1792 36.3774 95.3797 37.2802 95.4598 38.239C95.54 40.7478 95.4759 43.2646 95.5079 45.7734C95.4518 47.3474 95.6362 48.9773 94.3374 50.2237C93.8563 50.4395 93.5036 50.3116 93.2791 49.8322C93.1989 48.5299 93.0706 47.2116 93.4394 45.9172Z" fill="#0B090A"/>
<path d="M80.7477 14.2622C80.4832 14.5418 80.2186 14.8135 79.946 15.0931C78.0458 13.8147 76.1537 12.5284 74.2535 11.25C74.0531 10.2992 74.4219 9.9237 75.376 10.1554C77.22 11.4657 79.473 12.2248 80.7477 14.2622Z" fill="#343334"/>
<path d="M75.3842 10.1555C75.0074 10.5231 74.6306 10.8826 74.2617 11.2501C72.6582 10.3952 71.0467 9.54032 69.4432 8.6854C69.4272 8.5336 69.4272 8.38978 69.4272 8.23798C69.1466 7.73462 69.2107 7.28719 69.6196 6.8877C71.8084 7.5109 73.6765 8.69339 75.3842 10.1555Z" fill="#3B3A3A"/>
<path d="M2.75293 70.3186C3.1057 70.007 3.45847 69.6954 3.81125 69.3838C5.64727 70.2387 7.78795 70.3985 9.39147 71.7727L9.43957 71.6689C7.88416 73.6903 6.2566 71.581 4.66913 71.7488C4.11591 71.1575 2.785 71.605 2.75293 70.3186Z" fill="#3A3738"/>
<path d="M30.7343 100.208C30.5499 100.336 30.3735 100.464 30.1891 100.591C28.9223 100.599 27.6555 100.607 26.3968 100.607C25.5549 100.895 24.6489 101.311 24.681 99.7845C26.7255 99.425 28.8822 97.5873 30.7343 100.208Z" fill="#0C0B0B"/>
<path d="M30.3893 106.169C31.3273 106.8 30.8623 107.871 31.1911 108.694C31.0307 110.132 30.8703 111.57 30.718 112.992C28.2326 110.859 29.9884 108.478 30.3893 106.169Z" fill="#181617"/>
<path d="M9.36762 44.6231C10.4179 46.5726 11.2517 48.5141 8.81441 50.951C8.7182 48.9935 8.65406 47.6512 8.58992 46.309C8.18904 45.4381 7.89239 44.6151 9.36762 44.6231Z" fill="#2F2E2F"/>
<path d="M29.6437 4.75367C28.9783 4.64981 28.2727 4.60986 27.8799 3.92273C28.9703 3.09179 30.2932 3.09179 31.568 2.91602C32.1933 3.19566 32.8187 3.4753 33.4441 3.75495C32.6503 4.09052 31.8566 4.4181 31.0628 4.75367C30.5898 5.1292 30.1168 5.13719 29.6437 4.75367Z" fill="#272526"/>
<path d="M24.673 99.793C25.2423 100.065 25.8196 100.336 26.3888 100.616C24.7372 101.103 23.0856 101.591 21.434 102.078C20.9689 101.343 20.1912 101.327 19.4536 101.215C21.1132 100.432 22.829 99.8809 24.673 99.793Z" fill="#383637"/>
<path d="M92.0684 55.8087C92.357 53.9391 92.6376 52.0775 92.9262 50.2079C93.1106 49.8483 93.3271 49.8164 93.5837 50.144L93.6238 50.2239C95.2112 52.5888 95.1311 54.9538 93.6398 57.3268C92.0443 57.9181 92.6456 56.2721 92.0684 55.8087Z" fill="#201E1F"/>
<path d="M88.8453 22.8744C88.5326 23.202 88.2199 23.5375 87.9072 23.8651C87.1215 22.7945 86.3438 21.7159 85.5581 20.6452C85.8307 20.3736 86.1113 20.0939 86.3839 19.8223C86.9933 20.3576 87.6106 20.8929 88.2199 21.4282C88.4765 21.8996 89.142 22.1793 88.8453 22.8744Z" fill="#343334"/>
<path d="M87.0416 68.249C87.3623 68.6245 87.6749 69.0001 87.9956 69.3836C88.4446 71.2132 87.6509 72.2999 85.9271 72.8272C85.3017 72.7233 84.9009 72.3798 84.7485 71.7566C85.5022 70.59 86.2719 69.4155 87.0416 68.249Z" fill="#3E3C3D"/>
<path d="M9.58388 86.1699C10.6101 88.8305 10.6823 91.4832 9.51172 94.1198C9.53577 91.4752 9.55982 88.8225 9.58388 86.1699Z" fill="#383637"/>
<path d="M9.36752 44.6235C8.7181 44.999 8.64594 45.6462 8.58982 46.3013C8.08471 45.1987 7.58763 44.1041 7.08252 43.0015C7.71591 42.618 7.8041 41.9948 7.84419 41.3477C8.34929 42.4423 8.86242 43.5289 9.36752 44.6235Z" fill="#353434"/>
<path d="M91.1306 62.9678C90.8259 62.6322 90.5293 62.3046 90.2246 61.969C90.5774 60.9783 90.9302 59.9876 91.2749 59.0048C92.0446 58.885 92.3653 59.3643 92.5978 59.9716C92.8143 61.3139 92.6219 62.4564 91.1306 62.9678Z" fill="#080607"/>
<path d="M84.7404 71.7568C85.0531 72.0924 85.3738 72.436 85.6865 72.7715C85.8709 72.9154 85.935 73.0592 85.8709 73.203C85.8067 73.3468 85.7426 73.4107 85.6785 73.4107C84.8767 74.018 84.0749 74.6252 83.2732 75.2324C83.2091 74.801 83.1369 74.3695 83.0728 73.9381C83.626 73.211 84.1792 72.4839 84.7404 71.7568Z" fill="#2C2A2A"/>
<path d="M92.8945 34.9953C92.4937 33.669 91.5797 32.3506 92.8063 30.9844L92.7502 31.0803C94.4259 30.9684 94.2575 32.2388 94.4099 33.2775C94.2174 34.1164 94.1533 35.0832 92.8945 34.9953Z" fill="#0B090A"/>
<path d="M92.8942 34.9957C93.1668 34.4124 93.4314 33.8292 93.704 33.2539C95.2513 33.7972 95.1391 34.74 94.3293 35.8426C93.4233 36.4978 93.8964 37.6004 93.4875 38.4233C92.9663 37.3287 92.7579 36.1942 92.8942 34.9957Z" fill="#2F2E2E"/>
<path d="M92.0606 59.9553C91.796 59.6357 91.5395 59.3161 91.2749 58.9965C91.5395 57.9339 91.8041 56.8712 92.0686 55.8086C92.3172 56.3599 92.5737 56.9112 92.8223 57.4625C93.5198 58.5811 93.624 59.5239 92.0606 59.9553Z" fill="#090808"/>
<path d="M10.1449 84.7076C11.6763 83.2215 13.3199 83.4532 15.0035 84.388C13.6726 84.9233 11.8607 83.4212 10.8665 85.3548C10.5538 85.3148 10.2331 85.2749 9.92041 85.2269C9.9605 85.0432 10.0327 84.8674 10.1449 84.7076Z" fill="#383637"/>
<path d="M6.16831 34.5801C6.15227 36.4817 6.14426 38.3752 6.12822 40.2768C5.31845 38.3673 5.38259 36.4737 6.16831 34.5801Z" fill="#3A3839"/>
<path d="M12.2056 103.02C13.8411 103.012 15.4767 103.004 17.1043 102.988C15.4767 103.787 13.8411 103.883 12.2056 103.02Z" fill="#363435"/>
<path d="M72.6579 92.2021C72.5937 93.6563 73.2432 95.2143 72.0646 96.5167C71.9203 95.0305 71.9603 93.5684 72.6579 92.2021Z" fill="#333132"/>
<path d="M93.5837 50.1526C93.3672 50.1925 93.1508 50.2165 92.9263 50.2165C92.8301 48.7544 92.8221 47.3002 93.4394 45.918C93.4875 47.3322 93.5356 48.7384 93.5837 50.1526Z" fill="#2F2E2E"/>
<path d="M69.6194 6.88702C69.5553 7.33445 69.4912 7.78987 69.427 8.2373C67.3264 7.31048 65.2338 6.38366 63.1332 5.44886C62.9969 4.52204 63.3497 4.1625 64.2797 4.4741C66.0276 5.08931 67.7754 5.69654 69.5312 6.31176C69.5713 6.50351 69.6034 6.69527 69.6194 6.88702Z" fill="#353334"/>
<path d="M64.2795 4.4819C63.8946 4.80948 63.5178 5.13707 63.133 5.45666C61.7379 4.92933 59.8859 5.37676 59.1162 3.5391L59.0601 3.16358C61.0644 2.54836 62.6439 3.619 64.2795 4.4819Z" fill="#4C4A4B"/>
<path d="M59.0602 3.1635L58.9319 3.37123L59.1164 3.53103C57.4086 4.29006 55.9334 3.15551 54.3379 2.95576C54.9392 2.68411 55.5405 2.41246 56.1418 2.13281C57.1601 2.36452 58.4509 1.81322 59.0602 3.1635Z" fill="#171516"/>
<path d="M94.5461 37.9277C95.4201 40.7641 95.1475 43.6005 94.5141 46.4369C94.1373 43.5925 94.1453 40.7561 94.5461 37.9277Z" fill="#2F2E2E"/>
</g>
<defs>
<clipPath id="clip0_449_1876">
<rect width="95" height="113" fill="white" transform="translate(0.5)"/>
</clipPath>
</defs>
</svg>
