<svg width="120" height="121" viewBox="0 0 120 121" fill="none" xmlns="http://www.w3.org/2000/svg">
<g clip-path="url(#clip0_214_2552)">
<path d="M18.8259 53.5107C14.3845 50.7814 11.8199 46.986 12.1766 41.5872C12.3039 39.6852 11.4972 38.9944 9.69687 39.2076C4.40628 39.8473 0.0498273 32.9644 0.533878 27.6083C1.07737 21.5868 6.58876 16.6145 12.3804 17.3906C14.5289 17.6806 15.2507 17.493 15.7517 15.2157C17.0171 9.44164 21.8915 7.23265 26.9953 10.2775C29.6533 11.8639 30.6639 12.2221 31.8868 8.78492C33.7805 3.43727 39.0371 1.27945 45.9667 2.20911C49.406 2.7379 51.6904 4.98101 53.7794 7.52263C54.8494 9.56105 56.429 10.1325 58.6284 9.41606C62.1017 8.27318 65.4476 8.71668 68.6236 10.4992C70.8741 12.4353 73.3113 14.2264 73.7189 17.51C73.8378 18.9002 74.5172 20.2563 73.9907 21.6892C72.6489 22.8747 70.7297 23.4462 70.0503 25.3566C68.0971 31.5828 65.3966 37.2545 59.4097 40.6917C56.3525 42.4486 54.4758 45.7579 51.1893 47.2589C50.0259 47.856 49.2446 48.888 48.3445 49.792C47.6481 50.4061 47.0027 51.0628 46.3064 51.6769C42.9435 53.2207 41.5423 56.564 39.4023 59.2421C34.6297 60.7261 33.6107 56.3167 31.2499 54.0309C27.0802 54.3124 22.8766 55.7197 18.8259 53.5107Z" fill="#D4DCE9"/>
<path d="M84.4106 6.12393C94.3548 3.12175 102.142 7.51415 104.044 17.4162C104.392 19.2414 104.97 19.5996 106.694 19.6764C113.343 19.9664 117.98 23.5656 119.194 29.0582C120.451 34.7897 117.81 39.7791 111.679 43.2504C111.025 43.4892 110.456 43.9668 109.709 43.8986C105.046 42.986 102.575 44.2312 100.664 49.3571C98.2952 55.677 89.4973 57.5619 84.1982 53.3657C81.0986 50.9094 78.8312 51.4638 76.0373 52.9563C72.7848 53.144 69.2946 55.353 66.4667 51.8476C65.9912 48.6748 68.6237 47.3699 70.2712 45.4679C72.4112 44.5212 74.6956 44.9903 76.912 44.8197C83.6038 44.3847 84.9371 39.3612 86.0071 34.1074C86.2279 33.2801 86.5591 32.4954 87.111 31.8301C89.6332 28.7768 87.3064 28.7683 85.1409 28.6489C83.0603 28.1627 81.9903 26.0475 79.9777 25.459C74.4238 25.5955 74.1096 21.5613 73.736 17.5783C74.186 14.7382 70.6363 13.7403 70.7467 11.0622C71.1204 10.6187 71.6979 10.1411 72.1564 10.3287C76.4195 12.0771 78.7888 9.14318 81.3704 6.68684C82.279 5.97894 83.5359 7.07917 84.4106 6.12393Z" fill="#D4DCE9"/>
<path d="M21.535 92.3855C19.8451 89.5624 21.5435 86.4237 20.7198 83.5239C21.9936 79.4556 21.3567 76.5216 16.4822 75.7455C15.3273 75.5579 14.2827 74.6367 13.1958 74.0568C13.0174 73.2465 13.5354 72.9395 14.1639 72.7092C15.7264 72.5642 17.1191 72.9054 18.1297 74.2188C21.6369 75.1144 23.8958 77.0163 22.8258 80.9737C21.7133 85.0847 23.3863 86.944 27.2927 87.541C28.3117 87.6945 29.4836 87.9504 30.146 89.008C29.4242 90.3726 28.4731 89.4856 27.6154 89.3406C25.9169 88.9142 24.2185 88.7948 22.5286 89.4259C22.4861 89.7415 22.4437 90.0485 22.4012 90.3641C21.9087 90.9526 22.3757 91.9505 21.535 92.3855Z" fill="#2F2D2E"/>
<path d="M53.0324 7.76985C51.2321 5.20264 48.0136 4.44356 45.9585 2.20045C48.5826 0.750535 51.4359 0.622601 54.3317 0.733478C58.0513 0.179097 61.7708 0.187626 65.4904 0.724949C67.1208 0.622601 68.7768 0.341147 70.1355 1.62902C69.66 2.52455 68.8617 2.98512 67.9276 3.25804C64.1061 3.47979 60.3272 2.51603 56.5057 2.82307C55.2404 2.8316 53.9581 2.58426 52.7267 2.97659C52.4719 4.52032 54.527 5.10029 54.2298 6.64403C54.0345 7.23253 53.6439 7.61633 53.0324 7.76985Z" fill="#262A2D"/>
<path d="M18.826 53.5108C23.208 54.0907 27.5305 53.289 31.8614 52.8711C32.0822 54.6707 30.3498 54.6366 29.4921 55.4212C28.8892 55.7624 28.2353 56.2059 27.5729 56.1547C23.3778 55.8392 20.2018 57.5791 17.7645 60.9054C17.3145 60.9736 16.8983 60.8968 16.5077 60.6751C15.5481 59.1654 16.8219 58.2187 17.3994 57.0929C18.3165 56.078 18.8345 54.901 18.826 53.5108Z" fill="#262A2C"/>
<path d="M98.9067 78.3896C102.405 73.6476 104.851 68.2914 107.671 63.1484L107.968 63.2849C107.713 69.8863 103.679 74.5516 99.8324 79.3108C99.3144 79.2084 99.0086 78.9014 98.9067 78.3896Z" fill="#2F2D2E"/>
<path d="M109.708 43.8985C110.074 42.7812 110.642 42.3035 111.679 43.2503C111.993 48.5297 110.303 53.5788 109.895 58.7729C108.987 59.2335 108.757 58.4062 108.35 57.9371C109.071 53.2888 110.057 48.6576 109.708 43.8985Z" fill="#2C2F30"/>
<path d="M21.5349 92.3854C21.8237 91.7116 22.1124 91.0463 22.4011 90.3726C24.0571 94.3129 22.2992 98.3215 22.6559 102.287C22.6474 102.859 22.6389 103.43 22.6389 104.002C23.0805 105.179 23.3268 106.407 23.6835 107.61C23.4966 108.292 23.2249 108.812 22.4011 108.334C21.6369 107.9 20.9235 107.43 20.6772 106.509L20.9575 106.569C21.484 104.863 21.4925 103.166 20.9575 101.46C21.1358 98.4324 21.3311 95.4046 21.5349 92.3854Z" fill="#2F2D2E"/>
<path d="M88.8774 94.6372C89.1747 89.571 92.4866 86.1936 95.5183 82.6541C96.3505 82.4579 96.7072 82.7308 96.4439 83.6093C94.1171 87.2768 91.7817 90.9442 89.4549 94.6116C89.2596 94.6202 89.0728 94.6287 88.8774 94.6372Z" fill="#353334"/>
<path d="M22.3926 108.326C22.7238 108.053 23.0465 107.771 23.3777 107.498C23.6154 107.174 23.9127 107.123 24.2439 107.336C26.4858 108.965 28.7786 107.063 31.046 107.43C31.4876 108.036 32.4557 107.584 32.8294 108.317C29.3476 109.494 25.8743 111.174 22.3926 108.326Z" fill="#424041"/>
<path d="M43.0878 115.115C42.3405 112.266 44.5654 109.375 42.9774 106.535C43.1218 106.202 43.368 105.997 43.7162 105.912C46.5016 108.974 44.9136 112.019 43.6822 115.064C43.5209 115.388 43.3256 115.405 43.0878 115.115Z" fill="#131213"/>
<path d="M16.4396 60.4445C16.8812 60.5042 17.3143 60.5639 17.7559 60.6236C18.5627 63.9414 16.8642 66.2442 14.6733 68.3509C13.892 68.4617 13.5183 68.0012 13.2891 67.353C14.1128 65.0843 14.945 62.8156 15.7688 60.5469C15.9301 60.0948 16.1509 60.0607 16.4396 60.4445Z" fill="#393738"/>
<path d="M88.6737 104.812C88.8945 106.467 89.387 108.13 87.9858 110.859C86.7715 106.16 86.746 102.467 87.8075 98.7056C89.0813 100.599 87.6716 102.876 88.6737 104.812Z" fill="#333132"/>
<path d="M43.0881 115.115C43.2919 115.106 43.4872 115.089 43.6911 115.055C43.5807 117.034 43.4703 119.021 43.3599 121C42.9777 120.966 42.5871 120.923 42.1964 120.889C41.8652 118.927 41.5765 116.974 43.0881 115.115Z" fill="#0F0F0F"/>
<path d="M13.2806 67.353C13.6033 67.7112 13.9175 68.078 14.2402 68.4362C14.7837 70.0482 14.444 71.6516 14.1893 73.2465C13.8581 73.5109 13.5269 73.7753 13.1872 74.0397C9.99415 71.771 12.4399 69.5706 13.2806 67.353Z" fill="#080808"/>
<path d="M96.4437 83.6094C96.138 83.2938 95.8238 82.9782 95.5181 82.6541C96.3078 80.9654 97.4373 79.5411 98.9064 78.3896C99.2121 78.6967 99.5179 79.0037 99.8236 79.3108C99.0423 81.0251 97.8619 82.4068 96.4437 83.6094Z" fill="#353435"/>
<path d="M65.4985 0.725117C61.7789 0.725117 58.0594 0.733645 54.3398 0.733645C58.0509 -0.110719 61.7704 -0.366587 65.4985 0.725117Z" fill="#343132"/>
<path d="M108.341 57.937C108.859 58.2185 109.377 58.4914 109.887 58.7729C109.522 60.4019 110.023 62.3976 107.959 63.2932L107.662 63.1567C106.855 61.2804 108.367 59.711 108.341 57.937Z" fill="#3A3939"/>
<path d="M43.7248 105.904C43.7248 106.407 43.4785 106.612 42.986 106.527C42.0943 106.492 41.2027 106.458 40.311 106.424C39.5722 105.733 38.3833 106.544 37.7124 105.623C39.759 104.846 41.8226 103.627 43.7248 105.904Z" fill="#3D3C3C"/>
<path d="M77.6847 3.53972C77.9734 3.48002 78.2706 3.42884 78.5594 3.36914C79.5614 4.23909 81.4127 3.15592 82.0496 4.89582L81.9307 5.15169C82.177 6.44809 81.1665 6.47367 80.3682 6.72101C78.6188 6.64425 76.9459 6.39691 75.8589 4.76789C75.8844 3.48002 77.0987 3.98322 77.6847 3.53972Z" fill="#282627"/>
<path d="M37.7211 105.631C38.5534 105.998 39.6573 105.503 40.3197 106.433C38.6892 106.774 37.0587 107.123 35.4283 107.465C34.4686 107.925 34.3413 107.405 34.4347 106.62C35.5302 106.288 36.6256 105.955 37.7211 105.631Z" fill="#070506"/>
<path d="M77.6847 3.53934C77.1072 3.77815 76.5298 4.01696 75.9523 4.25577C74.5511 5.31336 73.4471 4.84427 72.5045 3.57346C72.4281 2.83144 72.496 2.22588 73.5066 2.50734C75.0691 2.15765 76.2326 3.42846 77.6847 3.53934Z" fill="#0A0809"/>
<path d="M88.8774 94.6369C89.0642 94.6284 89.2596 94.6199 89.4464 94.6113C90.0918 96.4706 89.6077 98.2105 88.8774 99.9163C87.8838 99.234 88.7246 97.9717 88.0197 97.2041C87.7989 96.1721 88.1046 95.3278 88.8774 94.6369Z" fill="#333132"/>
<path d="M88.0282 97.2041C88.9199 97.912 88.4953 99.0464 88.8859 99.9163C88.818 101.545 88.75 103.183 88.6821 104.812C87.2215 102.944 88.5208 100.675 87.8159 98.6967C87.8839 98.202 87.9518 97.6988 88.0282 97.2041Z" fill="#0D0B0C"/>
<path d="M73.5069 2.50739C73.2182 2.75473 72.9294 3.00206 72.6407 3.24087C70.9338 4.43493 69.609 3.7185 68.4116 2.38798C68.9891 2.13211 69.5665 1.88477 70.1525 1.62891C71.282 1.84213 72.6407 1.22805 73.5069 2.50739Z" fill="#0B0A0A"/>
<path d="M80.1899 5.97867C80.8438 5.85927 81.5827 5.91897 81.9308 5.15137C82.7546 5.47547 83.5868 5.8081 84.4105 6.13219C84.3001 7.89768 83.2641 7.61623 82.1431 7.17272C81.243 7.18125 80.2239 7.39448 80.1899 5.97867Z" fill="#394746"/>
<path d="M34.4345 106.62C34.7657 106.902 35.0969 107.183 35.4281 107.464C34.5619 107.746 33.6957 108.036 32.838 108.317C32.2436 108.019 31.6491 107.729 31.0547 107.43C32.1756 107.166 33.3051 106.893 34.4345 106.62Z" fill="#0A0809"/>
<path d="M50.561 46.8493C54.7222 44.1627 58.4757 40.7085 62.1698 37.6295C65.4392 34.9088 68.87 30.09 69.2267 24.6826C72.9462 26.4055 75.1712 29.8341 77.9736 32.5804C79.9522 34.525 81.9819 36.0687 84.7418 36.5293C84.9796 36.8875 85.1324 37.2713 85.2004 37.6892C84.555 41.8428 81.9394 44.0433 78.0415 44.9815C77.6254 44.9303 77.2348 44.7938 76.8866 44.5636C75.6298 42.6787 77.2008 41.4676 78.3982 39.4462C75.6807 40.7255 73.4218 40.9473 71.4431 39.2671C69.0654 37.2457 70.6279 34.9344 71.3243 32.1966C68.4624 33.7148 68.5813 35.9152 68.6238 38.1157C68.6492 39.5912 69.1927 41.4164 66.6876 41.4334C60.5563 40.8535 59.5627 41.6381 58.9767 47.6084C58.9088 48.3163 58.8069 48.9901 58.3653 49.5786C57.6859 50.1159 56.9301 50.1841 56.1234 49.9965C54.4929 48.5636 51.4102 49.698 50.561 46.8493Z" fill="#D4DCE9"/>
<path d="M84.4872 36.6147C82.483 37.4079 80.929 37.152 79.358 35.361C76.1225 31.6765 72.6237 28.2222 69.2354 24.6827C70.3903 23.3949 70.8828 20.9897 73.4899 22.1326C74.6618 25.5783 77.9737 24.2136 80.2581 25.1518C82.7208 26.8491 84.8523 28.8022 85.4808 31.9323C85.5997 33.5869 85.8969 35.2842 84.4872 36.6147Z" fill="#D4DCE9"/>
<path d="M39.3771 59.0542C40.2942 55.1821 42.171 52.1458 46.3066 51.1138C49.1175 52.5637 49.1175 52.5637 46.1028 56.6576C47.2662 58.0649 50.4848 54.5936 50.5697 58.5595C48.1749 61.8943 44.6507 61.357 41.2623 61.2973C39.997 61.0926 38.9015 60.7515 39.3771 59.0542Z" fill="#D4DCE9"/>
<path d="M50.5608 46.8496C51.4525 49.323 55.1381 46.1844 55.6561 49.4168C56.0382 51.9755 55.1296 54.0139 53.1764 55.6429C49.3719 55.3103 48.4718 52.5469 48.0132 49.4168C48.6246 48.3251 48.8964 46.8837 50.5608 46.8496Z" fill="#D4DCE9"/>
<path d="M48.0133 49.4165C49.423 51.5743 50.3656 54.116 52.8793 55.3612C53.3803 57.4081 52.4632 58.0819 50.544 57.7919C50.3147 57.6384 50.1024 57.3825 49.8561 57.3569C47.9963 57.1522 45.8308 59.8218 44.5315 57.8601C42.8926 55.3782 46.3743 55.1138 47.3849 53.7066C48.353 52.359 47.3509 51.6937 46.3149 51.1138C46.3404 50.005 46.9093 49.4421 48.0133 49.4165Z" fill="#D4DCE9"/>
<path d="M39.3769 59.0543C39.3599 60.3763 40.4979 60.3422 41.2877 60.7175C42.7823 61.7836 45.1516 59.5405 46.2725 62.0309C42.4681 63.1994 39.0372 61.9968 35.6659 60.3678C32.4474 59.6087 31.3349 56.5639 29.3223 54.4999C30.163 53.954 31.0122 53.4082 31.8529 52.8623C34.1458 55.2078 35.012 59.2761 39.3769 59.0543Z" fill="#2C2F31"/>
<path d="M53.0322 7.76986C53.3464 7.43723 53.6521 7.1046 53.9664 6.77197C56.4036 7.24106 58.7984 7.51399 61.346 7.20695C64.4032 6.8402 67.5537 7.1643 69.456 10.2944C69.2946 10.9938 69.0059 11.497 68.1652 11.1388C65.0061 9.96179 61.7197 8.95538 58.5012 10.4735C55.2996 11.9832 53.8814 10.6697 53.0322 7.76986Z" fill="#22282B"/>
<path d="M79.9946 25.6637C77.6763 24.7511 73.5152 27.2842 73.4897 22.1328C74.4748 20.5123 72.3008 19.3779 72.8188 17.8256C73.1585 17.1092 73.4897 16.3501 74.5087 16.9301C74.6022 17.0325 74.7805 17.1433 74.7805 17.2457C74.6022 21.7063 76.6657 24.2223 81.1156 24.717C81.1411 25.5187 80.9712 26.0731 79.9946 25.6637Z" fill="#233030"/>
<path d="M74.5089 16.9298C73.9485 17.2283 73.3795 17.5268 72.819 17.8253C72.6662 14.6184 70.0591 13.1344 68.1738 11.1472C68.5305 10.8401 68.8872 10.5416 69.2523 10.2346C70.1865 9.81665 70.713 10.2943 71.0866 11.096C72.3265 12.9809 74.3646 14.3882 74.5089 16.9298Z" fill="#1F302E"/>
<path d="M76.8782 44.2141C77.1584 44.2909 77.4386 44.3676 77.7189 44.4358C77.9821 44.9476 77.8463 45.3058 77.3028 45.4934C74.9505 46.1331 72.2839 44.4614 70.1184 46.4743C69.7873 48.8453 67.6218 49.6811 66.2376 51.1652C63.5456 51.8816 60.8535 52.9136 58.1106 51.3528C57.8219 50.9775 57.7879 50.5767 58.0172 50.1673C59.7835 48.7515 62.0849 49.4679 64.0041 48.6406C65.4733 48.1118 66.8575 47.4636 67.6642 45.9966C68.3436 44.922 69.0315 43.8559 70.3562 43.4806C71.4432 43.1821 72.5642 43.1736 73.6766 43.165C74.8316 43.2418 76.012 43.2589 76.8782 44.2141Z" fill="#2D3133"/>
<path d="M77.7103 45.1777C77.7103 44.9304 77.7188 44.6916 77.7188 44.4442C81.2685 43.344 83.7313 41.135 84.7163 37.4505C85.2598 35.5827 84.7588 33.6637 85.0306 31.7788C85.2683 31.395 85.6165 31.2329 86.0666 31.2841C87.2045 31.9152 86.1855 33.331 87.0771 34.0475C86.143 39.7448 84.5635 44.9304 77.7103 45.9198C77.4216 45.7492 77.3282 45.5871 77.4216 45.4251C77.5235 45.2545 77.6169 45.1777 77.7103 45.1777Z" fill="#212B2A"/>
<path d="M87.0684 34.0473C86.7372 33.2029 86.406 32.3671 86.0833 31.5227C84.9708 30.6442 84.232 29.6549 85.0812 28.1794C86.6353 27.6676 88.3762 26.8574 89.5311 28.5717C90.6945 30.2946 88.6479 31.0963 87.994 32.2989C87.6798 32.8788 87.3826 33.4673 87.0684 34.0473Z" fill="#D4DCE9"/>
<path d="M85.0814 28.1795C85.4126 29.2968 85.7438 30.4056 86.0835 31.5229C85.8372 31.5229 85.5824 31.5229 85.3362 31.5229C85.0559 31.9237 84.7927 31.8982 84.5379 31.4973C83.5868 29.1092 81.9818 27.2328 79.9946 25.6635C80.3683 25.3479 80.7419 25.0324 81.1156 24.7168C82.9923 25.2285 83.7821 27.0026 85.0814 28.1795Z" fill="#2A3635"/>
<path d="M77.7105 45.1779C77.719 45.4252 77.719 45.6726 77.702 45.9199C75.1714 46.1076 72.6407 46.2952 70.1016 46.4828C72.2671 43.8303 75.2308 45.9114 77.7105 45.1779Z" fill="#280613"/>
<path d="M58.2207 50.2014C58.1782 50.5852 58.1358 50.9776 58.1018 51.3614C55.8938 50.969 56.1996 52.9392 55.724 54.0394C53.8812 58.2954 50.9175 61.1526 46.2808 62.0481C44.8966 60.5641 42.7056 62.1334 41.2959 60.7347C44.7182 60.8285 48.0556 60.675 50.5438 57.8007C51.8771 57.5278 52.3781 56.4446 52.8791 55.37C54.5861 53.758 54.2718 51.1908 55.6561 49.4253C56.4968 49.4509 57.3375 49.4765 58.1782 49.5106C58.3905 49.6556 58.467 49.8006 58.416 49.9626C58.3481 50.1161 58.2886 50.2014 58.2207 50.2014Z" fill="#333537"/>
<path d="M22.5283 89.4344C24.2013 88.1636 25.8997 88.2745 27.6151 89.3491C25.9167 89.3747 24.2183 89.4088 22.5283 89.4344Z" fill="#373536"/>
<path d="M20.9404 101.46C22.0189 103.166 22.0529 104.863 20.9404 106.569C20.9404 104.863 20.9404 103.158 20.9404 101.46Z" fill="#191617"/>
<path d="M56.1321 1.71418C54.6375 2.49031 53.024 2.40502 51.4189 2.37944C52.8456 1.10862 54.544 1.83358 56.1321 1.71418Z" fill="#343132"/>
<path d="M76.8779 44.2138C75.7569 44.265 74.636 44.3162 73.515 44.3674C71.7147 43.6765 69.8889 43.1562 67.9272 43.2842C66.475 43.0198 64.6237 42.9515 66.6873 40.8705C69.2435 40.0858 67.2818 38.2436 67.4261 36.9898C67.6554 34.9685 67.6639 33.0836 69.4473 31.6934C70.3984 30.9513 71.3325 30.2776 72.4535 31.1304C73.9226 32.2392 72.6233 32.9727 72.0119 33.8597C71.0183 35.3096 70.1097 37.1178 71.7741 38.4142C73.2093 39.5314 75.137 40.7255 76.9883 38.653C77.6507 37.9109 78.4829 37.1775 79.5019 38.1498C80.6569 39.2585 79.918 40.6402 79.1113 41.0496C77.6761 41.7916 77.26 42.9174 76.8779 44.2138Z" fill="#D4DCE9"/>
<path d="M66.6876 40.8879C65.7365 42.9775 67.316 42.534 68.386 42.5937C69.7278 42.3379 70.2373 42.9349 70.059 44.2398C69.4221 45.1012 68.7767 45.9712 68.1398 46.8326C66.0592 48.2143 65.21 44.8624 63.2908 45.5362C62.4246 47.4808 65.5752 47.6173 64.9722 49.3998C62.8662 50.918 60.4969 50.1589 58.2125 50.193C58.2719 49.9542 58.255 49.7154 58.1615 49.4851C57.4397 41.34 60.2421 38.5084 66.6876 40.8879Z" fill="#D4DCE9"/>
<path d="M84.5378 31.4976C84.801 31.5146 85.0728 31.5231 85.336 31.5231C85.1152 33.4933 86.0239 35.5829 84.7161 37.4422C84.6397 37.1693 84.5632 36.8878 84.4868 36.6149C84.5038 34.9091 84.5208 33.2033 84.5378 31.4976Z" fill="#1D473D"/>
<path d="M64.9804 49.4079C64.5304 49.1179 64.1058 48.7171 63.6132 48.5465C61.2779 47.7448 60.9722 45.7916 62.0082 44.2138C63.1292 42.508 64.335 44.427 65.473 44.9643C66.4751 45.4419 66.8487 46.7895 68.1395 46.8322C67.5196 48.2309 66.3562 48.9388 64.9804 49.4079Z" fill="#D4DCE9"/>
<path d="M70.0675 44.2395C69.507 43.6937 68.955 43.1393 68.3945 42.5934C70.7638 41.2714 71.7659 43.9069 73.5153 44.376C72.3604 44.3333 71.2139 44.2822 70.0675 44.2395Z" fill="#D4DCE9"/>
</g>
<defs>
<clipPath id="clip0_214_2552">
<rect width="119" height="121" fill="white" transform="translate(0.5)"/>
</clipPath>
</defs>
</svg>
